<svg width="290" height="40" viewBox="0 0 290 40" fill="none" xmlns="http://www.w3.org/2000/svg">
<path d="M106.997 16.228C106.997 11.339 107.01 6.44994 106.982 1.56092C106.977 0.931418 107.158 0.804203 107.746 0.808589C111.491 0.83491 115.24 0.751562 118.982 0.84807C121.552 0.913871 124.069 1.37667 126.065 3.24323C127.469 4.55487 128.383 6.13848 128.628 8.09716C128.883 10.1107 128.967 12.122 128.285 14.0544C127.564 16.0942 126.246 17.68 124.321 18.6933C123.568 19.0903 123.531 19.1561 123.863 19.9172C124.84 22.1567 125.989 24.3171 127.414 26.2802C129.367 28.9737 131.548 31.5048 134.289 33.4306C135.877 34.547 137.734 35.0932 139.623 35.4178C142.063 35.8367 144.528 35.8214 146.939 35.2687C149.317 34.7247 151.583 33.8188 153.507 32.2572C154.306 31.6079 155.167 31.8338 155.992 31.8755C156.483 31.9018 156.083 32.301 155.944 32.4546C155.143 33.3429 154.239 34.1193 153.288 34.8409C150.744 36.7711 147.879 38.0323 144.802 38.721C142.032 39.3417 139.215 39.3088 136.396 38.9096C134.117 38.585 131.958 37.8722 129.943 36.815C126.287 34.898 123.407 32.0685 121.068 28.6644C119.79 26.8044 118.724 24.826 117.736 22.7993C117.347 21.9988 116.973 21.196 116.673 20.3603C116.556 20.0379 116.395 19.8734 116.031 19.8997C115.353 19.9501 114.497 19.6299 114.039 20.0269C113.591 20.4108 113.902 21.2859 113.898 21.9439C113.878 24.8721 113.841 27.8024 113.917 30.7284C113.939 31.5969 113.457 31.7439 112.898 31.8075C111.087 32.0181 109.273 32.0444 107.46 31.722C107.032 31.6452 106.949 31.4785 106.949 31.0991C106.958 26.142 106.954 21.185 106.954 16.228C106.969 16.228 106.984 16.228 106.997 16.228ZM113.887 10.319C113.887 11.5386 113.891 12.7603 113.885 13.9798C113.885 14.2825 113.887 14.5194 114.299 14.5128C115.644 14.493 116.997 14.5786 118.335 14.4755C120.422 14.3132 121.291 13.1946 121.591 11.4925C121.75 10.5866 121.689 9.62594 121.489 8.69815C121.259 7.63217 120.021 6.5289 118.945 6.35563C117.427 6.10997 115.905 6.28763 114.386 6.21525C113.993 6.1977 113.876 6.33589 113.882 6.72631C113.904 7.92389 113.891 9.12147 113.889 10.319H113.887Z" fill="#204273"/>
<path d="M160.393 17.0722C160.393 12.4837 160.398 7.89732 160.389 3.30879C160.389 2.69245 160.346 2.07392 160.274 1.46197C160.211 0.928979 160.409 0.80615 160.913 0.810537C163.63 0.832471 166.347 0.821504 169.064 0.821504C170.526 0.821504 171.988 0.790797 173.448 0.832471C175.396 0.889498 177.218 1.42249 178.793 2.61349C180.613 3.98873 181.51 5.87503 181.819 8.14298C182.01 9.54235 181.897 10.8891 181.484 12.1876C181.071 13.4838 180.337 14.6222 179.214 15.4557C178.58 15.9251 178.571 15.9711 179.297 16.3637C181.286 17.4385 182.336 19.1976 182.655 21.3537C183.018 23.7971 182.735 26.19 181.345 28.3176C180.329 29.8705 178.862 30.8378 177.116 31.3883C175.58 31.8753 173.999 31.9718 172.398 31.9608C168.608 31.9389 164.818 31.9433 161.028 31.9652C160.515 31.9674 160.378 31.8402 160.38 31.316C160.402 26.5673 160.393 21.8187 160.393 17.07V17.0722ZM167.238 22.7421H167.235C167.235 23.9638 167.244 25.1855 167.229 26.4072C167.225 26.7472 167.301 26.9051 167.681 26.8985C169.279 26.8722 170.88 26.9139 172.477 26.8524C174.019 26.7932 175.17 25.9268 175.583 24.5977C175.895 23.5887 175.798 22.5447 175.7 21.516C175.652 21.0225 175.47 20.5531 175.196 20.1144C174.458 18.93 173.252 18.7611 172.062 18.6887C170.628 18.601 169.186 18.6799 167.748 18.647C167.294 18.6361 167.225 18.8225 167.231 19.2151C167.251 20.3908 167.238 21.5664 167.238 22.7421ZM167.238 9.73317C167.238 10.8606 167.238 11.9902 167.238 13.1175C167.238 13.4027 167.205 13.6703 167.633 13.6637C169.114 13.6396 170.6 13.701 172.077 13.6067C173.865 13.4926 174.99 12.1371 174.944 10.3232C174.933 9.90864 174.957 9.4941 174.94 9.07955C174.855 6.95636 173.61 5.86407 171.755 5.82897C170.433 5.80484 169.11 5.84433 167.787 5.81362C167.314 5.80265 167.218 5.98031 167.229 6.4168C167.257 7.52225 167.238 8.62771 167.238 9.73317Z" fill="#204273"/>
<path d="M19.0894 15.8281C19.4803 16.2646 19.9973 16.4071 20.3991 16.7274C21.9043 17.9271 22.7775 19.4625 23.0447 21.4058C23.4226 24.1541 23.062 26.7269 21.3027 28.9181C20.0537 30.4732 18.3226 31.3023 16.3765 31.6971C15.2318 31.9296 14.0828 31.9581 12.9251 31.9581C9.13484 31.9559 5.34461 31.9406 1.55438 31.9757C0.926661 31.9823 0.80937 31.7958 0.811542 31.208C0.828919 21.941 0.818058 12.674 0.835435 3.40702C0.835435 2.66566 0.681219 1.93746 0.791994 1.17197C0.841951 0.816644 0.900596 0.827611 1.12649 0.827611C5.35113 0.825418 9.57577 0.783744 13.7982 0.845158C15.2731 0.867092 16.7544 1.13249 18.1011 1.8256C19.9039 2.75558 21.1702 4.18566 21.8153 6.13118C22.1172 7.03924 22.3105 7.98239 22.3366 8.94528C22.4148 11.7725 21.5937 14.1809 19.0915 15.8281H19.0894ZM7.67305 22.746C7.67305 23.9677 7.68174 25.1916 7.66654 26.4133C7.66219 26.7555 7.74907 26.9068 8.12267 26.9024C9.7213 26.8761 11.3221 26.9243 12.9186 26.8498C13.9068 26.8037 14.7778 26.4659 15.4316 25.5754C16.3569 24.3164 16.3309 22.9192 16.1289 21.5243C16.0224 20.7939 15.7661 20.013 15.1015 19.5064C14.389 18.9624 13.5897 18.6817 12.7014 18.6729C11.1939 18.6597 9.68655 18.6817 8.17914 18.6444C7.71432 18.6334 7.66219 18.833 7.66871 19.2146C7.68391 20.3903 7.67523 21.5659 7.67305 22.7438V22.746ZM7.67088 9.70638H7.67523C7.67523 10.8579 7.67523 12.0072 7.67523 13.1587C7.67523 13.4241 7.66436 13.6698 8.04882 13.661C9.59749 13.6237 11.1527 13.7707 12.6948 13.5843C13.7635 13.4549 14.5324 12.9043 15.0515 11.8537C15.4859 10.9741 15.373 10.1143 15.3925 9.237C15.4403 7.09846 14.0372 5.82192 12.0823 5.8285C10.8052 5.83289 9.53016 5.84605 8.25299 5.81973C7.81424 5.81095 7.6535 5.93159 7.66654 6.39658C7.69695 7.49985 7.67523 8.60531 7.67523 9.71077L7.67088 9.70638Z" fill="#204273"/>
<path d="M273.103 0.823833C274.93 0.823833 276.759 0.766806 278.583 0.839187C280.523 0.915955 282.452 1.17258 284.176 2.18372C286.663 3.64012 287.967 5.85104 288.312 8.72216C288.503 10.3102 288.434 11.8477 288.034 13.3897C287.406 15.8089 286.012 17.6119 283.79 18.713C283.232 18.9893 283.199 19.1802 283.499 19.7066C284.75 21.9043 285.94 24.1372 287.163 26.3503C288.023 27.9098 288.881 29.4715 289.778 31.009C290.037 31.4521 289.965 31.621 289.494 31.6955C287.193 32.064 284.895 32.0794 282.597 31.6868C282.417 31.6561 282.339 31.5486 282.256 31.3994C280.762 28.6117 279.268 25.8239 277.762 23.0405C277.256 22.1061 276.715 21.1893 276.211 20.2527C276.059 19.9698 275.868 19.8842 275.564 19.8974C275.062 19.9193 274.556 19.9347 274.059 19.8952C273.568 19.8557 273.446 20.0422 273.451 20.5203C273.47 23.9551 273.451 27.3899 273.473 30.8248C273.477 31.3687 273.364 31.6275 272.773 31.7284C270.801 32.0706 268.842 32.0136 266.878 31.6977C266.479 31.6341 266.492 31.3841 266.498 31.1011C266.676 21.2902 266.533 11.4792 266.559 1.66828C266.559 0.970789 266.728 0.786546 267.419 0.804093C269.313 0.856734 271.209 0.82164 273.103 0.82164V0.823833ZM273.462 10.3277C273.462 11.5494 273.473 12.7711 273.455 13.9928C273.451 14.3679 273.546 14.528 273.953 14.5214C275.208 14.4973 276.466 14.5434 277.719 14.4995C278.67 14.4666 279.598 14.2209 280.245 13.4577C281.22 12.3083 281.466 10.9221 281.218 9.4723C280.903 7.63206 280.238 6.70426 278.39 6.33578C276.865 6.03309 275.295 6.25901 273.744 6.22611C273.377 6.21733 273.466 6.52221 273.464 6.73058C273.457 7.92816 273.462 9.12794 273.462 10.3255V10.3277Z" fill="#204273"/>
<path d="M56.0967 16.548C56.0967 11.7994 56.0967 7.05071 56.0967 2.29987C56.0967 1.27995 56.0945 1.26898 57.1393 1.10229C58.9442 0.814956 60.7536 0.955332 62.5607 1.10229C63.0559 1.14177 62.9734 1.48832 62.9734 1.80636C62.9734 5.3333 62.9669 8.86024 62.9864 12.3872C62.9864 12.6789 62.7497 13.1965 63.2319 13.2404C63.7162 13.2843 64.3135 13.5497 64.7023 12.896C65.6276 11.3344 66.6224 9.81875 67.5347 8.24829C68.6229 6.37077 69.8262 4.56124 70.9796 2.72319C71.0534 2.60694 71.1512 2.49947 71.1946 2.37225C71.5009 1.50367 72.1134 1.0979 73.0126 0.975072C74.8241 0.725028 76.6182 0.828117 78.4123 1.11106C78.7751 1.16809 78.9358 1.35453 78.6969 1.74495C77.865 3.09168 77.0548 4.44937 76.2294 5.7983C75.239 7.41701 74.2529 9.0401 73.2385 10.6435C72.3806 11.9968 71.6312 13.4181 70.6864 14.7144C70.5104 14.9556 70.4474 15.175 70.6559 15.5084C72.2372 18.0658 73.7794 20.6474 75.3345 23.2224C76.918 25.8457 78.5014 28.469 80.0892 31.0901C80.3064 31.4498 80.2282 31.5923 79.8111 31.6823C78.0626 32.0573 76.2902 31.9411 74.5265 31.9433C74.1138 31.9433 73.6794 31.8577 73.2581 31.8095C72.7889 31.7547 72.4609 31.498 72.1894 31.0396C70.758 28.6357 69.2267 26.291 67.8149 23.8739C66.831 22.1872 65.8231 20.518 64.8348 18.8357C64.6328 18.4913 63.3426 18.2062 63.0668 18.4606C62.8952 18.6186 62.9821 18.8532 62.9799 19.0528C62.9756 22.9943 62.9734 26.938 62.9821 30.8795C62.9821 31.3598 62.943 31.5989 62.3283 31.7349C60.86 32.0573 59.4004 31.9915 57.9429 31.8709C56.0967 31.7174 56.101 31.6713 56.101 29.8267C56.101 25.4005 56.101 20.9742 56.101 16.548H56.0967Z" fill="#204273"/>
<path d="M215.662 16.412C215.662 11.7292 215.662 7.04852 215.662 2.36567C215.662 1.12861 215.658 1.09132 216.878 0.975071C218.631 0.806181 220.386 0.843468 222.135 1.0979C222.626 1.17028 222.539 1.50587 222.539 1.81733C222.541 5.32233 222.539 8.82954 222.55 12.3345C222.55 12.6043 222.374 12.9575 222.693 13.1395C223.043 13.3369 224.107 13.0934 224.29 12.8083C225.788 10.4548 227.248 8.07721 228.694 5.69082C229.528 4.31777 230.365 2.94691 231.199 1.57386C231.579 0.946557 232.272 1.065 232.852 0.990424C234.494 0.777667 236.134 0.762314 237.771 1.10009C238.414 1.2317 238.538 1.31724 238.184 1.88751C237.376 3.18599 236.627 4.51737 235.738 5.76759C235.154 6.5901 234.767 7.55299 234.198 8.38647C233.406 9.54457 232.802 10.8167 232.005 11.9661C231.32 12.9509 230.84 14.0651 230.082 15.0039C229.917 15.2079 230.111 15.4075 230.211 15.5654C231.692 17.8925 233.036 20.3053 234.5 22.639C235.977 24.9925 237.3 27.4381 238.838 29.7521C239.144 30.2127 239.34 30.7523 239.663 31.1975C239.935 31.5704 239.735 31.6231 239.455 31.6735C237.682 31.9915 235.897 32.0398 234.105 31.8863C233.788 31.8599 233.466 31.8665 233.151 31.827C232.552 31.7547 232.052 31.5551 231.711 30.9716C230.695 29.2191 229.635 27.4929 228.588 25.7602C227.521 23.9967 226.444 22.2376 225.376 20.4741C225.032 19.9083 224.694 19.3402 224.366 18.7655C224.229 18.5264 224.066 18.419 223.773 18.4102C222.541 18.3707 222.541 18.3575 222.541 19.6275C222.541 23.3869 222.53 27.1464 222.548 30.9058C222.55 31.4454 222.395 31.5945 221.846 31.7283C220.128 32.1473 218.423 31.8972 216.711 31.8358C215.699 31.7985 215.662 31.7371 215.662 30.7391C215.662 25.9642 215.662 21.1914 215.662 16.4164V16.412Z" fill="#204273"/>
<path d="M49.04 31.9522C48.1256 31.9149 47.2046 31.9961 46.3011 31.7175C46.0252 31.632 45.8927 31.5574 45.8058 31.2679C45.2715 29.4934 44.6916 27.7343 44.1659 25.9577C44.0139 25.4423 43.8119 25.2273 43.2298 25.2361C40.1237 25.2734 37.0177 25.2624 33.9117 25.2427C33.3991 25.2383 33.1515 25.326 32.9886 25.9095C32.4803 27.7256 31.8613 29.511 31.2878 31.3095C31.1944 31.6013 30.9512 31.6232 30.7079 31.6956C29.4698 32.0684 28.2014 31.939 26.9416 31.9434C26.3356 31.9456 25.7361 31.9083 25.1431 31.7767C24.7565 31.6912 24.5871 31.4631 24.7434 31.1056C25.217 30.0242 25.4885 28.8749 25.8599 27.7585C26.4702 25.9314 27.0089 24.078 27.5997 22.2443C28.1557 20.5203 28.7487 18.8095 29.3091 17.0877C30.1149 14.6026 30.9056 12.1131 31.7049 9.62586C32.1371 8.27694 32.5759 6.9324 33.0103 5.58348C33.4273 4.28939 33.8509 2.99749 34.2592 1.70121C34.3526 1.40072 34.4308 1.14409 34.8174 1.11777C36.0794 1.02785 37.3327 0.821668 38.6033 0.819475C39.963 0.817282 41.3053 1.02785 42.6564 1.11119C43.2167 1.14629 43.2254 1.63102 43.3471 1.98854C43.8075 3.34843 44.2398 4.7171 44.6764 6.08576C45.2997 8.03128 45.9144 9.98119 46.5422 11.9267C47.6477 15.3615 48.7642 18.7964 49.8697 22.2312C50.8298 25.2098 51.7768 28.195 52.7477 31.1692C52.8672 31.5333 52.7216 31.6254 52.4306 31.6736C51.3076 31.8623 50.1847 32.0268 49.0378 31.95L49.04 31.9522ZM38.5881 7.61454C38.3991 7.70886 38.4209 7.85581 38.3948 7.98083C38.1754 8.98101 37.9951 9.98996 37.728 10.977C37.4 12.1811 36.9656 13.3568 36.6419 14.5631C36.3248 15.741 35.6949 16.807 35.4929 18.0309C35.4039 18.5682 35.1324 19.0837 34.9738 19.6233C34.8305 20.1102 34.9456 20.2001 35.4082 20.1957C37.5064 20.176 39.6068 20.1738 41.705 20.1957C42.2133 20.2001 42.3175 20.1036 42.1503 19.5838C41.1598 16.5087 40.1932 13.427 39.2506 10.3365C38.9812 9.45478 38.814 8.54014 38.5924 7.61235L38.5881 7.61454Z" fill="#204273"/>
<path d="M208.832 31.9564C207.859 31.952 206.885 31.9827 205.936 31.691C205.624 31.5945 205.443 31.5155 205.328 31.1142C204.798 29.2476 204.173 27.4096 203.597 25.5562C203.501 25.2513 203.302 25.2535 203.067 25.2535C199.779 25.2535 196.49 25.2535 193.202 25.2535C192.893 25.2535 192.711 25.2973 192.593 25.7053C192.074 27.5346 191.47 29.3397 190.912 31.1602C190.717 31.7941 190.152 31.7502 189.702 31.8182C188.414 32.0134 187.109 31.9586 185.81 31.9476C185.421 31.9454 185.037 31.7371 184.646 31.7151C184.148 31.6866 184.203 31.3532 184.296 31.0944C185.421 27.9623 186.399 24.7819 187.4 21.6103C188.282 18.8203 189.242 16.0567 190.065 13.2469C190.949 10.2289 192.018 7.26782 193 4.28044C193.297 3.37897 193.623 2.48188 193.838 1.55847C193.925 1.18779 194.185 1.19876 194.361 1.15928C194.863 1.04522 195.382 0.990387 195.897 0.96626C196.575 0.933359 197.255 0.891685 197.926 0.860978C199.09 0.808337 200.265 0.981613 201.436 1.06057C201.638 1.07373 201.844 1.06935 202.042 1.10664C202.4 1.17244 202.656 1.28211 202.806 1.72736C203.527 3.8659 204.127 6.04611 204.857 8.18026C206.238 12.2161 207.476 16.3001 208.823 20.3469C209.989 23.8497 211.082 27.3788 212.229 30.8882C212.409 31.441 212.348 31.5967 211.725 31.7261C210.758 31.9257 209.803 31.952 208.832 31.9542V31.9564ZM198.065 7.64069C198.037 7.69552 197.991 7.74817 197.98 7.80739C197.674 9.459 197.305 11.0974 196.788 12.6964C196.036 15.0236 195.211 17.3266 194.544 19.6801C194.485 19.8885 194.255 20.1912 194.75 20.189C197.007 20.189 199.264 20.1868 201.521 20.1912C201.814 20.1912 201.857 20.1034 201.764 19.8205C201.353 18.5834 200.949 17.3442 200.58 16.0961C199.746 13.2886 198.682 10.5469 198.065 7.64069Z" fill="#204273"/>
<path d="M242.664 16.3463C242.664 11.4354 242.675 6.52441 242.651 1.61126C242.649 1.00369 242.773 0.801901 243.425 0.804095C249.226 0.832609 255.026 0.828222 260.827 0.806288C261.312 0.806288 261.531 1.00589 261.633 1.41385C261.883 2.42719 261.933 3.45369 261.737 4.48457C261.733 4.50651 261.713 4.52625 261.713 4.54818C261.698 5.07459 261.824 5.7655 261.379 6.02651C260.981 6.2612 260.36 6.11644 259.837 6.11644C256.639 6.12083 253.442 6.1296 250.245 6.10767C249.713 6.10328 249.541 6.23708 249.55 6.79419C249.582 8.845 249.578 10.898 249.55 12.951C249.543 13.4664 249.68 13.6156 250.197 13.6112C253.029 13.5849 255.862 13.6178 258.692 13.5827C259.276 13.5761 259.43 13.8305 259.513 14.3175C259.73 15.5896 259.691 16.8574 259.52 18.1273C259.448 18.6538 259.235 18.8994 258.64 18.8928C255.831 18.8599 253.021 18.8884 250.212 18.8665C249.717 18.8621 249.539 18.9674 249.545 19.5092C249.578 21.6521 249.578 23.7972 249.548 25.9423C249.541 26.4907 249.698 26.6398 250.236 26.6354C253.913 26.6113 257.591 26.6245 261.268 26.6201C261.622 26.6201 261.959 26.5872 262.022 27.0829C262.209 28.5305 262.467 29.965 262 31.4236C261.848 31.8951 261.624 31.9544 261.222 31.9544C255.262 31.9478 249.3 31.9434 243.34 31.9609C242.808 31.9609 242.649 31.8381 242.651 31.281C242.675 26.2998 242.664 21.3209 242.662 16.3397L242.664 16.3463Z" fill="#204273"/>
<path d="M92.6581 31.9588C89.6672 31.9588 86.6741 31.9588 83.6832 31.9588C83.2792 31.9588 82.8057 32.0444 83.0989 31.3469C83.1576 31.2109 83.1076 31.0266 83.1076 30.8665C83.1076 21.1126 83.1141 11.3609 83.0946 1.60694C83.0946 0.984019 83.2423 0.804163 83.8744 0.80855C89.652 0.83487 95.4297 0.830483 101.207 0.812936C101.687 0.812936 101.881 0.935765 102.013 1.42269C102.408 2.87251 102.374 4.28504 101.961 5.72828C101.826 6.20205 101.561 6.12528 101.262 6.12528C97.7451 6.12528 94.2285 6.14283 90.7098 6.11212C90.0929 6.10774 89.9518 6.28979 89.9626 6.88858C90.0017 8.82532 89.9756 10.7621 89.9778 12.6988C89.9778 13.3027 90.2891 13.6054 90.9118 13.6069C93.6529 13.6069 96.3941 13.62 99.133 13.5959C99.6087 13.5915 99.8411 13.7143 99.9128 14.2035C100.108 15.5239 100.217 16.8355 99.9584 18.1625C99.8541 18.6977 99.6478 18.9104 99.0592 18.9039C96.2724 18.8666 93.4879 18.9039 90.7011 18.8754C90.1472 18.871 89.9518 18.996 89.9626 19.5926C89.9974 21.7355 89.9887 23.8806 89.967 26.0257C89.9626 26.5127 90.1168 26.6443 90.5882 26.6421C94.2872 26.6245 97.9883 26.6421 101.687 26.6245C102.15 26.6223 102.387 26.7276 102.487 27.2211C102.76 28.5635 102.795 29.9014 102.524 31.2394C102.421 31.7373 102.176 31.9939 101.561 31.9851C98.5922 31.9391 95.623 31.9632 92.656 31.9654L92.6581 31.9588Z" fill="#204273"/>
<path d="M146.717 17.6031C147.353 16.0194 147.321 14.4249 147.264 12.8347C147.249 12.3938 147.399 12.2819 147.807 12.2863C149.452 12.3039 151.096 12.2951 152.742 12.2907C153.016 12.2907 153.251 12.3148 153.279 12.6636C153.342 13.4444 153.259 14.2165 153.155 14.9886C153.118 15.2671 152.901 15.2035 152.731 15.2079C152.206 15.2145 151.68 15.232 151.157 15.2057C150.74 15.1838 150.633 15.3548 150.601 15.7628C150.464 17.489 150.134 19.1823 149.419 20.7681C149.156 21.3471 149.571 21.6432 149.814 21.9701C150.892 23.4286 152.015 24.8521 153.122 26.2888C153.379 26.6222 153.324 26.7713 152.886 26.8679C151.602 27.1508 150.312 27.1596 149.011 27.1025C148.744 27.0916 148.613 26.9271 148.472 26.7384C148.031 26.1506 147.584 25.5672 147.132 24.9881C146.882 24.6679 146.739 24.5758 146.374 24.9925C145.609 25.8655 144.697 26.5849 143.552 26.9424C141.409 27.6092 139.223 27.6553 137.182 26.7889C134.519 25.6593 133.331 23.376 133.179 20.5268C132.994 17.1183 134.456 14.631 137.414 13.0233C137.916 12.7513 138.011 12.6219 137.56 12.0714C135.729 9.8451 135.944 6.02644 139.011 4.46914C141.63 3.13777 144.141 3.56328 146.53 5.14909C146.982 5.44739 147.429 5.7413 147.853 6.08566C148.261 6.41905 148.346 6.7349 148.051 7.1648C147.651 7.74165 147.284 8.34264 146.652 8.71332C146.391 8.86685 146.194 8.93924 145.924 8.70016C145.346 8.1913 144.684 7.7921 143.995 7.46968C142.753 6.88624 141.361 7.37755 140.892 8.63216C140.705 9.13444 140.855 9.6126 141.122 10.0557C141.871 11.3015 142.738 12.4618 143.631 13.6067C144.66 14.9249 145.54 16.3616 146.724 17.6096L146.717 17.6031ZM140.644 23.8147C142.188 23.7291 143.407 23.0338 144.356 21.8121C144.567 21.5402 144.452 21.3603 144.291 21.1453C143.694 20.3513 143.12 19.5376 142.503 18.759C141.771 17.8356 141.172 16.8112 140.355 15.9558C140.194 15.7891 140.09 15.572 139.743 15.7409C137.531 16.8222 136.799 18.7524 137.24 21.1475C137.499 22.5557 139.002 23.9353 140.644 23.8147Z" fill="#BA8D16"/>
</svg>
