<svg width="277" height="61" viewBox="0 0 277 61" fill="none" xmlns="http://www.w3.org/2000/svg">
<path d="M0.84668 28.06C0.995799 27.9997 1.09469 28.1107 1.203 28.171C1.91877 28.5705 2.60472 29.0271 3.31421 29.4345C4.09434 29.8816 4.87133 30.3334 5.64832 30.7868C6.61838 31.3544 7.58216 31.933 8.54909 32.5054C9.93354 33.3234 11.318 34.1399 12.7025 34.9579C13.0054 35.1371 13.3052 35.3226 13.6082 35.5049C13.583 35.627 13.4857 35.581 13.4214 35.581C9.26957 35.5826 5.11777 35.5826 0.965975 35.581C0.926733 35.581 0.887491 35.5731 0.849819 35.5699C0.849819 33.0666 0.849819 30.5633 0.849819 28.0584L0.84668 28.06Z" fill="#0062A3"/>
<path d="M112.392 60.3967C112.132 59.6738 111.868 58.9509 111.614 58.2264C111.419 57.6715 111.238 57.1103 111.053 56.5522C110.937 56.1987 110.741 55.88 110.64 55.5154C110.452 54.8273 110.179 54.1678 109.926 53.5004C109.867 53.345 109.859 53.1706 109.824 52.9883C110.072 52.9249 110.319 52.9613 110.564 52.9534C110.67 52.9502 110.713 53.0089 110.749 53.1135C110.939 53.67 111.146 54.2201 111.337 54.7766C111.705 55.8404 112.061 56.9073 112.428 57.9711C112.538 58.2898 112.601 58.6275 112.829 58.9747C112.978 58.3405 113.237 57.8047 113.353 57.2117C113.447 56.7266 113.673 56.27 113.819 55.7928C114.092 54.8971 114.45 54.0283 114.675 53.1167C114.681 53.0913 114.675 53.0549 114.69 53.0422C114.885 52.8837 115.114 52.9772 115.328 52.9566C115.452 52.9455 115.497 53.0153 115.536 53.1357C115.844 54.0965 116.166 55.054 116.481 56.0132C116.762 56.8725 117.043 57.7317 117.318 58.5926C117.357 58.7147 117.403 58.8272 117.503 59.0191C117.567 58.6465 117.724 58.3928 117.797 58.1106C117.924 57.6128 118.104 57.1356 118.28 56.6537C118.459 56.1606 118.594 55.6501 118.768 55.1523C119.002 54.4881 119.238 53.8222 119.448 53.15C119.493 53.0057 119.55 52.9582 119.679 52.9566C119.796 52.9566 119.914 52.9534 120.032 52.9534C120.47 52.9582 120.473 52.9645 120.327 53.364C119.73 54.997 119.14 56.6315 118.577 58.2755C118.335 58.9794 118.085 59.6817 117.885 60.3983H117.1C116.455 58.4594 115.808 56.5221 115.156 54.5689C115.025 54.6529 115.021 54.7512 114.993 54.8305C114.394 56.6109 113.796 58.3912 113.199 60.1716C113.174 60.2445 113.136 60.3175 113.175 60.3983H112.391L112.392 60.3967Z" fill="#79787C"/>
<path d="M136.945 60.3968C136.84 59.9957 136.892 59.5867 136.89 59.1824C136.878 57.2324 136.879 55.2824 136.878 53.3324C136.878 52.9519 136.88 52.9487 137.272 52.9487C138.174 52.9487 139.075 52.9503 139.978 52.9487C140.386 52.9487 140.79 52.9995 141.173 53.1406C142.408 53.6003 142.675 54.8464 142.129 55.7755C141.945 56.0894 141.673 56.3081 141.325 56.5063C141.529 56.6125 141.697 56.7029 141.866 56.7869C143.036 57.3703 143.157 58.9652 142.085 59.8023C141.724 60.0845 141.3 60.2113 140.859 60.2922C140.779 60.3064 140.666 60.2605 140.636 60.3936H136.949L136.945 60.3968ZM139.283 59.5391V59.536C139.688 59.536 140.093 59.5328 140.498 59.536C140.766 59.5391 141.014 59.4614 141.249 59.3425C141.681 59.1238 141.939 58.7734 141.937 58.2772C141.937 57.7857 141.601 57.3513 141.125 57.1674C140.903 57.0818 140.67 57.0406 140.435 57.0358C139.598 57.02 138.763 57.0184 137.926 57.0073C137.774 57.0057 137.718 57.0691 137.718 57.2181C137.721 57.9157 137.722 58.6149 137.718 59.3124C137.718 59.4852 137.784 59.5407 137.95 59.5375C138.394 59.5296 138.838 59.5344 139.283 59.5344V59.5391ZM139.06 56.2178C139.386 56.2162 139.713 56.213 140.038 56.2178C140.29 56.2209 140.529 56.1686 140.761 56.0719C141.21 55.8848 141.474 55.563 141.504 55.0604C141.535 54.523 141.298 54.152 140.826 53.9269C140.601 53.8191 140.363 53.7525 140.11 53.7509C139.405 53.7493 138.7 53.7493 137.997 53.7398C137.809 53.7367 137.711 53.7779 137.716 53.9998C137.729 54.6578 137.724 55.3141 137.716 55.972C137.715 56.1559 137.773 56.2289 137.963 56.2225C138.327 56.2114 138.692 56.2194 139.058 56.2194L139.06 56.2178Z" fill="#79787C"/>
<path d="M168.715 60.3968C168.709 58.3691 168.703 56.3414 168.697 54.3153C168.697 53.9332 168.698 53.5511 168.693 53.1691C168.692 53.0232 168.747 52.9471 168.897 52.9503C169.993 52.9804 171.1 52.8282 172.183 53.0518C173.475 53.3197 174.453 54.0268 174.933 55.3109C175.675 57.2942 174.663 59.5074 172.608 60.1526C172.484 60.1923 172.355 60.224 172.238 60.2747C172.181 60.3001 172.197 60.3587 172.246 60.3952H172.089C171.988 60.2478 171.916 60.2478 171.775 60.3952H168.715V60.3968ZM169.568 56.6268C169.568 57.5082 169.569 58.3913 169.566 59.2728C169.566 59.4408 169.59 59.5454 169.797 59.5407C170.423 59.5264 171.056 59.5772 171.676 59.5169C172.765 59.4107 173.602 58.8796 174.051 57.838C174.66 56.4286 174.037 54.2519 171.971 53.8365C171.283 53.6986 170.591 53.762 169.9 53.7446C169.569 53.7366 169.566 53.7446 169.566 54.0997C169.565 54.9415 169.566 55.7849 169.566 56.6268H169.568Z" fill="#79787C"/>
<path d="M228.725 60.3967C228.778 60.2017 228.734 60.0035 228.734 59.8085C228.734 57.635 228.731 55.4614 228.731 53.2879C228.731 52.9565 228.734 52.947 229.046 52.947C230.602 52.947 232.157 52.947 233.713 52.9518C234.043 52.9518 234.043 52.9613 234.049 53.2768C234.051 53.356 234.043 53.4353 234.049 53.513C234.066 53.7112 233.964 53.7571 233.788 53.7556C233.161 53.7476 232.534 53.7476 231.906 53.7476C231.239 53.7476 230.574 53.746 229.907 53.7508C229.622 53.7524 229.613 53.7603 229.611 54.033C229.607 54.6656 229.607 55.2981 229.611 55.9307C229.613 56.2034 229.622 56.2097 229.908 56.2113C230.993 56.2161 232.077 56.2161 233.162 56.2192C233.443 56.2192 233.581 56.3656 233.578 56.6584C233.578 56.725 233.578 56.79 233.575 56.8565C233.572 56.9691 233.509 57.0214 233.401 57.0246C233.322 57.0246 233.244 57.0246 233.165 57.0246C232.081 57.0246 230.996 57.0246 229.911 57.0278C229.621 57.0278 229.613 57.0309 229.611 57.3005C229.607 57.9457 229.607 58.5909 229.611 59.2362C229.613 59.5279 229.621 59.5327 229.93 59.5342C231.145 59.5358 232.362 59.5342 233.576 59.5342C234.157 59.5342 234.162 59.5422 234.126 60.1367C234.121 60.2239 234.055 60.3158 234.14 60.3983H228.728L228.725 60.3967Z" fill="#79787C"/>
<path d="M123.689 60.3967C123.633 60.2064 123.62 60.013 123.62 59.8149C123.62 57.6413 123.617 55.4678 123.617 53.2942C123.617 52.9565 123.62 52.9486 123.926 52.9486C125.482 52.947 127.038 52.9486 128.593 52.9534C128.705 52.9534 128.835 52.9153 128.916 53.0374C128.959 53.104 128.937 53.6493 128.893 53.6969C128.819 53.7762 128.722 53.7492 128.634 53.7492C128.045 53.7508 127.458 53.7492 126.87 53.7492C126.177 53.7492 125.484 53.7476 124.791 53.7524C124.509 53.754 124.501 53.7619 124.498 54.0362C124.491 54.6561 124.491 55.2744 124.498 55.8942C124.499 56.2066 124.507 56.2097 124.838 56.2113C125.884 56.2161 126.929 56.2161 127.975 56.2192C128.053 56.2192 128.132 56.2256 128.21 56.2192C128.392 56.2034 128.483 56.2779 128.464 56.4681C128.461 56.4935 128.464 56.5205 128.464 56.5474C128.472 56.8666 128.318 57.0257 128.004 57.0246C126.946 57.0246 125.887 57.0246 124.829 57.0246C124.504 57.0246 124.499 57.0294 124.498 57.348C124.495 57.9679 124.493 58.5862 124.498 59.2061C124.499 59.5263 124.504 59.5327 124.827 59.5327C126.069 59.5358 127.311 59.5327 128.552 59.5358C129.026 59.5358 129.02 59.539 129.017 60.0162C129.017 60.1414 128.929 60.273 129.025 60.3967H123.691H123.689Z" fill="#79787C"/>
<path d="M148.243 60.3967C148.224 60.3792 148.208 60.3491 148.186 60.3459C147.43 60.2128 146.901 59.7403 146.444 59.1585C146.304 58.9809 146.207 58.7732 146.176 58.564C146.125 58.2326 146.031 57.9092 146.033 57.5684C146.039 56.159 146.033 54.7496 146.033 53.3402C146.033 53.2736 146.036 53.2086 146.033 53.142C146.026 53.0104 146.086 52.9628 146.216 52.9486C146.868 52.8741 146.901 52.8994 146.902 53.5526C146.902 54.7908 146.905 56.029 146.902 57.2671C146.902 57.5985 146.948 57.9203 147.039 58.239C147.237 58.9318 147.687 59.363 148.359 59.5659C148.957 59.7467 149.55 59.7197 150.117 59.4486C150.709 59.1664 151.026 58.6956 151.173 58.0345C151.34 57.2877 151.255 56.5474 151.277 55.8054C151.301 55.0429 151.277 54.2771 151.283 53.5146C151.285 53.337 151.189 53.0976 151.349 52.9946C151.531 52.8772 151.781 52.9597 152.001 52.9613C152.09 52.9613 152.145 53.0152 152.15 53.1087C152.153 53.188 152.154 53.2672 152.154 53.3449C152.154 54.5704 152.161 55.7943 152.151 57.0198C152.148 57.5462 152.106 58.0741 151.925 58.5751C151.605 59.4613 151.018 60.0685 150.101 60.3206C150.049 60.3348 150.001 60.3475 149.969 60.3951C149.395 60.3951 148.819 60.3951 148.244 60.3951L148.243 60.3967Z" fill="#79787C"/>
<path d="M193.818 60.3968C193.757 60.3127 193.658 60.3143 193.572 60.2921C192.872 60.1146 192.392 59.6675 192.004 59.0698C191.699 58.599 191.621 58.079 191.611 57.5463C191.591 56.27 191.604 54.9922 191.602 53.7144C191.602 53.5305 191.604 53.345 191.599 53.1611C191.594 53.0089 191.669 52.963 191.812 52.9519C192.457 52.8948 192.473 52.9059 192.473 53.5448C192.473 54.8353 192.478 56.1258 192.47 57.4163C192.467 57.9062 192.603 58.3469 192.847 58.7654C193.034 59.0841 193.299 59.3124 193.633 59.4487C194.245 59.6992 194.87 59.7563 195.507 59.5312C196.058 59.3362 196.443 58.9668 196.653 58.4198C196.801 58.0362 196.864 57.6335 196.864 57.2213C196.864 55.9577 196.864 54.6926 196.864 53.4291C196.864 53.3371 196.868 53.2452 196.864 53.1532C196.854 52.9947 196.936 52.9423 197.079 52.9534C197.091 52.9534 197.105 52.9534 197.118 52.9534C197.848 52.963 197.725 52.8774 197.732 53.5495C197.739 54.6561 197.738 55.7611 197.732 56.8677C197.728 57.5399 197.645 58.1947 197.38 58.8273C197.061 59.5851 196.509 60.0543 195.749 60.3048C195.677 60.3286 195.591 60.3175 195.542 60.3968H193.817H193.818Z" fill="#79787C"/>
<path d="M211.939 60.3968C211.887 60.3239 211.804 60.3271 211.73 60.3064C210.809 60.056 210.222 59.4503 209.916 58.5546C209.787 58.1789 209.73 57.7889 209.73 57.3894C209.73 56.0323 209.73 54.6768 209.73 53.3197C209.73 52.9551 209.734 52.9551 210.092 52.9503C210.118 52.9503 210.143 52.9503 210.17 52.9503C210.597 52.9503 210.599 52.9503 210.6 53.3768C210.6 54.6546 210.602 55.9324 210.6 57.2102C210.6 57.5416 210.614 57.8697 210.71 58.1868C210.996 59.1428 211.655 59.5914 212.648 59.6723C213.047 59.7056 213.422 59.601 213.794 59.4662C214.433 59.2347 214.648 58.6719 214.855 58.1059C215.001 57.7064 214.984 57.2879 214.983 56.8694C214.979 55.6978 214.979 54.5246 214.981 53.353C214.981 52.9582 214.983 52.9582 215.356 52.9535C215.422 52.9535 215.486 52.9519 215.552 52.9535C215.844 52.963 215.851 52.9646 215.851 53.2753C215.852 54.5404 215.863 55.804 215.846 57.0691C215.837 57.7667 215.734 58.4484 215.386 59.0778C215.042 59.6992 214.535 60.0956 213.874 60.3112C213.802 60.335 213.716 60.3223 213.666 60.4H211.941L211.939 60.3968Z" fill="#79787C"/>
<path d="M183.855 60.3967C183.706 60.2778 183.53 60.3381 183.367 60.3317C183.199 60.3238 183.136 60.2525 183.138 60.0892C183.141 59.8133 183.132 59.5359 183.132 59.26C183.13 57.2989 183.129 55.3362 183.127 53.3751C183.127 53.3482 183.127 53.3228 183.127 53.2959C183.132 52.955 183.133 52.9503 183.479 52.9487C185.02 52.9455 186.561 52.9455 188.103 52.9487C188.417 52.9487 188.417 52.955 188.423 53.2832C188.423 53.3101 188.423 53.3355 188.423 53.3625C188.423 53.7493 188.423 53.7509 188.04 53.7509C186.813 53.7509 185.583 53.7477 184.356 53.7461C184.008 53.7461 184.004 53.7461 184.003 54.0822C184 54.7275 184 55.3727 184.003 56.018C184.004 56.343 184.009 56.3319 184.331 56.3461C185.387 56.3953 186.444 56.3319 187.5 56.3493C187.965 56.3572 187.965 56.3525 187.952 56.8328C187.952 56.8725 187.951 56.9121 187.952 56.9517C187.955 57.0801 187.9 57.1483 187.767 57.1451C187.649 57.142 187.531 57.1436 187.414 57.1436C186.395 57.1436 185.376 57.1436 184.358 57.1451C184.009 57.1451 184.004 57.1515 184.004 57.4812C184.004 58.4531 184.011 59.4265 184.014 60.3983H183.857L183.855 60.3967Z" fill="#79787C"/>
<path d="M160.559 60.3968C160.553 58.3691 160.545 56.3415 160.539 54.3122C160.539 53.9428 160.543 53.5734 160.535 53.2056C160.531 53.0201 160.6 52.9488 160.785 52.9503C161.56 52.9567 161.405 52.9091 161.408 53.5401C161.414 55.3855 161.411 57.2293 161.411 59.0746C161.411 59.1793 161.411 59.2855 161.414 59.3901C161.414 59.4868 161.468 59.5328 161.56 59.5344C161.651 59.536 161.744 59.536 161.835 59.536C162.907 59.536 163.979 59.536 165.051 59.536C165.142 59.536 165.235 59.5376 165.326 59.536C165.458 59.5344 165.514 59.6042 165.511 59.731C165.507 59.9529 165.503 60.1733 165.5 60.3953H160.559V60.3968Z" fill="#79787C"/>
<path d="M109.831 45.6241C109.761 45.5005 109.794 45.3657 109.794 45.2373C109.792 38.2284 109.792 31.2195 109.794 24.2105C109.794 23.7127 109.731 23.7682 110.227 23.7682C113.326 23.7682 116.423 23.7682 119.521 23.7682C119.6 23.7682 119.678 23.7745 119.757 23.765C119.986 23.7381 120.114 23.8475 120.215 24.0456C120.537 24.6782 120.869 25.3044 121.204 25.9306C122.758 28.8366 124.315 31.741 125.87 34.647C126.36 35.5618 126.844 36.4813 127.332 37.3961C127.385 37.4959 127.404 37.6228 127.555 37.6973C127.65 37.5165 127.745 37.3358 127.842 37.1551C128.927 35.1432 130.025 33.1378 131.09 31.1148C131.496 30.3427 131.914 29.5754 132.328 28.8081C132.629 28.2485 132.972 27.7047 133.217 27.1213C133.454 26.5553 133.799 26.0543 134.064 25.5058C134.317 24.981 134.64 24.4864 134.888 23.9537C134.962 23.7967 135.083 23.7587 135.238 23.7619C135.526 23.7682 135.813 23.7714 136.102 23.7714C138.99 23.7714 141.88 23.7714 144.768 23.7714C144.859 23.7714 144.951 23.7793 145.042 23.7714C145.193 23.7571 145.262 23.8142 145.25 23.9711C145.243 24.0504 145.25 24.1297 145.25 24.2089C145.25 31.1909 145.25 38.1745 145.25 45.1565C145.25 45.751 145.25 45.6384 144.768 45.6384C142.898 45.6384 141.029 45.6384 139.161 45.6368C138.665 45.6368 138.734 45.6559 138.734 45.2151C138.734 40.3147 138.737 35.4128 138.739 30.5124C138.739 30.3808 138.739 30.2492 138.739 30.1192C138.613 30.0891 138.566 30.1779 138.525 30.254C137.786 31.6285 137.034 32.9982 136.255 34.3521C135.769 35.1987 135.321 36.0707 134.852 36.9268C133.976 38.5264 133.053 40.0975 132.199 41.7099C131.531 42.9734 130.804 44.2068 130.113 45.4577C130.018 45.6321 129.895 45.6432 129.729 45.6416C128.396 45.6368 127.06 45.6051 125.729 45.6543C125.191 45.6749 124.946 45.4957 124.69 45.0296C124.155 44.0515 123.615 43.0733 123.072 42.0983C122.139 40.4241 121.204 38.75 120.278 37.0711C119.675 35.9787 119.097 34.8721 118.462 33.7989C118.121 33.2234 117.801 32.6336 117.498 32.0359C117.211 31.4715 116.842 30.9595 116.554 30.3966C116.509 30.3094 116.43 30.2397 116.341 30.1303C116.288 30.2968 116.308 30.449 116.308 30.5948C116.308 34.8896 116.308 39.1844 116.308 43.4791C116.308 44.0847 116.308 44.6919 116.306 45.2976C116.306 45.6352 116.303 45.6368 115.958 45.6368C114.14 45.6368 112.324 45.6368 110.506 45.6368C110.298 45.6368 110.089 45.6368 109.88 45.6352C109.868 45.6178 109.852 45.6146 109.833 45.6241H109.831Z" fill="#0062A3"/>
<path d="M248.636 39.6267C248.677 39.1908 248.899 38.8135 249.034 38.4076C249.422 37.2328 249.807 36.0581 250.22 34.8912C250.818 33.2028 251.356 31.4938 251.956 29.8054C252.276 28.9017 252.574 27.9917 252.891 27.088C253.144 26.3619 253.364 25.6247 253.663 24.9161C253.767 24.6703 253.787 24.3961 253.888 24.144C254.035 23.773 254.02 23.7683 254.387 23.7683C256.06 23.7683 257.734 23.7714 259.405 23.773C259.589 23.773 259.773 23.781 259.955 23.7667C260.179 23.7508 260.291 23.8142 260.363 24.0616C260.611 24.9066 260.876 25.7516 261.179 26.576C261.521 27.5113 261.837 28.4546 262.171 29.3932C262.468 30.2287 262.742 31.0737 263.006 31.9218C263.13 32.3229 263.317 32.6971 263.453 33.0918C263.665 33.6975 263.846 34.3142 264.05 34.9229C264.138 35.1861 264.249 35.4414 264.348 35.7014C264.579 36.2975 264.7 36.93 264.932 37.5277C265.188 38.1872 265.417 38.8563 265.616 39.5364C265.64 39.6157 265.689 39.6981 265.806 39.7314C265.96 39.0164 266.175 38.3252 266.378 37.6292C266.822 36.0945 267.263 34.5583 267.704 33.0221C267.958 32.1359 268.213 31.2512 268.458 30.3634C268.715 29.4296 269.004 28.5038 269.269 27.5716C269.541 26.6172 269.776 25.6533 270.06 24.7021C270.128 24.4769 270.219 24.2502 270.242 24.0061C270.258 23.8428 270.373 23.7588 270.541 23.7619C270.815 23.7667 271.09 23.773 271.365 23.7746C273.063 23.7794 274.763 23.7825 276.461 23.7873C276.59 23.7873 276.724 23.7588 276.877 23.8428C276.775 24.1947 276.68 24.5546 276.567 24.9097C276.147 26.224 275.736 27.5399 275.292 28.8462C275.113 29.3741 274.906 29.9005 274.738 30.4252C274.441 31.3511 274.138 32.277 273.864 33.2123C273.754 33.5865 273.601 33.9432 273.47 34.3094C273.327 34.7073 273.292 35.137 273.132 35.5317C272.892 36.1215 272.719 36.7382 272.529 37.3422C272.23 38.2966 271.903 39.2447 271.621 40.2054C271.362 41.0885 271.118 41.9842 270.776 42.8451C270.506 43.5236 270.319 44.2338 270.065 44.9187C270.001 45.0915 270.01 45.2691 269.944 45.4419C269.881 45.6036 269.814 45.6417 269.674 45.6417C269.465 45.6417 269.257 45.6417 269.046 45.6417C266.902 45.6417 264.759 45.6432 262.615 45.6432C262.231 45.6432 262.221 45.6464 262.088 45.2834C261.821 44.5557 261.564 43.8232 261.306 43.0924C260.895 41.9192 260.509 40.7365 260.069 39.5744C259.795 38.8483 259.595 38.0969 259.31 37.3771C259.022 36.6542 258.793 35.9122 258.536 35.1782C258.131 34.0256 257.726 32.8731 257.324 31.7189C257.294 31.6333 257.285 31.5413 257.264 31.4526C257.274 31.3812 257.302 31.2956 257.208 31.2687C257.151 31.2528 257.09 31.2845 257.068 31.3543C257.013 31.4748 257.021 31.6222 256.913 31.7189L256.897 31.7284V31.7474C256.92 31.8283 256.93 31.906 256.84 31.9535L256.822 31.9631V31.9837C256.834 32.0645 256.844 32.1454 256.754 32.1929L256.74 32.2135C256.687 32.5385 256.544 32.835 256.448 33.1473C256.191 33.986 255.884 34.8104 255.596 35.6395C255.301 36.4877 254.99 37.3327 254.682 38.1761C254.616 38.3569 254.569 38.5455 254.514 38.7294C254.316 39.3778 253.999 39.985 253.82 40.635C253.618 41.3738 253.26 42.0524 253.065 42.7912C252.891 43.4523 252.648 44.0896 252.414 44.7301C252.34 44.933 252.254 45.1312 252.191 45.3404C252.1 45.6432 252.097 45.6417 251.789 45.6417C249.698 45.6417 247.606 45.6417 245.515 45.6417C245.241 45.6417 244.966 45.6464 244.691 45.6448C244.374 45.6417 244.302 45.583 244.267 45.2723C244.237 44.9948 244.112 44.7554 244.011 44.5018C243.889 44.191 243.839 43.8518 243.732 43.5299C243.18 41.8494 242.627 40.1689 242.093 38.4805C241.856 37.7306 241.626 36.9808 241.376 36.2356C241.087 35.3716 240.82 34.5012 240.542 33.6325C240.343 33.011 240.178 32.3753 239.938 31.7696C239.59 30.8977 239.342 29.9924 239.04 29.1062C238.846 28.5371 238.679 27.9489 238.51 27.3686C238.397 26.9834 238.232 26.6061 238.113 26.2193C237.904 25.5423 237.704 24.8638 237.463 24.1979C237.442 24.1408 237.427 24.0711 237.424 24.0124C237.419 23.8935 237.411 23.7524 237.61 23.7667C237.832 23.781 238.055 23.7746 238.277 23.7746C240.056 23.7746 241.833 23.7746 243.611 23.7746C243.919 23.7746 243.927 23.7699 244.021 24.0933C244.391 25.3679 244.755 26.6426 245.124 27.9172C245.383 28.8145 245.669 29.7039 245.895 30.6092C246.014 31.0848 246.178 31.5461 246.275 32.0328C246.382 32.5718 246.557 33.1093 246.727 33.6388C247.008 34.5139 247.269 35.3922 247.506 36.28C247.647 36.8111 247.808 37.3422 247.983 37.867C248.107 38.238 248.265 38.6153 248.287 39.0259C248.298 39.2367 248.38 39.4444 248.429 39.6521C248.429 39.7361 248.479 39.8043 248.551 39.7964C248.622 39.7885 248.666 39.7155 248.645 39.6283L248.636 39.6267Z" fill="#0062A3"/>
<path d="M162.364 45.6369C158.494 45.6369 154.625 45.6369 150.756 45.6369C150.29 45.6369 150.288 45.6353 150.288 45.1788C150.288 38.2221 150.288 31.2655 150.288 24.3089C150.288 23.7683 150.29 23.7699 150.836 23.7715C158.064 23.7715 165.293 23.7715 172.523 23.7715C172.94 23.7715 173.359 23.781 173.777 23.7683C173.985 23.762 174.044 23.8412 174.042 24.0426C174.034 25.5439 174.037 27.0468 174.034 28.5482C174.034 28.8621 174.029 28.8684 173.703 28.87C171.691 28.8732 169.677 28.8764 167.664 28.8764C164.239 28.8764 160.814 28.8764 157.389 28.8748C157.323 28.8748 157.259 28.8748 157.193 28.8716C157.024 28.8653 156.959 28.9572 156.962 29.1158C156.964 29.2347 156.962 29.3536 156.962 29.4709C156.962 30.2873 156.962 31.1038 156.962 31.9219C156.962 32.3055 156.964 32.3087 157.356 32.3087C162.389 32.3103 167.421 32.3087 172.455 32.315C172.672 32.315 172.957 32.2152 173.085 32.3864C173.187 32.5227 173.121 32.7907 173.121 32.9999C173.122 34.1731 173.122 35.3447 173.121 36.5179C173.121 36.9031 173.121 36.9047 172.736 36.9047C167.638 36.9047 162.539 36.9047 157.443 36.9047C156.931 36.9047 156.964 36.8318 156.962 37.3946C156.962 38.2507 156.961 39.1068 156.962 39.9645C156.962 40.3243 156.964 40.3275 157.331 40.3275C161.37 40.3275 165.41 40.3275 169.449 40.3275C170.953 40.3275 172.455 40.3275 173.959 40.3275C174.05 40.3275 174.142 40.3307 174.234 40.3275C174.359 40.3228 174.433 40.3687 174.427 40.5082C174.423 40.5875 174.427 40.6668 174.427 40.7461C174.427 42.2347 174.427 43.7234 174.427 45.212C174.427 45.2786 174.423 45.3436 174.427 45.4102C174.436 45.5719 174.378 45.6607 174.202 45.6449C174.099 45.6353 173.993 45.6369 173.888 45.6369C170.046 45.6369 166.201 45.6369 162.359 45.6369H162.364Z" fill="#0062A3"/>
<path d="M185.662 28.9128C185.657 29.9528 185.656 30.9944 185.645 32.0344C185.643 32.2405 185.72 32.3182 185.921 32.3119C186.235 32.3024 186.549 32.3103 186.863 32.3103C191.66 32.3103 196.457 32.3103 201.255 32.3135C201.906 32.3135 201.806 32.2374 201.808 32.8842C201.812 34.0827 201.808 35.2813 201.808 36.4814C201.808 36.9348 201.833 36.9047 201.379 36.9047C196.295 36.9047 191.209 36.9047 186.125 36.9047C185.59 36.9047 185.651 36.8349 185.649 37.3898C185.646 38.2729 185.645 39.1559 185.646 40.0374C185.646 40.318 185.652 40.3212 185.922 40.3243C186.197 40.3291 186.472 40.3243 186.747 40.3243C192.041 40.3243 197.334 40.3243 202.628 40.3243C203.153 40.3243 203.095 40.2657 203.095 40.7794C203.095 42.268 203.095 43.7567 203.093 45.2453C203.093 45.629 203.092 45.6306 202.712 45.6306C196.607 45.6306 190.503 45.6322 184.398 45.6322C182.62 45.6322 180.843 45.6322 179.066 45.6306C179.055 45.6131 179.039 45.61 179.021 45.6195C178.948 45.4974 178.983 45.3611 178.983 45.2327C178.981 38.2126 178.981 31.191 178.981 24.171C178.981 24.1314 178.981 24.0917 178.981 24.0521C178.988 23.7635 178.988 23.762 179.292 23.762C182.73 23.762 186.166 23.7651 189.603 23.7651C193.812 23.7651 198.02 23.7635 202.227 23.7651C202.793 23.7651 202.701 23.7303 202.701 24.2518C202.701 25.6739 202.701 27.0976 202.701 28.5197C202.701 28.8748 202.701 28.8732 202.373 28.8732C197.146 28.8732 191.919 28.8716 186.69 28.8732C186.351 28.8732 186.012 28.8336 185.673 28.8891C185.654 28.8716 185.635 28.8764 185.64 28.897C185.654 28.9477 185.613 28.8859 185.66 28.9081L185.662 28.9128Z" fill="#0062A3"/>
<path d="M15.6637 35.5524C15.7265 35.3288 36.0459 0.675757 36.2814 0.399902C36.3473 0.534659 36.3159 0.66466 36.3159 0.785148C36.3191 10.364 36.3206 19.9412 36.3206 29.52C36.3206 31.4177 36.3175 33.3138 36.3144 35.2115C36.3144 35.5619 36.3975 35.5841 35.9675 35.5841C29.2869 35.5841 22.6079 35.5841 15.9274 35.5841C15.8395 35.5841 15.7453 35.6079 15.6621 35.5524H15.6637Z" fill="#0062A3"/>
<path d="M207.062 31.497C207.062 29.0856 207.062 26.6743 207.062 24.2645C207.062 24.2249 207.062 24.1853 207.062 24.1456C207.063 23.7239 207.032 23.7651 207.441 23.7651C209.402 23.7667 211.362 23.7667 213.323 23.7747C213.817 23.7762 213.758 23.716 213.758 24.2201C213.759 28.1852 213.761 32.1518 213.758 36.1168C213.758 36.697 213.783 37.2741 213.88 37.848C214.086 39.0576 214.89 39.8757 216.104 40.085C216.739 40.1944 217.373 40.2261 218.016 40.2213C219.859 40.207 221.702 40.2134 223.545 40.2245C224.017 40.2276 224.488 40.2055 224.953 40.1436C225.833 40.0263 226.595 39.6791 227.125 38.9118C227.323 38.6264 227.383 38.2967 227.483 37.9859C227.687 37.3597 227.684 36.7002 227.684 36.0454C227.678 32.1454 227.679 28.2454 227.678 24.347C227.678 23.762 227.678 23.7651 228.257 23.7667C230.114 23.7699 231.969 23.7715 233.826 23.7731C233.905 23.7731 233.983 23.7731 234.062 23.7731C234.387 23.7794 234.388 23.7794 234.388 24.0917C234.388 28.1106 234.388 32.128 234.385 36.1469C234.385 36.9507 234.38 37.7545 234.355 38.5567C234.328 39.4001 234.214 40.234 233.982 41.0489C233.858 41.4864 233.599 41.8622 233.424 42.276C233.07 43.1225 232.341 43.6616 231.737 44.3021C231.583 44.4638 231.355 44.5097 231.172 44.6239C230.498 45.0408 229.77 45.3056 229.004 45.5006C228.213 45.7004 227.412 45.8304 226.606 45.8399C222.893 45.8827 219.181 45.8684 215.469 45.8526C214.368 45.8478 213.282 45.74 212.218 45.4578C210.934 45.1154 209.769 44.5557 208.857 43.5443C208.689 43.3588 208.531 43.1669 208.397 42.9545C207.988 42.3061 207.55 41.6735 207.393 40.8967C207.303 40.4512 207.214 40.0073 207.156 39.557C207.065 38.8626 207.065 38.1635 207.063 37.4659C207.058 35.4763 207.062 33.4866 207.062 31.4986V31.497Z" fill="#0062A3"/>
<path d="M51.9655 34.6423C51.9655 31.1386 51.9655 27.6334 51.9655 24.1297C51.9655 23.7413 51.876 23.7238 52.3626 23.7254C57.1328 23.7254 61.9046 23.7254 66.6749 23.7254C67.499 23.7254 68.3231 23.7001 69.1456 23.7318C70.4233 23.7793 71.7089 23.7444 72.9662 24.0282C73.4292 24.1329 73.9064 24.1852 74.3506 24.3643C75.4431 24.8035 75.8183 24.8907 76.848 25.9941C77.3895 26.5743 77.7207 27.2909 77.9609 28.0456C78.0802 28.4197 78.1775 28.8002 78.2654 29.1823C78.6217 30.7296 78.7065 32.3055 78.7285 33.8861C78.7489 35.2685 78.7237 36.6526 78.5982 38.0302C78.504 39.0671 78.3266 40.0912 77.9734 41.0757C77.8055 41.5418 77.5543 41.9667 77.3095 42.3979C77.1227 42.7261 76.928 43.0321 76.6894 43.327C76.4807 43.5838 76.2327 43.7788 75.9815 43.9706C74.867 44.8204 73.594 45.2722 72.2174 45.4577C71.0496 45.6147 69.8755 45.6416 68.6982 45.64C63.3519 45.6384 58.0071 45.64 52.6608 45.64C52.1993 45.64 51.9686 45.4133 51.9686 44.9599C51.9686 41.5212 51.9686 38.0826 51.9686 34.6455H51.9655V34.6423ZM54.9086 34.6883C54.9086 34.6883 54.9023 34.6883 54.8992 34.6883C54.8992 37.4024 54.8992 40.1166 54.8992 42.8292C54.8992 43.1351 54.8254 43.1795 55.2367 43.1732C55.2759 43.1732 55.3151 43.1732 55.3544 43.1732C60.1513 43.1732 64.9483 43.1732 69.7452 43.1732C70.1109 43.1732 70.4782 43.1716 70.8424 43.1478C71.4106 43.1114 71.9694 43.0258 72.5157 42.8482C73.1749 42.6342 73.7636 42.306 74.2313 41.7939C74.6347 41.3516 74.9251 40.8284 75.126 40.2624C75.3175 39.7234 75.4306 39.167 75.542 38.6057C75.655 38.035 75.71 37.4627 75.7382 36.8904C75.779 36.0485 75.7523 35.2051 75.7665 34.3617C75.7932 32.8334 75.7194 31.3178 75.3709 29.8212C75.1386 28.8256 74.732 27.9473 73.9723 27.2434C73.4638 26.7741 72.839 26.5759 72.2033 26.4015C71.4153 26.1859 70.5991 26.2002 69.7954 26.197C64.9985 26.178 60.2016 26.1875 55.4046 26.1859C54.8238 26.1859 54.9086 26.178 54.9086 26.7059C54.9055 29.3678 54.9086 32.028 54.9086 34.6899V34.6883Z" fill="#0062A3"/>
<path d="M83.3198 45.6243C83.246 45.5022 83.2805 45.3675 83.2805 45.2375C83.279 38.2143 83.279 31.1926 83.2805 24.1694C83.2805 23.6637 83.2335 23.7255 83.7185 23.7255C90.5168 23.7255 97.3135 23.7255 104.112 23.7255C104.138 23.7255 104.164 23.7255 104.19 23.7255C104.446 23.7266 104.573 23.855 104.572 24.1108C104.572 24.6641 104.57 25.2174 104.569 25.7707C104.569 26.2225 104.598 26.1876 104.135 26.1876C103.456 26.1876 102.776 26.1908 102.096 26.1908C96.9713 26.1908 91.8478 26.1908 86.7228 26.1908C86.6962 26.1908 86.671 26.1908 86.6444 26.1908C86.2629 26.1924 86.2614 26.1924 86.2614 26.576C86.2614 28.6307 86.2614 30.6869 86.2614 32.7415C86.2614 32.8081 86.2645 32.8731 86.2614 32.9397C86.2567 33.0697 86.31 33.1363 86.445 33.13C86.5361 33.1252 86.6287 33.13 86.7197 33.13C92.2748 33.13 97.8315 33.13 103.387 33.1331C103.919 33.1331 103.861 33.0665 103.861 33.6214C103.861 34.2017 103.857 34.7803 103.87 35.3606C103.875 35.535 103.821 35.6016 103.653 35.5889C103.562 35.5825 103.47 35.5889 103.379 35.5889C97.8628 35.5889 92.3454 35.5889 86.8296 35.5889C86.7511 35.5889 86.6726 35.5889 86.5941 35.5889C86.2645 35.5936 86.2614 35.5936 86.2614 35.9424C86.2614 38.0906 86.2614 40.2372 86.2614 42.3854C86.2614 42.5835 86.2676 42.7801 86.2614 42.9783C86.2551 43.1353 86.3226 43.1891 86.4701 43.1796C86.5737 43.1733 86.6789 43.1796 86.7841 43.1796C92.6013 43.1796 98.4185 43.1796 104.236 43.1796C104.776 43.1796 104.699 43.1384 104.699 43.6378C104.699 44.1911 104.699 44.7444 104.696 45.2977C104.694 45.637 104.693 45.6385 104.344 45.6401C103.625 45.6433 102.906 45.6433 102.187 45.6433C95.9651 45.6433 89.7429 45.6433 83.5207 45.6449C83.4689 45.6449 83.4155 45.6401 83.3637 45.6386C83.3527 45.6227 83.3386 45.6195 83.3229 45.629L83.3198 45.6243Z" fill="#0062A3"/>
<path d="M2.07481 11.5197C2.5363 11.7844 2.97581 12.0317 3.40904 12.2886C4.53293 12.956 5.65525 13.6282 6.77757 14.3004C8.71926 15.4625 10.6594 16.6277 12.6026 17.7882C15.0498 19.2499 17.5 20.7101 19.9487 22.1718C20.2187 22.3335 20.4746 22.5174 20.7477 22.6712C20.9219 22.7695 20.9141 22.8693 20.8246 23.0199C20.4808 23.5938 20.1465 24.1741 19.8043 24.7496C19.5171 25.2347 19.2267 25.7198 18.9347 26.2034C18.6742 26.6362 18.4246 27.0801 18.1562 27.505C17.8187 28.0392 17.5361 28.602 17.2143 29.1427C16.8941 29.6801 16.4986 30.1795 16.2255 30.7391C15.9068 31.3939 15.4469 31.9551 15.1251 32.6051C14.954 32.9507 14.7657 33.2947 14.5318 33.5976C14.4188 33.745 14.48 33.9717 14.2853 34.0573C14.0593 33.8338 2.22236 11.9525 2.07324 11.5197H2.07481Z" fill="#0062A3"/>
<path d="M223.349 57.3561C224.071 58.3343 224.757 59.2665 225.449 60.205C225.378 60.2431 225.358 60.2621 225.334 60.2652C224.461 60.3461 224.617 60.5046 224.022 59.6882C223.565 59.0619 223.094 58.4468 222.645 57.8158C222.479 57.5828 222.305 57.4591 221.999 57.4877C221.597 57.5241 221.189 57.5067 220.784 57.5035C220.352 57.5004 220.347 57.4322 220.351 57.9585C220.354 58.5784 220.351 59.1967 220.351 59.8166C220.351 59.9212 220.344 60.0274 220.341 60.1321C220.34 60.2002 220.319 60.2621 220.259 60.3017C220.189 60.3477 219.624 60.3445 219.566 60.2954C219.512 60.251 219.492 60.1892 219.489 60.121C219.484 60.0021 219.481 59.8848 219.481 59.7659C219.478 57.6177 219.476 55.4711 219.475 53.3229C219.475 52.9583 219.476 52.9519 219.837 52.9519C220.765 52.9488 221.694 52.9503 222.622 52.9535C223.204 52.9567 223.75 53.0898 224.268 53.3689C225.105 53.8175 225.414 54.875 225.24 55.628C225.055 56.4286 224.57 56.9407 223.805 57.1991C223.67 57.2451 223.535 57.2943 223.35 57.3593L223.349 57.3561ZM220.355 55.1889H220.354C220.354 55.5963 220.36 56.0038 220.351 56.4128C220.346 56.611 220.407 56.6934 220.616 56.6918C221.36 56.6823 222.104 56.6918 222.848 56.6886C223.127 56.6886 223.391 56.603 223.634 56.4762C224.157 56.2051 224.436 55.7723 224.407 55.1699C224.377 54.5547 224.027 54.1045 223.441 53.9142C223.193 53.8334 222.94 53.7605 222.677 53.7573C221.985 53.751 221.294 53.7573 220.602 53.7494C220.413 53.7478 220.347 53.8207 220.352 54.0062C220.36 54.401 220.355 54.7957 220.355 55.1905V55.1889Z" fill="#79787C"/>
<path d="M37.9796 30.9802C40.5193 32.5085 43.001 34.0004 45.4827 35.4938C45.4183 35.619 45.3304 35.5826 45.2613 35.5826C42.9351 35.5857 40.6088 35.5857 38.2825 35.5841C37.9608 35.5841 37.9561 35.5794 37.9561 35.2671C37.9561 33.91 37.9561 32.5545 37.9561 31.1974C37.9561 31.1483 37.9655 31.0975 37.9765 30.9802H37.9796Z" fill="#0062A3"/>
<path d="M203.297 57.0073C203.297 56.0719 203.297 55.1366 203.297 54.2012C203.297 53.7113 203.339 53.7462 202.862 53.7478C202.273 53.7478 201.685 53.7525 201.098 53.7478C200.815 53.7462 200.815 53.7383 200.806 53.4656C200.806 53.4529 200.806 53.4386 200.806 53.426C200.813 52.9281 200.727 52.9503 201.259 52.9503C202.841 52.9503 204.422 52.9503 206.004 52.9503C206.135 52.9503 206.267 52.9551 206.397 52.9567C206.521 52.9567 206.596 53.009 206.591 53.1438C206.591 53.1564 206.591 53.1707 206.591 53.1834C206.596 53.881 206.621 53.7462 206.072 53.751C205.562 53.7557 205.052 53.751 204.543 53.751C204.174 53.751 204.171 53.7541 204.169 54.1124C204.166 54.4945 204.169 54.8766 204.169 55.2586C204.168 56.7869 204.165 58.3152 204.162 59.8435C204.162 59.9355 204.162 60.0274 204.155 60.1194C204.147 60.2399 204.089 60.316 203.962 60.3239C203.95 60.3239 203.936 60.3239 203.923 60.3271C203.344 60.4 203.298 60.3604 203.298 59.7738C203.298 58.8511 203.298 57.93 203.298 57.0073H203.297Z" fill="#79787C"/>
<path d="M155.831 56.6046C155.831 55.5139 155.831 54.4216 155.831 53.3308C155.831 52.9583 155.834 52.9551 156.187 52.9535C156.772 52.9503 156.702 52.9281 156.702 53.4513C156.703 55.5678 156.702 57.6843 156.702 59.8007C156.702 59.8927 156.697 59.9846 156.702 60.0766C156.71 60.2605 156.627 60.335 156.443 60.3334C155.724 60.3207 155.842 60.3762 155.837 59.7595C155.829 58.7084 155.834 57.6557 155.834 56.6046H155.829H155.831Z" fill="#79787C"/>
<path d="M248.637 39.6268C248.657 39.7133 248.613 39.7857 248.543 39.7936C248.469 39.8014 248.42 39.7338 248.42 39.6504C248.495 39.6772 248.566 39.6504 248.639 39.6284L248.637 39.6268Z" fill="#79787C"/>
<path d="M257.06 31.3489C257.082 31.2797 257.143 31.2466 257.2 31.2639C257.294 31.2907 257.266 31.3772 257.256 31.4464C257.196 31.4024 257.143 31.3457 257.06 31.3489Z" fill="#79787C"/>
<path d="M109.83 45.6242C109.849 45.6148 109.865 45.6195 109.877 45.6352C109.852 45.6651 109.836 45.6636 109.83 45.6242Z" fill="#79787C"/>
<path d="M83.3193 45.6242C83.3366 45.6148 83.3508 45.6179 83.3602 45.6336C83.3382 45.6635 83.3241 45.6635 83.3193 45.6242Z" fill="#79787C"/>
<path d="M256.732 32.2091L256.747 32.1882L256.75 32.2059L256.732 32.2091Z" fill="#79787C"/>
<path d="M256.815 31.9807V31.9584L256.835 31.9489V31.9711L256.815 31.9807Z" fill="#79787C"/>
<path d="M256.89 31.7434L256.889 31.724L256.905 31.7142L256.908 31.7353L256.89 31.7434Z" fill="#79787C"/>
<path d="M185.661 28.9125C185.614 28.8905 185.655 28.9519 185.641 28.9015C185.634 28.8811 185.653 28.8764 185.674 28.8937L185.661 28.911V28.9125Z" fill="#79787C"/>
<path d="M179.02 45.6241C179.038 45.6147 179.053 45.6178 179.065 45.6351C179.042 45.665 179.026 45.6634 179.02 45.6241Z" fill="#79787C"/>
</svg>
