<svg width="139" height="61" viewBox="0 0 139 61" fill="none" xmlns="http://www.w3.org/2000/svg">
<g id="Voka">
<g id="Group">
<path id="Vector" d="M34.5882 6.72769C34.5882 4.90128 34.5949 3.11473 34.5816 1.32817C34.5816 1.03263 34.6684 0.933005 34.9589 0.962892C35.2728 0.996099 35.6769 0.836704 35.8773 1.02599C36.0776 1.21859 35.9407 1.62372 35.9407 1.93587C35.9407 21.3256 35.9407 40.7188 35.9407 60.1085C35.9407 60.4207 35.7871 60.5767 35.4799 60.5767C34.9099 60.5767 34.625 60.2945 34.625 59.73C34.625 58.1659 34.625 56.6018 34.625 55.0378C34.625 54.9381 34.6751 54.802 34.5816 54.7422C34.458 54.6625 34.3745 54.7987 34.281 54.8584C32.8584 55.7816 31.3122 56.3793 29.6358 56.655C28.9646 56.7645 28.2833 56.8011 27.6054 56.7878C26.8273 56.7745 26.0525 56.7546 25.2878 56.5354C24.2292 56.2332 23.2541 55.7949 22.3791 55.1274C21.2971 54.3006 20.5658 53.2246 20.1216 51.9594C19.8378 51.1558 19.7409 50.3157 19.7443 49.4589C19.7476 48.8512 19.7443 48.2269 19.8979 47.6591C20.0548 47.0746 20.3086 46.4968 20.6259 45.9555C21.0266 45.2715 21.5776 44.7269 22.142 44.1956C22.4359 43.9166 22.8099 43.7207 23.1606 43.5048C24.1657 42.8839 25.2811 42.5219 26.4232 42.2762C28.3468 41.8644 30.2837 41.529 32.2039 41.1073C32.9419 40.9446 33.6899 40.8018 34.4112 40.566C34.5615 40.5162 34.5882 40.4597 34.5882 40.3302C34.5882 39.5233 34.5849 38.7197 34.5882 37.9127C34.5882 37.7998 34.5482 37.7268 34.468 37.6437C33.9604 37.1357 33.3159 36.8899 32.6346 36.8003C31.8398 36.694 31.0417 36.5911 30.2336 36.6508C29.5824 36.7007 28.9378 36.7538 28.31 36.9763C27.3282 37.325 26.7839 38.0223 26.5835 39.0119C26.5267 39.2908 26.4633 39.5731 26.5334 39.8686C26.5535 39.9483 26.5601 40.1243 26.4065 40.1343C25.9791 40.1642 25.5149 40.2472 25.1275 40.1708C24.67 40.0812 24.2259 40.0546 23.7817 40.0845C23.1105 40.131 22.4593 39.9151 21.788 39.9948C21.5509 40.0214 21.3071 40.1343 21.0533 39.9583C20.9331 39.8753 20.8797 39.8354 20.8764 39.6893C20.8296 38.3809 21.217 37.1921 21.8982 36.093C22.9301 34.4293 24.503 33.5061 26.3297 32.9482C27.3149 32.6494 28.3167 32.4734 29.3519 32.4202C30.3905 32.3671 31.4258 32.2575 32.4643 32.3638C33.0454 32.4235 33.6398 32.387 34.2142 32.563C34.438 32.6328 34.6016 32.573 34.5983 32.2509C34.5782 30.9093 34.5949 29.5644 34.5882 28.2228C34.5882 27.8642 34.5482 27.5089 34.5281 27.1469C34.3511 27.1469 34.2176 27.2532 34.084 27.3362C32.6781 28.2228 31.1252 28.6711 29.4989 28.9434C28.3568 29.136 27.2113 29.0762 26.0692 29.0464C25.6919 29.0364 25.2878 29.1194 24.9438 29.0132C24.6466 28.9235 24.3461 28.7973 24.0388 28.7242C22.6196 28.3822 21.3339 27.7745 20.1317 26.9443C18.3484 25.7157 17.1695 24.052 16.3681 22.0795C15.984 21.133 15.7636 20.1501 15.5933 19.1439C15.3896 17.9186 15.4063 16.6833 15.4864 15.4679C15.5499 14.5082 15.777 13.5518 16.0775 12.6087C16.2879 11.9512 16.525 11.3169 16.8222 10.6993C17.43 9.42745 18.305 8.35153 19.3636 7.43833C20.5925 6.37901 22.0118 5.65177 23.5947 5.23668C24.0622 5.11381 24.5398 5.03079 24.9973 4.86476C25.1776 4.79834 25.4114 4.86476 25.6284 4.83819C27.0143 4.64891 28.4069 4.64227 29.7827 4.90793C31.3523 5.21011 32.8717 5.66505 34.2209 6.56165C34.3244 6.63139 34.4547 6.65795 34.5882 6.71441V6.72769ZM33.4862 16.9223C33.4862 16.6899 33.4962 16.4541 33.4862 16.2217C33.4762 16.0357 33.4428 15.8531 33.4161 15.6671C33.1222 13.6713 32.3241 11.9645 30.5842 10.7989C30.484 10.7325 30.4139 10.5698 30.317 10.5565C29.7393 10.4801 29.2518 10.158 28.6707 10.0584C27.6822 9.88571 26.7305 9.9156 25.7754 10.158C25.1175 10.324 24.5565 10.6594 23.9821 11.028C23.0971 11.5992 22.5695 12.4161 22.122 13.2828C21.7012 14.0964 21.4341 14.993 21.4073 15.9328C21.3773 16.8725 21.2971 17.809 21.5075 18.7454C21.7379 19.7682 22.1587 20.698 22.7364 21.5681C23.3008 22.4148 24.0722 23.0259 24.9806 23.4343C25.7587 23.7863 26.6036 23.9191 27.4685 23.9059C29.1616 23.8793 30.6143 23.3181 31.7363 22.0296C33.012 20.5652 33.4795 18.8152 33.4895 16.919L33.4862 16.9223ZM34.6417 47.2938C34.6417 46.5367 34.635 45.7762 34.645 45.0191C34.6483 44.7634 34.5515 44.7103 34.3311 44.7933C33.199 45.2117 32.0001 45.3479 30.8313 45.6202C29.7193 45.8792 28.5839 46.0452 27.5119 46.4636C25.8555 47.1078 25.3479 48.5524 25.7987 50.0035C26.2229 51.3683 27.4952 51.903 28.8043 52.0458C29.4822 52.1188 30.1701 52.0657 30.848 51.9163C32.0202 51.6572 33.1255 51.2654 34.0439 50.4684C34.4279 50.1364 34.7085 49.7644 34.6517 49.1833C34.5916 48.559 34.6383 47.9247 34.6383 47.2938H34.6417Z" fill="#EE7248"/>
<path id="Vector_2" d="M18.3254 32.9579C17.9881 33.28 17.6441 33.5921 17.3135 33.9242C14.9291 36.3085 12.5481 38.6928 10.1671 41.0771C10.0101 41.2331 9.85315 41.3925 9.69285 41.5486C9.31883 41.9205 9.31549 41.9238 9.60602 42.3423C12.6783 46.7489 15.754 51.1555 18.8263 55.5621C18.9399 55.7248 19.1736 55.8145 19.1402 56.0801C19.0601 56.1432 18.9499 56.1067 18.853 56.1067C16.7759 56.1067 14.6954 56.1067 12.6182 56.1133C12.4078 56.1133 12.2776 56.0536 12.1641 55.8842C11.239 54.4928 10.2873 53.1214 9.38228 51.7167C8.11662 49.7541 6.78417 47.8348 5.49847 45.8855C5.34152 45.6464 5.26137 45.6796 5.09439 45.849C4.20276 46.7456 3.30444 47.6355 2.39944 48.5188C2.23247 48.6815 2.17236 48.8443 2.17236 49.0701C2.17903 52.6996 2.17236 56.3325 2.18571 59.9621C2.18571 60.324 2.08887 60.4071 1.73822 60.3971C0.863281 60.3705 0.863281 60.3905 0.863281 59.5304C0.86996 40.1539 0.86996 20.7741 0.86996 1.39425C0.86996 0.899464 0.803171 0.949275 1.32413 0.949275C1.89852 0.949275 2.18571 1.22822 2.18571 1.7861C2.18571 5.4057 2.19239 9.02531 2.17903 12.6449C2.17903 13.2858 2.24916 13.9101 2.42949 14.5211C3.08403 16.746 3.74525 18.9709 4.40312 21.1925C4.42316 21.2655 4.41982 21.3618 4.56676 21.3917C4.72371 20.9235 4.81722 20.432 4.96082 19.9605C5.39161 18.5293 5.77231 17.0847 6.18974 15.6502C6.55041 14.4049 6.97786 13.1795 7.28509 11.9243C7.54891 10.8451 7.91291 9.79904 8.20344 8.72976C8.49732 7.6472 8.83461 6.57792 9.12848 5.49536C9.17523 5.31604 9.23868 5.26291 9.40232 5.26291C11.2925 5.26291 13.1826 5.26291 15.0727 5.26955C15.0928 5.26955 15.1162 5.28616 15.1562 5.29944C14.7588 6.50155 14.3614 7.70365 13.964 8.90244C12.6082 12.977 11.249 17.0548 9.89322 21.1294C9.11178 23.4772 8.32701 25.8249 7.55893 28.176C7.46208 28.4749 7.31848 28.5579 7.00791 28.5546C5.51851 28.538 4.02576 28.5546 2.53302 28.5413C2.25918 28.5413 2.17569 28.6177 2.17569 28.8966C2.18571 32.9944 2.18237 37.0922 2.18237 41.19C2.18237 41.2763 2.14898 41.3726 2.25918 41.4955C2.523 41.2265 2.77012 40.9542 3.03728 40.6985C5.54522 38.2943 8.00642 35.8436 10.4509 33.3729C10.8483 32.9711 11.2123 32.8649 11.7266 32.8682C13.9073 32.8848 16.0913 32.8748 18.272 32.8748C18.2887 32.9047 18.3087 32.9313 18.3254 32.9612V32.9579Z" fill="#EE7248"/>
<path id="Vector_3" d="M96.5758 35.8903C97.0534 35.4387 97.5242 35.0236 98.1687 34.9273C98.9569 34.8078 99.8385 34.9339 100.333 35.6645C100.573 36.0198 100.573 36.0099 100.88 35.6944C101.348 35.2129 101.899 34.9074 102.59 34.8941C103.736 34.8675 104.494 35.4719 104.714 36.5943C104.801 37.0393 104.844 37.4909 104.844 37.9425C104.844 39.1446 104.838 40.3467 104.851 41.5488C104.851 41.7879 104.791 41.8776 104.537 41.8676C104.046 41.851 103.552 41.8477 103.058 41.8676C102.797 41.8776 102.72 41.8112 102.724 41.5422C102.74 40.3999 102.73 39.2542 102.73 38.1119C102.73 37.8097 102.704 37.5142 102.61 37.2253C102.483 36.84 102.263 36.684 101.856 36.7072C101.264 36.7371 100.827 37.1887 100.827 37.7699C100.827 39.0284 100.82 40.2903 100.834 41.5488C100.834 41.7913 100.767 41.8776 100.516 41.871C100.002 41.8544 99.4845 41.8544 98.9669 41.871C98.7264 41.8809 98.6797 41.7979 98.6797 41.5754C98.683 40.2936 98.673 39.0085 98.6596 37.7267C98.6596 37.5341 98.6263 37.3348 98.5628 37.1555C98.4626 36.8799 98.2723 36.7006 97.945 36.6973C97.2871 36.6906 96.7895 37.1522 96.7895 37.7898C96.7895 39.0384 96.7829 40.287 96.7962 41.5356C96.7962 41.7946 96.7361 41.8842 96.4656 41.871C95.9513 41.8477 95.4337 41.8577 94.9161 41.871C94.7358 41.871 94.6423 41.851 94.6456 41.6319C94.6523 39.5199 94.6523 37.4079 94.6456 35.2959C94.6456 35.09 94.7224 35.0369 94.9127 35.0435C95.3101 35.0535 95.7109 35.0635 96.1083 35.0435C96.3387 35.0302 96.4222 35.1265 96.4422 35.3225C96.4623 35.5051 96.4823 35.6878 96.5725 35.897L96.5758 35.8903Z" fill="#484445"/>
<path id="Vector_4" d="M75.5075 8.47758C75.955 8.05917 76.3891 7.66732 76.9735 7.50128C78.326 7.1194 79.5015 7.78355 79.7119 9.24799C79.9456 10.8752 79.7653 12.5023 79.8354 14.1295C79.8421 14.3221 79.762 14.3652 79.5883 14.3652C79.0607 14.3586 78.533 14.3486 78.0054 14.3652C77.765 14.3719 77.7149 14.2889 77.7182 14.0664C77.7282 12.8875 77.7182 11.7087 77.7249 10.5298C77.7249 10.2143 77.6915 9.89885 77.5813 9.61327C77.4811 9.35093 77.2807 9.18822 76.9535 9.18158C76.5327 9.17161 76.2321 9.40074 75.9316 9.62323C75.7112 9.78927 75.8281 10.0616 75.8247 10.2807C75.8147 11.5293 75.8147 12.7779 75.8247 14.0265C75.8247 14.2756 75.7479 14.352 75.5041 14.342C74.9865 14.3254 74.4722 14.3221 73.9546 14.342C73.7075 14.352 73.6741 14.2557 73.6741 14.0431C73.6741 12.7613 73.6674 11.4762 73.6541 10.1944C73.6541 10.0018 73.624 9.79923 73.5472 9.62655C73.427 9.35425 73.2366 9.16829 72.8793 9.18158C72.1947 9.20814 71.7806 9.59003 71.7806 10.2509C71.7806 11.5127 71.7739 12.7713 71.7873 14.0332C71.7873 14.2822 71.7138 14.352 71.4701 14.3453C70.9424 14.3287 70.4148 14.332 69.8871 14.3453C69.6935 14.3486 69.6267 14.2955 69.63 14.0929C69.64 12.0142 69.6467 9.9387 69.6367 7.85992C69.6367 7.57434 69.7202 7.49464 69.994 7.51457C70.2845 7.53781 70.5851 7.55109 70.8723 7.51457C71.2496 7.46475 71.4033 7.61087 71.4634 7.96951C71.5368 8.4012 71.5769 8.40784 71.9109 8.07909C72.345 7.65072 72.886 7.42823 73.4737 7.37842C74.4188 7.30204 74.9732 7.62415 75.5108 8.4809L75.5075 8.47758Z" fill="#484445"/>
<path id="Vector_5" d="M118.799 41.6618C118.469 41.2965 118.178 40.9412 118.198 40.4331C118.215 39.9881 118.375 39.6129 118.743 39.3505C118.97 39.1878 118.953 39.0882 118.756 38.9089C117.828 38.0687 117.794 36.8998 118.422 35.9966C118.963 35.2129 119.821 34.8709 120.763 34.9107C121.778 34.9539 122.787 35.09 123.805 35.0535C124.5 35.0302 124.507 35.0502 124.497 35.7442C124.493 36.0198 124.627 36.3851 124.433 36.5445C124.269 36.6773 123.916 36.5844 123.645 36.5877C123.598 36.5877 123.552 36.5877 123.475 36.5877C123.548 36.8899 123.592 37.1788 123.605 37.4743C123.652 38.6532 122.84 39.3705 121.902 39.5763C121.341 39.6992 120.773 39.8387 120.205 39.6095C120.018 39.5332 119.978 39.6992 119.918 39.7889C119.828 39.925 119.811 40.0877 119.932 40.2305C120.112 40.443 120.356 40.4862 120.616 40.4995C121.341 40.536 122.069 40.463 122.793 40.5659C123.071 40.6058 123.338 40.6722 123.605 40.7618C124.877 41.1769 124.81 42.8373 124.109 43.5679C123.521 44.1789 122.777 44.4445 121.972 44.6006C121.074 44.7733 120.165 44.77 119.284 44.5508C118.455 44.3482 117.965 43.9398 117.844 43.0498C117.778 42.5418 118.118 42.1466 118.529 41.8477C118.612 41.7846 118.703 41.7315 118.806 41.6651L118.799 41.6618ZM120.887 43.3819C121.361 43.3819 121.685 43.3653 121.999 43.2358C122.413 43.0631 122.62 42.8307 122.556 42.5384C122.473 42.1632 122.139 42.1831 121.855 42.1466C121.251 42.0702 120.636 42.1898 120.035 42.0636C119.938 42.0436 119.885 42.1134 119.828 42.1698C119.471 42.5185 119.517 42.9104 119.952 43.1694C120.285 43.3686 120.663 43.3852 120.893 43.3852L120.887 43.3819ZM121.762 37.3481C121.762 36.7039 121.481 36.3386 120.987 36.2921C120.225 36.2224 119.871 37.0161 120.025 37.6038C120.125 37.9857 120.292 38.3576 120.776 38.4041C121.391 38.4639 121.762 38.0621 121.758 37.3448L121.762 37.3481Z" fill="#484445"/>
<path id="Vector_6" d="M66.11 26.5258C66.4139 24.955 66.8346 23.4076 67.1686 21.8402C67.222 21.5945 67.3122 21.4948 67.5793 21.5081C68.0135 21.5347 68.4476 21.528 68.8817 21.5081C69.0788 21.4982 69.1355 21.5779 69.1756 21.7439C69.5296 23.2914 69.9504 24.8222 70.1975 26.3929C70.2042 26.4361 70.2008 26.4859 70.2943 26.5058C70.3311 26.28 70.3878 26.0542 70.4012 25.8251C70.4647 24.9119 70.6951 24.0286 70.8587 23.132C70.9389 22.6837 71.0257 22.2387 71.1092 21.7904C71.1359 21.641 71.1559 21.5048 71.373 21.5081C71.9574 21.5181 72.5451 21.5114 73.1596 21.5114C72.8023 22.9692 72.4483 24.3972 72.1077 25.8284C71.9407 26.5291 71.7904 27.2331 71.6468 27.9404C71.5901 28.2227 71.4632 28.3322 71.1559 28.319C70.5248 28.2891 69.8903 28.3057 69.2558 28.3123C69.0587 28.3123 68.9686 28.2492 68.9318 28.05C68.7749 27.2198 68.6046 26.3896 68.4309 25.5594C68.3073 24.9683 68.2105 24.3739 68.0736 23.7695C68.0068 24.1979 67.95 24.6296 67.8699 25.0547C67.6762 26.0708 67.4691 27.087 67.2755 28.1031C67.2421 28.2791 67.1552 28.3123 66.9916 28.3123C66.3237 28.3023 65.6525 28.2924 64.9846 28.319C64.7408 28.3289 64.6707 28.1928 64.6439 28.0334C64.4703 26.984 64.1063 25.9812 63.8959 24.9418C63.6755 23.8559 63.3382 22.7999 63.1111 21.714C63.0744 21.5347 63.1345 21.5148 63.2781 21.5148C63.8525 21.5148 64.4269 21.5247 65.0046 21.5114C65.1883 21.5081 65.2284 21.6177 65.2484 21.7373C65.5055 23.2349 65.9096 24.7093 66.0432 26.2302C66.0532 26.3298 66.0899 26.4295 66.1133 26.5291L66.11 26.5258Z" fill="#484445"/>
<path id="Vector_7" d="M63.0443 35.5848C62.9441 34.5653 62.9809 33.6255 62.9608 32.6857C62.9541 32.3935 63.0042 32.2707 63.3348 32.2939C63.8358 32.3271 64.3434 32.3105 64.8476 32.2972C65.0413 32.2939 65.1114 32.3404 65.1081 32.5463C65.1014 35.5681 65.1014 38.5933 65.1081 41.6152C65.1081 41.8344 65.038 41.8975 64.8243 41.8875C64.4602 41.8742 64.0963 41.8609 63.7322 41.8875C63.425 41.9141 63.2714 41.8078 63.2547 41.5056C63.238 41.2433 63.1612 41.2101 62.9508 41.3894C62.1226 42.0934 61.1742 42.2461 60.2058 41.7812C59.3976 41.3927 58.9468 40.6622 58.723 39.8021C58.4492 38.7394 58.4592 37.6868 58.89 36.6607C59.3342 35.6014 60.5731 34.5752 61.9957 34.9571C62.3697 35.0568 62.687 35.2593 63.0343 35.5715L63.0443 35.5848ZM62.9475 38.3875C62.9475 38.0022 62.9408 37.617 62.9475 37.2318C62.9475 37.0791 62.9141 36.9695 62.7772 36.8798C61.9122 36.3153 61.0006 36.7005 60.8236 37.71C60.8069 37.803 60.7802 37.8927 60.7735 37.9823C60.72 38.6564 60.7 39.3305 61.1174 39.9216C61.3445 40.2404 61.8321 40.3766 62.2595 40.2471C62.7104 40.1109 62.9441 39.8087 62.9441 39.3671C62.9441 39.0416 62.9441 38.7129 62.9441 38.3875H62.9475Z" fill="#484445"/>
<path id="Vector_8" d="M89.1423 24.105C89.5831 23.5538 89.9638 23.0789 90.3479 22.6041C90.6117 22.2753 90.8721 21.9466 91.136 21.6145C91.1894 21.5447 91.2529 21.5149 91.343 21.5149C92.0543 21.5182 92.769 21.5149 93.5504 21.5149C93.1163 22.0296 92.7256 22.5011 92.3315 22.966C92.0009 23.3579 91.667 23.7497 91.333 24.1349C91.2161 24.2711 91.1927 24.3674 91.3096 24.5434C92.0677 25.7089 92.8057 26.8878 93.5504 28.06C93.5938 28.1264 93.6907 28.1796 93.6406 28.2659C93.5938 28.3489 93.4903 28.3024 93.4168 28.3024C92.8424 28.3058 92.2647 28.2925 91.6903 28.3091C91.4699 28.3157 91.3597 28.2294 91.2562 28.0501C90.8722 27.3627 90.4647 26.6886 90.084 25.9979C89.9505 25.7588 89.8937 25.782 89.7 25.958C89.2091 26.3963 89.0956 26.921 89.1356 27.552C89.1824 28.3024 89.1456 28.3058 88.3842 28.3058C88.0202 28.3058 87.6562 28.2958 87.2922 28.3091C87.1086 28.3157 87.0251 28.2825 87.0284 28.0667C87.0351 25.0448 87.0351 22.0196 87.0284 18.9977C87.0284 18.762 87.1219 18.7321 87.3189 18.7387C87.8366 18.7487 88.3509 18.7553 88.8685 18.7387C89.1089 18.7288 89.1557 18.8184 89.1557 19.0376C89.1456 20.6382 89.1523 22.2355 89.1523 23.8361C89.1523 23.8925 89.1523 23.949 89.1523 24.1017L89.1423 24.105Z" fill="#484445"/>
<path id="Vector_9" d="M42.3129 5.41579C43.0309 5.41579 43.6988 5.41911 44.3667 5.41579C44.537 5.41579 44.5904 5.46228 44.6338 5.6416C45.1114 7.644 45.6056 9.64308 46.0932 11.6422C46.1433 11.8547 46.2034 12.0639 46.2668 12.2997C46.4639 12.1137 46.4639 11.868 46.5106 11.6621C46.9715 9.66633 47.5325 7.69713 48.0268 5.71133C48.0768 5.50213 48.1603 5.4025 48.4008 5.41247C48.9151 5.43239 49.4327 5.42907 49.9503 5.41247C50.1907 5.40582 50.2809 5.43239 50.1941 5.71133C49.5863 7.66392 48.9919 9.61984 48.3941 11.5758C48.1403 12.4093 47.8765 13.2394 47.6327 14.0763C47.5726 14.2788 47.4824 14.3486 47.2687 14.3452C46.5874 14.332 45.9062 14.332 45.2283 14.3452C45.0145 14.3486 44.921 14.2788 44.8609 14.0763C44.5303 12.9173 44.1897 11.7617 43.8524 10.6061C43.4951 9.39735 43.1378 8.18528 42.7771 6.97653C42.6268 6.46514 42.4699 5.95707 42.3096 5.41579H42.3129Z" fill="#484445"/>
<path id="Vector_10" d="M81.5115 35.8769C81.9089 35.525 82.3163 35.1896 82.8406 35.0235C83.6321 34.7711 84.8076 34.9372 85.2484 35.5515C85.6124 36.0629 85.7794 36.6374 85.7894 37.2418C85.8194 38.7095 85.8094 40.1806 85.8228 41.6517C85.8228 41.8609 85.7026 41.8676 85.549 41.8676C85.0213 41.8676 84.4937 41.8543 83.966 41.8709C83.7356 41.8775 83.6722 41.8111 83.6755 41.582C83.6889 40.4264 83.6755 39.2707 83.6822 38.1151C83.6822 37.8129 83.6588 37.5141 83.582 37.2285C83.5052 36.9529 83.2748 36.6872 82.9074 36.6938C82.1727 36.7105 81.6885 37.1588 81.6885 37.8794C81.6885 39.1047 81.6818 40.3301 81.6952 41.5554C81.6952 41.7978 81.6351 41.8808 81.3846 41.8709C80.8703 41.851 80.3527 41.8576 79.8351 41.8709C79.6448 41.8742 79.5713 41.831 79.5713 41.6218C79.578 39.5231 79.578 37.4211 79.5713 35.3224C79.5713 35.1132 79.6247 35.0335 79.8451 35.0401C80.2325 35.0567 80.6199 35.0567 81.0073 35.0401C81.221 35.0335 81.3112 35.0866 81.3546 35.3124C81.388 35.4917 81.3412 35.7109 81.5149 35.8736L81.5115 35.8769Z" fill="#484445"/>
<path id="Vector_11" d="M52.8724 35.8902C53.5069 35.3422 54.1447 34.9072 54.9863 34.8939C56.2987 34.8674 56.9967 35.5514 57.1503 36.7801C57.3506 38.4006 57.1937 40.0378 57.2338 41.6682C57.2371 41.821 57.1837 41.8708 57.0334 41.8675C56.459 41.8608 55.8846 41.8575 55.3069 41.8675C55.0464 41.8708 55.1065 41.6981 55.1065 41.5587C55.1065 40.3565 55.1065 39.1544 55.1065 37.9523C55.1065 37.7896 55.0965 37.6269 55.0664 37.4642C54.9429 36.7635 54.619 36.5709 53.9344 36.7768C53.3132 36.9628 53.1162 37.2251 53.1162 37.8627C53.1162 39.088 53.1095 40.3134 53.1229 41.5387C53.1229 41.8044 53.0461 41.8808 52.7856 41.8708C52.2813 41.8509 51.7771 41.8608 51.2728 41.8708C51.0925 41.8708 50.9956 41.8442 50.9956 41.6251C50.9956 39.5131 50.9889 37.4011 50.9756 35.2924C50.9756 35.0766 51.0691 35.0434 51.2494 35.0467C51.6468 35.0567 52.0476 35.0699 52.445 35.04C52.6854 35.0234 52.7455 35.1496 52.7822 35.3223C52.819 35.4917 52.839 35.6643 52.8757 35.8902H52.8724Z" fill="#484445"/>
<path id="Vector_12" d="M110.357 38.4507C110.357 37.4113 110.364 36.3752 110.351 35.3359C110.351 35.1034 110.421 35.0337 110.651 35.0436C111.049 35.0602 111.449 35.0569 111.847 35.0436C112.034 35.037 112.107 35.0802 112.117 35.2894C112.124 35.472 112.111 35.7443 112.261 35.8174C112.388 35.8771 112.551 35.6546 112.692 35.5451C113.573 34.8543 114.789 34.6385 115.744 35.3126C116.195 35.6314 116.382 36.1029 116.469 36.611C116.716 38.0256 116.586 39.4569 116.612 40.8815C116.619 41.1936 116.716 41.612 116.555 41.7947C116.372 42.0039 115.941 41.8478 115.617 41.8611C115.337 41.8744 115.053 41.8478 114.772 41.8677C114.532 41.8843 114.482 41.7914 114.482 41.5722C114.492 40.4066 114.482 39.2377 114.488 38.0721C114.488 37.7567 114.442 37.4512 114.351 37.1523C114.238 36.7704 113.717 36.5811 113.286 36.7704C113.079 36.8601 112.879 36.9763 112.685 37.0925C112.515 37.1921 112.488 37.3582 112.491 37.5475C112.498 38.8658 112.488 40.1841 112.501 41.5025C112.501 41.7814 112.445 41.8943 112.141 41.8777C111.636 41.8511 111.132 41.8611 110.628 41.8777C110.411 41.8843 110.347 41.8246 110.351 41.6054C110.361 40.556 110.357 39.5067 110.357 38.454V38.4507Z" fill="#484445"/>
<path id="Vector_13" d="M132.608 38.4406C132.608 37.4145 132.615 36.3851 132.602 35.359C132.602 35.1232 132.645 35.0269 132.905 35.0435C133.269 35.0668 133.633 35.0601 133.997 35.0435C134.248 35.0336 134.408 35.0734 134.385 35.3723C134.378 35.4487 134.422 35.5284 134.435 35.608C134.448 35.6977 134.418 35.8173 134.522 35.8538C134.629 35.8936 134.675 35.7741 134.739 35.7143C135.51 35.0037 136.395 34.7181 137.43 35.0004C138.232 35.2195 138.549 35.8471 138.736 36.5711C138.833 36.9463 138.843 37.3282 138.843 37.7134C138.843 38.9753 138.83 40.2338 138.853 41.4957C138.86 41.8178 138.756 41.8909 138.456 41.8776C137.965 41.8544 137.471 41.861 136.976 41.8776C136.756 41.8842 136.699 41.8178 136.702 41.602C136.712 40.4098 136.699 39.221 136.712 38.0289C136.716 37.7466 136.666 37.4776 136.619 37.212C136.535 36.7238 135.898 36.5312 135.353 36.8268C134.959 37.0426 134.685 37.3049 134.705 37.8495C134.759 39.0849 134.715 40.3235 134.729 41.5621C134.729 41.8012 134.675 41.8876 134.422 41.8776C133.917 41.8577 133.413 41.8577 132.909 41.8776C132.648 41.8876 132.602 41.7946 132.605 41.5588C132.618 40.5194 132.612 39.48 132.612 38.4406H132.608Z" fill="#484445"/>
<path id="Vector_14" d="M45.2078 22.315C45.6987 22.0261 46.0627 21.6077 46.5903 21.4815C47.7124 21.2125 48.7142 21.362 49.2352 22.3814C49.4823 22.8629 49.5591 23.3909 49.5591 23.9289C49.5625 25.307 49.5558 26.6851 49.5658 28.0599C49.5658 28.2857 49.4923 28.3322 49.2853 28.3255C48.7576 28.3123 48.23 28.3089 47.699 28.3255C47.4753 28.3322 47.4285 28.2591 47.4285 28.0499C47.4385 26.8711 47.4352 25.6922 47.4285 24.5133C47.4285 24.2078 47.4018 23.9056 47.3016 23.6101C47.2115 23.3444 47.0612 23.1718 46.7573 23.195C46.5269 23.2116 46.2898 23.1352 46.0694 23.2647C45.6686 23.4972 45.4015 23.7529 45.4282 24.3041C45.485 25.5395 45.4415 26.7781 45.4516 28.0167C45.4516 28.2359 45.4081 28.3222 45.1644 28.3156C44.6367 28.2957 44.1091 28.3023 43.5781 28.3156C43.3744 28.3222 43.3277 28.2525 43.3277 28.0599C43.3277 25.9711 43.321 23.8824 43.3076 21.7937C43.3076 21.5911 43.3443 21.5014 43.5748 21.5114C43.9722 21.5313 44.3729 21.5313 44.7703 21.5114C44.9974 21.5014 45.0876 21.5811 45.1043 21.797C45.1176 21.9564 45.161 22.1125 45.2011 22.315H45.2078Z" fill="#484445"/>
<path id="Vector_15" d="M42.9272 38.6032C42.8637 37.3679 43.2811 36.3186 44.2329 35.5482C45.0644 34.8707 46.0729 34.7412 47.1048 35.0002C48.8714 35.4452 49.7731 37.0624 49.6061 38.8423C49.4659 40.3167 48.7045 41.3628 47.2885 41.8642C46.3935 42.1797 45.5086 42.0502 44.6704 41.6019C43.4682 40.9576 42.994 39.8983 42.9272 38.6066V38.6032ZM45.1045 38.2745C45.0978 38.9154 45.1512 39.3604 45.3817 39.7688C45.7724 40.4562 46.7509 40.4994 47.1249 39.802C47.5991 38.922 47.5523 37.9823 47.1349 37.1023C46.8277 36.458 45.9126 36.4315 45.4652 37.0026C45.1312 37.431 45.1145 37.9457 45.1045 38.2778V38.2745Z" fill="#484445"/>
<path id="Vector_16" d="M111.743 24.9154C111.743 23.876 111.75 22.8399 111.736 21.8005C111.736 21.5714 111.797 21.4984 112.027 21.5116C112.401 21.5316 112.778 21.5382 113.152 21.5116C113.4 21.495 113.473 21.6146 113.51 21.8072C113.523 21.8869 113.513 21.9699 113.533 22.0496C113.613 22.3485 113.663 22.3518 113.907 22.1459C114.612 21.5482 115.393 21.2493 116.348 21.4353C117.26 21.6113 117.754 22.3418 117.874 23.1952C118.105 24.8257 117.938 26.4728 117.988 28.1099C117.991 28.2793 117.931 28.3291 117.764 28.3291C117.2 28.3225 116.639 28.3158 116.074 28.3291C115.854 28.3357 115.834 28.2394 115.834 28.0601C115.841 26.8348 115.841 25.6094 115.834 24.3841C115.834 24.145 115.807 23.9026 115.754 23.6668C115.66 23.265 115.056 23.0425 114.578 23.2218C114.004 23.4377 113.854 23.6535 113.854 24.2678C113.854 25.5032 113.847 26.7418 113.86 27.9771C113.86 28.2228 113.824 28.3291 113.543 28.3158C113.039 28.2893 112.535 28.2959 112.03 28.3158C111.803 28.3225 111.733 28.2594 111.736 28.0269C111.75 26.9875 111.743 25.9515 111.743 24.9121V24.9154Z" fill="#484445"/>
<path id="Vector_17" d="M60.6703 12.0905C60.6703 12.8542 60.6637 13.4819 60.6737 14.1128C60.6737 14.3054 60.6303 14.3785 60.4232 14.3718C59.9791 14.3585 59.5316 14.3585 59.0841 14.3718C58.9004 14.3785 58.837 14.322 58.8537 14.1394C58.8603 14.063 58.8136 13.9833 58.8069 13.9003C58.7735 13.6147 58.6199 13.7309 58.5097 13.8239C58.2025 14.0829 57.8652 14.2855 57.4845 14.4017C56.3724 14.7371 55.2136 14.2921 54.8129 13.1299C54.4556 12.0905 54.9865 11.0677 55.8615 10.6028C56.6262 10.1977 57.4611 10.0914 58.2926 9.97184C58.5364 9.93532 58.5498 9.8689 58.4763 9.66634C58.2459 9.05532 57.8485 9.01879 56.9735 9.1317C56.5895 9.18151 56.2489 9.36415 55.9116 9.54347C55.7346 9.63645 55.6444 9.59992 55.5609 9.42724C55.404 9.10845 55.2604 8.7797 55.0567 8.49412C54.8897 8.26499 55.0066 8.22514 55.1769 8.13548C56.0017 7.70046 56.87 7.4348 57.8117 7.41156C59.4013 7.37171 60.3998 8.11223 60.6169 9.81245C60.7171 10.6161 60.6503 11.4197 60.6737 12.0905H60.6703ZM58.5564 11.7883C58.5564 11.6621 58.5564 11.5326 58.5564 11.4064C58.5564 11.34 58.5631 11.2769 58.4596 11.257C58.109 11.1939 57.0871 11.6023 56.8867 11.8979C56.6262 12.2764 56.8266 12.7513 57.2774 12.8244C58.0288 12.9472 58.5598 12.5188 58.5598 11.7883H58.5564Z" fill="#484445"/>
<path id="Vector_18" d="M108.144 27.6317C107.696 27.987 107.282 28.2693 106.781 28.422C105.462 28.8172 104.414 27.9538 104.173 27.0007C103.873 25.8152 104.477 24.8423 105.646 24.3973C106.244 24.1681 106.868 24.0818 107.493 23.9789C107.633 23.9556 107.84 24.0254 107.887 23.8361C107.937 23.6202 107.803 23.4243 107.653 23.2915C107.342 23.0192 106.955 23.0258 106.571 23.0823C106.133 23.1454 105.719 23.2915 105.342 23.5173C105.158 23.6269 105.071 23.6069 104.975 23.411C104.814 23.0856 104.624 22.7701 104.434 22.4613C104.354 22.3318 104.37 22.2288 104.48 22.1657C105.709 21.4617 107.035 21.2227 108.404 21.5747C109.43 21.837 109.87 22.6838 109.984 23.6534C110.161 25.1378 110.024 26.6355 110.061 28.1265C110.064 28.2892 110.011 28.3589 109.844 28.3556C109.386 28.349 108.929 28.3523 108.471 28.3556C108.314 28.3556 108.241 28.3124 108.244 28.1364C108.244 27.9903 108.191 27.8442 108.147 27.6383L108.144 27.6317ZM107.94 25.8219C107.94 25.6824 107.94 25.5429 107.94 25.4035C107.94 25.3171 107.93 25.2341 107.803 25.2574C107.322 25.347 106.835 25.4167 106.434 25.7256C106.207 25.8983 106.143 26.1373 106.197 26.4096C106.247 26.6653 106.437 26.7716 106.661 26.8214C107.329 26.9742 107.94 26.4893 107.94 25.8186V25.8219Z" fill="#484445"/>
<path id="Vector_19" d="M67.9737 12.0207C67.9737 12.7214 67.967 13.4221 67.9771 14.1227C67.9771 14.3253 67.9169 14.3817 67.7199 14.3751C67.3225 14.3618 66.9218 14.3485 66.5244 14.3784C66.2272 14.4017 66.1337 14.2622 66.1203 14.0165C66.1036 13.6977 66.0101 13.691 65.7663 13.877C64.9248 14.5179 63.9997 14.8068 63.0146 14.2356C61.8458 13.5582 61.6788 12.0074 62.5604 11.0344C62.9612 10.5928 63.5389 10.3769 64.1333 10.2341C64.6342 10.1146 65.1385 10.0382 65.6461 9.97181C65.8231 9.94856 65.8565 9.91203 65.8031 9.73271C65.6628 9.28109 65.4725 9.14494 65.0116 9.10841C64.3771 9.0586 63.7994 9.22132 63.2584 9.52019C63.0313 9.64637 62.9311 9.58992 62.8309 9.37739C62.684 9.06857 62.5237 8.76306 62.34 8.47415C62.2231 8.28819 62.3066 8.27159 62.4569 8.17529C63.245 7.67386 64.1099 7.47461 65.0316 7.42812C66.7815 7.34178 67.7633 8.16865 67.927 9.88547C67.9938 10.5895 67.937 11.3067 67.937 12.0174C67.9503 12.0174 67.9637 12.0174 67.9771 12.0174L67.9737 12.0207ZM65.8364 11.8347C65.8364 11.6953 65.8364 11.5558 65.8364 11.4163C65.8364 11.32 65.8097 11.2636 65.6962 11.2802C65.1652 11.3566 64.6209 11.4097 64.2302 11.8347C63.8996 12.1901 64.0598 12.7015 64.5274 12.8177C65.232 12.997 65.8398 12.5421 65.8398 11.8347H65.8364Z" fill="#484445"/>
<path id="Vector_20" d="M127.132 39.0982C127.312 40.0512 128.133 40.5626 129.069 40.3733C129.412 40.3036 129.74 40.2173 130.044 40.0645C130.227 39.9715 130.311 40.018 130.398 40.184C130.538 40.463 130.685 40.7419 130.848 41.0076C130.959 41.1869 130.939 41.2865 130.752 41.3895C130.147 41.7249 129.506 41.8942 128.815 41.9905C127.997 42.1034 127.289 41.8909 126.614 41.5157C125.759 41.0375 125.292 40.2471 125.095 39.314C124.871 38.2647 125.085 37.2817 125.629 36.3519C126.708 34.5023 129.696 34.3462 130.758 36.2191C131.102 36.8268 131.219 37.4909 131.206 38.1883C131.189 39.0982 131.202 39.0982 130.297 39.0982H127.132ZM128.234 37.6603C128.548 37.6603 128.865 37.6603 129.179 37.6603C129.309 37.6603 129.399 37.6437 129.402 37.4743C129.409 37.1057 129.152 36.694 128.811 36.5644C128.097 36.2888 127.335 36.6973 127.152 37.4378C127.105 37.6204 127.152 37.6636 127.322 37.6603C127.626 37.6536 127.93 37.6603 128.234 37.6603Z" fill="#484445"/>
<path id="Vector_21" d="M54.933 25.5792C54.3353 25.5792 53.7342 25.5826 53.1364 25.5792C52.9394 25.5792 52.906 25.6191 52.9761 25.8217C53.2767 26.6618 54.1883 27.1599 55.3471 26.7714C55.4106 26.7481 55.4774 26.7282 55.5408 26.705C55.9282 26.5655 56.2154 26.6762 56.4024 27.0371C56.4458 27.1201 56.4825 27.2031 56.5293 27.2828C56.7998 27.7709 56.8065 27.7776 56.2688 28.0366C55.7445 28.2856 55.1902 28.3986 54.6091 28.4716C53.7876 28.5712 53.0596 28.3753 52.385 27.9669C51.5769 27.4787 51.136 26.7349 50.929 25.8183C50.6451 24.5465 50.9457 23.4042 51.7372 22.4345C52.4451 21.5678 53.457 21.2523 54.5824 21.4117C56.1553 21.6375 56.8833 22.7699 57.0135 24.2078C57.0469 24.5897 57.0436 24.9749 56.9968 25.3601C56.9768 25.5394 56.9067 25.5925 56.7297 25.5892C56.1319 25.5792 55.5308 25.5859 54.933 25.5859V25.5792ZM54.0414 24.1181C54.3353 24.1181 54.6291 24.0982 54.9197 24.1248C55.2136 24.1513 55.2169 24.0085 55.1802 23.7927C55.07 23.1651 54.6993 22.9293 53.8978 22.9857C53.467 23.0156 52.9661 23.5337 52.9327 23.962C52.9193 24.138 53.0195 24.1148 53.1264 24.1148C53.4303 24.1148 53.7375 24.1148 54.0414 24.1148V24.1181Z" fill="#484445"/>
<path id="Vector_22" d="M75.9812 25.5793C76.1348 26.5921 77.1834 27.1666 78.3823 26.7715C78.6394 26.6884 78.9033 26.4062 79.127 26.5257C79.334 26.6386 79.4342 26.9641 79.5544 27.2098C79.8884 27.8839 79.9685 27.6515 79.294 28.0333C78.6227 28.4185 77.848 28.5746 77.0933 28.5016C75.4068 28.3422 74.1712 27.2928 73.9308 25.5129C73.7671 24.3008 74.0944 23.2316 74.8658 22.3316C75.3668 21.7472 76.0781 21.4151 76.8829 21.3753C78.793 21.279 80.0554 22.4811 80.0554 24.3838C80.0554 24.6628 80.0487 24.9451 80.0554 25.224C80.062 25.4731 79.9986 25.5893 79.698 25.586C78.4658 25.566 77.2369 25.5793 75.9779 25.5793H75.9812ZM77.1066 24.1182C77.4205 24.1182 77.7378 24.1182 78.0517 24.1182C78.1385 24.1182 78.2554 24.1414 78.242 23.992C78.2153 23.65 78.1585 23.2946 77.8179 23.1286C77.0498 22.7534 76.2317 23.019 75.9912 23.9256C75.9445 24.1049 76.0146 24.1215 76.1582 24.1215C76.4721 24.1182 76.7894 24.1215 77.1033 24.1215L77.1066 24.1182Z" fill="#484445"/>
<path id="Vector_23" d="M89.1752 39.0982C89.2887 40.0413 90.3306 40.6822 91.4193 40.3102C91.6664 40.2272 91.9235 40.1674 92.1573 40.0612C92.3076 39.9915 92.3543 40.0379 92.4211 40.1575C92.5948 40.4829 92.7751 40.8084 92.9655 41.1271C93.0256 41.2268 92.9922 41.2699 92.912 41.3197C92.331 41.6717 91.7065 41.881 91.0286 41.9839C90.4943 42.0669 89.99 42.0304 89.4857 41.8743C88.1967 41.4659 87.3785 40.6158 87.1615 39.2709C86.9611 38.0389 87.1448 36.8832 88.0264 35.9235C88.9648 34.9008 90.1269 34.6816 91.4226 35.0701C92.5313 35.4055 93.1324 36.4947 93.2259 37.5706C93.2593 37.9758 93.2193 38.3875 93.236 38.796C93.246 39.0484 93.1458 39.1081 92.9054 39.1048C91.6631 39.0949 90.4208 39.1015 89.1785 39.1015L89.1752 39.0982ZM90.3239 37.6603C90.6178 37.6603 90.9117 37.6437 91.2022 37.6636C91.4393 37.6802 91.4794 37.5839 91.4493 37.3814C91.3558 36.777 90.9651 36.4715 90.3106 36.4947C89.7596 36.5146 89.2486 36.9762 89.1952 37.481C89.1785 37.6437 89.252 37.657 89.3722 37.657C89.6894 37.657 90.0067 37.657 90.3239 37.657V37.6603Z" fill="#484445"/>
<path id="Vector_24" d="M70.4948 39.098C69.9071 39.098 69.3227 39.098 68.7349 39.098C68.5546 39.098 68.4644 39.088 68.5546 39.3437C68.8284 40.1241 69.6099 40.5525 70.4381 40.3865C70.8121 40.3134 71.1761 40.2337 71.5067 40.0544C71.6469 39.978 71.6904 40.0444 71.7438 40.1474C71.9007 40.4363 72.0544 40.7285 72.2213 41.0141C72.3349 41.2067 72.2714 41.3129 72.0878 41.4159C71.49 41.7513 70.8622 41.9173 70.1742 41.9904C69.306 42.08 68.5379 41.904 67.8366 41.4192C66.9717 40.8215 66.5643 39.9714 66.4474 38.9386C66.3505 38.0785 66.5008 37.2849 66.9016 36.5344C67.4893 35.4352 68.7383 34.8109 69.8603 34.9006C71.9375 35.0666 72.5453 36.4912 72.6187 37.9922C72.6722 39.098 72.6588 39.1013 71.5534 39.1013C71.2028 39.1013 70.8488 39.1013 70.4982 39.1013L70.4948 39.098ZM69.6266 37.6601C69.9305 37.6601 70.2343 37.6535 70.5382 37.6601C70.7052 37.6668 70.7687 37.6136 70.7586 37.4443C70.752 37.2915 70.7253 37.1521 70.6618 37.0093C70.4447 36.5045 69.837 36.4447 69.336 36.5211C68.9587 36.5776 68.5179 37.1255 68.5012 37.4775C68.4911 37.6502 68.588 37.6601 68.7182 37.6568C69.0221 37.6535 69.326 37.6568 69.6299 37.6568L69.6266 37.6601Z" fill="#484445"/>
<path id="Vector_25" d="M100.232 26.7318C100.526 25.5928 100.807 24.5036 101.09 23.4144C101.241 22.8399 101.401 22.2687 101.541 21.6909C101.568 21.578 101.568 21.5083 101.715 21.5116C102.346 21.5215 102.981 21.5149 103.655 21.5149C103.298 22.5975 102.951 23.6501 102.607 24.7028C102.246 25.8152 101.885 26.9277 101.538 28.0435C101.478 28.2394 101.404 28.3191 101.187 28.3124C100.543 28.2958 99.8949 28.2992 99.2504 28.3124C99.06 28.3124 98.9665 28.2726 98.8997 28.0767C98.2018 25.968 97.4972 23.866 96.7859 21.7639C96.7157 21.5547 96.7591 21.5049 96.9729 21.5116C97.4905 21.5215 98.0081 21.5348 98.5224 21.5083C98.7962 21.495 98.8764 21.6079 98.9365 21.8403C99.3439 23.3911 99.7814 24.9319 100.149 26.4927C100.165 26.5591 100.192 26.6222 100.232 26.7318Z" fill="#484445"/>
<path id="Vector_26" d="M60.6831 24.6894C60.6831 25.0746 60.6798 25.4598 60.6831 25.845C60.6931 26.6055 61.1607 26.9774 61.8953 26.8014C62.1091 26.7483 62.2193 26.7715 62.2593 27.0106C62.3195 27.3659 62.4029 27.7179 62.4898 28.0666C62.5198 28.1828 62.4998 28.2426 62.3829 28.2725C61.5146 28.5149 60.6297 28.6843 59.7781 28.2725C58.9299 27.8607 58.6093 27.0837 58.5726 26.1937C58.5358 25.3071 58.5492 24.4204 58.5592 23.5338C58.5592 23.2781 58.5225 23.1652 58.2219 23.1752C57.6108 23.1984 57.6108 23.1785 57.6108 22.5542C57.6108 22.5409 57.6108 22.5309 57.6108 22.5177C57.6275 22.2155 57.4872 21.8303 57.6709 21.641C57.8245 21.4816 58.2119 21.5447 58.4991 21.5148C58.6026 21.5048 58.636 21.4949 58.656 21.362C58.7462 20.7876 58.8364 20.2131 58.8564 19.6319C58.8631 19.4659 58.9299 19.4261 59.0635 19.4261C59.5443 19.4261 60.0252 19.4294 60.5061 19.4227C60.6898 19.4227 60.6798 19.529 60.6798 19.6485C60.6798 20.1732 60.6898 20.6979 60.6731 21.2226C60.6664 21.4417 60.7132 21.5314 60.9569 21.5181C61.331 21.4949 61.7083 21.5181 62.0824 21.5082C62.2493 21.5048 62.3061 21.5546 62.3028 21.724C62.2927 22.1325 62.2894 22.5409 62.3028 22.9494C62.3094 23.1353 62.246 23.1918 62.0623 23.1851C61.6983 23.1718 61.3343 23.1918 60.9703 23.1785C60.7499 23.1685 60.6597 23.2183 60.6731 23.4607C60.6931 23.8692 60.6798 24.2776 60.6798 24.6861L60.6831 24.6894Z" fill="#484445"/>
<path id="Vector_27" d="M83.6919 14.5047C82.66 14.5213 81.7383 14.2291 80.9502 13.545C80.88 13.4819 80.8734 13.4919 80.9335 13.4188C81.1639 13.1299 81.401 12.841 81.598 12.5289C81.7316 12.3197 81.8351 12.3396 82.0121 12.4591C82.4629 12.7646 82.9572 12.9572 83.5082 12.9705C83.9824 12.9805 84.3364 12.7812 84.3798 12.5123C84.4199 12.2532 84.1594 11.9975 83.7086 11.8149C83.0006 11.5227 82.2425 11.3135 81.7116 10.7058C81.3275 10.2641 81.1639 9.76269 81.2908 9.18156C81.6247 7.66066 82.9171 7.30866 84.2562 7.39168C84.9408 7.43485 85.572 7.6673 86.143 8.05915C86.3568 8.20526 86.3634 8.29824 86.1931 8.48753C85.9761 8.72662 85.7891 8.99892 85.602 9.26458C85.5052 9.40073 85.405 9.41733 85.2815 9.32435C84.8573 9.00224 84.3531 8.97235 83.8522 8.95907C83.6084 8.95243 83.378 9.02216 83.2978 9.29114C83.2177 9.56012 83.3579 9.72284 83.5883 9.85235C83.969 10.0649 84.3898 10.1579 84.7872 10.3239C85.4451 10.5995 86.0796 10.9349 86.2499 11.6954C86.507 12.8443 86.1965 13.6812 85.0644 14.2125C84.6403 14.4117 84.1728 14.5313 83.6852 14.508L83.6919 14.5047Z" fill="#484445"/>
<path id="Vector_28" d="M51.0326 9.03878C51.0326 7.57102 51.0426 6.34567 51.0259 5.12031C51.0226 4.81813 51.1127 4.75171 51.3965 4.765C51.8638 4.78824 52.3345 4.79488 52.8019 4.765C53.1157 4.74507 53.1557 4.8613 53.1524 5.13692C53.1424 7.44483 53.1457 9.75606 53.1457 12.064C53.1457 12.5953 53.1624 12.6219 53.6999 12.7813C53.7867 12.8078 53.8067 12.8576 53.8167 12.9307C53.8768 13.3325 53.9269 13.7376 54.0037 14.1361C54.0304 14.2723 53.9903 14.332 53.8701 14.3686C53.1123 14.5944 52.3546 14.6375 51.7003 14.1328C51.2496 13.7841 51.1027 13.2262 51.066 12.6783C50.9792 11.3865 51.056 10.0915 51.0326 9.03878Z" fill="#484445"/>
<path id="Vector_29" d="M73.9841 38.4339C73.9841 37.4078 73.9907 36.3817 73.9774 35.3556C73.9774 35.1165 74.0342 35.0268 74.2846 35.0434C74.6586 35.0633 75.036 35.06 75.41 35.0434C75.6404 35.0335 75.7607 35.0899 75.7573 35.3489C75.7573 35.5548 75.8041 35.7607 75.8241 35.9699C75.8308 36.043 75.8275 36.126 75.9076 36.1459C75.9944 36.1692 76.0145 36.0828 76.0512 36.0264C76.2549 35.691 76.5254 35.4153 76.846 35.1929C77.3469 34.8475 77.8946 34.8442 78.4656 34.9571C78.6426 34.9936 78.6727 35.0799 78.6393 35.2227C78.5391 35.6876 78.4322 36.1525 78.3354 36.6208C78.3053 36.7636 78.2352 36.8034 78.0916 36.7901C77.9413 36.7735 77.7877 36.7901 77.6341 36.7901C76.7291 36.7901 76.0946 37.4277 76.0946 38.3376C76.0946 39.4102 76.0879 40.4828 76.098 41.5554C76.098 41.7812 76.0412 41.8576 75.8041 41.8509C75.2898 41.8343 74.7722 41.831 74.2546 41.8509C74.0074 41.8609 73.9707 41.7646 73.9707 41.5521C73.9807 40.5127 73.974 39.4766 73.974 38.4372L73.9841 38.4339Z" fill="#484445"/>
<path id="Vector_30" d="M83.3484 22.7301C83.7692 22.0925 84.1766 21.601 84.8378 21.4217C85.1918 21.3254 85.5558 21.3553 85.9131 21.4051C86.0968 21.4284 86.1536 21.538 86.1068 21.7272C86.0033 22.1556 85.9098 22.5873 85.8263 23.019C85.7929 23.1983 85.7395 23.2681 85.5324 23.2415C85.1951 23.2016 84.8545 23.1286 84.5172 23.3179C83.9395 23.6433 83.5588 24.0684 83.5655 24.7724C83.5755 25.8449 83.5588 26.9175 83.5755 27.9901C83.5788 28.2591 83.502 28.3255 83.2415 28.3156C82.7373 28.2957 82.233 28.299 81.7288 28.3156C81.5217 28.3222 81.4482 28.279 81.4482 28.0499C81.4583 25.9612 81.4583 23.8758 81.4482 21.787C81.4482 21.5811 81.4883 21.4981 81.7154 21.5081C82.1128 21.528 82.5135 21.5247 82.9109 21.5081C83.1347 21.4981 83.2182 21.5612 83.2282 21.7936C83.2382 22.0759 83.2983 22.3582 83.3484 22.7301Z" fill="#484445"/>
<path id="Vector_31" d="M106.504 38.434C106.504 37.3947 106.51 36.3586 106.5 35.3192C106.5 35.11 106.55 35.0336 106.771 35.0436C107.308 35.0602 107.849 35.0569 108.39 35.0436C108.577 35.0403 108.627 35.1033 108.627 35.2827C108.62 37.3814 108.62 39.4834 108.627 41.5821C108.627 41.8146 108.537 41.8511 108.336 41.8444C107.819 41.8345 107.305 41.8278 106.788 41.8444C106.544 41.8544 106.497 41.7614 106.497 41.5456C106.507 40.5062 106.5 39.4701 106.5 38.4307L106.504 38.434Z" fill="#484445"/>
<path id="Vector_32" d="M108.728 33.0213C108.748 33.6389 108.217 34.1271 107.469 34.1171C106.805 34.1071 106.324 33.5459 106.334 32.9714C106.344 32.4003 106.865 31.9221 107.493 31.9188C108.24 31.9121 108.738 32.3538 108.731 33.0246L108.728 33.0213Z" fill="#484445"/>
</g>
</g>
</svg>
