<svg width="16" height="14" viewBox="0 0 16 14" xmlns="http://www.w3.org/2000/svg">
<style>path { fill: #000; } @media(prefers-color-scheme: dark){path { fill: #fff; }}</style>
<path d="M13.2868 9.69099C13.3157 9.77701 13.3589 9.86302 13.4022 9.9347C13.4455 10.0064 13.5033 10.0781 13.5466 10.1211C13.6043 10.1641 13.662 10.1927 13.7197 10.2071C13.7775 10.2214 13.8352 10.1927 13.8929 10.1354C13.9218 10.1067 13.9362 10.0637 13.9507 10.0064C13.9651 9.94903 13.9651 9.89169 13.9651 9.83435C13.9651 9.77701 13.9507 9.70533 13.9362 9.64798C13.9218 9.59064 13.8929 9.5333 13.8641 9.49029C13.8352 9.44728 13.7919 9.40428 13.7486 9.3756C13.7053 9.34693 13.6476 9.3326 13.5899 9.34693C13.5177 9.36127 13.46 9.36127 13.4022 9.3756C13.3445 9.38994 13.2868 9.41861 13.2002 9.47595C13.2002 9.51896 13.2146 9.54763 13.2291 9.59064C13.2724 9.60498 13.2868 9.64798 13.2868 9.69099Z"/>
<path d="M11.6272 6.30769C11.6128 6.22168 11.584 6.15 11.5551 6.07832C11.5262 6.00664 11.4974 5.9493 11.4541 5.92062C11.4252 5.87762 11.3819 5.86328 11.353 5.86328C11.3097 5.93496 11.2953 6.02098 11.2809 6.13566C11.2664 6.25035 11.2809 6.36503 11.2953 6.49406C11.3097 6.60874 11.353 6.70909 11.4108 6.80944C11.4685 6.89546 11.5407 6.9528 11.6417 6.9528C11.6561 6.90979 11.6705 6.86679 11.6705 6.79511C11.6705 6.72343 11.6705 6.65175 11.6561 6.56573C11.6561 6.46538 11.6417 6.37937 11.6272 6.30769Z"/>
<path d="M16 1.92099C16 1.72029 15.9711 1.51959 15.9134 1.31889C15.8557 1.11819 15.7835 0.931826 15.6825 0.759796C15.567 0.587767 15.4227 0.444409 15.264 0.344059C15.0908 0.243708 14.8887 0.186365 14.6723 0.186365C14.6723 0.186365 14.6578 0.186365 14.6578 0.172029C14.4702 0.057343 14.2537 0 14.0228 0C14.0084 0 13.9795 0 13.9651 0H13.9507C13.6765 0.0143358 13.4889 0.0860145 13.3445 0.229372C13.2002 0.37273 13.1281 0.559096 13.1425 0.774132C13.1425 0.888819 13.1714 1.01784 13.2146 1.1612C13.2435 1.23288 13.2579 1.31889 13.2579 1.39057V1.43358V1.44791C13.3157 1.70596 13.3157 1.93533 13.2579 2.1217C13.2002 2.30806 13.1136 2.46576 12.9982 2.60911C12.8683 2.75247 12.6951 2.88149 12.4786 2.99618C12.2477 3.11086 12.0024 3.21122 11.7282 3.28289C11.5117 3.34024 11.2808 3.39758 11.0499 3.44059C10.9921 3.3259 10.92 3.22555 10.8334 3.13954C10.7324 3.02485 10.6025 2.93884 10.4726 2.88149C10.3427 2.75247 10.1984 2.65212 10.0396 2.58044C9.92418 2.53743 9.79429 2.50876 9.66441 2.50876C9.59225 2.50876 9.50566 2.5231 9.41906 2.53743C9.28918 2.56611 9.20259 2.59478 9.13043 2.62345C9.00054 2.68079 8.89952 2.75247 8.81292 2.85282C8.74077 2.93884 8.68304 3.03919 8.62531 3.13954C8.58201 3.22555 8.55315 3.31157 8.53872 3.41192C8.52429 3.46926 8.50986 3.54094 8.49542 3.59828C8.49542 3.59828 8.49542 3.59828 8.49542 3.61262C8.48099 3.61262 8.46656 3.61262 8.46656 3.61262C8.09133 3.61262 7.73053 3.59828 7.38417 3.59828C7.02337 3.59828 6.66258 3.61262 6.31621 3.64129C6.1286 3.65562 5.92655 3.6843 5.69564 3.7273C5.46473 3.77031 5.21939 3.82765 4.98848 3.91367C4.75757 3.98535 4.51223 4.0857 4.29575 4.20038C4.22359 4.22906 4.15143 4.27206 4.07927 4.31507C3.97825 4.20038 3.84836 4.10003 3.71847 4.01402C3.44427 3.84199 3.11233 3.74164 2.7371 3.71297C2.66495 3.71297 2.59279 3.69863 2.52063 3.69863C2.33301 3.69863 2.15983 3.7273 1.98665 3.75598C1.75574 3.81332 1.53926 3.89933 1.33721 4.02836C1.1496 4.14304 0.976415 4.2864 0.817665 4.45843C0.673346 4.61612 0.543459 4.78815 0.442436 4.98885C0.326981 5.20389 0.225958 5.43326 0.153798 5.67697C0.081639 5.90634 0.0383434 6.15005 0.00947962 6.39376C-0.00495226 6.63747 -0.0049522 6.86684 0.0239116 7.09621C0.0527753 7.32559 0.124935 7.55496 0.225958 7.74132C0.269253 7.82734 0.326981 7.91335 0.384708 7.99937C0.384708 7.99937 0.384709 8.0137 0.39914 8.0137C0.485732 8.20007 0.615619 8.35776 0.745505 8.48678C0.889824 8.63014 1.07744 8.73049 1.27948 8.80217C1.48153 8.87385 1.69801 8.88819 1.94335 8.87385C2.17426 8.85951 2.44847 8.80217 2.72267 8.68749C2.96801 8.60147 3.15563 8.5728 3.31438 8.60147C3.32881 8.60147 3.34324 8.60147 3.35768 8.61581C3.37211 8.65881 3.37211 8.71616 3.37211 8.78784C3.37211 8.94553 3.34324 9.13189 3.25665 9.31826C3.19892 9.46162 3.12677 9.59064 3.04017 9.70533C2.95358 9.80568 2.86699 9.89169 2.76597 9.96337C2.66494 10.035 2.56392 10.0781 2.44847 10.1067C2.34744 10.1354 2.23199 10.1497 2.1021 10.1497H2.08767C2.02994 10.1497 2.00108 10.1497 1.97222 10.1354C2.08767 9.86302 2.00108 9.67665 1.95778 9.5763C1.90006 9.47595 1.7846 9.36127 1.56812 9.30392L1.39494 9.26092L1.23619 9.3326C1.04857 9.43295 0.904256 9.56197 0.817665 9.734C0.745505 9.87735 0.70221 10.0494 0.70221 10.2071C0.70221 10.3504 0.716642 10.5081 0.774369 10.6658C0.817665 10.7948 0.875392 10.9382 0.93312 11.0529C0.947552 11.0959 0.976415 11.1246 0.990847 11.1676C1.03414 11.2823 1.07744 11.3969 1.13517 11.4973C1.19289 11.612 1.26505 11.7267 1.35164 11.827C1.43824 11.9274 1.52483 12.0134 1.59699 12.0564C1.81346 12.1998 2.05881 12.3001 2.31858 12.3288C2.56392 12.3574 2.8237 12.3574 3.08347 12.3144C3.34324 12.2714 3.58859 12.1998 3.8195 12.0994C4.05041 11.9991 4.26688 11.8844 4.44007 11.7553C4.55552 11.6693 4.67098 11.569 4.78643 11.4686C4.78643 11.6263 4.82973 11.7984 4.88745 11.9704C4.94518 12.1281 5.01734 12.2858 5.10393 12.4291C5.19052 12.5725 5.29155 12.7015 5.407 12.8162C5.43587 12.8449 5.47916 12.8879 5.50802 12.9165C5.59462 13.0599 5.69564 13.1889 5.79666 13.3036C5.91212 13.4183 6.02757 13.5186 6.14303 13.5903C6.31621 13.6907 6.48939 13.7767 6.69144 13.834C6.87905 13.8914 7.06667 13.92 7.25428 13.9344C7.34087 13.9344 7.41303 13.9487 7.49962 13.9487C7.61508 13.9487 7.7161 13.9487 7.83156 13.9344C8.01917 13.92 8.20679 13.877 8.37997 13.834C8.65417 13.7767 8.92838 13.6763 9.18815 13.5473C9.44793 13.4183 9.7077 13.2749 9.96748 13.1172C10.2128 12.9595 10.4726 12.7875 10.7035 12.6155C10.9488 12.4435 11.1653 12.2714 11.3818 12.1137C11.6416 11.913 11.8725 11.741 12.0601 11.5833C12.2477 11.4256 12.4209 11.2966 12.5796 11.1819C12.6951 11.0816 12.8106 10.9955 12.9116 10.9239C12.9837 10.9525 13.0559 10.9812 13.1425 10.9955C13.1569 10.9955 13.1858 11.0099 13.2002 11.0099C13.2579 11.0672 13.3157 11.1102 13.3878 11.1532C13.5177 11.2393 13.662 11.2966 13.8208 11.3396C13.994 11.3826 14.1672 11.3826 14.3548 11.3396C14.5424 11.2966 14.6867 11.2249 14.8166 11.1102C14.932 10.9955 15.0186 10.8522 15.0619 10.6945C15.1052 10.5655 15.1197 10.4365 15.1052 10.2644C15.0908 10.1067 15.0619 9.96337 15.0042 9.82001C14.9465 9.66232 14.8455 9.5333 14.73 9.41861C14.6578 9.34693 14.5712 9.30392 14.4702 9.27525C14.3981 9.11756 14.297 8.9742 14.1672 8.85951C14.1094 8.81651 14.0517 8.7735 13.994 8.74483L13.7198 7.39727C13.7053 7.29691 13.6765 7.2109 13.6332 7.13922C13.5899 7.03887 13.5321 6.95285 13.46 6.88118C13.3734 6.8095 13.2724 6.75215 13.1714 6.73782C13.1281 6.62313 13.0559 6.52278 12.9693 6.4511C12.8683 6.35075 12.7384 6.29341 12.5941 6.26474C12.5652 6.17872 12.5363 6.09271 12.5075 6.00669C12.4209 5.80599 12.3199 5.6483 12.2044 5.54795C12.1323 5.49061 12.0457 5.4476 11.9879 5.41893C11.9446 5.36158 11.9158 5.30424 11.8725 5.26123C12.0168 5.2469 12.1756 5.21823 12.3199 5.20389C12.7095 5.14655 13.0848 5.0462 13.4311 4.91717C13.662 4.83116 13.8929 4.73081 14.1094 4.61612C14.3403 4.50144 14.5568 4.35808 14.7589 4.21472C14.9609 4.05703 15.1485 3.885 15.3217 3.69863C15.4949 3.51227 15.6392 3.29723 15.7402 3.06786C15.8268 2.91016 15.8845 2.7238 15.9278 2.5231C15.9856 2.3224 16 2.1217 16 1.92099ZM5.17609 9.04588C5.16166 9.28959 5.10393 9.5333 5.01734 9.777C4.93075 10.0207 4.81529 10.2501 4.65654 10.4651C4.49779 10.6802 4.32461 10.8665 4.12256 11.0099C3.96381 11.1246 3.79063 11.2249 3.58859 11.3109C3.38654 11.3969 3.17006 11.4543 2.95358 11.4973C2.7371 11.526 2.52063 11.5403 2.30415 11.5116C2.08767 11.483 1.90006 11.4113 1.7413 11.2966C1.68358 11.2536 1.62585 11.1962 1.55369 11.1246C1.49596 11.0529 1.43824 10.9669 1.38051 10.8665C1.32278 10.7662 1.27948 10.6658 1.25062 10.5655C1.22176 10.4508 1.20733 10.3504 1.20733 10.2501C1.20733 10.1497 1.23619 10.0494 1.27948 9.97771C1.32278 9.89169 1.39494 9.82001 1.49596 9.777C1.55369 9.79134 1.58255 9.80568 1.59699 9.84868C1.61142 9.87735 1.61142 9.9347 1.58255 9.99204C1.52483 10.0207 1.49596 10.0637 1.48153 10.1211C1.4671 10.1927 1.48153 10.2644 1.52483 10.3361C1.56812 10.4078 1.64028 10.4795 1.72687 10.5368C1.8279 10.5941 1.95778 10.6228 2.1021 10.6228C2.27528 10.6228 2.44847 10.6085 2.60722 10.5511C2.76597 10.5081 2.91029 10.4365 3.05461 10.3361C3.19892 10.2358 3.31438 10.1211 3.42983 9.97771C3.54529 9.83435 3.63188 9.67666 3.70404 9.47595C3.80506 9.21791 3.84836 8.98854 3.84836 8.75916C3.84836 8.52979 3.79063 8.35776 3.68961 8.2144C3.58859 8.07105 3.44427 7.9707 3.24222 7.92769C3.04017 7.88468 2.80926 7.91335 2.52063 8.02804C2.27528 8.11405 2.05881 8.1714 1.85676 8.18573C1.65471 8.20007 1.48153 8.1714 1.32278 8.12839C1.16403 8.07105 1.03414 7.99937 0.918688 7.89902C0.803233 7.79867 0.716642 7.66964 0.644482 7.52629C0.572323 7.36859 0.514595 7.2109 0.485731 7.0102C0.456868 6.82383 0.456868 6.62313 0.4713 6.42243C0.485732 6.22173 0.529027 6.00669 0.586755 5.80599C0.644482 5.60529 0.731074 5.40459 0.832097 5.21823C0.918688 5.06053 1.03414 4.91717 1.1496 4.77382C1.27948 4.64479 1.40937 4.53011 1.56812 4.42976C1.72687 4.32941 1.90006 4.25773 2.08767 4.21472C2.27528 4.17171 2.47733 4.15738 2.69381 4.17171C2.99688 4.20038 3.24222 4.27206 3.4587 4.41542C3.67518 4.54444 3.83393 4.74514 3.94938 4.98885C4.10813 4.85983 4.28132 4.74514 4.48336 4.64479C4.68541 4.54444 4.90189 4.45843 5.11836 4.38675C5.33484 4.31507 5.55132 4.25773 5.7678 4.21472C5.98428 4.17171 6.17189 4.14304 6.33064 4.12871C6.67701 4.10003 7.02337 4.0857 7.36974 4.0857C7.64394 4.0857 7.93258 4.0857 8.23565 4.0857C8.0336 4.34374 7.86042 4.44409 7.61508 4.58745C7.55735 4.61612 7.34087 4.74514 7.23985 4.80249C7.16769 4.80249 7.0811 4.80249 7.00894 4.78815C6.83576 4.77382 6.66257 4.77382 6.47496 4.75948C6.28735 4.74514 6.0853 4.74514 5.89769 4.74514C5.69564 4.74514 5.50802 4.74514 5.32041 4.75948C5.1328 4.77382 4.95961 4.78815 4.78643 4.81682C4.62768 4.84549 4.46893 4.8885 4.33904 4.94585C4.20916 5.00319 4.10813 5.07487 4.02154 5.17522C4.06484 5.31858 4.07927 5.50494 4.06484 5.70564C4.06484 5.74865 4.05041 5.79166 4.03597 5.849C4.02154 5.90634 4.00711 5.94935 3.97825 5.99236C3.94938 6.03537 3.92052 6.07837 3.89165 6.12138C3.84836 6.16439 3.8195 6.17872 3.76177 6.20739C3.66074 6.23607 3.57415 6.2504 3.50199 6.22173C3.42983 6.19306 3.37211 6.15005 3.34324 6.09271C3.29995 6.03536 3.28552 5.96369 3.27108 5.87767C3.27108 5.79166 3.27108 5.70564 3.29995 5.61963C3.32881 5.53361 3.35767 5.4476 3.4154 5.37592C3.47313 5.30424 3.53086 5.2469 3.60302 5.20389C3.51643 5.11787 3.40097 5.0462 3.27108 5.01752C3.12676 4.98885 2.99688 4.97452 2.83813 5.00319C2.69381 5.03186 2.54949 5.07487 2.40517 5.16088C2.26085 5.2469 2.1454 5.34725 2.05881 5.49061C1.95778 5.63396 1.88562 5.79166 1.8279 5.94935C1.77017 6.12138 1.7413 6.29341 1.72687 6.4511C1.71244 6.62313 1.7413 6.76649 1.7846 6.90985C1.8279 7.05321 1.91449 7.16789 2.02994 7.25391C2.13097 7.32559 2.26085 7.38293 2.40517 7.39727C2.54949 7.42594 2.7371 7.4116 2.95358 7.36859C3.27108 7.31125 3.55972 7.28258 3.80506 7.31125C4.05041 7.33992 4.26688 7.39726 4.44007 7.48328C4.61325 7.56929 4.75757 7.69832 4.87302 7.84167C4.98848 7.98503 5.06064 8.15706 5.11836 8.32909C5.17609 8.55846 5.19052 8.78784 5.17609 9.04588ZM5.11836 5.54795C5.10393 5.4476 5.0895 5.34725 5.07507 5.23256C5.06064 5.16088 5.06064 5.10354 5.0895 5.0462C5.11836 4.98885 5.16166 4.96018 5.23382 4.94585C5.29155 4.93151 5.34927 4.93151 5.407 4.94585C5.46473 4.96018 5.52246 4.97452 5.58018 5.00319C5.63791 5.03186 5.68121 5.07487 5.71007 5.11788C5.75337 5.16088 5.7678 5.21823 5.78223 5.27557C5.79666 5.34725 5.81109 5.41893 5.81109 5.49061C5.81109 5.56228 5.82553 5.63396 5.82553 5.70564C5.95541 5.67697 6.22962 5.6483 6.38837 5.60529C6.4028 5.70564 6.43167 5.83466 6.50382 5.97802L5.86882 6.03537C5.88325 6.2504 5.91212 6.46544 5.92655 6.69481C5.94098 6.92418 5.96985 7.13922 5.98428 7.36859C6.01314 7.59797 6.042 7.82734 6.07087 8.04238C6.09973 8.27175 6.14303 8.47245 6.17189 8.68749C6.17189 8.71616 6.18632 8.74483 6.18632 8.7735C6.18632 8.80217 6.20076 8.83084 6.21519 8.85951C6.25848 9.00287 6.30178 9.14623 6.34507 9.28959C6.38837 9.43295 6.46053 9.56197 6.53269 9.70533C6.61928 9.86302 6.66257 9.96337 6.66257 10.035C6.66257 10.1067 6.61928 10.1497 6.56155 10.1497C6.50382 10.1497 6.41723 10.1354 6.33064 10.0781C6.22962 10.0207 6.14303 9.94903 6.05644 9.84868C5.98428 9.777 5.92655 9.69099 5.85439 9.59064C5.79666 9.49029 5.73894 9.40427 5.69564 9.30392C5.65234 9.20357 5.60905 9.11756 5.58018 9.03154C5.55132 8.94553 5.52246 8.87385 5.50802 8.80217C5.49359 8.7735 5.49359 8.74483 5.47916 8.71616C5.47916 8.68749 5.46473 8.65881 5.46473 8.63014C5.37814 8.2144 5.32041 7.79867 5.29155 7.39727C5.24825 6.98153 5.21939 6.56579 5.17609 6.15005C5.11836 6.16439 5.06064 6.16439 5.00291 6.17872C4.94518 6.19306 4.88745 6.20739 4.82973 6.20739C4.65654 6.23607 4.48336 6.27907 4.31018 6.32208C4.137 6.36509 3.96381 6.4081 3.79063 6.46544C3.67518 6.50845 3.55972 6.53712 3.44427 6.58012C3.32881 6.62313 3.22779 6.66614 3.11233 6.72348C3.08347 6.73782 3.05461 6.75215 3.04017 6.75215C3.02574 6.76649 3.01131 6.76649 2.99688 6.76649C2.98245 6.76649 2.95358 6.76649 2.93915 6.76649C2.92472 6.76649 2.91029 6.75215 2.89586 6.72348C2.89586 6.70915 2.89586 6.69481 2.89586 6.66614C2.89586 6.6518 2.91029 6.63747 2.92472 6.6088C3.11233 6.50845 3.29995 6.4081 3.47313 6.33642C3.64631 6.2504 3.83393 6.19306 4.00711 6.12138C4.19472 6.06404 4.36791 6.00669 4.55552 5.94935C4.74314 5.90634 4.94518 5.849 5.14723 5.80599C5.14723 5.76299 5.1328 5.6483 5.11836 5.54795ZM7.19656 5.51928C7.25428 5.57662 7.31201 5.63396 7.34087 5.70564C7.36974 5.76299 7.38417 5.82033 7.38417 5.87767C7.38417 5.93501 7.3553 5.99236 7.32644 6.0497C7.29758 6.10704 7.25428 6.15005 7.19656 6.17872C7.13883 6.20739 7.0811 6.23607 7.02337 6.23607C6.96564 6.23607 6.90792 6.22173 6.85019 6.17872C6.79246 6.13572 6.74917 6.07837 6.70587 5.97802C6.61928 5.79166 6.59042 5.6483 6.59042 5.56228C6.59042 5.46193 6.61928 5.40459 6.66257 5.36158C6.70587 5.33291 6.74917 5.31858 6.82133 5.31858C6.87905 5.33291 6.95121 5.34725 7.02337 5.39025C7.06667 5.41893 7.13883 5.46193 7.19656 5.51928ZM11.9591 6.95285C12.0024 6.93852 12.0457 6.90985 12.089 6.89551C12.1323 6.86684 12.1756 6.83817 12.2188 6.8095C12.2621 6.78083 12.3054 6.76649 12.3487 6.73782C12.4209 6.70915 12.4786 6.69481 12.5364 6.70915C12.5941 6.72348 12.6374 6.73782 12.6807 6.78083C12.724 6.82383 12.7528 6.86684 12.7817 6.92418C12.8106 6.98153 12.825 7.05321 12.8394 7.12488C12.8394 7.12488 12.8394 7.15356 12.8539 7.2109C12.8683 7.28258 12.8683 7.38293 12.8971 7.49762C12.9116 7.62664 12.926 7.75566 12.9549 7.92769C12.9693 8.08538 12.9982 8.24308 13.027 8.40077C13.0559 8.55846 13.0703 8.71616 13.0992 8.85951C13.1281 9.00287 13.1425 9.1319 13.1714 9.21791C13.2435 9.18924 13.3157 9.16057 13.3878 9.14623C13.46 9.13189 13.5321 9.11756 13.6043 9.10322C13.7198 9.08889 13.8208 9.11756 13.9074 9.18924C13.994 9.26092 14.0517 9.34693 14.095 9.46162C14.1383 9.5763 14.1672 9.69099 14.1672 9.80568C14.1816 9.92036 14.1672 10.035 14.1383 10.1067C14.1094 10.2214 14.0517 10.3074 13.9795 10.3791C13.9074 10.4508 13.8064 10.5081 13.6765 10.5368C13.5466 10.5655 13.4167 10.5655 13.3012 10.5368C13.1858 10.5081 13.0848 10.4651 12.9837 10.4078C12.8971 10.3504 12.8106 10.2788 12.7384 10.1927C12.6662 10.1067 12.6229 10.0207 12.5941 9.9347C12.4931 10.0064 12.3776 10.0781 12.2621 10.1497C12.1467 10.2358 12.0168 10.3361 11.8725 10.4365C11.7282 10.5511 11.5694 10.6802 11.3818 10.8235C11.1942 10.9669 10.9777 11.1389 10.7324 11.3253C10.5303 11.483 10.3138 11.6407 10.0974 11.7984C9.86645 11.956 9.64997 12.1137 9.40463 12.2571C9.17372 12.4005 8.92838 12.5295 8.68304 12.6442C8.4377 12.7588 8.20679 12.8449 7.96144 12.9022C7.80269 12.9452 7.64394 12.9739 7.48519 12.9882C7.31201 13.0026 7.15326 13.0026 6.98008 12.9882C6.80689 12.9739 6.64814 12.9452 6.48939 12.9022C6.33064 12.8592 6.18632 12.7875 6.042 12.7015C5.95541 12.6442 5.85439 12.5725 5.7678 12.4721C5.68121 12.3718 5.59462 12.2714 5.52246 12.1567C5.4503 12.0421 5.39257 11.913 5.34927 11.784C5.30598 11.655 5.27711 11.526 5.27711 11.4113C5.27711 11.2966 5.29155 11.1819 5.33484 11.0816C5.37814 10.9812 5.4503 10.8952 5.55132 10.8379C5.60905 10.7948 5.66678 10.7805 5.71007 10.7662C5.75337 10.7518 5.79666 10.7662 5.82553 10.7805C5.85439 10.7948 5.88325 10.8235 5.89769 10.8522C5.91212 10.8809 5.94098 10.9239 5.95541 10.9669C6.042 11.1962 6.14303 11.3826 6.28735 11.5403C6.43167 11.698 6.57598 11.827 6.74917 11.9274C6.92235 12.0277 7.09553 12.0994 7.28315 12.1424C7.47076 12.1854 7.64394 12.1854 7.81713 12.1711C8.0769 12.1424 8.33667 12.0707 8.59645 11.956C8.85622 11.8414 9.116 11.7123 9.37577 11.5403C9.63554 11.3826 9.89532 11.2106 10.1551 11.0242C10.4149 10.8379 10.6746 10.6515 10.9344 10.4651C11.1942 10.2788 11.4395 10.1067 11.6993 9.94903C11.9446 9.79134 12.2044 9.64798 12.4498 9.54763C12.4065 9.38994 12.3776 9.23224 12.3343 9.03154C12.291 8.84518 12.2621 8.64448 12.2188 8.44378C12.19 8.24308 12.1611 8.02804 12.1323 7.82734C12.1034 7.6123 12.089 7.4116 12.089 7.22523C11.9446 7.31125 11.8148 7.36859 11.6849 7.36859C11.656 7.51195 11.6127 7.65531 11.5838 7.78433C11.5405 7.92769 11.5117 8.07105 11.4828 8.2144C11.454 8.34343 11.4251 8.47245 11.3818 8.61581C11.3385 8.75916 11.2952 8.88819 11.2519 9.00287C11.1942 9.13189 11.1365 9.24658 11.0643 9.34693C10.9921 9.44728 10.9055 9.51896 10.8045 9.5763C10.6746 9.64798 10.5303 9.66232 10.386 9.61931C10.2417 9.5763 10.0829 9.49029 9.93861 9.36127C9.79429 9.23225 9.64997 9.08889 9.50566 8.90252C9.36134 8.71616 9.24588 8.51546 9.13043 8.31475C9.14486 8.42944 9.15929 8.55846 9.17372 8.68749C9.18815 8.81651 9.21702 8.94553 9.24588 9.08889C9.27475 9.18924 9.28918 9.27525 9.28918 9.36127C9.30361 9.44728 9.30361 9.51896 9.31804 9.59064C9.33247 9.74833 9.31804 9.87735 9.28918 9.94903C9.26031 10.0207 9.21702 10.0637 9.15929 10.0494C9.10156 10.0494 9.04383 10.035 8.97168 9.99204C8.89952 9.96337 8.84179 9.89169 8.76963 9.777C8.68304 9.5763 8.62531 9.34693 8.56758 9.08889C8.50986 8.83084 8.48099 8.5728 8.4377 8.28608C8.42326 8.20007 8.42326 8.12839 8.40883 8.04238C8.3944 8.11405 8.36554 8.20007 8.35111 8.27175C8.30781 8.42944 8.26451 8.5728 8.23565 8.71616C8.19235 8.85951 8.14906 8.98854 8.12019 9.13189C8.0769 9.27525 8.0336 9.38994 7.99031 9.50463C7.94701 9.61931 7.88928 9.70533 7.83156 9.79134C7.7161 9.92036 7.58622 9.94903 7.4419 9.84868C7.32644 9.76267 7.23985 9.66232 7.16769 9.51896C7.09553 9.38994 7.02337 9.23224 6.98008 9.08889C6.92235 8.93119 6.87905 8.78784 6.85019 8.63014C6.82133 8.47245 6.79246 8.34343 6.77803 8.2144C6.7636 8.14273 6.7636 8.05671 6.74917 7.9707C6.74917 7.88468 6.73473 7.78433 6.73473 7.68398C6.7203 7.58363 6.7203 7.45461 6.70587 7.32559C6.69144 7.19656 6.66258 7.05321 6.63371 6.88118C6.67701 6.83817 6.73473 6.79516 6.80689 6.78083C6.87905 6.76649 6.95121 6.76649 7.0378 6.78083C7.10996 6.79516 7.19655 6.83817 7.25428 6.88118C7.32644 6.93852 7.36974 7.0102 7.41303 7.09621C7.42747 7.25391 7.4419 7.42594 7.45633 7.6123C7.47076 7.79867 7.48519 7.98503 7.51406 8.1714C7.52849 8.35776 7.57178 8.54413 7.60065 8.71616C7.64394 8.88819 7.68724 9.06022 7.74497 9.20357C7.78826 9.26092 7.81713 9.26092 7.84599 9.21791C7.87485 9.1749 7.91815 9.10322 7.94701 9.01721C7.97588 8.90252 8.01917 8.78784 8.06247 8.65881C8.10576 8.52979 8.13463 8.40077 8.17792 8.25741C8.22122 8.12839 8.25008 7.98503 8.29338 7.85601C8.33667 7.72699 8.36554 7.6123 8.3944 7.49762C8.3944 7.49762 8.3944 7.49762 8.40883 7.49762C8.40883 7.48328 8.40883 7.46894 8.40883 7.45461C8.3944 7.16789 8.3944 6.88118 8.37997 6.6088C8.37997 6.33642 8.36554 6.06404 8.36554 5.80599C8.36554 5.76299 8.36554 5.70564 8.36554 5.66263C8.19235 5.70564 8.0336 5.73431 7.90372 5.76299C7.81712 5.77732 7.73053 5.79166 7.64394 5.80599C7.62951 5.80599 7.61508 5.80599 7.61508 5.80599C7.61508 5.73431 7.58621 5.66263 7.54292 5.60529C7.49962 5.51928 7.4419 5.4476 7.35531 5.37592C7.31201 5.33291 7.26871 5.30424 7.22542 5.27557C7.34087 5.23256 7.4419 5.17522 7.54292 5.11788C7.62951 5.07487 7.73053 5.01752 7.81713 4.96018C7.84599 4.94585 7.86042 4.93151 7.87485 4.91717C8.20679 4.71647 8.46656 4.57312 8.81292 4.04269C8.81292 4.02836 8.82736 4.02836 8.82736 4.01402C8.84179 3.99968 8.84179 3.98535 8.85622 3.97101L8.87065 3.95668C8.92838 3.87066 8.95724 3.78465 8.98611 3.6843C9.00054 3.61262 9.01497 3.55527 9.04383 3.4836C9.05827 3.41192 9.08713 3.35457 9.10156 3.29723C9.13043 3.23989 9.15929 3.18254 9.20259 3.13954C9.24588 3.09653 9.30361 3.05352 9.37577 3.01051C9.40463 2.99618 9.46236 2.98184 9.54895 2.95317C9.69327 2.9245 9.80872 2.93884 9.90975 2.98184C10.0108 3.02485 10.1118 3.08219 10.184 3.16821C10.2561 3.25422 10.3283 3.35457 10.3716 3.45492C10.4149 3.56961 10.4582 3.6843 10.487 3.79898C10.5015 3.84199 10.5015 3.87066 10.5015 3.91367C10.5303 4.10003 10.4149 4.57312 10.1262 4.84549C9.99634 4.97452 9.82316 5.0892 9.64997 5.17522C9.46236 5.26123 9.27475 5.34725 9.08713 5.41893C9.08713 5.43326 9.08713 5.4476 9.08713 5.46193C9.08713 5.60529 9.0727 5.76298 9.0727 5.93501C9.0727 6.10704 9.0727 6.27907 9.0727 6.4511C9.0727 6.63747 9.08713 6.8095 9.08713 6.96719C9.08713 7.13922 9.10156 7.29691 9.10156 7.44027C9.10156 7.58363 9.10156 7.71265 9.10156 7.82734C9.28918 7.64097 9.4335 7.4116 9.54895 7.16789C9.66441 6.92418 9.751 6.66614 9.79429 6.4081C9.79429 6.35075 9.80873 6.29341 9.80873 6.2504C9.80873 6.19306 9.82316 6.15005 9.83759 6.09271C9.85202 6.03536 9.86645 5.99236 9.89532 5.94935C9.92418 5.92068 9.95304 5.89201 9.98191 5.89201C10.0108 5.89201 10.0541 5.89201 10.0974 5.90634C10.1407 5.92068 10.184 5.94935 10.2272 5.97802C10.3138 6.0497 10.3716 6.12138 10.4149 6.20739C10.4437 6.27907 10.4726 6.36509 10.4726 6.4511C10.4726 6.53712 10.4582 6.62313 10.4293 6.69481C10.4004 6.78083 10.3571 6.86684 10.3138 6.95285C10.2561 7.06754 10.184 7.18223 10.1118 7.28258C10.0396 7.38293 9.95304 7.48328 9.86645 7.58363C9.77986 7.68398 9.67884 7.77 9.57782 7.84167C9.47679 7.92769 9.37577 7.98503 9.27475 8.04238C9.3469 8.04238 9.41906 8.07105 9.50566 8.11405C9.59225 8.15706 9.66441 8.22874 9.751 8.30042C9.83759 8.3721 9.92418 8.44378 10.0108 8.52979C10.0974 8.61581 10.184 8.68749 10.2705 8.75916C10.3571 8.83084 10.4437 8.88819 10.5303 8.91686C10.6169 8.95987 10.6891 8.9742 10.7757 8.95986C10.8478 8.94553 10.92 8.90252 10.9777 8.84518C11.0354 8.78784 11.0932 8.71616 11.1365 8.63014C11.1798 8.54413 11.223 8.47245 11.2519 8.38643C11.2808 8.30042 11.3096 8.22874 11.3241 8.1714C11.3674 8.02804 11.4107 7.88468 11.454 7.72699C11.4973 7.58363 11.5261 7.45461 11.555 7.32559C11.4828 7.31125 11.4107 7.28258 11.3385 7.23957C11.2375 7.16789 11.1365 7.06754 11.0643 6.95285C10.9921 6.82383 10.9344 6.69481 10.8911 6.55145C10.8478 6.4081 10.8334 6.26474 10.8334 6.12138C10.8334 5.97802 10.8623 5.849 10.9055 5.74865C10.9488 5.6483 11.0066 5.56228 11.0787 5.49061C11.1509 5.43326 11.223 5.39025 11.3096 5.39025C11.3962 5.39025 11.4684 5.41893 11.555 5.47627C11.6271 5.53361 11.6993 5.6483 11.757 5.79166C11.8003 5.89201 11.8292 5.97802 11.8436 6.09271C11.8725 6.19306 11.8869 6.29341 11.9013 6.39376C11.9158 6.49411 11.9158 6.59446 11.9158 6.68048C11.9158 6.76649 11.9158 6.8525 11.9013 6.92418C11.8869 6.96719 11.9158 6.96719 11.9591 6.95285ZM14.9465 2.3654C14.9176 2.53743 14.8599 2.68079 14.7877 2.80981C14.6867 2.99618 14.5712 3.18254 14.4269 3.35457C14.2826 3.5266 14.1094 3.66996 13.9362 3.81332C13.7486 3.94234 13.561 4.07136 13.359 4.17171C13.1569 4.27206 12.9549 4.37241 12.7384 4.44409C12.4209 4.55878 12.089 4.64479 11.7282 4.70214C11.3818 4.75948 11.0354 4.80249 10.6746 4.81682C10.8334 4.51577 10.92 4.17171 10.9055 3.928C10.92 3.928 10.9344 3.928 10.9344 3.928C11.2519 3.885 11.5694 3.81332 11.8725 3.74164C12.1756 3.65562 12.4498 3.55527 12.7095 3.42625C12.9693 3.29723 13.1858 3.13954 13.359 2.93884C13.5321 2.75247 13.662 2.5231 13.7198 2.26505C13.7919 2.00701 13.7919 1.70596 13.7198 1.37624C13.7053 1.26155 13.6909 1.1612 13.6476 1.04651C13.6187 0.946162 13.6043 0.860147 13.5899 0.774132C13.5899 0.688118 13.6043 0.630775 13.662 0.573431C13.7198 0.516088 13.8208 0.487417 13.9795 0.487417C14.1527 0.487417 14.297 0.516088 14.4125 0.587767C14.5424 0.659446 14.6434 0.759796 14.73 0.888818C14.8166 1.01784 14.8743 1.1612 14.9176 1.33323C14.9609 1.50526 14.9898 1.67729 14.9898 1.84932C14.9898 2.02135 14.9753 2.19337 14.9465 2.3654Z"/>
<path d="M3.53087 5.4907C3.50201 5.56238 3.47314 5.64839 3.47314 5.72007C3.47314 5.80609 3.48758 5.86343 3.50201 5.92077C3.51644 5.97812 3.55974 5.99245 3.61746 5.97812C3.66076 5.96378 3.70405 5.92077 3.71849 5.87777C3.73292 5.83476 3.74735 5.77742 3.74735 5.70574C3.74735 5.64839 3.74735 5.57672 3.73292 5.50504C3.71849 5.43336 3.70405 5.37602 3.67519 5.33301C3.61746 5.36168 3.57417 5.41902 3.53087 5.4907Z"/>
</svg>
