<svg width="270" height="250" viewBox="0 0 270 250" fill="none" xmlns="http://www.w3.org/2000/svg">
<path d="M269.921 124.208C269.235 113.433 269.921 98.1523 256.305 95.9972C242.199 93.8422 226.721 98.3482 213.3 91.8831C201.349 86.1038 200.468 72.0962 201.055 60.3416C201.741 47.1177 203.602 31.9346 196.157 19.9841C190.378 10.6784 179.994 6.95608 169.806 4.99698C163.047 3.72357 156.092 3.03787 149.235 2.35218C140.614 1.47059 131.896 0.0992208 123.275 0.00126572C109.659 -0.0966894 97.5116 5.48676 91.5361 18.2209C86.3442 29.3878 85.1687 42.2199 84.385 54.5622C78.9972 47.9993 72.8257 41.8281 64.891 38.5956C52.8419 33.7958 40.2051 38.5956 29.9193 45.1586C22.0825 50.1543 14.9314 56.3254 8.17214 62.7905C3.47006 67.1985 -0.448339 70.7248 0.0414604 77.4837C0.82514 88.6506 8.17215 100.013 15.6171 107.948C18.36 110.886 21.9845 114.315 26.1968 115.001C28.3519 115.392 30.3111 114.805 31.8785 113.335C34.9152 110.593 37.2663 107.556 40.7928 105.401C53.5276 97.7604 65.7726 106.283 71.4543 118.233C77.136 130.184 77.2339 147.424 68.1236 157.905C62.246 164.664 53.5276 162.705 45.8867 160.746C38.0499 158.689 28.9397 155.358 21.1029 159.178C9.83746 164.566 8.36807 180.728 7.58439 191.503C7.58439 191.895 7.58438 192.287 7.68234 192.679C7.19254 199.83 8.07418 206.295 10.3273 211.486C13.1681 218.147 18.0661 222.555 24.6294 224.318C33.9356 226.767 65.6746 232.057 78.8992 234.212C79.0952 234.31 79.389 234.408 79.6829 234.506C81.2503 234.898 82.8176 235.093 84.287 235.093C84.5809 235.093 84.6789 235.191 84.7768 235.191V235.093C101.332 235.387 113.675 218.539 122.198 205.413C130.034 208.548 138.459 210.507 146.492 212.858C154.23 215.111 163.047 217.07 169.806 221.674C174.018 224.514 174.704 230.294 175.782 234.898C176.957 239.795 178.427 245.183 182.933 248.024C189.3 252.04 197.725 249.101 203.994 246.554C204.778 246.26 205.366 245.771 205.659 245.183C206.639 244.791 207.717 244.301 208.794 243.811C216.435 240.677 227.603 236.073 229.464 221.674C229.66 221.282 229.758 220.694 229.758 220.204C229.758 204.727 229.268 186.41 221.039 172.794C217.317 166.623 211.929 162.705 204.778 161.431C198.312 160.354 191.847 160.354 185.578 158.395C186.263 153.497 186.949 148.501 187.243 143.505C188.712 144.093 190.084 144.681 191.553 145.269C206.933 151.342 224.174 156.533 240.827 155.652C248.076 155.26 255.619 153.595 261.301 148.893C268.746 142.918 270.411 133.122 269.921 124.208ZM201.251 167.7C207.913 168.484 212.615 171.129 216.043 177.104C223.096 189.642 223.292 206.295 223.39 220.302C223.39 220.694 223.39 220.988 223.488 221.282C221.921 231.959 213.79 235.289 206.639 238.326C204.582 239.208 202.623 239.991 200.957 240.971C195.766 243.028 187.537 246.064 184.402 240.187C182.149 235.975 181.953 230.685 180.386 226.18C178.329 220.302 174.9 216.678 169.316 214.033C154.818 207.176 138.459 205.413 123.863 199.242C125.92 196.891 128.369 195.128 132.189 195.422C134.345 195.618 134.345 192.287 132.189 192.091C126.508 191.699 123.373 194.638 120.434 198.36C119.553 198.458 118.769 199.046 118.181 199.928C110.736 211.584 98.0994 232.057 81.5442 228.335C80.9564 228.237 80.3686 228.237 79.8788 228.335C66.6542 226.18 35.2091 220.89 26.2947 218.539C17.4783 216.188 12.9722 206.784 14.0497 193.071C14.2457 192.679 14.3436 192.287 14.3436 191.797C15.0293 182.59 16.2049 164.664 28.8417 164.37C37.952 164.174 46.5725 168.974 55.7807 169.562C64.793 170.149 71.8461 165.643 76.2543 158.199C87.1279 165.643 101.528 167.309 114.361 167.015C114.655 167.896 115.144 168.582 115.83 169.268C119.259 172.5 124.94 173.186 129.349 173.578C135.128 174.165 141.006 174.067 146.786 173.872C151.488 173.676 156.679 173.676 160.99 171.423C161.969 170.835 162.851 170.149 163.635 169.464C164.026 169.757 164.516 169.953 165.104 169.855C170.492 168.778 175.978 166.623 179.602 162.705C179.994 163.194 180.582 163.684 181.365 163.978C187.733 166.525 194.394 166.917 201.251 167.7ZM81.5442 130.086C91.732 136.942 104.663 135.277 116.32 138.412C116.516 138.412 116.614 138.51 116.81 138.51C115.34 144.191 114.557 150.166 113.969 155.946C113.773 158.101 113.283 161.039 113.479 163.684C101.43 163.88 87.6177 162.509 77.6258 155.26C81.2503 147.228 82.5238 138.608 81.5442 130.086ZM117.887 151.048C118.377 147.13 118.965 143.212 120.042 139.391C120.042 139.293 120.042 139.293 120.042 139.195C120.14 139.097 120.238 139 120.238 138.902C122.296 135.767 124.549 134.298 128.271 134.494C131.406 134.689 134.541 135.277 137.675 135.277C144.532 135.277 152.957 133.122 159.52 135.571C165.496 137.824 165.006 144.681 164.614 149.971C164.222 154.672 164.614 160.452 162.655 164.86C160.598 169.366 155.308 169.953 150.9 170.345C147.079 170.639 143.259 170.737 139.439 170.737C134.638 170.737 129.643 170.639 124.94 169.659C121.806 168.974 117.398 168.092 117.006 164.37C116.614 159.962 117.3 155.26 117.887 151.048ZM168.141 143.016C172.647 142.918 177.153 142.232 181.072 140.175C180.876 145.856 180.19 151.44 179.406 157.023C177.055 162.411 171.178 164.958 165.594 166.329C166.475 164.37 166.965 162.117 167.161 159.864C167.749 154.476 168.729 148.403 168.141 143.016ZM263.358 128.812C263.064 137.334 259.44 144.387 251.113 147.228C244.06 149.677 236.223 149.481 228.876 148.599C214.182 146.836 199.488 141.938 186.067 135.767C185.774 135.669 185.48 135.571 185.186 135.473C185.382 126.069 186.459 116.666 187.145 107.164C187.341 105.009 184.01 105.107 183.814 107.164C183.031 116.666 182.051 126.167 181.855 135.669C177.937 138.902 172.451 139.587 167.455 139.685C165.888 134.494 161.382 132.045 155.896 131.555C147.863 130.771 139.83 132.437 131.7 131.555C125.822 130.869 121.708 131.457 118.181 136.061C117.985 135.669 117.691 135.375 117.202 135.277C105.348 132.045 91.1442 134.396 81.2503 125.776C81.0544 125.58 80.8584 125.482 80.6625 125.482C79.7809 121.661 78.5074 117.939 76.7441 114.413C71.2584 103.442 60.2869 94.332 47.4541 96.2911C40.2051 97.3686 33.9356 101.777 28.9397 106.968C28.7437 107.164 27.7641 108.34 27.3723 108.731C27.1764 108.731 26.9805 108.633 26.5886 108.535C25.3151 108.046 23.6498 106.674 22.4743 105.597C15.2253 98.9359 7.87826 88.1608 6.70274 78.1694C5.91906 71.5085 12.2865 67.9821 16.6947 63.9659C22.9641 58.2845 29.6254 52.897 37.0703 48.6849C45.3969 43.9831 55.2909 41.0444 64.3032 45.5504C72.5318 49.7625 78.5074 57.5009 84.0911 64.7496C84.287 65.3373 84.6789 65.8271 85.1687 66.1209C85.1687 66.1209 85.1687 66.1209 85.2666 66.2189C86.736 68.8637 87.6177 71.7044 88.4993 74.643C89.0871 76.7001 92.3198 75.8185 91.732 73.7614C90.9483 71.1167 90.0667 68.5698 88.9891 66.1209C89.0871 66.1209 89.0871 66.023 89.185 65.925C89.9687 65.4353 90.5565 64.5537 90.6544 63.3782C91.5361 48.587 91.2422 30.6612 99.4708 17.6332C108.385 3.52765 126.116 6.66221 140.222 8.03358C152.467 9.20904 165.398 9.69881 177.055 13.617C186.067 16.6536 191.749 22.8248 193.904 32.1305C197.039 45.9422 193.023 59.9498 194.786 73.8594C196.255 85.2222 201.839 94.5279 212.811 98.8379C226.231 104.03 240.435 100.699 254.248 102.364C255.129 102.462 255.913 102.56 256.599 102.854C248.37 110.495 249.546 124.992 255.031 134.004C256.109 135.865 259.048 134.2 257.872 132.339C253.17 124.6 251.505 110.69 259.635 104.617C260.321 105.401 260.909 106.283 261.301 107.556C262.28 110.495 262.476 113.727 262.672 116.862C262.966 120.878 263.456 124.796 263.358 128.812Z" fill="#1E1E1C"/>
<path d="M107.797 147.522C106.622 146.052 104.565 145.66 102.801 145.465C101.822 145.367 101.136 146.248 101.136 147.13C101.136 147.424 101.234 147.718 101.332 147.913C100.94 148.207 100.744 148.697 100.744 149.187C100.646 151.048 100.842 153.399 102.508 154.672C104.956 156.533 107.895 154.085 108.679 151.636C109.071 150.166 108.777 148.697 107.797 147.522ZM105.544 150.362C105.544 150.558 105.446 150.656 105.446 150.754C105.446 150.754 105.446 150.852 105.446 150.95V151.048C105.348 151.146 105.25 151.244 105.25 151.342C105.25 151.342 105.25 151.342 105.25 151.44L105.152 151.538C105.054 151.636 104.956 151.734 104.76 151.93C104.663 151.93 104.565 152.028 104.565 152.028C104.565 151.93 104.467 151.93 104.467 151.832V151.734C104.467 151.636 104.369 151.44 104.369 151.342C104.369 151.244 104.369 151.146 104.271 151.048C104.271 151.048 104.271 151.048 104.271 150.95C104.271 150.95 104.271 150.95 104.271 150.852C104.271 150.754 104.271 150.656 104.271 150.558C104.271 150.068 104.271 149.677 104.271 149.285C104.271 149.187 104.271 149.187 104.271 149.089C104.369 149.089 104.565 149.187 104.663 149.187C104.663 149.187 104.663 149.187 104.76 149.187C104.76 149.187 104.76 149.187 104.858 149.187C104.858 149.187 104.858 149.187 104.956 149.187C105.054 149.285 105.152 149.285 105.348 149.383C105.348 149.383 105.446 149.383 105.446 149.481C105.544 149.579 105.544 149.579 105.642 149.677C105.642 149.677 105.642 149.775 105.74 149.775C105.74 149.873 105.74 149.873 105.74 149.873C105.74 149.971 105.74 149.971 105.74 150.068V150.362H105.544Z" fill="#1E1E1C"/>
<path d="M105.544 150.068C105.544 150.166 105.544 150.166 105.544 150.264V150.362V150.46C105.544 150.558 105.446 150.656 105.446 150.754C105.446 150.754 105.446 150.852 105.446 150.95V151.048C105.348 151.146 105.25 151.244 105.25 151.342C105.25 151.342 105.25 151.342 105.25 151.44L105.152 151.538C105.054 151.636 104.956 151.734 104.76 151.93C104.662 151.93 104.564 152.028 104.564 152.028C104.564 151.93 104.466 151.93 104.466 151.832V151.734C104.466 151.636 104.368 151.44 104.368 151.342C104.368 151.244 104.368 151.146 104.271 151.048C104.271 151.048 104.271 151.048 104.271 150.95C104.271 150.95 104.271 150.95 104.271 150.852C104.271 150.754 104.271 150.656 104.271 150.558C104.271 150.068 104.271 149.677 104.271 149.285C104.271 149.187 104.271 149.187 104.271 149.089C104.368 149.089 104.564 149.187 104.662 149.187C104.662 149.187 104.662 149.187 104.76 149.187C104.76 149.187 104.76 149.187 104.858 149.187C104.858 149.187 104.858 149.187 104.956 149.187C105.054 149.285 105.152 149.285 105.348 149.383C105.348 149.383 105.446 149.383 105.446 149.481C105.544 149.579 105.544 149.579 105.642 149.677C105.642 149.677 105.642 149.775 105.74 149.775C105.446 149.97 105.446 149.97 105.544 150.068Z" fill="white"/>
<path d="M116.81 138.51C116.614 138.51 116.516 138.51 116.32 138.412C104.663 135.277 91.7322 136.942 81.5444 130.086C82.524 138.51 81.2505 147.228 77.626 155.162C87.6179 162.411 101.43 163.88 113.479 163.586C113.283 160.941 113.773 158.101 113.969 155.848C114.557 150.166 115.341 144.191 116.81 138.51ZM92.5159 148.011C92.124 149.089 91.3404 150.166 90.3608 150.754C89.1853 151.44 87.7158 151.44 86.6383 150.46C85.3648 149.187 85.2669 147.032 85.4628 145.465C85.4628 145.073 85.6587 144.681 85.8546 144.387C85.8546 144.387 85.8546 144.289 85.8546 144.191C85.8546 143.31 86.6383 142.428 87.5199 142.526C89.1852 142.624 90.9485 143.016 92.0261 144.387C92.8098 145.465 93.0057 146.836 92.5159 148.011ZM108.581 151.636C107.798 153.987 104.859 156.534 102.41 154.672C100.842 153.399 100.647 151.146 100.647 149.187C100.647 148.697 100.842 148.207 101.234 147.913C101.136 147.718 101.038 147.424 101.038 147.13C101.038 146.248 101.822 145.367 102.704 145.465C104.467 145.661 106.524 146.052 107.7 147.522C108.777 148.697 109.071 150.166 108.581 151.636ZM89.4791 146.542C89.4791 146.444 89.4791 146.444 89.4791 146.444C89.4791 146.346 89.4791 146.346 89.3812 146.346C89.3812 146.346 89.3812 146.346 89.3812 146.444C89.3812 146.444 89.3812 146.444 89.4791 146.542C89.3812 146.444 89.3812 146.346 89.2832 146.346C89.1852 146.248 89.0873 146.248 88.9893 146.15H88.8914H88.7934C88.7934 146.346 88.7934 146.542 88.7934 146.738C88.7934 146.934 88.7934 147.032 88.7934 147.228V147.424C88.7934 147.522 88.8914 147.62 88.8914 147.816C88.8914 147.816 88.9893 147.718 88.9893 147.62L89.0873 147.522C89.1852 147.424 89.2832 147.228 89.2832 147.13C89.2832 147.032 89.2832 147.032 89.3812 146.934C89.3812 146.836 89.3812 146.836 89.3812 146.738L89.4791 146.542Z" fill="white"/>
<path d="M92.0247 144.485C90.9472 143.114 89.184 142.722 87.5188 142.624C86.6372 142.624 85.8536 143.408 85.8536 144.289C85.8536 144.289 85.8536 144.387 85.8536 144.485C85.6577 144.779 85.4617 145.171 85.4617 145.563C85.3638 147.228 85.3638 149.383 86.6372 150.558C87.6168 151.538 89.184 151.538 90.3595 150.852C91.437 150.166 92.1227 149.187 92.5145 148.109C93.0043 146.836 92.8084 145.465 92.0247 144.485ZM89.4779 146.542V146.738C89.4779 146.738 89.4779 146.836 89.4779 146.934C89.4779 147.032 89.38 147.032 89.38 147.13C89.282 147.326 89.184 147.424 89.184 147.522L89.0861 147.62C89.0861 147.718 88.9881 147.718 88.9881 147.816C88.9881 147.718 88.8902 147.522 88.8902 147.424V147.228C88.8902 147.032 88.8902 146.836 88.8902 146.738C88.8902 146.542 88.8902 146.346 88.8902 146.15H88.9881H89.0861C89.184 146.248 89.282 146.248 89.38 146.346C89.38 146.346 89.3799 146.444 89.4779 146.444C89.4779 146.444 89.4779 146.444 89.4779 146.346C89.4779 146.346 89.5759 146.346 89.5759 146.444C89.3799 146.444 89.3799 146.444 89.4779 146.542Z" fill="#1E1E1C"/>
<path d="M155.601 139.979C147.96 136.453 123.47 133.808 124.45 147.424C123.176 147.62 122.099 148.011 121.315 148.599C120.335 149.187 120.433 150.362 120.923 151.048C121.119 153.105 122.197 155.064 123.862 156.631C121.511 167.994 135.519 170.051 143.846 169.562C151.487 169.072 160.989 166.231 163.438 158.003C165.397 150.95 162.262 143.114 155.601 139.979ZM124.254 150.852C125.723 150.362 127.487 150.46 129.054 150.852C130.523 151.244 133.07 152.028 133.364 153.889C133.756 156.631 130.523 157.121 128.662 156.338C126.605 155.358 124.352 153.203 124.254 150.852ZM159.226 159.276C157.07 162.803 153.054 164.566 149.234 165.447C143.552 166.819 126.605 167.602 126.899 158.786C130.719 160.746 135.127 160.452 136.499 155.162C137.772 150.264 132.678 147.522 127.78 147.228C126.801 136.257 154.328 139.587 158.54 146.15C160.891 149.775 161.479 155.554 159.226 159.276Z" fill="#1E1E1C"/>
<path d="M128.662 156.24C126.703 155.358 124.352 153.203 124.254 150.852C125.723 150.362 127.486 150.46 129.054 150.852C130.523 151.244 133.07 152.028 133.364 153.889C133.658 156.631 130.425 157.121 128.662 156.24Z" fill="white"/>
<path d="M151.488 154.281V154.476V154.574C151.488 154.574 151.488 154.574 151.488 154.672C151.488 154.868 151.39 154.966 151.292 155.162C151.292 155.26 151.195 155.358 151.195 155.358C151.097 155.456 151.097 155.554 150.999 155.652C150.901 155.75 150.901 155.848 150.803 155.946C150.607 156.142 150.509 156.338 150.313 156.436C150.215 156.436 150.215 156.534 150.117 156.631C150.117 156.631 150.019 156.631 150.019 156.729V156.631C150.019 156.631 149.921 156.534 149.921 156.436C149.921 156.338 149.921 156.338 149.823 156.24C149.725 156.044 149.725 155.946 149.725 155.75C149.725 155.652 149.725 155.554 149.627 155.456C149.627 155.26 149.627 155.064 149.529 154.868C149.529 154.574 149.529 154.183 149.529 153.889C149.725 153.889 149.823 153.889 150.019 153.889C150.215 153.889 150.411 153.889 150.607 153.889C150.705 153.889 150.803 153.889 150.901 153.987C150.999 153.987 151.195 154.085 151.292 154.085C151.39 154.085 151.39 154.183 151.488 154.183C151.488 154.183 151.488 154.183 151.586 154.183C151.586 154.183 151.586 154.183 151.684 154.281C151.684 154.281 151.684 154.281 151.782 154.379C151.488 154.183 151.488 154.183 151.488 154.281Z" fill="white"/>
<path d="M158.54 146.248C154.328 139.783 126.801 136.453 127.781 147.326C132.679 147.718 137.773 150.362 136.499 155.26C135.128 160.55 130.72 160.844 126.899 158.885C126.605 167.7 143.552 166.819 149.234 165.545C153.055 164.664 157.169 162.803 159.226 159.374C161.479 155.554 160.891 149.775 158.54 146.248ZM154.622 155.848C153.838 158.493 150.508 161.529 147.765 159.276C147.079 158.689 146.589 157.807 146.393 156.827C146.001 155.554 146.001 154.183 146.001 152.909C146.001 152.517 146.197 152.028 146.491 151.734C146.589 151.146 146.981 150.558 147.667 150.46C149.724 150.166 152.075 150.069 153.74 151.636C154.916 152.713 155.112 154.379 154.622 155.848Z" fill="white"/>
<path d="M159.619 135.571C152.958 133.122 144.631 135.277 137.774 135.277C134.639 135.277 131.504 134.689 128.37 134.494C124.647 134.298 122.394 135.767 120.337 138.902C120.239 138.999 120.239 139.097 120.141 139.195C120.141 139.195 120.141 139.293 120.141 139.391C119.161 143.212 118.574 147.13 117.986 151.048C117.398 155.358 116.614 159.962 117.104 164.272C117.496 167.994 121.904 168.876 125.039 169.561C129.839 170.541 134.737 170.639 139.537 170.639C143.357 170.639 147.178 170.443 150.998 170.247C155.407 169.953 160.696 169.366 162.754 164.762C164.713 160.354 164.321 154.672 164.713 149.872C165.105 144.681 165.594 137.824 159.619 135.571ZM163.341 158.003C160.892 166.231 151.39 169.17 143.749 169.561C135.423 170.051 121.414 167.994 123.765 156.631C122.198 155.064 121.023 153.105 120.827 151.048C120.337 150.362 120.239 149.187 121.219 148.599C122.1 148.011 123.178 147.62 124.353 147.424C123.374 133.71 147.864 136.355 155.505 139.979C162.264 143.114 165.398 150.95 163.341 158.003Z" fill="white"/>
<path d="M153.74 151.636C152.075 150.166 149.724 150.166 147.667 150.46C146.982 150.558 146.59 151.146 146.492 151.734C146.198 152.028 146.002 152.419 146.002 152.909C146.002 154.183 146.002 155.554 146.394 156.827C146.59 157.709 147.079 158.591 147.765 159.276C150.508 161.529 153.838 158.591 154.622 155.848C155.112 154.379 154.916 152.713 153.74 151.636ZM151.585 154.476C151.585 154.574 151.585 154.574 151.585 154.476C151.585 154.574 151.585 154.574 151.585 154.574C151.585 154.574 151.585 154.574 151.585 154.672C151.585 154.868 151.487 154.966 151.389 155.162C151.389 155.26 151.292 155.358 151.292 155.358C151.194 155.456 151.194 155.554 151.096 155.652C150.998 155.75 150.998 155.848 150.9 155.946C150.704 156.142 150.606 156.338 150.41 156.436C150.312 156.436 150.312 156.534 150.214 156.631C150.214 156.631 150.116 156.631 150.116 156.729V156.631C150.116 156.631 150.018 156.534 150.018 156.436C150.018 156.338 150.018 156.338 149.92 156.24C149.822 156.044 149.822 155.946 149.822 155.75C149.822 155.652 149.822 155.554 149.724 155.456C149.724 155.26 149.724 155.064 149.626 154.868C149.626 154.574 149.626 154.183 149.626 153.889C149.822 153.889 149.92 153.889 150.116 153.889C150.312 153.889 150.508 153.889 150.704 153.889C150.802 153.889 150.9 153.889 150.998 153.987C151.096 153.987 151.292 154.085 151.389 154.085C151.487 154.085 151.487 154.183 151.585 154.183C151.585 154.183 151.585 154.183 151.683 154.183C151.683 154.183 151.683 154.183 151.781 154.281C151.781 154.281 151.781 154.281 151.879 154.379V154.476H151.585Z" fill="#1E1E1C"/>
<path d="M167.16 159.766C167.748 154.476 168.728 148.403 168.042 142.918C172.548 142.82 177.054 142.134 180.972 140.077C180.776 145.758 180.09 151.342 179.307 156.925C176.956 162.313 171.079 164.86 165.495 166.231C166.475 164.272 166.964 162.019 167.16 159.766Z" fill="white"/>
<path d="M223.293 220.4C223.293 220.792 223.293 221.086 223.39 221.38C221.823 232.057 213.692 235.387 206.541 238.424C204.484 239.306 202.525 240.089 200.86 241.069C195.668 243.126 187.439 246.162 184.304 240.285C182.051 236.073 181.855 230.784 180.288 226.278C178.231 220.4 174.802 216.776 169.219 214.131C154.721 207.274 138.361 205.511 123.765 199.34C125.822 196.989 128.271 195.226 132.092 195.52C134.247 195.716 134.247 192.385 132.092 192.189C126.41 191.797 123.275 194.736 120.337 198.458C119.455 198.556 118.671 199.144 118.083 200.026C110.639 211.682 98.0017 232.155 81.4465 228.433C80.8587 228.335 80.271 228.335 79.7812 228.433C66.5566 226.278 35.1114 220.988 26.197 218.637C17.3806 216.286 12.8745 206.882 13.952 193.169C14.148 192.777 14.2459 192.385 14.2459 191.895C14.9316 182.688 16.1072 164.762 28.744 164.468C37.8543 164.272 46.4748 169.072 55.683 169.66C64.6953 170.247 71.7484 165.741 76.1566 158.297C87.0302 165.741 101.43 167.407 114.263 167.113C114.557 167.994 115.047 168.68 115.732 169.366C119.161 172.598 124.843 173.284 129.251 173.676C135.031 174.263 140.908 174.165 146.688 173.97C151.39 173.774 156.582 173.774 160.892 171.521C161.872 170.933 162.753 170.247 163.537 169.562C163.929 169.855 164.419 170.051 165.006 169.953C170.394 168.876 175.88 166.721 179.504 162.803C179.896 163.292 180.484 163.782 181.268 164.076C187.733 166.721 194.394 167.113 201.252 167.896C207.913 168.68 212.615 171.325 216.043 177.3C223.097 189.642 223.293 206.393 223.293 220.4Z" fill="white"/>
<path d="M190.475 48.6849C188.418 50.4481 186.263 51.9174 184.01 53.3868C185.773 55.2479 187.536 57.207 189.202 59.1661C190.573 60.7334 188.222 63.0843 186.851 61.517C184.99 59.362 183.03 57.305 181.071 55.2479C179.406 56.3254 177.741 57.305 176.076 58.4804C174.312 59.7538 172.647 56.8152 174.41 55.6397C175.88 54.6602 177.349 53.6806 178.818 52.799C177.055 50.9379 175.39 49.0767 173.725 47.1176C172.353 45.5504 174.704 43.1015 176.076 44.7667C177.839 46.9217 179.798 48.9788 181.757 51.0358C184.01 49.6645 186.165 48.1951 188.124 46.4319C189.691 44.9626 192.042 47.2156 190.475 48.6849Z" fill="#1E1E1C"/>
<path d="M262.671 116.862C262.475 113.727 262.279 110.495 261.3 107.556C260.908 106.283 260.32 105.303 259.634 104.617C251.406 110.691 253.169 124.6 257.871 132.339C258.949 134.2 256.108 135.865 255.03 134.004C249.643 124.992 248.369 110.495 256.598 102.854C255.912 102.658 255.128 102.56 254.247 102.364C240.434 100.699 226.23 104.128 212.81 98.838C201.838 94.5279 196.254 85.2222 194.785 73.8594C193.022 59.9498 197.038 45.9422 193.903 32.1306C191.748 22.8248 186.066 16.6536 177.054 13.617C165.299 9.69883 152.368 9.20906 140.221 8.0336C126.115 6.66223 108.384 3.52767 99.4698 17.6332C91.2412 30.6612 91.5351 48.587 90.6534 63.3782C90.5555 64.5537 89.9677 65.4353 89.184 65.9251C89.184 65.9251 89.0861 66.023 88.9881 66.121C90.1636 68.5698 90.9473 71.1167 91.731 73.7615C92.3188 75.8185 89.0861 76.7001 88.4983 74.6431C87.6167 71.7044 86.6371 68.8637 85.2656 66.2189C85.2656 66.2189 85.1677 66.2189 85.1677 66.121C84.6779 65.8271 84.286 65.3373 84.0901 64.7496C78.5064 57.5009 72.5308 49.7625 64.3022 45.5504C55.2899 40.9465 45.3959 43.9831 37.0693 48.685C29.6244 52.7991 22.9631 58.2846 16.6937 63.966C12.2855 67.9821 5.91806 71.5085 6.70174 78.1694C7.87726 88.1609 15.2243 98.9359 22.4733 105.597C23.6488 106.674 25.3141 108.046 26.5876 108.535C27.0774 108.731 27.2733 108.731 27.3713 108.731C27.6652 108.34 28.7427 107.066 28.9386 106.968C33.9346 101.777 40.2041 97.3686 47.4531 96.2911C60.3838 94.332 71.2574 103.442 76.7431 114.413C78.5064 117.939 79.8778 121.661 80.6615 125.482C80.8574 125.58 81.0534 125.678 81.2493 125.776C91.1432 134.396 105.249 132.045 117.201 135.277C117.69 135.375 118.082 135.767 118.18 136.061C121.707 131.457 125.821 130.869 131.699 131.555C139.731 132.437 147.764 130.771 155.895 131.555C161.381 132.143 165.887 134.494 167.454 139.685C172.45 139.587 177.936 138.902 181.854 135.669C182.05 126.167 183.128 116.666 183.813 107.164C184.009 105.107 187.34 105.009 187.144 107.164C186.36 116.568 185.381 125.971 185.185 135.473C185.479 135.571 185.773 135.669 186.066 135.767C199.487 141.938 214.181 146.836 228.875 148.599C236.222 149.481 244.059 149.677 251.112 147.228C259.438 144.387 263.063 137.334 263.357 128.812C263.455 124.796 262.965 120.878 262.671 116.862ZM121.707 49.3706C123.47 48.1952 125.135 47.0197 126.801 45.7463C125.723 44.277 124.646 42.8077 123.568 41.3383C122.295 39.6731 125.135 38.0079 126.409 39.6731C127.388 40.9465 128.368 42.3179 129.348 43.5913C131.013 42.122 132.58 40.5547 134.148 38.8895C135.617 37.3222 137.968 39.6731 136.499 41.2404C134.931 43.0036 133.168 44.6688 131.405 46.2361C132.188 47.3136 133.07 48.2931 134.05 49.2727C135.519 50.84 133.168 53.1909 131.699 51.6236C130.719 50.6441 129.739 49.5666 128.858 48.3911C127.095 49.7625 125.331 51.0359 123.372 52.3093C121.609 53.3868 119.943 50.5461 121.707 49.3706ZM183.422 83.3611C181.952 86.8874 179.993 89.5322 176.858 91.7852C176.27 92.177 175.389 91.9811 174.899 91.4913C171.47 88.4547 168.042 85.5161 165.005 82.1856C163.144 84.5365 161.185 86.8874 159.127 89.0424C158.638 89.5322 157.756 89.6302 157.168 89.3363C153.152 87.0834 150.213 83.557 146.785 80.5204C143.65 82.6754 140.711 84.9283 137.478 86.8874C136.891 87.1813 135.911 87.1813 135.421 86.5936C133.56 84.2426 132.091 81.6958 130.425 79.2469C127.584 81.5979 125.037 84.2426 121.707 86.1038C120.923 86.5936 119.943 86.2997 119.454 85.5161C117.005 81.9897 115.731 78.0715 114.36 73.9574C113.674 71.9003 116.907 71.0187 117.592 73.0758C118.67 76.3083 119.748 79.4429 121.413 82.3815C124.352 80.4224 126.801 77.8756 129.642 75.6226C130.523 74.9369 131.601 75.0349 132.286 75.9165C133.952 78.2674 135.323 80.8142 136.989 83.1651C140.123 81.206 142.964 78.9531 146.001 76.896C146.687 76.5042 147.47 76.7001 147.96 77.1899C151.291 79.9326 154.034 83.3611 157.658 85.712C159.813 83.3611 161.772 80.8142 163.732 78.3653C164.319 77.6797 165.593 77.6797 166.083 78.3653C169.119 81.9897 172.646 85.0263 176.075 88.0629C177.936 86.4956 179.209 84.6345 180.189 82.3815C181.07 80.5204 184.303 81.402 183.422 83.3611ZM190.475 48.685C188.417 50.4482 186.262 51.9175 184.009 53.3868C185.773 55.248 187.536 57.207 189.201 59.1661C190.573 60.7334 188.222 63.0844 186.85 61.5171C184.989 59.3621 183.03 57.305 181.071 55.2479C179.405 56.3255 177.74 57.305 176.075 58.4805C174.311 59.7539 172.646 56.8152 174.409 55.6398C175.879 54.6602 177.348 53.6807 178.817 52.7991C177.054 50.9379 175.389 49.0768 173.724 47.1177C172.352 45.5504 174.703 43.1015 176.075 44.7668C177.838 46.9218 179.797 48.9788 181.756 51.0359C184.009 49.6645 186.164 48.1952 188.124 46.432C189.691 44.9627 192.042 47.2156 190.475 48.685Z" fill="white"/>
<path d="M183.423 83.3611C181.954 86.8875 179.995 89.5323 176.86 91.7853C176.272 92.1771 175.391 91.9812 174.901 91.4914C171.472 88.4548 168.044 85.5161 165.007 82.1856C163.146 84.5366 161.186 86.8875 159.129 89.0425C158.639 89.5323 157.758 89.6303 157.17 89.3364C153.154 87.0834 150.215 83.557 146.786 80.5204C143.652 82.6754 140.713 84.9284 137.48 86.8875C136.892 87.1814 135.913 87.1814 135.423 86.5936C133.562 84.2427 132.092 81.6959 130.427 79.247C127.586 81.5979 125.039 84.2427 121.708 86.1039C120.925 86.5936 119.945 86.2998 119.455 85.5161C117.006 81.9897 115.733 78.0715 114.361 73.9574C113.676 71.9004 116.908 71.0188 117.594 73.0758C118.672 76.3084 119.749 79.4429 121.415 82.3816C124.353 80.4225 126.802 77.8756 129.643 75.6227C130.525 74.937 131.602 75.0349 132.288 75.9165C133.953 78.2675 135.325 80.8143 136.99 83.1652C140.125 81.2061 142.966 78.9531 146.003 76.8961C146.688 76.5043 147.472 76.7002 147.962 77.1899C151.292 79.9327 154.035 83.3611 157.66 85.712C159.815 83.3611 161.774 80.8143 163.733 78.3654C164.321 77.6797 165.595 77.6797 166.084 78.3654C169.121 81.9897 172.648 85.0263 176.076 88.063C177.938 86.4957 179.211 84.6345 180.191 82.3816C181.072 80.5204 184.305 81.402 183.423 83.3611Z" fill="#1E1E1C"/>
<path d="M131.406 46.2361C132.189 47.3136 133.071 48.2932 134.051 49.2727C135.52 50.84 133.169 53.1909 131.7 51.6236C130.72 50.6441 129.74 49.5666 128.859 48.3911C127.096 49.7625 125.332 51.0359 123.373 52.3093C121.61 53.4848 119.945 50.6441 121.708 49.4686C123.471 48.2932 125.137 47.1177 126.802 45.8443C125.724 44.375 124.647 42.9056 123.569 41.4363C122.296 39.7711 125.137 38.1059 126.41 39.7711C127.39 41.0445 128.369 42.4159 129.349 43.6893C131.014 42.22 132.581 40.6527 134.148 38.9874C135.618 37.4202 137.969 39.7711 136.499 41.3384C134.932 43.0036 133.169 44.6688 131.406 46.2361Z" fill="#1E1E1C"/>
</svg>
