<svg width="450" height="416" viewBox="0 0 450 416" fill="none" xmlns="http://www.w3.org/2000/svg">
<path d="M199.797 415.033C194.962 415.033 190.395 413.421 186.635 410.466C186.366 410.198 186.097 409.929 185.829 409.929C185.56 409.661 185.291 409.661 185.023 409.392L184.754 409.123C184.485 408.855 184.217 408.855 183.948 408.586C183.68 408.317 183.68 408.317 183.411 408.049C183.142 407.78 183.142 407.78 182.874 407.512C182.605 407.243 182.336 406.974 182.068 406.706C181.799 406.437 181.531 406.437 181.262 406.168L180.993 405.9C180.725 405.631 180.456 405.631 180.187 405.363C179.919 405.094 179.919 405.094 179.65 404.825C179.382 404.557 179.113 404.557 179.113 404.288C175.352 401.064 172.666 396.498 171.591 391.662L169.979 380.917C169.174 381.186 168.099 381.454 167.025 381.454L129.685 385.753C129.148 385.753 128.61 385.753 128.342 385.753C127.805 385.753 127.267 386.021 126.73 386.021L105.24 388.439C104.434 388.439 103.628 388.439 102.822 388.439C100.673 388.439 98.5239 388.17 96.6435 387.364C92.8827 388.976 88.8532 390.051 84.5551 390.588C82.9434 390.857 81.063 390.856 79.4512 390.856C69.5119 390.856 60.3785 387.633 52.5882 381.186C52.3196 380.917 52.0509 380.649 51.7823 380.649C51.7823 380.649 50.4392 379.574 50.1705 379.305C49.9019 379.305 49.9019 379.037 49.6333 379.037C49.6333 379.037 49.3646 378.768 49.096 378.768C48.8274 378.5 48.5587 378.5 48.2901 378.231C48.2901 378.231 48.2901 378.231 48.0215 377.962C47.7529 377.694 47.2156 377.425 46.947 377.156L46.6783 376.888C46.4097 376.619 46.1411 376.619 46.1411 376.35C45.8724 376.082 45.0666 375.545 45.0666 375.545C35.9331 368.292 30.5605 358.352 29.2174 346.801L24.1134 301.671C23.8448 298.448 23.8448 295.224 24.1134 292.001C23.8448 291.732 23.8448 291.732 23.5762 291.463C23.3075 291.195 23.0389 291.195 22.7703 290.926C22.5016 290.658 22.233 290.658 22.233 290.389C21.9644 290.12 21.6958 290.12 21.4271 289.852C21.1585 289.583 20.8899 289.583 20.8899 289.314L20.084 288.777C16.0545 285.554 13.0996 280.718 12.2937 275.346L0.205368 186.16C-1.40641 174.878 6.65248 164.401 17.9349 162.79L59.5726 157.148C59.8412 157.148 60.3785 157.148 60.3785 157.148C60.9157 157.148 61.7216 157.148 62.2589 157.148C63.602 157.148 64.6765 157.148 66.0197 157.417C67.9001 156.343 70.0491 155.805 72.1982 155.537L93.9572 152.582C94.4945 152.582 94.7631 152.582 94.7631 152.582C95.3003 152.582 95.8376 152.582 96.6435 152.582C97.9866 152.582 99.3298 152.582 100.404 152.85C102.285 151.776 104.434 151.239 106.851 150.97L123.775 148.552L97.9866 51.3083L95.569 41.9063C93.9572 35.9964 95.0317 29.5493 98.5239 24.7139C102.016 19.8786 107.389 16.6551 113.299 15.8492C114.373 15.8492 140.43 13.4315 140.43 13.4315C140.967 13.4315 141.773 13.4315 142.311 13.4315C143.654 13.4315 144.997 13.7001 146.34 13.9688C148.22 13.1629 150.101 12.8942 151.981 12.6256C153.056 12.6256 172.397 10.7452 172.397 10.7452C172.934 10.7452 173.74 10.7452 174.278 10.7452C175.621 10.7452 176.964 11.0138 178.307 11.2825C180.187 10.4766 182.068 10.2079 183.948 9.93931C185.023 9.93931 234.182 5.10397 234.182 5.10397C234.719 5.10397 235.525 5.10397 236.062 5.10397C240.629 5.10397 245.196 6.71575 248.957 9.67068C249.225 9.93931 249.494 9.93931 249.763 10.2079C252.986 5.90986 258.09 2.95493 263.731 2.41767C264.806 2.41767 290.594 0 290.594 0C291.4 0 291.937 0 292.475 0C297.31 0 301.877 1.61178 305.638 4.83534L306.175 5.3726C306.443 5.64123 306.981 5.90986 307.249 6.17849L307.518 6.44712C307.787 6.71575 308.055 6.71575 308.324 6.98438C308.592 7.25301 308.861 7.52164 309.13 7.52164L309.398 7.79027C309.667 8.0589 309.936 8.0589 309.936 8.32753C310.204 8.59616 310.741 8.86479 311.01 9.13342L311.279 9.40205C311.547 9.67068 312.085 9.93931 312.353 10.2079C316.92 13.7001 319.875 19.0727 320.412 24.7139L328.74 114.705C329.008 116.585 329.008 118.734 329.008 120.615L417.119 110.676C417.925 110.676 418.731 110.676 419.537 110.676C424.372 110.676 428.939 112.287 432.699 115.242C432.968 115.511 433.237 115.779 433.505 115.779C433.774 116.048 434.043 116.317 434.311 116.585C434.58 116.854 434.849 117.123 435.117 117.123C435.386 117.391 435.654 117.391 435.654 117.66L436.998 118.734C437.266 119.003 437.535 119.272 437.803 119.272C438.072 119.54 438.609 119.809 438.609 120.078C438.878 120.346 439.147 120.615 439.415 120.615C443.982 124.107 446.937 129.211 447.474 134.852L449.892 156.611C450.698 164.401 446.937 172.192 440.758 176.221L446.4 225.649C446.668 228.873 446.4 232.096 445.325 235.051C445.862 236.663 446.131 238.543 446.131 240.424L446.937 265.406C447.206 274.271 441.564 282.33 433.505 285.554L435.386 350.025C435.654 355.397 433.505 360.77 429.745 364.799C426.252 368.292 421.954 370.709 416.85 371.247H415.507C415.239 371.247 415.239 371.247 414.97 371.247L389.45 372.052C387.301 372.052 385.152 371.784 383.272 371.247C381.66 371.784 380.048 372.321 378.168 372.321H377.093C376.824 372.321 376.824 372.321 376.556 372.321L351.305 373.127C347.544 373.127 344.052 372.321 341.097 370.441C338.142 371.784 334.918 372.59 331.695 373.127V373.396C332.501 378.768 331.426 384.409 328.202 388.976C324.979 393.274 320.144 396.498 314.771 397.304L202.484 415.839C202.215 415.839 201.946 415.839 201.678 415.839C201.409 415.033 200.603 415.033 199.797 415.033Z" fill="white"/>
<path d="M199.797 407.512C196.842 407.512 193.619 406.437 191.47 404.288C191.47 404.288 191.201 404.019 190.932 403.751L190.664 403.482L190.395 403.214L189.858 402.676C189.858 402.676 189.589 402.408 189.321 402.139C189.321 402.139 189.052 401.87 188.783 401.87C188.783 401.87 188.515 401.602 188.246 401.602L187.977 401.333C187.977 401.333 187.709 401.065 187.44 400.796L187.172 400.527L186.903 400.259L186.366 399.721C186.366 399.721 186.097 399.453 185.828 399.184C185.828 399.184 185.56 398.915 185.291 398.915C185.291 398.915 185.023 398.647 184.754 398.647C182.068 396.766 180.456 393.811 179.919 390.319L176.964 372.858H176.158C175.621 372.858 175.083 372.858 174.546 372.858C173.471 372.858 172.397 372.59 171.322 372.321C169.979 373.127 168.368 373.396 166.756 373.664L129.416 377.694C128.879 377.694 128.342 377.694 127.804 377.694C127.267 377.694 126.73 377.962 126.193 377.962L104.702 380.38C104.165 380.38 103.628 380.38 103.359 380.38C101.21 380.38 98.7924 379.843 96.912 378.768C92.8825 380.917 88.5844 382.26 84.0177 382.798C82.6746 383.066 81.3314 383.066 79.9883 383.066C71.9294 383.066 64.4077 380.38 57.9606 375.276L57.692 375.007H57.4234L57.1547 374.739C56.8861 374.47 56.6175 374.47 56.6175 374.47L57.4234 373.396L56.3488 374.47L56.0802 374.202C55.8116 374.202 55.8116 373.933 55.8116 373.933C55.8116 373.933 55.543 373.664 55.2743 373.396L55.0057 373.127H54.7371L53.9312 372.321C53.9312 372.321 53.6625 372.321 53.6625 372.052L53.3939 371.784L52.8567 371.515H52.588L52.3194 371.247L52.0508 370.978L51.7821 370.709H51.5135C51.2449 370.441 50.9762 370.172 50.9762 370.172L50.1704 369.635C42.6487 363.725 38.082 355.397 37.0075 345.995L31.9035 300.866C31.3663 296.836 31.6349 292.807 32.4408 289.046C32.1722 288.777 31.9035 288.777 31.9035 288.509C31.9035 288.509 31.6349 288.24 31.3663 288.24C31.0976 287.971 30.829 287.971 30.829 287.703C30.829 287.703 30.829 287.703 30.5604 287.434L30.0231 286.897C30.0231 286.897 29.7545 286.628 29.4859 286.36C29.2172 286.091 29.2172 286.091 28.9486 286.091C28.9486 286.091 28.68 286.091 28.68 285.822L28.4113 285.554C28.1427 285.285 27.8741 285.285 27.8741 285.016C27.8741 285.016 27.6054 284.748 27.3368 284.748C27.3368 284.748 27.3368 284.748 27.0682 284.479C26.7996 284.211 26.5309 284.211 26.5309 283.942C26.5309 283.942 26.2623 283.673 25.9937 283.673C25.9937 283.673 25.9937 283.673 25.725 283.405L25.1878 282.867C22.5015 280.987 20.6211 277.763 20.0838 274.271L7.99546 185.086C6.92094 177.833 12.0249 171.386 19.2779 170.311L60.9156 164.67C61.1842 164.67 61.1842 164.67 61.4528 164.67C61.7214 164.67 62.2587 164.67 62.796 164.67C64.4077 164.67 66.0195 164.939 67.6313 165.476C69.5117 164.133 71.6607 163.327 73.8098 163.058L95.8374 160.103C96.1061 160.103 96.1061 160.103 96.3747 160.103C96.6433 160.103 97.1806 160.103 97.7178 160.103C99.3296 160.103 100.941 160.372 102.553 161.178C104.434 159.835 106.583 158.76 108.732 158.492L128.61 155.805C128.879 155.805 128.879 155.805 129.148 155.805C129.416 155.805 129.953 155.805 130.491 155.805C130.759 155.805 131.028 155.805 131.297 155.805C132.102 155.537 132.908 155.268 133.714 155.268H134.52L105.508 49.1593L103.09 39.7573C102.016 35.9965 102.822 31.967 104.971 28.7435C107.12 25.5199 110.612 23.6395 114.373 23.1022C114.91 23.1022 141.236 20.6846 141.236 20.6846C141.773 20.6846 142.042 20.6846 142.579 20.6846C144.191 20.6846 145.803 20.9532 147.414 21.7591C149.026 20.6846 150.907 19.8787 153.056 19.8787C153.593 19.8787 173.471 17.9983 173.471 17.9983C174.009 17.9983 174.277 17.9983 174.815 17.9983C176.426 17.9983 178.038 18.2669 179.65 19.0728C181.262 17.9983 183.142 17.1924 185.291 17.1924C186.097 17.1924 234.719 12.6257 235.256 12.357C235.794 12.357 236.062 12.357 236.6 12.357C239.554 12.357 242.509 13.4316 244.927 15.312C245.196 15.5806 245.464 15.5806 245.464 15.8492C245.464 15.8492 245.733 15.8492 245.733 16.1179C246.002 16.3865 246.002 16.3865 246.27 16.6551L246.807 16.9238L247.882 17.7296L248.151 17.9983C248.151 17.9983 248.419 18.2669 248.688 18.5355C248.688 18.5355 248.956 18.8042 249.225 18.8042C249.225 18.8042 249.494 19.0728 249.762 19.0728H249.494C249.762 19.0728 249.762 19.3414 250.031 19.3414L250.568 19.6101C250.837 19.6101 250.837 19.8787 251.106 20.1473C251.374 20.4159 251.374 20.4159 251.643 20.6846C252.18 20.9532 252.449 21.4905 252.986 21.7591C253.255 15.312 258.09 9.93938 264.537 9.13349C265.074 9.13349 291.131 6.71582 291.131 6.71582C291.669 6.71582 291.937 6.71582 292.475 6.71582C295.698 6.71582 298.653 7.79034 301.071 9.67075L301.877 10.208C302.145 10.4766 302.414 10.4766 302.414 10.7453L302.682 11.0139H302.951L303.22 11.2825C303.488 11.2825 303.488 11.5512 303.757 11.5512C304.026 11.8198 304.294 11.8198 304.294 12.0884L304.832 12.357L305.1 12.6257L305.369 12.8943L305.637 13.1629C305.906 13.4316 306.175 13.4316 306.175 13.7002L306.981 14.2375C307.249 14.5061 307.518 14.5061 307.518 14.7747L307.786 15.0433C310.741 17.1924 312.622 20.6846 312.89 24.1768L321.218 114.168C321.755 118.734 321.487 123.57 320.412 127.868L418.193 116.854C418.731 116.854 419.268 116.854 419.536 116.854C422.491 116.854 425.715 117.929 427.864 119.809C427.864 119.809 428.133 120.078 428.401 120.346L428.67 120.615C428.939 120.615 428.939 120.884 429.207 121.152L429.476 121.421C429.476 121.421 429.744 121.689 430.013 121.958C430.013 121.958 430.282 122.227 430.55 122.227L432.431 123.57C432.431 123.57 432.699 123.838 432.968 123.838C433.237 124.107 433.237 124.107 433.505 124.376C433.505 124.376 433.774 124.644 434.042 124.644C434.042 124.644 434.311 124.913 434.58 124.913L434.848 125.182C437.803 127.331 439.415 130.554 439.952 134.046L442.37 155.805C443.176 162.521 438.878 168.431 432.431 170.043L438.609 224.843C438.878 227.798 438.341 230.753 436.729 233.171C437.803 235.051 438.341 236.932 438.341 239.081L439.146 264.063C439.415 270.779 434.311 276.689 427.595 277.495H426.521H425.715L427.864 348.413C427.864 351.905 426.789 355.397 424.372 357.815C422.223 359.964 419.268 361.576 416.313 361.845H415.238L389.719 362.65C387.57 362.65 385.42 362.113 383.54 361.039C381.928 362.113 380.048 362.65 377.899 362.919H376.824L351.573 363.725C348.35 363.725 345.395 362.65 342.977 360.77C342.977 360.77 342.708 360.501 342.44 360.233L342.171 359.964C337.873 362.382 333.038 363.725 328.202 364.262C327.128 364.262 326.053 364.531 324.979 364.531C324.441 364.531 323.367 364.531 323.367 364.531L324.71 372.858C325.247 376.351 324.441 379.843 322.292 382.529C320.412 385.215 317.188 387.364 313.696 387.902L201.409 406.168C200.872 406.168 200.872 406.168 200.603 406.168C200.603 407.512 200.334 407.512 199.797 407.512Z" fill="#B61928"/>
<path d="M424.372 239.349L417.119 233.708L365.005 235.32L340.291 236.126L356.14 234.245L396.434 229.679L395.628 223.232L402.881 228.873L424.64 226.455L417.119 158.76L428.401 157.417L425.984 135.121L419.805 130.286L380.048 134.584L375.75 135.121L340.828 139.15L339.485 139.419L299.19 143.986L309.13 233.44L315.845 238.275V240.155L312.89 237.738L301.877 238.006L289.788 153.656L282.267 147.478L260.776 150.433L261.582 155.805L255.941 150.97L237.674 153.388L197.648 158.76L199.26 170.58C198.991 170.312 194.156 166.282 193.887 166.013C189.052 162.253 183.411 160.909 177.501 161.715C171.591 162.521 167.024 165.208 163.264 169.506L157.085 164.402L135.595 167.357L136.401 172.729L130.491 168.162L110.612 170.849L115.985 209.8L105.239 178.37L97.9864 172.461L75.9588 175.415L74.0784 207.114L70.8548 182.937L62.5273 177.565L20.8896 183.206L32.978 272.391L40.231 278.301L59.5724 275.614C55.5429 276.958 52.0507 279.375 49.3644 282.867C45.6036 287.703 43.9918 293.075 44.5291 299.254L49.633 344.384C50.1703 350.562 53.1252 355.398 57.9606 359.158L65.2136 365.068C70.0489 368.829 75.4215 370.441 81.6 369.904C87.5099 369.366 92.0766 366.68 95.8374 362.382L102.285 367.754L123.775 365.337L123.506 362.113L126.73 365.068L140.161 363.456L149.563 362.382L164.338 360.77L165.144 350.562L166.218 353.786L174.009 359.696L189.589 358.084L197.917 357.009L213.497 355.397L214.303 345.19L215.378 348.413L223.168 354.323L247.345 351.637L244.658 343.578L244.39 342.503C244.39 342.503 247.345 344.652 247.345 344.921C247.345 344.921 247.345 344.921 247.613 345.19C251.911 348.682 257.015 350.294 262.388 350.025L187.977 362.113L192.276 388.17L200.066 394.08L312.353 375.545L308.055 349.488L300.533 344.115L268.298 349.488C272.596 348.145 276.357 345.727 279.312 341.966C283.072 337.131 284.684 331.758 284.147 325.58L280.923 295.493L274.208 290.389L280.118 289.852L279.043 280.718C278.506 274.54 275.551 269.705 270.715 265.675C270.715 265.675 263.194 259.765 262.925 259.765C258.09 256.004 252.717 254.393 246.539 254.93C240.36 255.467 235.525 258.422 231.764 263.257C228.003 268.093 226.392 273.465 226.929 279.644L228.272 291.732L221.556 270.242L219.676 264.601L211.886 258.691L189.858 261.108L189.321 267.018L185.023 316.983L171.86 275.614L170.248 269.973L162.458 264.063L140.43 266.481L139.893 272.391L137.744 296.299C136.669 290.389 133.714 285.554 129.147 281.793C129.147 281.793 121.626 276.152 121.626 275.883C121.626 275.883 121.357 275.883 121.357 275.614C116.253 271.585 110.075 269.705 103.628 270.51L84.2863 272.66L85.6295 284.211C85.6295 284.211 85.3608 284.211 85.3608 283.942C85.3608 283.942 80.2569 279.644 79.9882 279.644C76.2274 276.689 71.9293 274.809 67.3626 274.809L81.0627 272.928L100.135 270.242L100.673 259.497L101.747 262.989L109.806 268.899L129.147 266.212L150.638 263.257L149.832 257.348L155.742 262.72L175.62 260.034L174.009 248.483C174.277 248.751 174.546 248.751 174.546 249.02C174.815 249.289 176.964 250.9 177.232 251.169C177.501 251.438 177.501 251.438 177.501 251.438C177.501 251.438 177.77 251.706 178.038 251.706C178.307 251.975 178.844 252.244 179.113 252.781C183.679 256.273 189.052 257.885 194.962 257.348C195.23 257.348 195.23 257.348 195.499 257.348C201.409 256.542 206.244 253.855 210.005 249.02L212.423 250.632L213.229 251.169L213.766 251.706L216.184 254.393L254.598 249.02L276.088 246.065L275.282 240.424L281.192 245.259L286.833 244.453L289.251 320.476C289.52 327.729 292.206 333.907 297.578 339.011C298.384 339.817 299.19 340.354 299.996 341.16L306.443 346.533C311.279 350.562 317.188 352.443 323.904 352.443C324.71 352.443 325.516 352.443 326.322 352.174C332.5 351.368 338.142 348.682 342.44 344.115C342.977 343.578 343.246 343.309 343.514 342.772V345.458L350.767 351.099L375.481 350.294L372.795 266.481L378.705 266.212L381.122 343.846L388.375 349.488L413.358 348.682L410.672 264.869L424.64 264.332L424.372 239.349ZM388.375 161.984L393.479 207.92L386.226 202.278L374.407 203.622L373.869 197.98L384.883 196.637L382.466 174.878L374.675 168.968L370.377 169.506L369.84 163.864L388.375 161.984ZM229.615 183.743L239.823 182.4L241.435 194.22L234.719 188.578L230.152 189.116L229.615 183.743ZM234.719 222.963L233.913 217.59L244.121 216.247L244.927 221.62L234.719 222.963Z" fill="#6D0038"/>
<path d="M146.878 152.851L154.131 158.761L178.845 156.343L179.382 150.165L186.098 155.806L210.812 153.388L211.349 146.404L215.379 92.9464L220.214 145.866L227.467 151.508L253.793 149.09L252.181 131.629C252.987 132.435 253.524 133.241 254.33 133.778C254.867 134.047 262.389 140.225 262.389 140.494C268.03 145.061 274.477 146.941 281.999 146.404C282.267 146.404 282.267 146.404 282.536 146.404C290.058 145.598 296.236 142.106 301.072 136.196C305.907 130.286 308.056 123.302 307.25 115.243L298.654 25.2517L291.938 19.3418L265.612 21.7595L272.328 92.9464L269.642 90.7973L248.957 92.6778L243.047 30.6242L235.794 24.7144L186.098 29.8184L184.755 48.0852L181.8 36.8027L174.547 30.8929L154.4 32.7733L152.788 51.0401L151.445 46.4734L149.564 39.7577L142.043 33.8478L115.448 36.2655L146.878 152.851Z" fill="#6D0038"/>
<path d="M148.758 74.1418L153.593 92.6772L155.205 73.6045L156.011 63.1279L157.891 39.7571L158.16 36.5336L160.309 36.265H161.383L167.831 35.7277L171.054 35.4591L171.86 38.6826L174.815 49.9651L177.77 61.2475L180.456 71.1868L185.56 89.7223L186.903 70.6496L187.709 60.173L189.59 36.8022L189.858 33.5787L193.082 33.31L203.29 32.2355L208.125 31.6982L207.856 36.5336L200.066 140.225L199.798 143.448L196.574 143.717L185.56 144.791L182.068 145.329L181.262 142.105L171.054 103.96L168.099 143.18L167.831 146.403L164.607 146.672L153.325 148.015L150.101 148.552L149.026 145.329L122.163 44.5925L120.82 40.0258L125.387 39.4885L135.595 38.414L138.819 38.1454L139.624 41.3689L145.803 63.9338L148.758 74.1418Z" fill="white"/>
<path d="M228.271 30.0865L232.301 29.8179L232.57 33.8473L242.24 135.927L242.509 139.956L238.479 140.225L228.271 141.299L224.242 141.568L223.973 137.538L214.571 35.1905L214.303 31.161L218.332 30.8924L228.271 30.0865Z" fill="white"/>
<path d="M290.862 48.6221L296.772 109.87C297.31 116.854 295.698 122.764 291.4 127.868C287.102 132.972 281.729 135.927 275.282 136.733C268.835 137.27 262.925 135.39 258.09 131.091C253.254 126.793 250.299 121.152 249.762 114.436L248.688 101.542L248.419 97.5127L252.448 97.2441L262.656 96.1696L266.686 95.9009L266.954 99.9304L268.029 112.825C268.298 114.705 268.835 116.317 270.178 117.391C271.252 118.197 272.327 118.734 273.939 118.466C275.551 118.197 276.894 117.66 277.7 116.317C278.774 114.974 279.043 113.362 278.774 111.481L272.864 50.2339L270.984 29.818L270.715 25.7885L274.745 25.5199L284.953 24.4454L288.982 24.1768L289.251 28.2062L290.862 48.6221Z" fill="white"/>
<path d="M35.9335 185.355L38.8884 184.817L39.1571 187.772L43.4552 218.665L50.1709 217.859L45.8728 186.966L45.3356 184.011L48.2905 183.474L55.8121 182.4L58.7671 181.862L59.3043 184.817L69.5123 260.034L70.0495 262.989L67.0946 263.526L59.5729 264.6L56.618 265.138L56.0808 262.183L51.7827 231.29L45.0669 232.365L49.365 263.257L49.9023 266.212L46.9473 266.749L39.4257 267.824L36.4708 268.361L36.2022 265.406L25.9942 190.19L25.7256 187.235L28.6805 186.698L35.9335 185.355Z" fill="white"/>
<path d="M90.4645 247.677L89.9272 258.153V260.571L86.9723 260.84L78.3761 261.914L74.3467 262.451L74.6153 258.959L79.182 181.863V179.445L82.137 179.176L91.539 177.833L94.4939 177.564L95.2998 179.982L120.282 253.049L121.357 256.273L117.327 256.81L108.731 257.885L105.776 258.153L104.97 255.736L101.478 245.796L90.4645 247.677ZM91.2704 212.218L91.0017 234.514L97.1802 233.708L91.2704 212.218Z" fill="white"/>
<path d="M115.179 177.565L114.642 174.61L117.597 174.072L125.387 172.998L127.536 172.729L128.342 174.61L144.728 208.457L139.893 173.804L139.356 170.849L142.31 170.312L149.832 169.237L152.787 168.7L153.324 171.655L163.532 246.871L164.069 249.826L161.115 250.363L153.324 251.438L151.175 251.706L150.369 249.826L133.983 216.247L138.818 250.9L139.356 253.855L136.401 254.393L128.879 255.467L125.924 256.004L125.387 253.049L115.179 177.565Z" fill="white"/>
<path d="M190.664 169.774C194.693 172.729 196.842 176.758 197.648 181.594L198.185 184.817L198.454 186.698L195.499 187.235L187.977 188.309L185.022 188.578L184.754 186.698L184.217 183.474C183.948 182.131 183.411 181.056 182.336 180.251C181.262 179.445 180.187 179.176 178.844 179.445C177.501 179.713 176.426 180.251 175.62 181.325C174.815 182.4 174.546 183.474 174.815 184.817L180.993 229.947C181.262 231.29 181.799 232.365 182.873 233.171C183.948 233.977 185.022 234.245 186.366 233.977C187.44 233.708 188.515 233.171 189.321 232.096C190.126 231.022 190.395 229.947 190.126 228.604L188.515 215.978L185.56 216.516L182.873 216.784L182.336 213.829L181.262 206.308L180.724 203.353L183.411 203.084L196.842 201.204L199.797 200.666L200.334 203.621L203.558 226.724C204.095 231.559 203.021 236.126 200.066 240.155C197.111 244.185 193.081 246.334 188.246 247.139C183.142 247.677 178.844 246.602 174.815 243.647C170.785 240.692 168.636 236.663 167.83 231.828L161.652 186.698C161.114 181.862 162.189 177.296 165.144 173.266C168.099 169.237 172.128 166.819 176.964 166.282C182.336 165.476 186.634 166.55 190.664 169.774Z" fill="white"/>
<path d="M230.958 158.76L233.913 158.223L234.45 161.178L235.525 168.7L236.062 171.655L233.107 172.192L217.258 174.341L219.944 194.757L228.003 193.682L230.958 193.145L231.496 196.1L232.57 203.622L233.107 206.577L230.152 207.114L222.093 208.188L224.78 228.604L240.36 226.455L243.315 225.918L243.852 228.873L244.927 236.394L245.464 239.349L242.509 239.887L216.452 243.379L213.497 243.916L212.96 240.961L202.752 165.745L202.215 162.79L205.17 162.253L230.958 158.76Z" fill="white"/>
<path d="M240.898 160.372L240.36 157.417L243.315 156.88L251.106 155.805L253.255 155.537L254.06 157.417L270.447 191.265L265.612 156.611L265.074 153.656L268.029 153.119L275.551 152.045L278.506 151.507L279.043 154.462L289.251 229.679L289.788 232.634L286.833 233.171L279.043 234.245L276.894 234.514L276.088 232.634L259.702 199.055L264.537 233.708L265.074 236.663L262.119 237.2L254.598 238.275L251.643 238.812L251.106 235.857L240.898 160.372Z" fill="white"/>
<path d="M314.233 146.404L317.188 146.135L317.457 149.09L320.949 179.982L327.665 179.176L324.173 148.284L323.904 145.329L326.859 145.06L334.381 144.254L337.336 143.986L337.604 146.941L345.932 222.157L346.2 225.112L343.245 225.381L335.724 226.187L332.769 226.455L332.5 223.5L329.008 192.608L322.292 193.414L325.784 224.306L326.053 227.261L323.098 227.53L315.577 228.336L312.622 228.604L312.353 225.649L304.025 150.433L303.757 147.478L306.712 147.209L314.233 146.404Z" fill="white"/>
<path d="M373.332 139.688L376.287 139.419L376.556 142.374L377.362 149.895L377.63 152.85L374.676 153.119L358.826 154.999L361.244 175.415L369.303 174.609L372.258 174.341L372.526 177.296L373.332 184.817L373.601 187.772L370.646 188.041L362.587 188.847L365.005 209.531L380.854 207.651L383.809 207.382L384.078 210.337L384.883 217.859L385.152 220.814L382.197 221.082L356.14 224.037L353.185 224.306L352.916 221.351L344.589 146.135L344.32 143.18L347.275 142.911L373.332 139.688Z" fill="white"/>
<path d="M384.615 152.045L381.66 152.313L381.391 149.359L380.585 141.837L380.316 138.882L383.271 138.613L394.554 137.27L402.075 136.464L413.358 135.121L416.313 134.853L416.581 137.807L417.387 145.329L417.656 148.284L414.701 148.553L406.373 149.359L413.627 214.367L413.895 217.322L410.94 217.591L403.419 218.396L400.464 218.665L400.195 215.71L392.942 150.702L384.615 152.045Z" fill="white"/>
<path d="M78.377 282.867C82.4065 286.091 84.5555 290.12 85.0928 294.956L85.3614 298.179L85.6301 300.06L82.6751 300.328L75.1535 301.134L72.1986 301.403L71.9299 299.791L71.6613 296.567C71.6613 295.224 70.8554 294.15 70.0495 293.344C69.2436 292.538 67.9005 292.269 66.5573 292.269C65.2142 292.538 64.1397 293.075 63.3338 293.881C62.5279 294.687 62.2592 296.03 62.2592 297.373L67.3632 342.503C67.3632 343.846 68.1691 344.921 68.975 345.727C70.0495 346.533 71.124 346.801 72.4672 346.801C73.5417 346.532 74.6162 345.995 75.4221 345.189C76.228 344.115 76.4966 343.04 76.4966 341.697L75.1535 329.072L72.1986 329.34L69.5123 329.609L69.2436 326.654L68.4377 319.132L68.1691 316.177L70.8554 315.909L84.2869 314.297L87.2418 314.028L87.5105 316.983L90.1968 340.085C90.734 344.921 89.3909 349.487 86.4359 353.248C83.2124 357.278 79.1829 359.427 74.3476 359.964C69.2436 360.501 64.9455 359.158 60.9161 356.203C56.8867 352.98 54.7376 348.95 54.2004 344.115L49.0964 298.985C48.5591 293.881 49.9023 289.583 52.8572 285.822C56.0808 281.793 60.1102 279.644 64.9455 279.106C70.0495 278.301 74.6162 279.644 78.377 282.867Z" fill="white"/>
<path d="M102.016 357.009L99.0611 357.278L98.7924 354.323L94.763 317.52L92.8826 300.597L90.4649 279.106L90.1963 276.151L93.1512 275.883L100.673 275.077L105.24 274.54C110.612 274.002 115.716 275.346 120.014 278.838C124.312 282.33 126.73 286.897 127.536 292.269L128.879 304.358C129.416 309.462 128.342 314.028 125.387 318.058C129.148 321.55 131.297 325.579 131.834 330.683L133.446 345.995C133.714 349.219 134.252 351.636 135.595 353.248L122.163 354.86C121.626 354.054 121.089 352.98 120.82 351.636C120.551 350.293 120.283 348.95 120.283 347.607L118.671 332.295C118.402 330.415 117.597 329.072 116.253 327.997C114.91 326.922 113.298 326.385 111.418 326.654L109.538 326.923L112.493 353.248L112.761 356.203L109.806 356.472L102.016 357.009ZM107.657 313.222L109.538 312.954C111.418 312.685 112.761 311.879 113.836 310.536C114.91 309.193 115.447 307.581 115.179 305.701L113.836 293.612C113.567 291.732 112.761 290.389 111.418 289.314C110.075 288.24 108.463 287.703 106.583 287.971L104.702 288.24L107.657 313.222Z" fill="white"/>
<path d="M154.668 338.474L153.862 348.95L153.593 351.368L150.638 351.637L142.042 352.711L138.013 353.248L138.281 349.756L144.728 272.659L144.997 270.242L147.952 269.973L157.354 268.899L160.309 268.63L161.115 271.048L184.486 344.652L185.56 347.876L181.531 348.413L172.935 349.487L170.248 349.756L169.442 347.338L166.219 337.399L154.668 338.474ZM156.28 303.014L155.474 325.311L161.652 324.505L156.28 303.014Z" fill="white"/>
<path d="M203.558 332.833L202.752 343.309L202.484 345.727L199.529 345.995L190.933 347.07L186.903 347.607L187.172 344.115L193.619 267.018L193.888 264.601L196.843 264.332L206.245 263.257L209.2 262.989L210.006 265.406L233.376 339.011L234.451 342.235L230.421 342.772L221.825 343.846L218.87 344.115L218.064 341.697L214.841 331.758L203.558 332.833ZM205.439 297.642L204.633 319.938L210.811 319.132L205.439 297.642Z" fill="white"/>
<path d="M260.238 262.451C264.268 265.675 266.417 269.704 266.954 274.54L267.223 277.763L267.491 279.644L264.536 279.912L257.015 280.718L254.06 280.987L253.791 279.106L253.523 275.883C253.254 274.54 252.717 273.465 251.911 272.659C251.105 271.853 249.762 271.585 248.419 271.585C247.076 271.853 246.001 272.391 245.195 273.196C244.389 274.002 244.121 275.346 244.121 276.689L249.225 321.818C249.493 323.162 250.03 324.236 250.836 325.042C251.911 325.848 252.985 326.117 254.329 326.117C255.403 325.848 256.478 325.311 257.283 324.505C258.089 323.43 258.358 322.356 258.358 321.013L257.015 308.387L254.06 308.656L251.374 308.924L251.105 305.969L250.299 298.448L250.03 295.493L252.717 295.224L266.148 293.612L269.103 293.344L269.372 296.299L271.789 319.401C272.327 324.236 270.984 328.803 268.029 332.564C264.805 336.593 260.776 338.742 255.94 339.279C250.836 339.817 246.538 338.474 242.777 335.519C238.748 332.295 236.599 328.266 236.062 323.43L230.958 278.3C230.42 273.196 231.764 268.898 234.719 265.138C237.942 261.108 241.972 258.959 246.807 258.422C251.911 258.153 256.209 259.228 260.238 262.451Z" fill="white"/>
<path d="M338.679 319.132C338.948 325.311 336.799 330.683 332.769 334.981C328.74 339.279 323.367 341.697 317.189 341.966C311.01 342.234 305.638 340.085 301.34 336.056C296.773 331.758 294.624 326.654 294.355 320.475L291.938 245.796V242.035H295.43L304.832 241.767H308.324V245.528L310.742 320.207C310.742 321.818 311.279 323.162 312.622 324.236C313.697 325.311 315.04 325.848 316.651 325.848C318.263 325.848 319.606 325.311 320.681 323.968C321.755 322.893 322.293 321.55 322.293 319.938L319.875 245.259V241.498H323.636L333.038 241.229H336.799V244.99L338.679 319.132Z" fill="white"/>
<path d="M358.29 240.155H361.782V243.916L364.737 337.131V340.891H361.245L351.843 341.16H348.35V337.399L345.396 244.185V240.424H348.888L358.29 240.155Z" fill="white"/>
<path d="M373.601 256.273H369.84V252.512L369.571 243.11V239.349H373.332L387.301 238.812L396.703 238.543L410.672 238.006H414.164V241.767L414.432 251.169V254.93H410.94L400.464 255.198L402.881 335.519V339.279H399.121L389.719 339.548H385.958V335.787L383.54 255.467L373.601 256.273Z" fill="white"/>
<path d="M296.758 348.603L192.845 365.652L195.759 383.412L299.672 366.364L296.758 348.603Z" fill="white"/>
</svg>
