<svg width="114" height="101" viewBox="0 0 114 101" fill="none" xmlns="http://www.w3.org/2000/svg">
<g id="Stikr-logo">
<g id="Stikr-background">
<path id="Vector" d="M53.5676 100.5C52.9672 100.5 52.3669 100.5 51.7666 100.414C50.3086 100.328 48.8506 100.071 47.4784 99.6424C46.0204 99.2135 44.6482 98.6132 43.276 97.8413C42.3326 97.241 41.3892 96.4691 40.5316 95.5257C39.7597 94.6681 39.0736 93.8105 38.4732 92.7813C38.216 92.6098 38.0444 92.3525 37.8729 92.181C37.0153 91.2376 36.2434 90.2942 35.6431 89.1792C34.957 88.0643 34.4424 86.8636 34.0136 85.663C33.9278 85.4057 33.842 85.1484 33.7563 84.9768C33.6705 84.9768 33.6705 85.0626 33.5847 85.0626C32.2125 86.006 30.6688 86.8636 28.9535 87.6355C27.1525 88.4074 25.3515 88.922 23.4647 89.1792C22.3497 89.3508 21.3206 89.4365 20.2057 89.4365C19.348 89.4365 18.4904 89.3508 17.6328 89.265C15.4887 89.0077 13.5161 88.2358 11.8866 87.0352C11.2005 86.6063 10.5144 85.9202 9.82831 85.0626C9.22796 84.2907 8.62762 83.4331 8.11304 82.4897C7.76999 81.7178 7.42694 80.946 7.08388 80.1741C6.91236 79.9168 6.82659 79.6595 6.65507 79.488C6.14049 78.5446 5.71167 77.5154 5.45438 76.4863C5.11133 75.2856 4.85404 73.9991 4.9398 72.7985C4.9398 71.3405 5.28285 69.9683 5.96896 68.6818C6.74083 67.1381 8.02728 65.9374 9.65678 65.0798L10.6859 64.5652C10.4287 64.4794 10.2571 64.3937 9.99984 64.3937C8.37033 63.8791 6.91236 63.0214 5.71167 61.8208C4.59675 60.7916 3.65335 59.5051 2.88148 58.0472C2.88148 58.0472 2.88148 58.0472 2.88148 57.9614C2.45267 57.3611 2.10961 56.7607 1.76656 56.0746C0.994689 54.5309 0.48011 52.8156 0.22282 51.0146C-0.0344701 49.2993 -0.0344704 47.584 0.0512929 45.783C0.222819 44.0678 0.565873 42.2667 1.08045 40.4657C1.59503 38.6647 2.3669 36.9494 3.22453 35.4057C3.9964 33.9477 5.02556 32.6612 6.05472 31.4605C7.16965 30.1741 8.54186 29.0592 9.99984 28.2015C11.4578 27.2582 13.1731 26.572 14.8883 26.1432C16.1748 25.8002 17.547 25.6286 19.005 25.6286C19.5196 25.6286 20.1199 25.6286 20.6345 25.7144C23.4647 25.9717 25.9518 26.7436 28.1817 28.1158C28.8678 28.5446 29.4681 29.0592 30.0684 29.5738C30.1542 29.488 30.3257 29.488 30.4115 29.4022C32.041 28.6304 33.6705 27.9443 35.3858 27.3439C37.101 26.7436 38.8163 26.3148 40.4458 25.9717C42.0753 25.6286 43.619 25.4571 44.9055 25.3714C47.3926 25.1141 49.9655 25.0283 52.4527 25.0283C54.511 25.0283 56.6551 25.0283 58.7991 25.0283C58.9707 24.2564 59.228 23.5703 59.4853 22.8842C59.9141 22.0266 60.4286 21.169 61.029 20.4828C61.7151 19.711 62.6585 19.0249 63.6877 18.5103C64.3738 18.1672 65.0599 17.9099 66.1748 17.7384C66.8609 17.5669 67.547 17.5669 68.2331 17.5669C69.348 17.5669 70.463 17.7384 71.4921 18.1672C72.7786 18.6818 73.8935 19.4537 74.9226 20.3971C75.9518 20.9117 76.8952 21.5978 77.6671 22.4554C78.0101 22.8842 78.4389 23.313 78.6962 23.8276C79.8112 23.5703 80.9261 23.313 82.041 23.0557C83.7563 22.5412 85.3858 21.9408 86.9295 21.169C88.1302 20.5686 89.1593 19.7967 90.017 18.9391C90.7031 18.1672 91.1319 17.3096 91.475 16.2804C91.7322 15.2513 91.7322 13.9648 91.3892 12.4211V12.3353L91.3034 11.9923C91.2177 11.5635 91.2177 11.1346 91.0461 10.7058C90.7031 9.59091 90.5316 8.56175 90.4458 7.61835C90.36 5.6458 91.0461 3.84477 92.3326 2.55832C93.619 1.27187 95.2485 0.671527 97.6499 0.5H97.7357C97.9072 0.5 98.0787 0.5 98.2503 0.5C100.051 0.5 101.767 0.928816 103.225 1.70069C104.854 1.78645 106.398 2.21527 107.684 2.98714C109.056 3.84477 110.257 4.95969 111.115 6.41767C111.972 7.70412 112.573 9.16209 112.916 10.7916C113.259 12.2496 113.516 13.7933 113.516 15.337C113.516 16.8808 113.43 18.4245 113.087 19.8825C112.744 21.4262 112.315 22.8842 111.629 24.0849C110.772 25.7144 109.743 27.3439 108.456 28.8019C107.255 30.1741 105.797 31.4606 104.339 32.5755C102.881 33.6904 101.252 34.7196 99.6225 35.5772C97.993 36.4348 96.3635 37.1209 94.734 37.7213C92.5041 38.5789 90.017 39.265 87.4441 39.6938C88.3017 40.5515 88.9878 41.6664 89.5024 43.0386C89.5882 43.2959 89.7597 43.6389 89.8455 43.982C90.7889 44.325 91.5607 44.7539 92.2468 45.44C92.7614 45.9545 93.276 46.5549 93.619 47.241C94.3909 47.4983 95.077 47.9271 95.5916 48.4417C96.2777 49.042 96.7923 49.8139 97.1353 50.7573C97.3926 51.4434 97.6499 52.1295 97.8214 52.9014L99.5367 61.4777C99.794 61.6492 100.137 61.9065 100.394 62.078C101.252 62.8499 102.024 63.7933 102.624 64.9082C103.225 65.1655 103.739 65.5086 104.254 65.9374C105.283 66.8808 106.055 67.9957 106.655 69.3679C107.084 70.4828 107.427 71.7693 107.513 73.0557C107.598 74.428 107.513 75.5429 107.17 76.6578C106.741 78.1158 106.055 79.3165 104.94 80.3456C103.911 81.3748 102.538 82.0609 100.995 82.4039C100.223 82.5755 99.4509 82.6612 98.6791 82.6612C97.993 82.6612 97.2211 82.5755 96.535 82.4039C95.2485 82.0609 94.0479 81.6321 93.0187 80.8602C92.5899 80.6029 92.2468 80.3456 91.9038 80.0026C91.6465 79.9168 91.3034 79.831 91.0461 79.7453C90.5316 80.0883 90.017 80.5172 89.5024 80.946C88.4732 81.7178 87.2726 82.6612 85.9861 83.6904C84.6997 84.7196 83.0702 85.9202 81.2691 87.2925C79.8112 88.4074 78.2674 89.6081 76.5521 90.8088C74.8369 92.0094 73.1216 93.2101 71.3206 94.325C69.5196 95.44 67.6328 96.4691 65.746 97.3268C63.7734 98.2702 61.8009 98.9563 59.8283 99.4708C58.5419 99.8139 57.2554 100.071 55.8832 100.157C55.2828 100.414 54.4252 100.5 53.5676 100.5ZM14.1165 65.1655C15.5744 65.7659 16.3463 66.7093 16.8609 67.4811C17.204 68.0815 17.7185 69.1106 17.7185 70.4828C17.9758 70.4828 18.1473 70.3971 18.4046 70.3113C19.005 70.1398 19.5196 69.8825 20.0341 69.5395C20.5487 69.1964 21.0633 68.6818 21.4921 68.0815C21.9209 67.4811 22.3497 66.7093 22.6928 65.8516C23.0359 64.9082 23.2931 63.9648 23.2931 63.193C22.7786 63.2787 22.0925 63.3645 21.2348 63.7076C19.0907 64.4794 17.1182 64.994 15.3172 65.0798C14.9741 65.0798 14.6311 65.0798 14.288 65.0798C14.2022 65.1655 14.2022 65.1655 14.1165 65.1655Z" fill="white"/>
<path id="Vector_2" d="M111.457 11.2205C111.114 9.7625 110.514 8.47605 109.828 7.36113C109.056 6.16044 108.113 5.21705 106.912 4.53094C105.711 3.84483 104.339 3.50178 102.881 3.50178C102.881 3.50178 102.795 3.50178 102.795 3.41602C101.509 2.64415 100.051 2.21533 98.4214 2.21533C98.2499 2.21533 98.1641 2.21533 97.9926 2.21533H97.9068C96.02 2.38686 94.6478 2.81567 93.7044 3.75907C92.6753 4.78823 92.2464 6.07468 92.3322 7.53265C92.3322 8.39029 92.5037 9.24792 92.8468 10.1913C93.0183 10.7059 93.1041 11.2205 93.1898 11.8208V12.0781V12.1639C93.5329 13.9649 93.6187 15.5944 93.1898 16.8809C92.8468 18.1673 92.2464 19.2822 91.3888 20.2256C90.4454 21.2548 89.2447 22.1124 87.8725 22.8843C86.3288 23.6562 84.5278 24.3423 82.7267 24.8568C81.183 25.2857 79.6392 25.6287 78.0097 25.886C77.5809 25.1141 77.1521 24.3423 76.5518 23.7419C75.8657 22.97 75.008 22.3697 74.0646 21.9409C73.207 20.9975 72.1778 20.3114 71.0629 19.8826C70.291 19.5395 69.3476 19.368 68.49 19.368C67.9754 19.368 67.3751 19.4538 66.7747 19.5395C65.8314 19.711 65.231 19.8826 64.7164 20.2256C63.8588 20.6544 63.1727 21.169 62.5723 21.7694C62.0578 22.3697 61.6289 23.0558 61.2859 23.7419C61.0286 24.3423 60.8571 24.9426 60.6856 25.6287C60.5998 26.0575 60.514 26.4863 60.3425 26.9152C60.3425 26.9152 60.3425 26.9152 60.3425 27.0009C60.2567 27.0009 60.171 27.0009 60.0852 27.0009C57.5123 27.0009 55.0252 26.9152 52.6238 26.9152C50.1367 26.9152 47.6495 27.0009 45.2482 27.2582C43.9617 27.344 42.5895 27.5155 40.96 27.8586C39.3305 28.2016 37.701 28.6304 36.0715 29.145C34.442 29.6596 32.8125 30.3457 31.2687 31.1176C30.7542 31.3748 30.3253 31.6321 29.8108 31.8894C29.0389 31.0318 28.267 30.3457 27.3236 29.7453C25.3511 28.5447 23.1212 27.8586 20.6341 27.6013C20.1195 27.5155 19.6049 27.5155 19.1761 27.5155C17.8897 27.5155 16.689 27.687 15.4883 27.9443C13.8588 28.3731 12.4008 28.9735 11.0286 29.8311C9.74216 30.6887 8.54147 31.6321 7.42655 32.8328C6.39739 33.9477 5.53976 35.1484 4.76789 36.5206C3.91025 37.9786 3.22415 39.6081 2.79533 41.2376C2.28075 42.8671 2.02346 44.4966 1.85193 46.2119C1.68041 47.8414 1.76617 49.4709 2.02346 51.0146C2.28075 52.6441 2.70957 54.1879 3.39567 55.5601C3.73873 56.1604 4.08178 56.7608 4.5106 57.3611C4.5106 57.4469 4.5106 57.4469 4.59636 57.5326C5.1967 58.8191 6.05434 59.8483 6.99773 60.7917C8.02689 61.7351 9.22758 62.5069 10.6856 62.9357C12.0578 63.3646 13.6015 63.5361 15.3168 63.4503C16.9463 63.3646 18.7473 62.9357 20.7199 62.1639C22.3494 61.5635 23.7216 61.3062 24.7507 61.5635C24.8365 61.5635 24.9223 61.6493 25.008 61.6493C25.0938 61.9923 25.1796 62.4212 25.1796 62.85C25.1796 63.9649 24.9223 65.2513 24.4077 66.5378C23.9789 67.5669 23.55 68.4246 22.9497 69.1965C22.3494 69.8826 21.749 70.5687 21.0629 70.9975C20.3768 71.4263 19.6907 71.7694 18.9188 72.0266C18.147 72.2839 17.3751 72.3697 16.5175 72.3697H16.3459C16.0029 72.3697 15.7456 72.2839 15.5741 72.2839C16.3459 70.3971 15.8314 69.1107 15.4025 68.4246C14.9737 67.7385 14.2018 66.9666 12.7439 66.5378L11.5432 66.2805L10.514 66.7951C9.22758 67.4812 8.19842 68.4246 7.59807 69.6253C7.08349 70.6544 6.8262 71.7694 6.74044 72.97C6.74044 73.9992 6.91197 75.0284 7.16926 76.1433C7.42655 77.0867 7.85536 77.9443 8.28418 78.8019C8.45571 79.0592 8.54147 79.3165 8.713 79.5738C8.97029 80.3457 9.31334 81.1176 9.65639 81.8037C10.0852 82.6613 10.5998 83.3474 11.1144 84.0335C11.7147 84.7196 12.3151 85.32 12.8296 85.663C14.2876 86.6922 16.0029 87.2925 17.8039 87.5498C19.5192 87.8071 21.3202 87.7213 23.1212 87.464C24.8365 87.2067 26.5518 86.6922 28.1813 86.0061C29.8108 85.32 31.2687 84.5481 32.4694 83.6047C33.3271 83.0043 34.0989 82.3182 34.785 81.5464C34.8708 82.6613 35.0423 83.862 35.4711 84.9769C35.8142 86.0918 36.3288 87.121 36.9291 88.1501C37.5295 89.0935 38.2156 90.0369 38.9874 90.8946C39.2447 91.1519 39.4163 91.4091 39.6735 91.5807C40.2739 92.5241 40.96 93.4675 41.6461 94.2393C42.418 95.097 43.2756 95.7831 44.0475 96.2119C45.2482 96.898 46.4488 97.4983 47.8211 97.8414C49.1075 98.1844 50.394 98.4417 51.7662 98.5275C52.2808 98.5275 52.8811 98.6133 53.3957 98.6133C54.1675 98.6133 54.9394 98.6133 55.7113 98.5275C56.9977 98.356 58.2842 98.1844 59.4849 97.8414C61.3717 97.4126 63.1727 96.7265 65.0595 95.8688C66.8605 95.0112 68.6615 93.982 70.4626 92.9529C72.1778 91.838 73.8931 90.723 75.6084 89.5224C77.2379 88.3217 78.7816 87.121 80.2396 86.0061C82.0406 84.6339 83.5844 83.4332 84.9566 82.404C86.3288 81.3748 87.4437 80.4314 88.4729 79.6596C89.3305 78.9735 90.1024 78.3731 90.7885 77.8586C91.3031 78.0301 91.8176 78.2016 92.3322 78.3731C92.418 78.3731 92.5895 78.4589 92.761 78.4589C93.1898 78.8019 93.6187 79.145 94.0475 79.488C94.9051 80.0884 95.9343 80.5172 96.9634 80.7745C98.0784 81.0318 99.3648 81.0318 100.565 80.7745C101.852 80.5172 102.881 79.9169 103.739 79.145C104.596 78.3731 105.111 77.4297 105.454 76.229C105.711 75.3714 105.797 74.428 105.711 73.3131C105.626 72.1982 105.368 71.169 105.025 70.2256C104.596 69.1107 103.91 68.2531 103.138 67.4812C102.624 67.0524 102.023 66.7093 101.423 66.5378C100.909 65.4229 100.222 64.3937 99.3648 63.6218C99.0218 63.2788 98.5929 63.0215 98.1641 62.7642L96.4489 53.416C96.2773 52.7299 96.1058 52.1296 95.9343 51.615C95.677 50.9289 95.2482 50.3285 94.7336 49.8997C94.219 49.3851 93.4471 49.0421 92.6753 48.8706C92.3322 48.0987 91.9034 47.4126 91.303 46.8122C90.6169 46.1261 89.6735 45.6973 88.7301 45.5258C88.5586 44.9254 88.3871 44.3251 88.1298 43.7248C87.5295 42.2668 86.8434 41.3234 86.0715 40.5515C85.5569 40.1227 85.0423 39.8654 84.5277 39.6939C84.2705 39.2651 84.0132 38.922 83.6701 38.579C84.6993 38.4932 85.7284 38.3217 86.7576 38.1501C89.502 37.7213 92.0749 37.0352 94.4763 36.1776C96.02 35.5772 97.6495 34.8911 99.1933 34.1193C100.737 33.2616 102.281 32.3182 103.653 31.2891C105.111 30.2599 106.397 29.0592 107.512 27.687C108.713 26.3148 109.656 24.8568 110.428 23.3989C111.029 22.2839 111.457 20.9975 111.715 19.6253C111.972 18.2531 112.144 16.8809 112.058 15.4229C111.972 13.9649 111.8 12.5927 111.457 11.2205Z" fill="url(#paint0_linear_60_2100)"/>
</g>
<g id="Stikr-letters">
<path id="Vector_3" d="M104.595 11.306C104.337 10.1053 103.909 9.07614 103.308 8.21851C102.708 7.36088 102.022 6.58901 101.164 6.07443C100.307 5.55985 99.2774 5.30256 98.1625 5.38832C97.0475 5.47409 96.3614 5.64561 96.0184 5.98867C95.6753 6.33172 95.5038 6.76054 95.5038 7.36088C95.5038 7.87546 95.6753 8.56156 95.8469 9.24767C96.1042 9.93378 96.1899 10.7056 96.2757 11.4775C96.7903 13.7931 96.7903 15.8514 96.2757 17.6525C95.7611 19.4535 94.9035 20.9972 93.7028 22.2837C92.5021 23.5701 91.0441 24.6851 89.2431 25.6285C87.4421 26.5719 85.5553 27.258 83.4969 27.8583C81.4386 28.4586 79.2945 28.8875 77.0647 29.2305C76.9789 29.2305 76.8932 29.2305 76.8074 29.2305C76.9789 30.9458 76.3786 33.2614 75.2637 35.3197C77.7508 35.1482 80.1522 34.8909 82.5536 34.5478C85.0407 34.119 87.3563 33.5187 89.5004 32.7468C90.9584 32.2322 92.3306 31.6319 93.7885 30.86C95.1608 30.0882 96.533 29.3163 97.7337 28.3729C99.0201 27.4295 100.135 26.4003 101.164 25.1996C102.193 24.0847 103.051 22.7983 103.651 21.4261C104.08 20.5684 104.423 19.5393 104.68 18.3386C104.938 17.1379 105.024 16.023 105.024 14.7365C105.024 13.6216 104.852 12.5067 104.595 11.306Z" fill="white"/>
<path id="Vector_4" d="M35.2992 56.504C34.5273 55.4748 33.4981 54.6172 32.2975 54.0168C31.0968 53.4165 29.553 52.9877 27.9235 52.8161C26.2083 52.6446 24.2357 52.8161 22.0059 53.245C20.5479 53.5022 19.2614 53.588 18.2323 53.4165C17.2031 53.245 16.3455 52.9019 15.6594 52.3873C14.8875 51.787 14.2872 51.0151 14.0299 49.9859C13.6868 48.9568 13.6011 47.9276 13.6868 46.7269C13.7726 45.612 14.0299 44.4113 14.3729 43.2106C14.8017 42.01 15.3163 40.9808 15.9167 39.9516C16.517 39.0082 17.3746 38.2364 18.318 37.636C19.2614 37.0357 20.2906 36.6926 21.3198 36.5211C22.3489 36.3496 23.2923 36.4354 24.2357 36.6069C25.1791 36.8642 25.951 37.293 26.5513 37.8933C26.0367 38.1506 25.6079 38.5794 25.2649 39.094C24.9218 39.6086 24.6645 40.1232 24.493 40.7235C24.3215 41.3239 24.3215 41.9242 24.3215 42.5245C24.4072 43.1249 24.493 43.6395 24.7503 44.0683C25.0076 44.4971 25.3506 44.7544 25.8652 44.9259C26.3798 45.0974 26.9801 45.0974 27.6662 44.8402C28.0093 44.7544 28.2666 44.5829 28.5239 44.3256C28.7812 44.0683 28.9527 43.811 29.1242 43.4679C29.2957 43.1249 29.4673 42.7818 29.553 42.4388C29.6388 42.0957 29.7246 41.7527 29.7246 41.4954C29.8103 40.0374 29.7246 38.8367 29.3815 37.8076C29.8961 37.1215 30.668 36.6069 31.5256 36.2638C32.469 35.835 33.4124 35.5777 34.6131 35.3204C35.728 35.0631 36.9287 34.9774 38.3009 34.8916C39.5873 34.8058 40.9595 34.8058 42.246 34.8058C43.6182 34.8058 44.9047 34.8916 46.2769 34.8916C47.5633 34.9774 48.8498 34.9774 49.9647 35.0631C50.4793 35.0631 50.9938 35.0631 51.5084 35.1489C52.1945 34.7201 53.6525 33.8625 54.0813 33.6052C55.7966 32.576 56.9973 31.8899 58.3695 30.0889C56.3112 30.0889 54.3386 30.0889 52.4518 30.0889C50.0504 30.0889 47.6491 30.1746 45.3335 30.4319C44.2185 30.5177 42.9321 30.6892 41.3884 30.9465C39.9304 31.2038 38.3866 31.6326 36.9287 32.1472C35.3849 32.6618 33.927 33.2621 32.5547 33.9482C31.0968 34.6343 29.8961 35.4062 28.8669 36.3496C28.0951 34.6343 26.9801 33.3479 25.5222 32.4045C24.0642 31.4611 22.2632 30.9465 20.2048 30.775C18.7469 30.6034 17.3746 30.775 16.0882 31.0323C14.8017 31.3753 13.6011 31.8899 12.5719 32.4902C11.457 33.1763 10.5136 33.9482 9.65595 34.8916C8.79832 35.835 8.02645 36.8642 7.42611 37.9791C6.65424 39.2655 6.13966 40.6377 5.71084 42.0957C5.28203 43.5537 5.02474 44.9259 4.85321 46.3839C4.76745 47.8419 4.76745 49.2141 4.93897 50.5005C5.1105 51.787 5.45355 52.9877 5.96813 54.0168C6.48271 55.046 7.08305 55.9036 7.85492 56.5897C8.62679 57.3616 9.57019 57.8762 10.6851 58.2192C11.8 58.5623 13.0007 58.7338 14.3729 58.648C15.7451 58.5623 17.2889 58.2192 18.9184 57.5331C20.8909 56.7612 22.5204 56.5897 23.8927 56.847C25.2649 57.1043 26.294 57.7904 26.9801 58.8196C27.6662 59.8487 28.0093 61.0494 28.0951 62.5931C28.0951 64.1369 27.8378 65.7664 27.1517 67.5674C26.6371 68.8539 26.0367 70.0546 25.2649 70.9979C24.493 72.0271 23.6354 72.799 22.692 73.4851C21.7486 74.1712 20.7194 74.6 19.6045 74.9431C18.4896 75.2861 17.3746 75.3719 16.0882 75.3719C14.9733 75.3719 14.1156 75.1146 13.4295 74.7715C12.7434 74.3427 12.3146 73.9139 11.9716 73.3993C11.7143 72.8847 11.6285 72.3702 11.6285 71.9413C11.7143 71.5125 12.0064 71.2335 12.2034 70.8897C12.4004 70.5459 12.5719 70.2261 12.4004 69.9688C12.2288 69.7115 11.6018 69.6005 11.5158 69.6864C10.8297 70.0295 10.4278 70.3976 10.0848 70.9979C9.74171 71.5983 9.65595 72.1986 9.57019 72.9705C9.57019 73.6566 9.65595 74.4285 9.91324 75.1146C10.1705 75.8865 10.4278 76.5726 10.7709 77.2587C11.1139 77.9448 11.5427 78.5451 11.9716 79.0597C12.4004 79.5743 12.8292 80.0031 13.258 80.2604C14.3729 81.0322 15.7451 81.5468 17.2031 81.7184C18.6611 81.8899 20.2048 81.8899 21.6628 81.6326C23.2065 81.3753 24.6645 80.9465 26.1225 80.3461C27.5805 79.7458 28.7812 79.0597 29.8103 78.2878C31.2683 77.2587 32.469 75.9722 33.4981 74.5142C34.5273 73.0563 35.3849 71.4268 35.9853 69.7973C36.5856 68.1678 36.9287 66.4525 37.1002 64.7372C37.2717 63.022 37.1002 61.3925 36.6714 59.8487C36.6714 58.648 36.071 57.5331 35.2992 56.504ZM27.4947 40.3805C27.5805 40.8093 27.6662 41.3239 27.6662 41.7527C27.6662 42.1815 27.5805 42.6103 27.4947 42.9534C27.3232 43.2964 27.1517 43.5537 26.8086 43.6395C26.4655 43.811 26.1225 43.6395 25.951 43.2964C25.7794 42.8676 25.6937 42.4388 25.6937 41.8384C25.6937 41.2381 25.8652 40.7235 26.0367 40.2089C26.294 39.6944 26.6371 39.3513 27.0659 39.1798C27.3232 39.5228 27.4089 39.9516 27.4947 40.3805Z" fill="white"/>
<path id="Vector_5" d="M45.5056 66.6233C45.1626 65.6799 44.9053 64.6507 44.5622 63.6216C44.4764 63.4501 44.4764 63.1928 44.3907 63.0212C44.3907 62.8497 44.3049 62.5924 44.3049 62.4209C44.0476 61.0487 43.7903 59.5049 43.5331 57.9612C43.3615 56.4175 43.1042 54.8737 43.0185 53.2442C42.8469 51.7005 42.6754 50.071 42.5897 48.5272C42.5039 46.9835 42.3324 45.4398 42.1608 43.9818L46.5348 43.553C46.106 42.5238 45.8487 41.6662 45.7629 40.9801C44.648 41.2374 42.7612 41.4946 41.9036 41.6662C41.8178 41.1516 41.8178 40.7228 41.732 40.2082C41.732 39.6936 41.6463 39.2648 41.5605 38.7502C41.4747 38.3214 41.3032 37.9784 41.0459 37.7211C40.7886 37.378 40.4456 37.1207 40.1025 36.9492C39.7595 36.7777 39.3307 36.6061 38.9018 36.5204C38.473 36.4346 38.13 36.4346 37.7011 36.5204C37.1866 36.6061 36.8435 36.8634 36.672 37.2065C36.5005 37.5495 36.4147 37.9784 36.5005 38.4929C36.672 39.179 36.7578 39.9509 36.8435 40.637C36.9293 41.3231 37.015 42.095 37.015 42.7811C35.5571 43.1242 34.1849 43.3814 32.8984 43.7245C31.612 44.0675 30.3255 44.4106 29.0391 44.8394C27.7526 45.2682 26.5519 45.7828 25.3512 46.2974C24.1505 46.812 22.8641 47.4981 21.5776 48.27C21.4919 48.3557 21.4919 48.5272 21.4061 48.613C21.3204 48.6988 21.3204 48.8703 21.4061 48.9561C21.4061 49.1276 21.4919 49.2133 21.6634 49.2133C21.8349 49.2133 21.9207 49.2133 22.0922 49.2133C22.178 49.2133 22.2638 49.1276 22.4353 49.1276C22.6068 49.0418 22.6926 49.0418 22.9499 48.9561C23.7217 48.5272 24.4936 48.1842 25.2655 47.9269C26.0373 47.6696 26.8092 47.3266 27.6668 47.0693C28.8675 46.6404 30.0682 46.2974 31.1831 46.0401C32.3838 45.7828 33.5845 45.4398 34.7852 45.2682C35.214 45.1825 35.6428 45.0967 35.9859 45.0109C36.4147 44.9252 36.8435 44.8394 37.1866 44.7537C37.4439 47.6696 37.7011 50.4998 37.9584 53.4158C38.2157 56.2459 38.6445 59.1619 39.1591 61.9921C39.1591 62.1636 39.2449 62.4209 39.2449 62.5924C39.2449 62.764 39.3307 63.0212 39.4164 63.1928C39.5022 63.6216 39.6737 64.1362 39.931 64.7365C40.1883 65.3368 40.4456 65.9372 40.7029 66.6233C41.0459 67.3094 41.389 67.9097 41.8178 68.5959C42.2466 69.282 42.6754 69.8823 43.19 70.3969C43.7903 71.083 44.4764 71.5976 45.0768 71.9406C45.7629 72.2837 46.2775 72.4552 46.7063 72.4552C47.1351 72.4552 47.3066 72.1979 47.3924 71.6833C47.3924 71.1688 47.1351 70.3969 46.449 69.3677C46.2775 68.5101 45.8487 67.5667 45.5056 66.6233Z" fill="white"/>
<path id="Vector_6" d="M48.9348 44.9254C49.3636 45.1827 49.7067 45.3542 50.1355 45.3542C50.5643 45.3542 50.9074 45.1827 51.3362 45.0112C51.6792 44.7539 52.0223 44.4966 52.2796 44.0678C52.5369 43.7247 52.6226 43.2959 52.7084 42.8671C52.7942 42.4383 52.6226 42.0095 52.4511 41.6664C52.1938 41.2376 51.8508 40.8088 51.422 40.38C50.9931 39.9511 50.5643 39.6939 50.0497 39.4366C49.5352 39.1793 49.1063 39.0077 48.6775 39.0077C48.2487 38.922 47.9057 39.0077 47.5626 39.265C47.2196 39.5223 47.1338 40.0369 47.1338 40.6373C47.1338 41.3234 47.3911 42.2668 47.9914 43.5532C48.2487 44.1535 48.5918 44.6681 48.9348 44.9254Z" fill="white"/>
<path id="Vector_7" d="M99.2791 70.2258C99.1933 69.3681 99.0218 68.5962 98.7645 67.8244C98.5072 67.0525 97.9926 66.4522 97.4781 65.9376C96.8777 65.423 96.1916 65.2515 95.4197 65.3372C94.9052 65.423 94.3906 65.5088 93.876 65.5945C93.3614 65.6803 92.9326 65.8518 92.418 66.1091C92.2465 65.423 92.075 64.5654 91.9034 63.5362C91.7319 62.5071 91.5604 61.4779 91.3889 60.363C91.2173 59.2481 91.0458 58.1331 90.9601 57.0182C90.7885 55.9033 90.7028 54.9599 90.617 54.1022C90.5312 53.2446 90.4455 52.5585 90.3597 52.0439C90.274 51.6151 90.2739 51.4436 90.2739 51.4436C90.1882 50.929 90.0167 50.5002 89.8451 50.0714C89.6736 49.6426 89.4163 49.2995 89.159 49.0422C88.9017 48.7849 88.5587 48.6134 88.2156 48.6134C87.8726 48.5276 87.4438 48.6134 86.9292 48.8707C86.6719 48.9564 86.3288 49.128 86.0716 49.2995C85.7285 49.471 85.4712 49.6426 85.1282 49.8141C84.7851 49.9856 84.5278 50.1571 84.2705 50.2429C84.0132 50.3287 83.7559 50.4144 83.5844 50.3287C83.6702 49.8141 83.6702 49.2995 83.6702 48.6992C83.6702 48.0988 83.5844 47.4127 83.4987 46.7266C83.4129 46.0405 83.2414 45.3544 83.0698 44.5825C82.8983 43.8964 82.7268 43.2103 82.4695 42.5242C82.0407 41.495 81.6119 40.7232 81.0115 40.2944C80.4969 39.8655 79.8966 39.6082 79.382 39.694C78.7817 39.694 78.2671 39.9513 77.8383 40.3801C77.3237 40.8089 76.9806 41.4093 76.6376 42.0954C76.2945 42.8673 76.123 43.7249 76.123 44.6683C76.123 45.6974 76.2088 46.6408 76.4661 47.67C76.7234 48.6134 77.1522 49.5568 77.6667 50.4144C78.1813 51.2721 78.7817 51.9582 79.5535 52.4727C79.9824 52.8158 80.4969 52.9873 81.0115 53.0731C80.7542 53.9307 80.5827 54.8741 80.2396 55.9033C79.9824 56.9324 79.6393 57.9616 79.2962 58.905C79.1247 59.3338 78.9532 59.8484 78.7817 60.363C78.6101 60.9633 78.3529 61.5637 78.0098 62.0782C77.6667 62.6786 77.3237 63.1074 76.9806 63.5362C76.5518 63.965 76.123 64.2223 75.6084 64.3081C75.0938 64.3938 74.4935 64.3081 73.8932 64.0508C73.2928 63.7935 72.6925 63.3647 72.0921 62.9359C71.4918 62.4213 70.8914 61.9067 70.2911 61.3921C69.6908 60.7918 69.0904 60.2772 68.4901 59.7626C67.8897 59.248 67.3752 58.8192 66.7748 58.4762C66.1745 58.1331 65.6599 57.9616 65.1453 57.9616C65.8314 57.5328 66.5175 57.104 67.2036 56.5036C67.8897 55.989 68.5758 55.3887 69.1762 54.7026C69.7765 54.0165 70.3769 53.3304 70.8914 52.6443C71.406 51.8724 71.9206 51.1863 72.2637 50.3287C72.6067 49.7283 72.864 49.128 73.0355 48.6134C73.2071 48.0131 73.3786 47.4127 73.3786 46.8981C73.3786 46.2978 73.2071 45.7832 73.0355 45.2686C72.7782 44.7541 72.3494 44.2395 71.7491 43.7249C71.4918 43.4676 71.1487 43.2961 70.8914 43.2103C70.6342 43.1245 70.2911 43.0388 70.1196 43.1245C69.8623 43.2103 69.6908 43.2961 69.5192 43.5534C69.3477 43.8106 69.2619 44.0679 69.1762 44.4968C69.0904 44.8398 69.0047 45.1829 69.0047 45.5259C69.0047 45.869 68.9189 46.2978 68.9189 46.6408C68.6616 48.4419 68.0613 50.1571 67.2894 51.8724C66.5175 53.5877 65.4884 55.1314 64.2019 56.4179C64.2019 55.646 64.2019 54.7884 64.1162 53.7592C64.1162 52.73 64.0304 51.6151 64.0304 50.4144C64.0304 49.2137 63.9446 48.0131 63.9446 46.8124C63.9446 45.6117 63.9446 44.3252 63.9446 43.2103C63.9446 42.0096 63.9446 40.9805 64.0304 39.8655C64.0304 39.7798 64.0304 39.694 64.0304 39.5225C65.4026 39.0079 66.6891 38.4933 67.9755 37.8072C69.2619 37.1211 70.3769 36.3492 71.3203 35.4916C73.2928 33.6048 74.1505 30.26 73.8932 28.9736C73.8932 28.7163 73.8074 28.459 73.8074 28.2017C73.6359 27.4299 73.3786 26.5722 73.0355 25.8004C72.6925 25.0285 72.2637 24.3424 71.7491 23.742C71.2345 23.1417 70.6342 22.7129 69.8623 22.4556C69.1762 22.1983 68.3186 22.1125 67.3752 22.2841C66.7748 22.3698 66.346 22.5414 66.1745 22.6271C65.6599 22.8844 65.2311 23.1417 64.9738 23.4847C64.6307 23.8278 64.4592 24.1709 64.2877 24.5997C64.1162 25.0285 63.9446 25.4573 63.8589 25.8861C63.7731 26.3149 63.6016 26.8295 63.5158 27.2583C63.3443 27.8587 63.087 28.5448 62.7439 29.1451L62.6582 29.2309C62.5724 29.3167 62.5724 29.4024 62.4867 29.4882C62.4867 29.5739 62.4009 29.5739 62.4009 29.6597C59.9995 33.3475 58.2843 34.3767 55.9686 35.7489C55.7971 35.8347 55.7114 35.9204 55.5398 36.0062C54.9395 36.435 54.3391 36.7781 53.653 37.1211C52.9669 37.4642 52.1951 37.893 51.4232 38.236C51.7662 38.4076 52.0235 38.6649 52.2808 38.9221C52.7954 39.351 53.2242 39.9513 53.5673 40.4659C53.8246 40.8947 53.9961 41.4093 53.9961 41.9239C54.0819 41.9239 54.1676 41.9239 54.2534 41.9239C54.8537 41.8381 55.4541 41.6666 56.0544 41.5808C56.9978 41.4093 58.1127 41.152 59.2276 40.8947C59.2276 41.2378 59.2276 41.5808 59.2276 41.9239C59.2276 43.7249 59.2276 45.5259 59.3134 47.4127C59.3134 49.2995 59.3992 51.2721 59.4849 53.3304C59.4849 53.4161 59.4849 53.5877 59.4849 53.6734H59.3992C59.1419 54.8741 58.9704 55.7318 58.7131 56.5894C58.4558 57.5328 58.1985 58.3904 57.9412 59.3338C57.6839 60.2772 57.4266 61.2206 57.1693 62.0782C56.912 62.9359 56.6548 63.7935 56.3975 64.5654C56.1402 65.1657 55.8829 65.6803 55.6256 65.9376C55.3683 66.2806 55.111 66.1949 54.8537 65.8518C54.4249 64.8227 54.0819 63.7077 53.8246 62.4213C53.5673 61.2206 53.3957 59.9342 53.2242 58.6477C53.0527 57.3613 52.9669 56.0748 52.8812 54.7884C52.7954 53.5019 52.7096 52.3012 52.6239 51.2721C52.3666 50.6717 52.0235 50.1571 51.5947 49.8141C51.0801 49.471 50.6513 49.2137 50.051 49.128C49.5364 49.0422 48.9361 49.0422 48.5072 49.128C47.9927 49.2137 47.5638 49.471 47.3066 49.8141C47.5638 51.0148 47.7354 52.0439 47.8211 52.9016C47.9069 53.7592 47.9927 54.6168 48.0784 55.3029C48.1642 56.0748 48.1642 56.6752 48.2499 57.2755C48.2499 57.8758 48.3357 58.3904 48.4215 58.905C48.5072 59.7626 48.6788 60.706 48.9361 61.8209C49.1076 62.9359 49.4506 63.965 49.7937 64.9942C50.1367 66.0233 50.5656 67.0525 51.1659 67.9959C51.6805 68.9393 52.3666 69.7112 53.1385 70.3115C54.1676 70.9976 55.0252 70.8261 55.7971 69.8827C56.3117 69.3681 56.6548 68.682 56.912 67.9101C57.1693 67.1383 57.5124 66.2806 57.7697 65.3372C58.027 64.3938 58.37 63.4505 58.6273 62.5071C58.8846 61.4779 59.1419 60.5345 59.3992 59.5911C59.5707 58.9908 59.6565 58.4762 59.828 57.9616C59.9138 58.5619 59.9138 59.0765 59.9995 59.6769C60.171 61.6494 60.5141 63.4505 60.8571 65.1657C61.2002 66.881 61.7148 68.5105 62.2294 69.8827C62.6582 70.6546 63.087 71.1692 63.6016 71.4264C64.1162 71.6837 64.545 71.7695 64.888 71.7695C65.3168 71.7695 65.5741 71.5122 65.8314 70.9976C66.0887 70.483 66.1745 69.6254 66.0887 68.5105C66.0887 68.0817 66.0029 67.5671 65.9172 66.9667C65.8314 66.3664 65.7457 65.7661 65.5741 65.08C65.3168 64.1366 65.1453 63.2789 65.0596 62.3355C64.9738 61.3921 64.8023 60.5345 64.7165 59.7626C65.4884 61.2206 66.346 62.5928 67.2894 63.8793C68.2328 65.1657 69.2619 66.1949 70.2911 67.0525C71.3203 67.9101 72.3494 68.5105 73.3786 68.7678C74.4077 69.1108 75.3511 69.0251 76.2945 68.5105C76.9806 68.1674 77.581 67.6529 78.0098 66.9667C78.5244 66.2806 78.9532 65.5088 79.2962 64.6511C79.6393 63.7935 79.9824 62.8501 80.2396 61.9067C80.4969 60.9633 80.7542 60.0199 80.9258 59.1623C81.0973 58.2189 81.3546 57.1897 81.6119 56.1606C81.8691 55.2172 82.1264 54.2738 82.298 53.2446C83.1556 53.2446 84.099 52.9016 85.1282 52.2155C85.2139 53.5877 85.2997 54.9599 85.4712 56.4179C85.6427 57.8758 85.8143 59.3338 86.0716 60.706C86.3288 62.0782 86.5861 63.4505 86.8434 64.8227C87.1007 66.1091 87.358 67.3098 87.6153 68.339C85.9 69.1108 84.1848 70.0542 82.4695 71.1691C80.7542 72.2841 78.9532 73.4848 77.2379 74.7712C75.4369 76.0577 73.7216 77.3441 71.9206 78.6305C70.1196 79.917 68.3186 81.1177 66.5175 82.2326C64.7165 83.3475 62.9155 84.2909 61.1144 85.0628C59.3134 85.8347 57.5124 86.3493 55.7114 86.6065C54.5107 86.7781 53.31 86.6923 52.0235 86.435C50.7371 86.1777 49.5364 85.6631 48.3357 84.977C47.135 84.2909 46.1059 83.3475 45.1625 82.2326C44.2191 81.1177 43.4472 79.7455 42.8469 78.2017C42.7611 77.9444 42.5896 77.6014 42.5038 77.4299C42.3323 77.1726 42.1608 77.0011 41.9892 76.9153C41.8177 76.8295 41.5604 76.8295 41.2174 76.8295C40.9601 76.9153 40.5313 77.0868 40.1024 77.3441C39.4163 77.7729 38.9018 78.3733 38.5587 79.0594C38.3014 79.7455 38.1299 80.5173 38.1299 81.375C38.1299 82.2326 38.3014 83.0902 38.6445 83.9479C38.9875 84.8055 39.3306 85.6631 39.8451 86.5208C40.3597 87.2926 40.8743 88.0645 41.4747 88.7506C42.075 89.4367 42.6753 89.9513 43.3614 90.2944C44.3048 90.8947 45.334 91.3235 46.4489 91.6666C47.5638 92.0096 48.6788 92.1812 49.7937 92.2669C50.9086 92.3527 52.1093 92.3527 53.2242 92.1812C54.3391 92.0954 55.4541 91.8381 56.569 91.5808C58.1985 91.2378 59.828 90.6374 61.5433 89.7798C63.1728 89.0079 64.888 88.0645 66.4318 87.0354C68.0613 86.0062 69.605 84.977 71.1487 83.8621C72.6925 82.7472 74.1505 81.6323 75.6084 80.6031C77.3237 79.3167 78.7817 78.116 80.0681 77.1726C81.3546 76.1434 82.4695 75.2858 83.4129 74.5139C84.3563 73.7421 85.2997 73.0559 86.0716 72.4556C86.8434 71.8553 87.6153 71.3407 88.3872 70.9119C88.6444 71.5122 88.9875 72.1125 89.4163 72.7129C89.8451 73.3132 90.4455 73.8278 91.0458 74.2566C91.6462 74.6854 92.418 75.0285 93.1899 75.2C93.9618 75.3715 94.9052 75.3715 95.7628 75.2C96.6204 75.0285 97.3065 74.6854 97.9069 74.1709C98.4215 73.6563 98.8503 73.0559 99.0218 72.2841C99.2791 71.7695 99.3649 71.0834 99.2791 70.2258ZM82.2122 49.128C82.2122 49.6426 82.1264 49.9856 81.9549 50.2429C81.2688 50.1571 80.7542 49.8141 80.3254 49.2137C79.8966 48.6134 79.6393 47.8415 79.5535 47.0697C79.382 46.212 79.382 45.4402 79.4678 44.5825C79.5535 43.7249 79.7251 43.1245 79.9824 42.6957C80.2397 42.6957 80.4969 42.7815 80.7542 43.0388C81.0115 43.2961 81.183 43.7249 81.4403 44.1537C81.6119 44.6683 81.7834 45.1829 81.9549 45.7832C82.1264 46.3836 82.2122 46.9839 82.298 47.4985C82.2122 48.0988 82.2122 48.6134 82.2122 49.128ZM97.9069 71.5122C97.8211 71.8553 97.6496 72.1983 97.4781 72.3698C97.135 72.7987 96.7062 72.9702 96.3631 72.8844C95.9343 72.7986 95.5913 72.6271 95.1625 72.2841C94.8194 71.941 94.4764 71.5122 94.1333 70.9976C93.7902 70.483 93.533 69.8827 93.3614 69.2824C93.2757 69.0251 93.1899 68.7678 93.1041 68.5105C93.0184 68.2532 92.9326 67.9959 92.9326 67.7386C93.4472 67.3956 93.9618 67.224 94.3048 67.0525C94.6479 66.9667 95.0767 66.881 95.5913 66.7952C96.0201 66.7952 96.3631 66.7952 96.6204 67.0525C96.9635 67.224 97.2208 67.4813 97.3923 67.8244C97.5638 68.1674 97.7353 68.5105 97.9069 68.9393C97.9926 69.3681 98.0784 69.7969 98.0784 70.2258C98.0784 70.7403 97.9926 71.1692 97.9069 71.5122Z" fill="white"/>
</g>
</g>
<defs>
<linearGradient id="paint0_linear_60_2100" x1="100.306" y1="58.8159" x2="21.2137" y2="32.2592" gradientUnits="userSpaceOnUse">
<stop stop-color="#B61928"/>
<stop offset="1" stop-color="#6D0038"/>
</linearGradient>
</defs>
</svg>
