<svg width="253" height="234" viewBox="0 0 253 234" fill="none" xmlns="http://www.w3.org/2000/svg">
<path d="M102.187 103.233L102.135 103.285C99.0611 105.135 95.1158 103.901 93.7324 100.56C93.0151 98.9155 92.1953 97.2706 91.2218 95.6771C78.8225 75.1677 49.5663 70.2845 25.8949 84.6771C2.22354 99.0697 -6.84537 127.392 5.55393 147.902C11.2412 157.308 20.4638 163.425 31.0698 165.892C36.9108 167.28 40.0363 173.5 37.9356 179.154C36.1935 183.883 36.1935 188.406 38.3967 192.005C43.7253 200.846 60.0186 200.692 74.8261 191.645C82.7678 186.762 88.66 180.336 91.5805 174.065C93.7324 169.336 98.0363 165.944 103.16 165.173C112.536 163.785 122.886 160.033 132.877 153.916C157.573 138.855 170.69 115.313 162.185 101.28C153.782 87.35 126.883 88.1724 102.187 103.233Z" fill="url(#paint0_linear_132_1890)"/>
<path d="M214.19 35.3823L161.929 65.8123" stroke="#504F4E" stroke-width="4.356" stroke-miterlimit="10" stroke-linecap="round"/>
<path d="M101.674 101.845C101.725 93.2097 104.902 85.6022 110.948 80.8218C111.152 80.6676 111.306 80.5134 111.511 80.3592C131.647 63.9619 138.667 39.2376 127.19 25.0506C115.713 10.8636 90.1454 12.6627 70.0093 29.0599C55.5093 40.831 47.8238 56.9199 48.8998 70.3358C49.2072 73.8311 48.0288 76.9667 45.6206 78.9199C45.5694 78.9713 45.5182 79.0227 45.4669 79.0227C29.7885 91.7705 26.4581 113.668 38.0376 127.958C49.6171 142.247 71.6489 143.481 87.3274 130.733C96.6525 123.177 101.571 112.331 101.674 101.845Z" fill="#7E7E7D"/>
<path d="M100.137 228.911C113.1 231.584 125.192 227.266 133.953 218.734C143.125 209.79 155.37 206.757 166.95 210.818C173.303 213.079 180.22 213.953 187.393 213.182C211.321 210.561 230.945 188.869 233.558 161.934C236.991 126.93 212.704 97.2705 182.27 97.2705C164.798 97.2705 149.325 107.088 139.999 122.046C133.134 133.149 122.118 140.191 110.128 139.369C109.309 139.317 108.489 139.266 107.669 139.266C82.8704 139.266 63.2979 164.607 68.3191 193.598C71.4446 211.383 84.305 225.621 100.137 228.911Z" fill="#7395A5"/>
<path d="M187.753 165.07L100.906 114.798L122.067 102.462L208.708 152.682L187.753 165.07Z" fill="#504F4E"/>
<path d="M64.0153 159.518L143.125 114.593L122.067 102.462L43.623 147.49L64.0153 159.518Z" fill="#504F4E"/>
<path d="M155.934 234C160.349 234 163.927 230.41 163.927 225.981C163.927 221.553 160.349 217.963 155.934 217.963C151.52 217.963 147.941 221.553 147.941 225.981C147.941 230.41 151.52 234 155.934 234Z" fill="#7395A5"/>
<path d="M50.1814 51.6253C54.5958 51.6253 58.1743 48.0352 58.1743 43.6066C58.1743 39.178 54.5958 35.5879 50.1814 35.5879C45.767 35.5879 42.1885 39.178 42.1885 43.6066C42.1885 48.0352 45.767 51.6253 50.1814 51.6253Z" fill="#7395A5"/>
<path d="M191.39 41.4994C195.805 41.4994 199.383 37.9093 199.383 33.4806C199.383 29.052 195.805 25.4619 191.39 25.4619C186.976 25.4619 183.397 29.052 183.397 33.4806C183.397 37.9093 186.976 41.4994 191.39 41.4994Z" fill="#7E7E7D"/>
<path d="M24.7166 183.318C28.282 183.318 31.1724 180.418 31.1724 176.841C31.1724 173.264 28.282 170.364 24.7166 170.364C21.1511 170.364 18.2607 173.264 18.2607 176.841C18.2607 180.418 21.1511 183.318 24.7166 183.318Z" fill="url(#paint1_linear_132_1890)"/>
<path d="M7.39907 181.827C9.37988 181.827 10.9856 180.216 10.9856 178.229C10.9856 176.242 9.37988 174.631 7.39907 174.631C5.41826 174.631 3.8125 176.242 3.8125 178.229C3.8125 180.216 5.41826 181.827 7.39907 181.827Z" fill="url(#paint2_linear_132_1890)"/>
<path d="M83.9461 163.99L31.6846 194.42" stroke="#504F4E" stroke-width="4.356" stroke-miterlimit="10" stroke-linecap="round"/>
<path d="M119.914 101.228L211.013 153.967L211.269 58.9756C211.269 53.4756 207.426 46.742 202.661 43.9662L143.432 9.68107L128.88 1.25113C125.653 -0.599343 122.886 -0.239529 121.349 1.91936C120.58 2.9474 120.17 4.43806 120.17 6.23713L119.914 101.228Z" fill="#7395A5"/>
<path d="M99.0608 18.5225C99.0608 15.7982 100.034 13.8449 101.623 12.9197L122.732 0.583182C124.321 -0.342055 126.472 -0.187849 128.881 1.20001L202.662 43.9151C207.427 46.6908 211.321 53.3731 211.269 58.9245L211.013 153.916L189.852 166.252L187.752 165.018L188.008 70.0274C188.008 65.8638 185.087 60.775 181.501 58.7189L118.633 22.3263L122.015 102.462L100.854 114.799L98.7021 113.565L99.0608 18.5225Z" fill="url(#paint3_linear_132_1890)"/>
<path d="M100.906 114.798L122.016 102.462L122.221 24.4336L107.721 16.0036C104.134 13.8961 101.162 15.5924 101.162 19.756L100.906 114.798Z" fill="#6C0F3A"/>
<path d="M98.7539 113.513L100.906 114.747L101.162 19.7559C101.162 15.5924 104.134 13.8961 107.72 16.0036L122.22 24.4335L181.45 58.7187C185.037 60.8262 187.957 65.8636 187.957 70.0272L187.752 165.07L189.853 166.303L190.109 71.3122C190.109 65.8122 186.266 59.0785 181.501 56.3028L122.272 21.9662L107.72 13.5363C104.492 11.6858 101.726 12.0456 100.189 14.2045C99.42 15.2326 99.0101 16.7232 99.0101 18.5223L98.7539 113.513Z" fill="white"/>
<path d="M194.977 106.009L207.786 98.6071V96.0884L194.977 103.542V106.009Z" fill="white"/>
<path d="M194.977 110.584L207.786 103.182V100.663L194.977 108.116V110.584Z" fill="white"/>
<path d="M197.282 111.355L207.786 105.289V107.756L197.282 113.822V111.355Z" fill="white"/>
<path d="M194.977 119.784L207.786 112.331V109.864L194.977 117.266V119.784Z" fill="white"/>
<path d="M147.531 78.0973V75.7842C149.939 76.8636 150.247 76.8122 149.734 74.8075C149.324 73.3683 148.658 71.2608 148.095 69.4617L138.77 64.0645C138.462 64.8355 137.847 66.0692 137.386 67.3542C136.823 68.8449 137.54 69.8215 141.024 72.0318V74.3449L128.983 67.3542V65.0411C132.365 66.6346 132.826 66.7374 134.363 63.9103L143.842 46.4336L146.968 47.6672C149.99 57.2794 152.962 66.5832 156.036 75.9898C157.574 80.7188 158.035 81.4898 161.416 83.8029V86.116L147.531 78.0973ZM143.535 53.9897C142.305 56.5084 140.87 59.2327 139.743 61.8542L147.224 66.172L143.535 53.9897Z" fill="white"/>
<path d="M180.579 97.784C179.196 96.9616 178.274 96.0364 177.608 95.1111C176.89 94.1345 176.532 93.1065 176.327 92.3868C174.329 92.4896 171.562 92.5924 170.742 92.1298C166.643 89.7653 164.286 85.1391 164.286 82.055C164.286 79.4849 165.465 78.9709 168.18 79.5363C171.152 80.1531 175.148 81.284 176.122 80.9242V79.4335C176.122 77.2746 175.251 75.4242 173.048 74.1905C172.33 73.7793 171.664 73.7279 171.254 73.9335C170.588 74.2933 170.332 75.4242 169.973 76.3494C169.615 77.3774 168.795 77.2232 167.719 76.6064C166.592 75.9896 164.747 73.7793 164.747 72.34C164.747 71.2606 165.413 71.1578 166.387 71.0036C167.924 70.8494 171.511 71.2606 174.431 72.2886C176.378 73.4195 177.966 74.7559 179.401 76.6578C181.553 79.4335 182.117 81.9522 182.117 84.4195V91.4102C182.117 93.7747 182.936 94.8541 183.551 95.2139C184.064 95.471 184.627 95.6252 185.191 95.728L185.857 98.0925L180.579 97.784ZM176.071 83.3401C175.097 83.2887 174.124 83.2373 173.15 83.1345C171.664 82.9289 170.742 83.3401 170.742 84.8307C170.742 87.3494 172.586 89.1485 173.458 89.6625C174.072 90.0223 175.097 90.3822 176.071 90.1251C176.071 88.3261 176.071 85.7046 176.071 83.3401Z" fill="white"/>
<path d="M163.569 120.35C163.108 121.378 162.698 122.355 162.288 123.331C161.929 124.77 161.314 126.107 160.546 127.341C160.29 128.266 160.751 128.317 161.673 127.803L163.517 125.079C164.03 125.542 164.389 126.261 164.696 127.186L164.184 131.35C164.337 132.172 164.645 132.07 165.055 131.607L165.772 127.803L165.823 131.864C166.131 132.224 166.336 132.07 166.54 131.556L166.797 130.373C167.002 130.785 167.207 130.733 167.411 130.27C167.411 130.27 167.565 125.387 167.565 125.284C167.565 125.182 165.977 119.579 165.977 119.579L165.362 118.345L162.903 119.013L163.569 120.35Z" fill="#F5A272"/>
<path d="M155.627 96.8591C156.498 100.149 156.293 104.158 157.42 108.939C158.957 113.719 160.853 116.083 163.056 121.481C163.415 121.995 166.438 121.326 166.284 120.761C164.03 110.275 165.362 113.719 163.876 109.196C163.21 105.752 163.159 101.28 162.749 97.1161C162.493 94.3404 161.468 92.8497 160.033 92.2329C156.806 91.1535 153.834 93.7236 155.627 96.8591Z" fill="white"/>
<path d="M155.935 166.406C155.935 166.406 155.474 168.873 155.73 169.953C155.935 171.032 158.753 171.7 158.753 171.7C158.753 171.7 161.11 174.579 164.491 174.322C166.438 174.168 167.104 173.654 167.412 173.088C167.719 172.523 167.412 171.752 167.053 171.238C166.694 170.724 164.133 169.747 163.108 168.154C162.596 167.383 161.776 165.686 161.776 165.686L161.673 164.813C161.52 163.527 160.495 162.551 159.214 162.499C157.472 162.448 156.14 163.836 156.242 165.532L156.293 166.098L155.935 166.406Z" fill="#0C1017"/>
<path d="M144.253 173.962C143.843 174.733 143.843 176.07 143.792 177.972C144.304 179.051 145.124 179.873 146.046 180.233C146.046 180.233 146.764 183.677 151.375 183.78C155.679 183.883 155.628 182.135 155.628 182.135C155.628 182.135 155.628 181.158 154.654 180.285C154.039 179.771 151.734 177.817 151.17 177.098C150.606 176.378 150.145 175.196 150.145 175.196L149.94 172.06H144.202L144.253 173.962Z" fill="#0C1017"/>
<path d="M160.853 119.938L153.219 130.322C153.577 133.2 154.192 141.116 154.858 143.789C153.424 154.018 155.268 165.635 156.088 166.303C157.266 167.28 160.033 167.845 161.673 165.429C161.673 165.429 160.853 154.172 162.39 142.504L160.853 119.938Z" fill="black"/>
<path d="M155.525 128.317L153.424 147.593C151.068 159.518 150.043 175.041 150.043 175.041C148.659 177.509 145.022 176.532 143.843 175.041C143.689 173.499 143.587 171.906 143.484 170.261C143.023 163.116 143.075 155.2 145.739 148.415C144.868 143.429 143.997 134.074 144.458 129.499C143.587 126.878 143.28 123.228 144.765 119.476C144.765 119.424 144.817 119.373 144.817 119.322C144.868 119.373 144.919 119.373 144.97 119.424C145.585 119.99 146.302 120.35 147.122 120.607C152.656 122.406 160.905 117.882 160.905 117.985C161.059 123.485 159.06 125.695 155.525 128.317Z" fill="#282727"/>
<path d="M147.737 148.724C145.073 153.453 144.099 161.42 143.484 170.159C143.023 163.014 143.075 155.098 145.739 148.313C144.868 143.327 143.997 133.971 144.458 129.397C143.587 126.775 143.28 123.126 144.765 119.373L144.97 119.322L147.737 118.911C147.481 119.425 147.276 119.99 147.122 120.504C146.098 123.485 145.995 126.364 146.917 129.037C145.79 134.691 146.559 141.528 147.737 148.724Z" fill="black"/>
<path d="M162.236 110.892C161.878 113.205 161.416 115.415 160.955 117.523C160.955 117.523 160.955 118.088 160.597 118.808C160.033 119.99 158.65 121.583 154.961 121.943C152.552 122.303 150.657 122.303 149.222 122.098C148.197 121.943 147.378 121.738 146.711 121.429C146.66 121.429 146.66 121.378 146.609 121.378L146.199 121.172C144.355 120.041 144.406 118.551 144.406 118.551C143.689 114.747 143.176 110.84 142.869 106.831C142.766 105.803 142.817 104.415 142.869 102.925C142.971 100.046 143.791 96.8077 143.791 94.8544C147.736 93.3124 148.659 92.4899 151.989 90.6394C155.422 89.9198 158.547 90.2282 161.519 90.7423C163.517 97.8871 163.21 104.724 162.236 110.892Z" fill="white"/>
<path d="M146.763 121.429L146.661 121.378L146.251 121.172C144.406 120.041 144.458 118.551 144.458 118.551C143.74 114.747 143.228 110.84 142.92 106.831C142.818 105.803 142.869 104.415 142.92 102.925C144.406 102.102 146.148 101.125 146.148 101.125C144.765 107.499 145.226 114.336 146.763 121.429Z" fill="#D7ECEA"/>
<path d="M155.115 97.476L155.628 99.2236L156.652 98.8638V96.8591L155.628 96.1909L155.115 97.476Z" fill="#9F2F3C"/>
<path d="M155.627 99.2234C155.934 102.976 155.934 110.018 155.627 113.976L157.267 115.569L158.394 112.999C158.189 109.144 157.42 102.565 156.6 98.915L155.627 99.2234Z" fill="#E94959"/>
<path d="M152.809 88.8916C152.706 88.8916 150.759 91.3075 150.759 91.3075C148.146 92.7982 151.477 98.2982 155.063 97.7328L158.035 95.6767L152.809 88.8916Z" fill="#F5A272"/>
<path d="M151.375 90.5879C150.914 90.9477 150.043 91.5131 149.325 92.1814C149.325 92.1814 150.76 98.8636 155.115 99.2234C155.422 98.0412 155.883 97.1674 155.883 97.1674C153.168 96.7561 151.375 92.644 151.375 90.5879Z" fill="#C9E6E2"/>
<path d="M155.884 97.1678L157.472 98.7098C157.472 98.7098 159.009 92.4388 157.677 91.1023C156.345 89.7659 155.884 97.1678 155.884 97.1678Z" fill="#C9E6E2"/>
<path opacity="0.3" d="M159.982 96.2938C159.982 98.9153 159.316 100.971 157.523 100.663C153.68 100.2 153.014 94.8032 153.424 92.7471L159.982 96.2938Z" fill="#7395A5"/>
<path d="M157.165 82.2607C153.988 82.3121 152.143 83.8028 152.041 87.1439C152.143 90.6393 152.297 92.7982 153.988 95.1627C155.064 96.4991 156.499 97.4244 158.087 97.373C160.034 97.2701 162.903 92.5926 163.159 89.2C163.672 85.8075 160.751 83.186 157.165 82.2607Z" fill="#F5A272"/>
<path d="M162.8 91.6675C162.083 93.3638 157.83 93.0554 155.986 90.9479L155.781 92.1815L154.09 90.7423L152.604 92.6955L152.041 91.9245C150.709 89.2002 150.76 84.7282 154.602 82.4665C159.777 80.4105 166.182 86.4759 162.8 91.6675Z" fill="#020203"/>
<path d="M153.578 92.2842C153.373 91.9244 153.219 91.5645 153.168 91.1533C153.117 90.7421 153.219 90.3309 153.527 90.0739C153.834 89.8169 154.346 89.7655 154.654 90.0225C154.859 90.1767 154.961 90.4851 154.961 90.7421C154.961 90.9991 154.91 91.3075 154.807 91.5646C154.756 91.8216 154.654 92.0272 154.602 92.2842C154.551 92.4384 154.5 92.644 154.346 92.6954C154.193 92.7468 154.039 92.7468 153.885 92.644C153.731 92.5412 153.68 92.4384 153.578 92.2842Z" fill="#F5A272"/>
<path d="M136.926 127.495L136.721 130.528L136.823 133.201L137.592 135.205C137.745 135.668 138.258 135.822 138.104 135.257L138.77 137.415C138.924 138.084 139.59 138.084 139.539 137.467L139.026 134.588L140.82 138.495C141.076 139.06 141.793 139.112 141.639 138.341L140.41 134.074L141.742 136.387L143.023 137.929C143.535 138.444 144.253 138.187 143.945 137.518L142.562 135.359C142.562 135.359 141.947 133.663 141.742 132.841C141.691 132.686 142.049 131.196 142.049 131.196L145.124 132.789C145.943 133.046 146.302 132.327 145.533 131.813L142.408 129.037C142.408 129.037 140.563 127.906 140.41 127.803C140.256 127.7 140.256 127.7 140.256 127.7L139.795 126.261L136.823 126.467L136.926 127.495Z" fill="#F5A272"/>
<path d="M142.716 95.5742C139.385 99.1723 137.694 103.336 135.235 109.504C134.62 114.593 135.594 120.967 136.875 127.752C137.848 128.214 138.873 127.855 140.154 127.238C140.051 122.2 141.281 117.112 140.769 112.126C143.433 110.481 146.046 105.649 148.864 101.434C149.684 95.6255 146.302 92.4386 142.716 95.5742Z" fill="white"/>
<path d="M184.627 189.691C181.502 189.486 182.219 184.191 183.039 181.313C183.346 180.285 184.576 179.771 185.601 180.079C186.626 180.439 187.24 182.392 187.24 183.472C187.24 184.5 188.316 189.897 184.627 189.691Z" fill="black"/>
<path d="M182.936 184.14C182.424 179.668 187.291 179.308 186.625 184.191C186.472 185.476 185.652 186.453 184.832 186.453C183.551 186.504 183.039 185.117 182.936 184.14Z" fill="#F5A272"/>
<path d="M168.436 182.392C167.104 183.472 165.362 184.037 163.671 184.037C163.415 184.037 163.159 183.986 163.005 183.831C162.749 183.523 162.954 183.112 163.108 182.803C164.696 180.233 167.617 178.023 168.949 175.299C169.102 174.99 169.256 174.63 169.512 174.425C169.922 174.116 170.486 174.168 170.998 174.065C171.459 173.962 171.972 173.654 172.382 173.859C172.74 174.065 172.843 174.579 172.945 175.042C173.048 175.504 173.304 176.687 173.406 177.098C173.56 177.56 173.663 178.074 173.509 178.537C173.355 179.102 172.843 179.514 172.33 179.822C171.818 180.079 171.254 180.285 170.742 180.542C169.922 180.953 169.256 181.775 168.436 182.392Z" fill="#F5A272"/>
<path d="M163.005 183.78C163.159 183.986 163.415 183.986 163.671 183.986C165.362 184.037 167.104 183.472 168.436 182.341C169.205 181.724 169.922 180.902 170.793 180.439C171.305 180.182 171.869 179.976 172.381 179.719C172.894 179.462 173.355 179 173.509 178.434C173.662 177.972 173.56 177.458 173.406 176.995C173.252 176.584 173.099 175.504 172.996 175.093C172.996 175.042 172.945 174.99 172.945 174.888C172.842 174.476 172.74 173.911 172.381 173.705C171.971 173.448 171.459 173.757 170.998 173.911C170.486 174.014 169.922 173.962 169.512 174.271C169.256 174.476 169.102 174.836 168.948 175.145C168.436 176.224 167.668 177.098 166.848 177.92C165.567 179.205 164.081 181.056 163.159 182.649C162.954 183.061 162.8 183.523 163.005 183.78Z" fill="black"/>
<path d="M165.926 179.565C165.926 179.719 165.977 179.925 166.131 180.028C166.233 180.079 166.387 180.079 166.541 180.079C168.078 179.976 169.41 179.051 170.588 178.075C171.203 177.56 171.767 177.046 172.279 176.43C172.587 176.07 172.843 175.607 172.996 175.196C172.996 175.145 172.945 175.093 172.945 174.99C172.843 174.579 172.792 173.654 172.433 173.448C172.023 173.191 171.459 173.448 170.998 173.603C170.486 173.705 169.769 173.448 169.359 173.757C169.102 173.962 169.205 174.682 169.051 174.99C168.539 176.07 167.719 177.201 166.848 178.075C166.592 178.434 166.336 178.794 166.131 179.103C166.028 179.205 165.977 179.36 165.926 179.565Z" fill="#F5A272"/>
<path d="M167.36 148.518C167.412 149.238 167.463 150.009 167.514 150.934C167.565 151.757 167.617 152.682 167.668 153.658C167.719 154.43 167.77 155.252 167.821 156.074C168.334 164.453 169 174.99 169 174.99C169 175.042 169 175.042 169.051 175.042C169.82 176.481 172.638 176.789 172.894 174.99C173.201 169.439 174.175 164.607 174.892 160.187C175.148 158.696 175.353 157.205 175.456 155.766C175.558 154.532 175.609 153.35 175.609 152.168V152.014C175.609 150.986 175.507 149.958 175.353 148.981C175.302 148.672 175.251 148.364 175.2 148.107L168.744 143.892C168.744 144.046 167.36 148.313 167.36 148.518Z" fill="#F5A272"/>
<path d="M174.893 139.266C175.969 144.766 176.583 149.084 177.198 152.425C177.249 152.682 177.301 152.939 177.352 153.144C177.608 154.429 177.916 155.509 178.223 156.486C178.274 156.691 178.377 156.897 178.428 157.102L178.94 159.672L179.196 160.803L183.347 180.645L183.5 181.364L183.654 182.032C183.654 183.574 186.062 183.06 186.165 181.724C186.165 181.621 186.165 181.518 186.216 181.416C186.267 181.107 186.267 180.85 186.318 180.542C187.599 168.565 187.241 163.733 186.421 159.158C186.318 158.593 186.216 157.976 186.113 157.411C185.96 156.588 185.755 155.715 185.601 154.789C185.652 154.481 185.652 154.224 185.704 153.915C185.704 153.864 185.704 153.761 185.704 153.71C185.704 153.658 185.704 153.607 185.704 153.607C186.421 147.387 186.216 142.556 186.062 139.266H174.893Z" fill="#F5A272"/>
<path d="M174.893 139.266C175.969 144.766 176.583 149.084 177.198 152.425C177.249 152.682 177.301 152.939 177.352 153.144C177.608 154.429 177.916 155.509 178.223 156.486C178.274 156.691 178.377 156.897 178.428 157.102L178.94 159.672L179.196 160.803L183.347 180.645L183.5 181.364L183.654 182.032C183.654 183.574 186.062 183.06 186.165 181.724C186.165 181.621 186.165 181.518 186.216 181.416C186.267 181.107 186.267 180.85 186.318 180.542C187.599 168.565 187.241 163.733 186.421 159.158C186.318 158.593 186.216 157.976 186.113 157.411C185.96 156.588 185.755 155.715 185.601 154.789C185.652 154.481 185.652 154.224 185.704 153.915C185.704 153.864 185.704 153.761 185.704 153.71C185.704 153.658 185.704 153.607 185.704 153.607C186.421 147.387 186.216 142.556 186.062 139.266H174.893Z" fill="#F5A272"/>
<path opacity="0.5" d="M177.249 152.425C177.3 152.682 177.351 152.939 177.403 153.144C177.659 154.429 177.966 155.509 178.274 156.486C178.325 156.691 178.427 156.897 178.479 157.102L178.991 159.672L179.247 160.803C181.655 160.855 184.115 160.341 186.42 159.21C186.318 158.644 186.215 158.028 186.113 157.462C185.959 156.64 185.754 155.766 185.601 154.841C185.652 154.532 185.652 154.275 185.703 153.967C185.703 153.915 185.703 153.813 185.703 153.761L177.249 152.425Z" fill="#F5A272"/>
<path opacity="0.5" d="M167.514 150.934C167.565 151.757 167.616 152.682 167.667 153.658C167.719 154.429 167.77 155.252 167.821 156.074C169.461 157.873 171.971 159.364 174.892 160.186C175.148 158.696 175.353 157.205 175.455 155.766C175.558 154.532 175.609 153.35 175.609 152.168L167.514 150.934Z" fill="#F5A272"/>
<path d="M160.751 124.514L170.793 122.509C170.793 122.509 174.636 109.813 174.482 109.607C174.329 109.401 170.64 101.794 170.64 101.794L167.77 117.677L159.111 122.046L160.751 124.514Z" fill="#4177AC"/>
<path d="M160.751 124.514L170.793 122.509C170.793 122.509 174.636 109.813 174.482 109.607C174.329 109.401 170.64 101.794 170.64 101.794L167.77 117.677L159.111 122.046L160.751 124.514Z" fill="#9F2F3C"/>
<path d="M180.323 94.0835C186.728 96.191 185.345 102.205 183.603 106.985L179.094 102.719L180.323 94.0835Z" fill="#1E1E1C"/>
<path d="M167.667 153.144C168.641 155.817 181.86 161.163 186.061 157L187.24 138.701C188.367 132.686 187.394 129.602 184.268 126.672C183.909 126.313 183.5 125.953 183.038 125.644L173.765 125.285L170.127 125.13C167.001 135.154 166.899 146.154 167.667 153.144Z" fill="#6C0F3A"/>
<path d="M166.233 115.929C166.233 117.78 167.975 119.476 170.179 119.168C170.179 120.967 170.742 123.434 170.179 125.079C171.05 127.186 172.228 128.831 174.585 129.448C176.942 130.065 181.604 129.551 184.32 126.621C183.859 123.331 184.986 119.065 186.165 115.518C187.087 112.794 187.394 109.298 187.65 108.116C185.498 105.392 183.5 104.261 180.785 102.359C178.018 100.457 175.917 98.247 172.792 99.4292C169.666 100.611 170.127 106.626 168.949 109.093C167.719 111.663 166.233 113.359 166.233 115.929Z" fill="#B51B29"/>
<path opacity="0.5" d="M170.127 125.079C170.998 127.187 172.177 128.831 174.534 129.448C176.89 130.065 181.553 129.551 184.269 126.621C187.394 129.551 188.368 132.635 187.24 138.649L186.011 156.948C185.652 157.308 184.986 157.771 183.961 158.131C184.832 151.757 183.859 137.004 182.475 132.018C174.79 132.327 171.511 130.528 169.769 126.261L170.127 125.079Z" fill="#9F2F3C"/>
<path opacity="0.5" d="M170.127 125.079C170.998 127.186 172.176 128.831 174.533 129.448C176.89 130.065 181.553 129.551 184.268 126.621C183.807 123.331 184.934 119.065 186.113 115.518L183.807 113.565L180.169 119.733C177.761 123.794 171.562 122.972 171.254 118.859L170.127 119.168C170.178 120.967 170.691 123.434 170.127 125.079Z" fill="#9F2F3C"/>
<path d="M177.864 122.766C177.556 123.383 176.89 123.845 175.968 124.205L174.687 124.514C174.584 124.873 173.97 124.976 173.406 125.028C172.996 124.976 172.791 124.771 172.791 124.411C172.433 124.154 172.228 123.897 172.381 123.537C172.074 123.28 171.92 123.023 172.074 122.612C171.818 122.303 171.664 121.995 171.869 121.635L168.692 121.995C168.026 122.098 167.77 121.429 168.692 121.224L174.636 120.144C175.455 119.939 176.327 119.939 177.146 120.144L179.196 120.658L179.093 123.126L177.864 122.766Z" fill="#F5A272"/>
<path d="M187.599 108.219C190.98 112.383 194.516 124 192.108 125.696C189.29 128.112 183.295 125.439 177.761 123.177C178.069 121.841 178.069 120.864 177.249 120.196L187.548 121.378L183.449 114.85C181.809 109.35 184.525 106.214 187.599 108.219Z" fill="#B51B29"/>
<path d="M179.504 98.1958C179.914 99.5837 180.989 101.743 181.246 103.079C181.553 104.724 178.53 107.294 176.481 107.14C175.046 106.831 174.687 105.032 174.482 103.285L179.504 98.1958Z" fill="#F5A272"/>
<path opacity="0.5" d="M178.427 99.2754C178.427 99.2754 179.606 109.145 174.892 108.322C171.818 107.808 172.484 102.719 172.484 102.719L178.427 99.2754Z" fill="#F5A272"/>
<path d="M172.997 93.1582C168.949 93.775 164.389 98.761 171.204 101.537C171.05 99.2751 170.64 97.5788 172.997 93.1582Z" fill="#1E1E1C"/>
<path d="M175.456 90.2282C170.742 90.8964 169.256 93.6721 169.718 97.4245C169.769 100.611 172.382 104.775 174.226 104.724C176.84 104.878 178.12 101.794 180.375 98.5553C182.117 93.1581 179.862 89.6114 175.456 90.2282Z" fill="#F5A272"/>
<path d="M169.82 97.5788C170.794 98.6583 172.382 99.2237 174.329 99.6863C175.969 100.355 177.608 100.303 178.223 101.228L180.119 100.406C182.066 98.1956 182.219 91.8218 178.94 90.4853C173.663 88.3264 167.361 93.6723 169.82 97.5788Z" fill="#1E1E1C"/>
<path d="M178.324 100.252C178.632 99.0697 179.4 98.3501 180.118 99.0183C180.425 99.3267 180.425 99.8921 180.118 100.612C179.862 101.177 179.503 101.434 179.093 101.486C178.427 101.588 178.12 101.126 178.324 100.252Z" fill="#F5A272"/>
<path d="M163.62 114.49C166.643 117.317 168.641 121.584 170.127 127.752L159.726 128.112C159.88 123.28 156.754 118.808 152.758 114.49H163.62Z" fill="#D7ECEA"/>
<path d="M160.084 122.354C161.16 122.457 161.16 123.28 160.34 123.383C161.57 123.383 161.775 124.462 160.75 124.513C161.467 124.565 161.57 125.336 160.545 125.439C161.314 125.696 161.365 126.158 160.494 126.261L159.316 126.312C158.854 126.364 158.188 126.055 158.342 125.49C157.932 125.49 157.625 124.513 157.83 124.462C157.471 124.308 157.215 123.64 157.471 123.383C156.959 123.126 156.907 122.406 157.625 121.583L157.983 121.224L158.496 122.2L160.084 122.354Z" fill="#F5A272"/>
<path d="M70.2656 106.214C65.5006 108.99 61.6066 115.672 61.6579 121.224L61.914 160.752L40.7533 148.416L40.4971 108.887C40.4971 103.387 44.3398 96.6537 49.1049 93.878L122.066 51.6255L143.278 63.9106L70.2656 106.214Z" fill="url(#paint4_linear_132_1890)"/>
<path d="M70.266 108.682C66.6794 110.789 63.7589 115.827 63.7589 119.99L64.0151 159.518L62.478 160.444L61.9144 160.752L61.6582 121.224C61.6582 115.724 65.501 108.99 70.266 106.215L143.33 63.9106V66.3779L70.266 108.682Z" fill="white"/>
<path d="M48.9509 131.967V131.453C49.5145 131.71 49.5657 131.71 49.4633 131.247C49.3608 130.887 49.2071 130.425 49.1046 130.014L46.9527 128.78C46.9014 128.934 46.7477 129.243 46.6452 129.551C46.5428 129.911 46.6965 130.116 47.465 130.63V131.144L44.6982 129.551V129.037C45.4668 129.397 45.5693 129.448 45.9279 128.78L48.1311 124.719L48.8484 125.028C49.5657 127.238 50.2318 129.397 50.9491 131.556C51.3078 132.635 51.4103 132.841 52.1788 133.355V133.869L48.9509 131.967ZM48.0286 126.364C47.7212 126.93 47.4138 127.598 47.1576 128.163L48.8997 129.14L48.0286 126.364Z" fill="white"/>
<path d="M56.585 136.49C56.2776 136.285 56.0726 136.079 55.9189 135.873C55.7652 135.668 55.6628 135.411 55.6115 135.257C55.1504 135.257 54.4843 135.308 54.3306 135.205C53.3571 134.64 52.8447 133.56 52.8447 132.892C52.8447 132.327 53.1009 132.172 53.767 132.327C54.4843 132.481 55.3553 132.738 55.6115 132.635V132.275C55.6115 131.761 55.4066 131.35 54.8942 131.042C54.7405 130.939 54.5868 130.939 54.4843 130.99C54.3306 131.093 54.2794 131.35 54.1769 131.556C54.0744 131.813 53.9207 131.761 53.6645 131.607C53.4083 131.453 52.9984 130.939 52.9984 130.63C52.9984 130.373 53.1521 130.373 53.3571 130.322C53.7158 130.271 54.5355 130.373 55.2016 130.63C55.6628 130.887 56.0214 131.196 56.3288 131.658C56.8412 132.327 56.9437 132.892 56.9437 133.457V135.102C56.9437 135.668 57.1486 135.873 57.3023 135.976C57.4048 136.028 57.5585 136.079 57.661 136.079L57.8147 136.644L56.585 136.49ZM55.5603 133.149C55.3553 133.149 55.0991 133.098 54.8942 133.098C54.5355 133.046 54.3306 133.149 54.3306 133.509C54.3306 134.074 54.7405 134.486 54.9454 134.64C55.0991 134.743 55.3041 134.794 55.5603 134.743C55.5603 134.331 55.5603 133.714 55.5603 133.149Z" fill="white"/>
<path d="M51.9232 94.3407C51.9232 94.3407 51.9745 94.3921 52.0257 94.3921L65.1936 102.051C65.1423 102.051 65.1423 102 65.0911 102C65.2448 102.154 65.501 102.154 65.7572 102L75.6971 96.2426C76.1582 95.9856 76.5169 95.3687 76.5169 94.8547C76.5169 94.5977 76.4144 94.4435 76.2607 94.3407L69.1388 90.1771L72.0593 78.3033C72.1618 77.892 72.0593 77.5836 71.8544 77.4808L58.6865 69.8219C58.584 69.7705 58.4816 69.7705 58.3791 69.7705C58.2766 69.7705 58.2254 69.8219 58.1229 69.8733C57.8155 70.0789 57.4568 70.4901 57.3543 70.9528L51.7695 93.5697C51.7695 93.9295 51.7695 94.2379 51.9232 94.3407Z" fill="#383737"/>
<path d="M62.529 86.7847C62.734 86.6819 62.9389 86.6305 63.0926 86.7333L76.2605 94.3922C76.1068 94.2894 75.9018 94.3408 75.6969 94.4436L66.8329 99.5838L53.665 91.9249L62.529 86.7847Z" fill="#7395A5"/>
<path d="M51.8207 93.6209L57.4055 71.004C57.508 70.5414 57.8154 70.1302 58.174 69.9246C58.2765 69.8732 58.3278 69.8218 58.4302 69.8218C58.5327 69.8218 58.6352 69.8218 58.7376 69.8732L71.9055 77.5321C71.803 77.4807 71.7006 77.4807 71.5981 77.4807C71.4956 77.4807 71.4444 77.5321 71.3419 77.5835C71.0345 77.7891 70.6758 78.2003 70.5733 78.6629L64.9885 101.28C64.8861 101.588 64.9373 101.897 65.091 102.051C65.091 102.051 65.1422 102.102 65.1935 102.102L52.0256 94.4434C51.9744 94.4434 51.9744 94.392 51.9232 94.392C51.7694 94.2378 51.7694 93.9294 51.8207 93.6209Z" fill="#7395A5"/>
<path d="M68.7805 78.2004C68.7805 78.0976 68.8317 77.9948 68.8829 77.9434L59.0455 72.2378L53.8193 93.3126L63.6056 99.0183L68.7805 78.2004Z" fill="white"/>
<path d="M71.3412 77.5838C71.0338 77.7894 70.6752 78.2006 70.5727 78.6632L64.9879 101.28C64.8854 101.589 64.9367 101.897 65.0904 102.051C65.2441 102.205 65.5002 102.205 65.7564 102.051L75.6964 96.2941C76.1575 96.0371 76.5162 95.4203 76.5162 94.9062C76.5162 94.3922 76.1575 94.1866 75.6964 94.4436L66.8324 99.5838L72.0586 78.3548C72.2123 77.7894 71.9561 77.4295 71.5462 77.4809C71.495 77.5323 71.4437 77.5324 71.3412 77.5838Z" fill="white"/>
<path d="M94.2969 181.21L143.689 209.841L164.645 197.505L115.406 168.925L94.2969 181.21Z" fill="#504F4E"/>
<path d="M159.008 144.663L121.503 122.92C119.3 121.635 117.353 121.532 115.918 122.355L94.7573 134.691C94.8085 134.691 94.8598 134.64 94.911 134.64C93.4251 135.411 92.5029 137.21 92.5029 139.78L92.4004 180.131L94.3474 181.261L115.457 168.925L115.508 146.257L137.899 159.21C141.178 161.112 143.842 165.687 143.791 169.49L143.688 209.841L145.635 210.972L166.745 198.635L166.847 158.285C166.847 153.247 163.363 147.182 159.008 144.663Z" fill="url(#paint5_linear_132_1890)"/>
<path d="M115.508 146.257L115.457 168.925L94.3477 181.262L94.4501 140.911C94.4501 140.705 94.4501 140.551 94.4501 140.397C94.4501 140.346 94.4501 140.243 94.4501 140.191C94.5014 139.831 94.5526 139.472 94.6551 139.163C94.7063 139.06 94.7063 138.958 94.7576 138.906C94.8088 138.803 94.86 138.649 94.9113 138.546C94.9625 138.444 95.0137 138.341 95.065 138.238C95.1162 138.135 95.1674 138.084 95.2187 138.032C95.2699 137.93 95.3724 137.827 95.4236 137.724C95.5261 137.57 95.6286 137.467 95.7823 137.416C95.8848 137.313 96.0385 137.21 96.1409 137.159C96.2434 137.107 96.2947 137.056 96.3459 137.004C97.4219 136.49 98.8053 136.645 100.342 137.518L115.508 146.257Z" fill="#6C0F3A"/>
<path d="M145.687 170.57L145.584 210.921L143.637 209.79L143.74 169.439C143.74 165.687 141.075 161.061 137.847 159.159L115.508 146.257L100.342 137.467C98.805 136.593 97.4216 136.439 96.3456 136.953C96.2432 137.004 96.1919 137.056 96.1407 137.107C95.987 137.159 95.8845 137.261 95.782 137.364C95.6795 137.467 95.5771 137.57 95.4746 137.673C95.3721 137.775 95.3209 137.878 95.2184 137.981C95.1672 138.033 95.1159 138.084 95.0647 138.187C95.0135 138.29 94.9622 138.392 94.911 138.495C94.8598 138.598 94.8085 138.701 94.7573 138.855C94.706 138.958 94.7061 139.061 94.6548 139.112C94.5523 139.42 94.5011 139.78 94.4499 140.14C94.4499 140.191 94.4499 140.294 94.4499 140.346C94.4499 140.5 94.4499 140.705 94.4499 140.86L94.3474 181.21L92.4004 180.079L92.5029 139.729C92.5029 134.948 95.7308 132.892 99.8297 134.897C100.035 135 100.188 135.103 100.393 135.205L115.508 143.995L137.899 156.948C142.203 159.519 145.738 165.584 145.687 170.57Z" fill="white"/>
<path d="M145.123 141.836L139.539 119.219C139.436 118.757 139.129 118.346 138.77 118.14C138.668 118.089 138.616 118.037 138.514 118.037C138.411 118.037 138.309 118.037 138.206 118.089L125.039 125.747C124.834 125.85 124.731 126.159 124.834 126.57L127.754 138.444L120.632 142.607C120.478 142.71 120.376 142.864 120.376 143.121C120.376 143.635 120.735 144.252 121.196 144.509L131.136 150.266C131.392 150.42 131.648 150.42 131.802 150.266C131.802 150.266 131.751 150.318 131.699 150.318L144.867 142.659C144.918 142.659 144.918 142.607 144.97 142.607C145.175 142.453 145.175 142.196 145.123 141.836Z" fill="#383737"/>
<path d="M134.415 135.051C134.21 134.948 134.005 134.897 133.851 135L120.684 142.659C120.837 142.556 121.042 142.607 121.247 142.71L130.111 147.85L143.279 140.191L134.415 135.051Z" fill="#7395A5"/>
<path d="M145.123 141.836L139.538 119.219C139.436 118.757 139.128 118.346 138.77 118.14C138.667 118.089 138.616 118.037 138.513 118.037C138.411 118.037 138.308 118.037 138.206 118.089L125.038 125.747C125.141 125.696 125.243 125.696 125.346 125.696C125.448 125.696 125.499 125.747 125.602 125.799C125.909 126.004 126.268 126.416 126.37 126.878L131.955 149.495C132.058 149.804 132.006 150.112 131.853 150.266C131.853 150.266 131.801 150.318 131.75 150.318L144.918 142.659C144.969 142.659 144.969 142.607 145.02 142.607C145.174 142.453 145.174 142.196 145.123 141.836Z" fill="#7395A5"/>
<path d="M128.164 126.467C128.164 126.364 128.113 126.261 128.062 126.21L137.899 120.504L143.125 141.579L133.339 147.285L128.164 126.467Z" fill="white"/>
<path d="M125.602 125.85C125.909 126.056 126.268 126.467 126.37 126.93L131.955 149.547C132.058 149.855 132.006 150.164 131.853 150.318C131.699 150.472 131.443 150.472 131.186 150.318L121.247 144.561C120.785 144.304 120.427 143.687 120.427 143.173C120.427 142.659 120.785 142.453 121.247 142.71L130.111 147.85L124.884 126.621C124.731 126.056 124.987 125.696 125.397 125.748C125.448 125.748 125.499 125.799 125.602 125.85Z" fill="white"/>
<path d="M153.577 188.252V187.636C154.243 187.173 154.294 187.07 154.14 186.71C154.038 186.453 153.833 186.093 153.679 185.785L151.169 187.224C151.066 187.533 150.913 188.047 150.81 188.561C150.656 189.126 150.861 189.178 151.784 188.664V189.28L148.556 191.182V190.565C149.478 189.949 149.58 189.846 149.99 188.561L152.552 180.902L153.423 180.234C154.243 181.879 155.063 183.472 155.883 185.014C156.292 185.836 156.446 185.888 157.317 185.425V186.042L153.577 188.252ZM152.501 183.009C152.142 184.089 151.784 185.271 151.476 186.299L153.474 185.117L152.501 183.009Z" fill="white"/>
<path d="M162.492 183.266C162.133 183.472 161.877 183.523 161.723 183.472C161.518 183.421 161.416 183.266 161.365 183.112C160.801 183.78 160.084 184.654 159.879 184.757C158.752 185.374 158.137 184.911 158.137 184.089C158.137 183.421 158.444 182.907 159.161 182.187C159.981 181.416 161.057 180.491 161.313 180.079V179.668C161.313 179.103 161.057 178.846 160.494 179.206C160.289 179.308 160.135 179.514 159.981 179.668C159.828 179.977 159.725 180.336 159.623 180.696C159.52 181.056 159.315 181.313 159.008 181.467C158.7 181.621 158.188 181.621 158.188 181.262C158.188 180.953 158.342 180.748 158.649 180.388C159.059 179.874 160.032 178.846 160.801 178.229C161.313 177.921 161.775 177.766 162.133 177.869C162.697 177.972 162.85 178.435 162.85 179.103V181.005C162.85 181.621 163.055 181.673 163.26 181.57C163.414 181.519 163.568 181.364 163.722 181.21L163.875 181.673L162.492 183.266ZM161.262 180.748C161.006 181.056 160.75 181.313 160.494 181.621C160.084 182.033 159.828 182.444 159.828 182.804C159.828 183.472 160.34 183.421 160.545 183.266C160.699 183.164 161.006 182.958 161.262 182.598C161.262 182.084 161.262 181.364 161.262 180.748Z" fill="white"/>
<path d="M197.743 94.8542V94.2373C198.409 93.7747 198.46 93.6719 198.306 93.3121C198.204 93.0551 197.999 92.6953 197.845 92.3869L195.335 93.8261C195.232 94.1345 195.079 94.6486 194.976 95.1626C194.822 95.728 195.027 95.7794 195.95 95.2654V95.8822L192.722 97.7841V97.1673C193.644 96.5504 193.746 96.4476 194.156 95.1626L196.718 87.5037L197.589 86.8354C198.409 88.4803 199.229 90.0738 200.049 91.6158C200.458 92.4383 200.612 92.4897 201.483 92.0271V92.6439L197.743 94.8542ZM196.667 89.6112C196.308 90.6906 195.95 91.8728 195.642 92.9009L197.64 91.7186L196.667 89.6112Z" fill="white"/>
<path d="M206.658 89.817C206.299 90.0226 206.043 90.074 205.889 90.0226C205.684 89.9712 205.582 89.817 205.531 89.6628C204.967 90.331 204.25 91.2048 204.045 91.3076C202.918 91.9245 202.303 91.4619 202.303 90.6394C202.303 89.9712 202.61 89.4572 203.327 88.7375C204.147 87.9665 205.223 87.0413 205.479 86.6301V86.2702C205.479 85.7048 205.223 85.4478 204.66 85.8076C204.455 85.9104 204.301 86.116 204.147 86.2702C203.994 86.5787 203.891 86.9385 203.789 87.2983C203.686 87.6581 203.481 87.9151 203.174 88.0693C202.866 88.2235 202.354 88.2235 202.354 87.8637C202.354 87.5553 202.508 87.3497 202.815 86.9899C203.225 86.4758 204.199 85.4478 204.967 84.831C205.479 84.5226 205.941 84.3684 206.299 84.4712C206.863 84.574 207.017 85.0366 207.017 85.7048V87.6067C207.017 88.2235 207.221 88.2749 207.426 88.1721C207.58 88.1207 207.734 87.9665 207.888 87.8123L208.041 88.2749L206.658 89.817ZM205.428 87.3497C205.172 87.6581 204.916 87.9151 204.66 88.2235C204.25 88.6347 203.994 89.046 203.994 89.4058C203.994 90.074 204.506 90.0226 204.711 89.8684C204.865 89.7656 205.172 89.56 205.428 89.2002C205.428 88.6861 205.428 87.9665 205.428 87.3497Z" fill="white"/>
<path d="M178.017 113.359C178.017 113.308 178.017 113.257 178.017 113.205C178.222 113.257 178.273 113.257 178.222 113.102C178.222 113 178.17 112.845 178.17 112.691C177.863 112.588 177.709 112.537 177.402 112.486C177.351 112.537 177.299 112.64 177.248 112.743C177.197 112.845 177.248 112.897 177.504 113C177.504 113.051 177.504 113.102 177.504 113.154C177.146 113.051 176.941 112.948 176.685 112.845C176.685 112.794 176.685 112.743 176.736 112.691C176.941 112.743 176.941 112.743 177.146 112.537C177.556 111.972 177.863 111.509 178.375 111.046C178.478 111.046 178.529 111.046 178.632 111.046C178.683 111.458 178.785 112.331 178.888 113C178.939 113.359 178.99 113.359 179.246 113.514C179.246 113.565 179.195 113.616 179.195 113.668C178.683 113.565 178.427 113.514 178.017 113.359ZM178.068 111.56C177.863 111.766 177.658 112.023 177.556 112.28C177.761 112.331 177.914 112.383 178.17 112.434C178.119 112.074 178.119 111.869 178.068 111.56Z" fill="white"/>
<path d="M180.527 114.182C180.425 114.13 180.374 114.079 180.323 114.028C180.271 113.976 180.271 113.925 180.271 113.873C180.066 113.925 179.81 113.976 179.759 113.976C179.452 113.873 179.349 113.616 179.452 113.359C179.503 113.154 179.656 113.051 179.913 113.051C180.169 113 180.476 113 180.579 112.948C180.579 112.897 180.579 112.845 180.63 112.794C180.681 112.588 180.63 112.434 180.476 112.434C180.425 112.434 180.374 112.434 180.323 112.486C180.271 112.537 180.22 112.64 180.169 112.743C180.118 112.845 180.066 112.845 179.964 112.845C179.861 112.845 179.759 112.691 179.759 112.537C179.759 112.434 179.861 112.434 179.964 112.383C180.118 112.331 180.425 112.229 180.63 112.229C180.784 112.28 180.835 112.331 180.937 112.486C181.04 112.691 181.04 112.845 180.989 113.102C180.937 113.359 180.886 113.462 180.835 113.719C180.784 113.925 180.835 113.976 180.835 113.976C180.886 113.976 180.937 113.976 180.937 113.976C180.937 114.028 180.937 114.079 180.937 114.182C180.835 114.13 180.732 114.13 180.527 114.182ZM180.579 113.102C180.476 113.154 180.425 113.154 180.323 113.154C180.22 113.205 180.118 113.257 180.066 113.359C180.015 113.565 180.118 113.668 180.169 113.668C180.22 113.668 180.271 113.668 180.374 113.616C180.425 113.565 180.527 113.308 180.579 113.102Z" fill="white"/>
<path d="M250.005 113.359L197.743 143.789" stroke="#504F4E" stroke-width="4.356" stroke-miterlimit="10" stroke-linecap="round"/>
<path d="M92.6561 44.3262L40.3945 74.7562" stroke="#504F4E" stroke-width="4.356" stroke-miterlimit="10" stroke-linecap="round"/>
<path d="M180.271 2.2793L147.121 21.6065" stroke="#504F4E" stroke-width="4.356" stroke-miterlimit="10" stroke-linecap="round"/>
<defs>
<linearGradient id="paint0_linear_132_1890" x1="0.0516628" y1="137.482" x2="164.847" y2="137.482" gradientUnits="userSpaceOnUse">
<stop stop-color="#B51C29"/>
<stop offset="1" stop-color="#6C0F3A"/>
</linearGradient>
<linearGradient id="paint1_linear_132_1890" x1="18.245" y1="176.828" x2="31.1933" y2="176.828" gradientUnits="userSpaceOnUse">
<stop stop-color="#B51C29"/>
<stop offset="1" stop-color="#6C0F3A"/>
</linearGradient>
<linearGradient id="paint2_linear_132_1890" x1="3.79908" y1="178.214" x2="11.0057" y2="178.214" gradientUnits="userSpaceOnUse">
<stop stop-color="#B51C29"/>
<stop offset="1" stop-color="#6C0F3A"/>
</linearGradient>
<linearGradient id="paint3_linear_132_1890" x1="112.493" y1="127.301" x2="199.707" y2="40.3675" gradientUnits="userSpaceOnUse">
<stop stop-color="#6C0F3A"/>
<stop offset="0.2142" stop-color="#6E0F3A"/>
<stop offset="0.3917" stop-color="#74113A"/>
<stop offset="0.5559" stop-color="#7E133A"/>
<stop offset="0.5587" stop-color="#7E143A"/>
<stop offset="0.6409" stop-color="#84153A"/>
<stop offset="0.7798" stop-color="#941836"/>
<stop offset="0.9574" stop-color="#AE1C2D"/>
<stop offset="1" stop-color="#B51C29"/>
</linearGradient>
<linearGradient id="paint4_linear_132_1890" x1="33.2225" y1="127.633" x2="150.94" y2="84.9256" gradientUnits="userSpaceOnUse">
<stop offset="0.0115859" stop-color="#6C0F3A"/>
<stop offset="0.0389389" stop-color="#7A133A"/>
<stop offset="0.0804157" stop-color="#8C1638"/>
<stop offset="0.1264" stop-color="#9A1934"/>
<stop offset="0.1778" stop-color="#A61B30"/>
<stop offset="0.2376" stop-color="#AE1C2C"/>
<stop offset="0.3135" stop-color="#B31C2A"/>
<stop offset="0.4593" stop-color="#B51C29"/>
<stop offset="0.7074" stop-color="#B41C2A"/>
<stop offset="0.7968" stop-color="#AF1C2C"/>
<stop offset="0.8605" stop-color="#A81B2F"/>
<stop offset="0.912" stop-color="#9E1A33"/>
<stop offset="0.956" stop-color="#901737"/>
<stop offset="0.9944" stop-color="#81143A"/>
<stop offset="1" stop-color="#7E143A"/>
</linearGradient>
<linearGradient id="paint5_linear_132_1890" x1="104.808" y1="192.597" x2="156.265" y2="141.306" gradientUnits="userSpaceOnUse">
<stop stop-color="#B51C29"/>
<stop offset="0.5102" stop-color="#6C0F3A"/>
<stop offset="0.5833" stop-color="#6E0F3A"/>
<stop offset="0.6439" stop-color="#74113A"/>
<stop offset="0.6999" stop-color="#7E133A"/>
<stop offset="0.7009" stop-color="#7E143A"/>
<stop offset="0.7566" stop-color="#84153A"/>
<stop offset="0.8507" stop-color="#941836"/>
<stop offset="0.9712" stop-color="#AE1C2D"/>
<stop offset="1" stop-color="#B51C29"/>
</linearGradient>
</defs>
</svg>
