<svg width="251" height="238" viewBox="0 0 251 238" fill="none" xmlns="http://www.w3.org/2000/svg">
<path d="M84.5781 198.775C82.386 198.775 80.8057 196.89 81.1115 194.801C81.2645 193.732 81.3664 192.662 81.3664 191.592C81.3664 177.379 68.061 165.917 51.5948 165.917C35.1287 165.917 21.8232 177.43 21.8232 191.592C21.8232 198.113 24.6271 204.022 29.2661 208.556C31.8151 211.052 31.4582 215.178 28.6544 217.42C26.3094 219.254 24.9329 221.546 24.9329 224.042C24.9329 230.155 33.2425 235.096 43.5402 235.096C49.0969 235.096 54.0418 233.67 57.4574 231.378C60.0063 229.646 63.218 229.238 66.0728 230.461C71.2726 232.651 77.645 233.925 84.6291 233.925C101.758 233.925 115.675 226.08 115.675 216.35C115.675 206.671 101.758 198.775 84.5781 198.775Z" fill="url(#paint0_linear_132_1461)"/>
<path d="M223.852 160.569C220.131 157.41 217.99 153.182 218.041 148.75C218.041 148.597 218.041 148.444 218.041 148.343C218.041 133.315 209.833 121.14 199.688 121.14C189.544 121.14 181.336 133.315 181.336 148.343C181.336 159.142 185.567 168.465 191.736 172.846C193.367 174.017 194.285 175.647 194.285 177.43C194.285 177.481 194.285 177.481 194.285 177.532C194.285 189.198 202.594 198.673 212.79 198.673C223.037 198.673 231.295 189.198 231.295 177.532C231.295 170.553 228.389 164.389 223.852 160.569Z" fill="url(#paint1_linear_132_1461)"/>
<path d="M85.6493 30.769C86.1591 32.0935 86.6689 33.469 87.1787 34.7934C85.4454 36.5255 83.3553 38.0028 80.9593 39.1235C80.9083 39.1235 80.9083 39.1744 80.8573 39.1744C79.7358 39.6839 78.8691 40.6517 78.3593 41.8234C78.1044 42.3328 77.9515 42.9441 77.8495 43.5554C77.6966 44.6252 77.4417 45.7459 77.0339 46.8157C76.2692 49.159 75.0457 51.4514 73.4144 53.6419C73.1085 54.0494 72.8536 54.406 72.4968 54.8136C71.0694 56.5965 69.3361 58.2776 67.3989 59.7549C66.9401 60.1115 66.4303 60.4681 65.9205 60.8247L65.8695 60.8756C65.5127 61.1303 65.1558 61.3851 64.748 61.6398C64.748 61.6398 64.697 61.6398 64.697 61.6907C64.2892 61.9454 63.9323 62.2001 63.5245 62.4039C63.1167 62.6586 62.7598 62.8624 62.352 63.0661C61.6893 63.4227 61.0266 63.7284 60.3638 64.085C58.3757 65.0019 56.3875 65.7151 54.3993 66.2755C54.1444 66.3264 53.8895 66.4283 53.6346 66.4792C53.3797 66.5302 53.1248 66.5811 52.87 66.683C43.7448 68.7207 35.0274 66.7849 30.0824 61.5888C29.8785 61.3851 29.6746 61.1303 29.4707 60.9266H65.1049L65.5637 59.8059L67.6028 54.8645L68.0616 53.6928L68.3675 52.9287L70.8655 46.8666H62.301V41.8234H72.9556L76.881 32.3992L85.6493 30.769Z" fill="url(#paint2_linear_132_1461)"/>
<path d="M26.2082 53.6926C24.7808 44.4721 31.8159 33.7744 43.6939 28.2217C43.8468 28.1708 43.9488 28.1198 44.1017 28.0689C48.18 26.235 50.9839 22.3124 52.1564 17.3711C52.3603 16.556 52.6152 15.741 52.9211 14.9259C53.023 14.6202 53.176 14.3146 53.2779 14.0089C55.2661 9.3223 59.0385 5.29789 64.1364 2.90363C74.74 -2.03772 87.1278 2.03762 91.7669 12.0222C92.0728 12.6845 92.3277 13.2958 92.5316 13.958C92.6335 14.2127 92.6845 14.4674 92.7865 14.7221C92.8884 14.9768 92.9394 15.2315 92.9904 15.4863H54.4504V53.5907H26.2082V53.6926Z" fill="url(#paint3_linear_132_1461)"/>
<path d="M97.4263 60.926C97.6302 61.4355 97.8341 61.9449 98.038 62.4034H127.147V60.926H97.4263ZM97.4263 60.926C97.6302 61.4355 97.8341 61.9449 98.038 62.4034H127.147V60.926H97.4263ZM128.829 86.6007C128.676 86.3969 128.472 86.1932 128.268 85.9894V91.4402C128.37 91.3383 128.472 91.2364 128.574 91.1345C129.186 90.5232 129.543 89.6572 129.543 88.6893C129.543 87.9252 129.288 87.212 128.829 86.6007ZM127.096 100.304V110.289V100.712H127.555C127.402 100.559 127.249 100.457 127.096 100.304ZM97.4263 60.926C97.6302 61.4355 97.8341 61.9449 98.038 62.4034H127.147V60.926H97.4263ZM204.737 29.0874C203.819 21.0386 196.988 14.8237 188.678 14.8237H53.6865V53.6923H54.4512V15.5879H92.9911C94.6734 22.4141 92.3794 29.6987 87.2305 34.7929C86.7208 33.4684 86.211 32.093 85.7012 30.7685L76.9838 32.3477L73.0585 41.7719H62.4039V46.8661H70.9683L68.4704 52.9282L68.1645 53.6923L67.7057 54.864L65.6665 59.8053L65.2077 60.926H53.7375V125.316H127.198V100.712H127.657C127.504 100.559 127.351 100.406 127.198 100.304V92.1024C127.606 91.9496 128.014 91.7458 128.37 91.4402C128.472 91.3383 128.574 91.2364 128.676 91.1345C129.288 90.5232 129.645 89.6572 129.645 88.6893C129.645 87.8742 129.39 87.1611 128.931 86.5498C128.778 86.346 128.574 86.1422 128.37 85.9385C128.014 85.6328 127.657 85.429 127.198 85.2762V60.8751H97.5283C97.3753 60.5185 97.2224 60.111 97.0694 59.7544C96.4067 58.1242 95.795 56.4432 95.1323 54.813C95.0303 54.5583 94.9283 54.3036 94.8264 54.0489C94.7754 53.947 94.7244 53.7942 94.6734 53.6923H131.378C133.06 53.6923 134.488 54.6602 135.151 56.0866C135.202 56.1885 135.253 56.3413 135.304 56.4432C135.304 56.4941 135.354 56.5451 135.354 56.6469C135.405 56.7998 135.405 56.9016 135.456 57.0545C135.456 57.1054 135.507 57.2073 135.507 57.2582C135.507 57.4111 135.558 57.5129 135.558 57.6658C135.558 57.7167 135.558 57.8186 135.558 57.8695V67.4466C135.405 67.7013 135.304 67.956 135.202 68.2617C135.049 68.7711 134.947 69.3314 134.947 69.9427C134.947 70.4522 135.049 70.9106 135.202 71.3691C135.253 71.5729 135.355 71.7766 135.456 71.9804C135.507 72.0823 135.507 72.1332 135.558 72.2351V90.3195C135.456 90.5232 135.304 90.676 135.202 90.8798C135.151 90.9817 135.1 91.0326 135.049 91.1345C134.794 91.593 134.59 92.0515 134.437 92.5099C134.029 93.5797 133.774 94.8023 133.672 96.1778C133.621 96.6362 133.621 97.1456 133.621 97.6551C133.621 98.6739 133.723 99.6927 133.927 100.712C134.029 101.425 134.233 102.138 134.437 102.8C134.641 103.513 134.896 104.176 135.202 104.838C135.304 105.093 135.456 105.347 135.558 105.551V138.918C135.558 138.969 135.558 139.071 135.558 139.122C135.558 139.275 135.558 139.427 135.507 139.529C135.507 139.58 135.507 139.682 135.456 139.733C135.405 139.886 135.405 139.988 135.354 140.141C135.354 140.191 135.304 140.293 135.304 140.344C135.253 140.446 135.202 140.599 135.151 140.701C134.998 141.007 134.794 141.312 134.539 141.618C133.774 142.535 132.653 143.095 131.378 143.095H108.591C108.693 143.757 108.998 144.318 109.457 144.776C110.018 145.337 110.783 145.693 111.598 145.693H133.57C134.59 145.693 135.558 146.05 136.272 146.712H110.528C109.763 146.508 109.049 146.101 108.489 145.54C108.336 145.337 108.183 145.184 108.03 144.929C107.877 144.725 107.775 144.522 107.673 144.267C107.571 144.012 107.52 143.808 107.418 143.554C107.418 143.452 107.367 143.299 107.367 143.146H83.2542C83.2542 144.471 83.3562 145.642 83.5091 146.712H82.3366C82.2856 146.457 82.2856 146.152 82.2346 145.897C82.2346 145.744 82.1836 145.591 82.1836 145.489C82.1836 145.286 82.1327 145.133 82.1327 144.929C82.0817 144.369 82.0817 143.757 82.0817 143.146H62.3529V142.025H131.225C131.735 142.025 132.194 141.923 132.602 141.72C132.908 141.567 133.162 141.363 133.366 141.159C133.927 140.599 134.284 139.835 134.284 139.02V133.161H53.6865V223.94H204.839V30.9723C204.839 30.31 204.788 29.6987 204.737 29.0874ZM97.4263 60.926C97.6302 61.4355 97.8341 61.9449 98.038 62.4034H127.147V60.926H97.4263ZM127.096 100.304C127.249 100.457 127.402 100.61 127.555 100.712C127.402 100.559 127.249 100.457 127.096 100.304ZM128.829 86.6007C128.676 86.3969 128.472 86.1932 128.268 85.9894V91.4402C128.37 91.3383 128.472 91.2364 128.574 91.1345C129.186 90.5232 129.543 89.6572 129.543 88.6893C129.543 87.9252 129.288 87.212 128.829 86.6007ZM97.4263 60.926C97.6302 61.4355 97.8341 61.9449 98.038 62.4034H127.147V60.926H97.4263Z" fill="white"/>
<path d="M135.099 102.597C134.895 101.985 134.742 101.374 134.64 100.763C134.64 100.712 134.64 100.661 134.589 100.61C134.436 99.8966 134.385 99.1325 134.334 98.4193V100.763H133.825C133.927 101.476 134.13 102.189 134.334 102.851C134.538 103.564 134.793 104.227 135.099 104.889V102.698V102.597ZM134.946 91.1346C134.691 91.5931 134.487 92.0516 134.334 92.5101V96.7382C134.334 96.5854 134.334 96.3816 134.385 96.2288V96.1779C134.487 94.9043 134.691 93.7836 135.099 92.8157L135.15 92.6629V90.8799C135.048 90.9818 134.997 91.0837 134.946 91.1346ZM134.895 69.9429C134.895 70.4523 134.997 70.9108 135.15 71.3692V68.2618C134.946 68.7712 134.895 69.3316 134.895 69.9429ZM95.0298 54.8641C94.9278 54.6094 94.8258 54.3547 94.7239 54.1H93.8572L94.1631 54.8641L96.1003 59.8054H96.916C96.3042 58.1753 95.6925 56.4942 95.0298 54.8641ZM134.895 69.9429C134.895 70.4523 134.997 70.9108 135.15 71.3692V68.2618C134.946 68.7712 134.895 69.3316 134.895 69.9429ZM134.895 69.9429C134.895 70.4523 134.997 70.9108 135.15 71.3692V68.2618C134.946 68.7712 134.895 69.3316 134.895 69.9429ZM134.895 69.9429C134.895 70.4523 134.997 70.9108 135.15 71.3692V68.2618C134.946 68.7712 134.895 69.3316 134.895 69.9429ZM134.895 69.9429C134.895 70.4523 134.997 70.9108 135.15 71.3692V68.2618C134.946 68.7712 134.895 69.3316 134.895 69.9429ZM134.946 91.1346C134.691 91.5931 134.487 92.0516 134.334 92.5101C133.927 93.5798 133.672 94.8025 133.57 96.1779C133.519 96.6364 133.519 97.1458 133.519 97.6552C133.519 98.674 133.621 99.6929 133.825 100.712C133.927 101.425 134.13 102.138 134.334 102.8C134.538 103.513 134.793 104.176 135.099 104.838V102.647L135.048 102.546C134.844 101.934 134.691 101.323 134.589 100.712C134.589 100.661 134.589 100.61 134.538 100.559C134.385 99.8457 134.334 99.0816 134.283 98.3684C134.283 98.1137 134.283 97.859 134.283 97.6552C134.283 97.3495 134.283 97.0439 134.283 96.7382C134.283 96.5854 134.283 96.3816 134.334 96.2288V96.1779C134.436 94.9043 134.64 93.7836 135.048 92.8157L135.099 92.6629V90.8799C135.048 90.9818 134.997 91.0837 134.946 91.1346ZM134.895 69.9429C134.895 70.4523 134.997 70.9108 135.15 71.3692V68.2618C134.946 68.7712 134.895 69.3316 134.895 69.9429ZM135.099 102.597C134.895 101.985 134.742 101.374 134.64 100.763C134.64 100.712 134.64 100.661 134.589 100.61C134.436 99.8966 134.385 99.1325 134.334 98.4193V100.763H133.825C133.927 101.476 134.13 102.189 134.334 102.851C134.538 103.564 134.793 104.227 135.099 104.889V102.698V102.597ZM134.895 69.9429C134.895 70.4523 134.997 70.9108 135.15 71.3692V68.2618C134.946 68.7712 134.895 69.3316 134.895 69.9429ZM134.946 91.1346C134.691 91.5931 134.487 92.0516 134.334 92.5101V96.7382C134.334 96.5854 134.334 96.3816 134.385 96.2288V96.1779C134.487 94.9043 134.691 93.7836 135.099 92.8157L135.15 92.6629V90.8799C135.048 90.9818 134.997 91.0837 134.946 91.1346ZM135.099 102.597C134.895 101.985 134.742 101.374 134.64 100.763C134.64 100.712 134.64 100.661 134.589 100.61C134.436 99.8966 134.385 99.1325 134.334 98.4193V100.763H133.825C133.927 101.476 134.13 102.189 134.334 102.851C134.538 103.564 134.793 104.227 135.099 104.889V102.698V102.597ZM134.895 69.9429C134.895 70.4523 134.997 70.9108 135.15 71.3692V68.2618C134.946 68.7712 134.895 69.3316 134.895 69.9429ZM134.946 91.1346C134.691 91.5931 134.487 92.0516 134.334 92.5101V96.7382C134.334 96.5854 134.334 96.3816 134.385 96.2288V96.1779C134.487 94.9043 134.691 93.7836 135.099 92.8157L135.15 92.6629V90.8799C135.048 90.9818 134.997 91.0837 134.946 91.1346ZM135.099 102.597C134.895 101.985 134.742 101.374 134.64 100.763C134.64 100.712 134.64 100.661 134.589 100.61C134.436 99.8966 134.385 99.1325 134.334 98.4193V100.763H133.825C133.927 101.476 134.13 102.189 134.334 102.851C134.538 103.564 134.793 104.227 135.099 104.889V102.698V102.597ZM134.895 69.9429C134.895 70.4523 134.997 70.9108 135.15 71.3692V68.2618C134.946 68.7712 134.895 69.3316 134.895 69.9429ZM134.946 91.1346C134.691 91.5931 134.487 92.0516 134.334 92.5101V96.7382C134.334 96.5854 134.334 96.3816 134.385 96.2288V96.1779C134.487 94.9043 134.691 93.7836 135.099 92.8157L135.15 92.6629V90.8799C135.048 90.9818 134.997 91.0837 134.946 91.1346ZM134.334 96.1779V96.7382C134.334 96.5854 134.334 96.3816 134.385 96.2288C134.385 96.2288 134.385 96.2288 134.334 96.1779ZM135.099 102.597C134.895 101.985 134.742 101.374 134.64 100.763C134.64 100.712 134.64 100.661 134.589 100.61C134.436 99.8966 134.385 99.1325 134.334 98.4193V102.851C134.538 103.564 134.793 104.227 135.099 104.889V102.698V102.597ZM134.334 96.1779V96.7382C134.334 96.5854 134.334 96.3816 134.385 96.2288C134.385 96.2288 134.385 96.2288 134.334 96.1779ZM135.099 102.597C134.895 101.985 134.742 101.374 134.64 100.763C134.64 100.712 134.64 100.661 134.589 100.61C134.436 99.8966 134.385 99.1325 134.334 98.4193V102.851C134.538 103.564 134.793 104.227 135.099 104.889V102.698V102.597ZM188.678 14.0088H52.8703V53.6924H54.4507V15.588H188.678C188.729 15.588 188.831 15.588 188.882 15.588C189.086 15.588 189.29 15.588 189.442 15.588C196.528 15.9446 202.391 21.1406 203.767 27.9159C203.869 28.3744 203.92 28.8328 203.971 29.3423C204.022 29.8007 204.073 30.2083 204.073 30.6667C204.073 30.7686 204.073 30.8705 204.073 30.9215V223.125H54.4507V133.926H124.699L124.903 133.773C125.209 133.569 125.464 133.365 125.77 133.111H52.8703V224.653H205.603V30.9724C205.603 21.5991 198.007 14.0088 188.678 14.0088ZM134.334 102.8C134.538 103.513 134.793 104.176 135.099 104.838V102.647L135.048 102.546C134.844 101.934 134.691 101.323 134.589 100.712C134.589 100.661 134.589 100.61 134.538 100.559C134.385 99.8457 134.334 99.0816 134.283 98.3684V102.8H134.334ZM134.334 96.1779V96.7382C134.334 96.5854 134.334 96.3816 134.385 96.2288C134.385 96.2288 134.385 96.2288 134.334 96.1779ZM127.095 125.317V100.712H127.554C127.401 100.559 127.248 100.406 127.095 100.304V92.1025C127.503 91.9497 127.911 91.7459 128.268 91.4403C128.37 91.3384 128.472 91.2365 128.574 91.1346C129.186 90.5233 129.542 89.6573 129.542 88.6894C129.542 87.8744 129.287 87.1612 128.829 86.5499C128.676 86.3461 128.472 86.1423 128.268 85.9386C127.911 85.6329 127.554 85.4292 127.095 85.2763V60.8752H97.4258C97.2728 60.5186 97.1199 60.1111 96.9669 59.7545C96.3042 58.1244 95.6925 56.4433 95.0298 54.8132C94.9278 54.5584 94.8258 54.3037 94.7239 54.049H93.8572L94.1631 54.8132L96.1003 59.7545L96.2533 60.1111C96.3552 60.3658 96.4572 60.6205 96.5591 60.8752C96.6101 60.9771 96.6101 61.079 96.6611 61.1809L97.1199 62.4035L97.4258 63.1676H126.28V85.8367L126.79 85.9895C126.891 86.0405 126.942 86.0405 127.044 86.0914C127.146 86.1423 127.299 86.1933 127.401 86.2952V90.9818C127.35 91.0328 127.299 91.0328 127.248 91.0837C127.197 91.1346 127.095 91.1856 127.044 91.1856C126.942 91.2365 126.891 91.2365 126.79 91.2875L126.28 91.4403V105.653V110.187V124.451H54.3997V61.7412H65.615L65.9209 60.9771V60.9262L66.3797 59.8564L68.4188 54.915L68.8777 53.7434L69.1835 52.9792H68.3169L68.011 53.7434L67.5522 54.915L65.5131 59.8564L65.0542 60.9771H52.8193V125.317H127.095ZM135.099 102.597C134.895 101.985 134.742 101.374 134.64 100.763C134.64 100.712 134.64 100.661 134.589 100.61C134.436 99.8966 134.385 99.1325 134.334 98.4193V102.851C134.538 103.564 134.793 104.227 135.099 104.889V102.698V102.597ZM134.334 96.1779V96.7382C134.334 96.5854 134.334 96.3816 134.385 96.2288C134.385 96.2288 134.385 96.2288 134.334 96.1779ZM135.099 102.597C134.895 101.985 134.742 101.374 134.64 100.763C134.64 100.712 134.64 100.661 134.589 100.61C134.436 99.8966 134.385 99.1325 134.334 98.4193V102.851C134.538 103.564 134.793 104.227 135.099 104.889V102.698V102.597ZM134.334 96.1779V96.7382C134.334 96.5854 134.334 96.3816 134.385 96.2288C134.385 96.2288 134.385 96.2288 134.334 96.1779ZM134.946 91.1346C134.691 91.5931 134.487 92.0516 134.334 92.5101V96.7382C134.334 96.5854 134.334 96.3816 134.385 96.2288V96.1779C134.487 94.9043 134.691 93.7836 135.099 92.8157L135.15 92.6629V90.8799C135.048 90.9818 134.997 91.0837 134.946 91.1346ZM134.895 69.9429C134.895 70.4523 134.997 70.9108 135.15 71.3692V68.2618C134.946 68.7712 134.895 69.3316 134.895 69.9429ZM135.099 102.597C134.895 101.985 134.742 101.374 134.64 100.763C134.64 100.712 134.64 100.661 134.589 100.61C134.436 99.8966 134.385 99.1325 134.334 98.4193V100.763H133.825C133.927 101.476 134.13 102.189 134.334 102.851C134.538 103.564 134.793 104.227 135.099 104.889V102.698V102.597ZM134.946 91.1346C134.691 91.5931 134.487 92.0516 134.334 92.5101V96.7382C134.334 96.5854 134.334 96.3816 134.385 96.2288V96.1779C134.487 94.9043 134.691 93.7836 135.099 92.8157L135.15 92.6629V90.8799C135.048 90.9818 134.997 91.0837 134.946 91.1346ZM134.895 69.9429C134.895 70.4523 134.997 70.9108 135.15 71.3692V68.2618C134.946 68.7712 134.895 69.3316 134.895 69.9429ZM135.099 102.597C134.895 101.985 134.742 101.374 134.64 100.763C134.64 100.712 134.64 100.661 134.589 100.61C134.436 99.8966 134.385 99.1325 134.334 98.4193V100.763H133.825C133.927 101.476 134.13 102.189 134.334 102.851C134.538 103.564 134.793 104.227 135.099 104.889V102.698V102.597ZM134.946 91.1346C134.691 91.5931 134.487 92.0516 134.334 92.5101V96.7382C134.334 96.5854 134.334 96.3816 134.385 96.2288V96.1779C134.487 94.9043 134.691 93.7836 135.099 92.8157L135.15 92.6629V90.8799C135.048 90.9818 134.997 91.0837 134.946 91.1346ZM134.895 69.9429C134.895 70.4523 134.997 70.9108 135.15 71.3692V68.2618C134.946 68.7712 134.895 69.3316 134.895 69.9429ZM135.099 102.597C134.895 101.985 134.742 101.374 134.64 100.763C134.64 100.712 134.64 100.661 134.589 100.61C134.436 99.8966 134.385 99.1325 134.334 98.4193V100.763H133.825C133.927 101.476 134.13 102.189 134.334 102.851C134.538 103.564 134.793 104.227 135.099 104.889V102.698V102.597ZM134.895 69.9429C134.895 70.4523 134.997 70.9108 135.15 71.3692V68.2618C134.946 68.7712 134.895 69.3316 134.895 69.9429ZM134.895 69.9429C134.895 70.4523 134.997 70.9108 135.15 71.3692V68.2618C134.946 68.7712 134.895 69.3316 134.895 69.9429ZM134.895 69.9429C134.895 70.4523 134.997 70.9108 135.15 71.3692V68.2618C134.946 68.7712 134.895 69.3316 134.895 69.9429ZM134.895 69.9429C134.895 70.4523 134.997 70.9108 135.15 71.3692V68.2618C134.946 68.7712 134.895 69.3316 134.895 69.9429Z" fill="black"/>
<path d="M188.678 14.8242C183.07 17.7788 184.497 28.0181 184.497 28.0181C184.497 28.0181 203.207 22.5674 204.838 31.5331L188.678 14.8242Z" fill="white"/>
<path d="M204.073 31.6348C203.818 30.2594 203.105 29.2406 201.932 28.4764C196.783 25.2671 184.854 28.6802 184.752 28.7311L183.886 28.9858L183.784 28.0689C183.733 27.6104 182.356 17.2692 188.372 14.1108L189.086 15.4863C184.956 17.6768 185.058 24.5539 185.262 26.9991C188.27 26.235 197.854 24.1464 202.799 27.1519C204.379 28.1198 205.348 29.5462 205.705 31.3292L204.073 31.6348Z" fill="black"/>
<path d="M189.442 181.811H62.4033V186.855H189.442V181.811Z" fill="#CACACA"/>
<path d="M189.442 191.796H62.4033V196.839H189.442V191.796Z" fill="#CACACA"/>
<path d="M140.044 41.8232H62.4033V46.8665H140.044V41.8232Z" fill="#CACACA"/>
<path d="M127.095 62.4546H62.4033V67.4978H127.095V62.4546Z" fill="#CACACA"/>
<path d="M189.442 62.4546V67.4978H135.455V62.5055H189.442V62.4546Z" fill="#CACACA"/>
<path d="M127.095 72.0317H62.4033V77.075H127.095V72.0317Z" fill="#CACACA"/>
<path d="M189.442 72.0317V77.075H135.455V72.2864C135.405 72.1846 135.354 72.1336 135.354 72.0317H189.442Z" fill="#CACACA"/>
<path d="M128.829 86.6009H62.4033V81.5576H127.095V85.3273C127.503 85.4801 127.911 85.6839 128.268 85.9896C128.472 86.1933 128.676 86.3971 128.829 86.6009Z" fill="#CACACA"/>
<path d="M189.442 81.5576H135.455V86.6009H189.442V81.5576Z" fill="#CACACA"/>
<path d="M128.574 91.1348C128.472 91.2366 128.37 91.3385 128.268 91.4404C127.911 91.7461 127.554 91.9498 127.095 92.1027V96.178H62.4033V91.1348H128.574Z" fill="#CACACA"/>
<path d="M189.442 91.1348V96.178H133.569C133.671 94.8026 133.926 93.6309 134.334 92.5102C134.487 92.0008 134.742 91.5932 134.946 91.1348H189.442Z" fill="#CACACA"/>
<path d="M127.095 100.712H62.4033V105.755H127.095V100.712Z" fill="#CACACA"/>
<path d="M175.219 100.712V105.755H135.506V105.602C135.404 105.348 135.251 105.093 135.149 104.889C134.844 104.227 134.589 103.514 134.385 102.851C134.181 102.138 133.977 101.476 133.875 100.763H175.219V100.712Z" fill="#CACACA"/>
<path d="M127.095 110.289H62.4033V115.332H127.095V110.289Z" fill="#CACACA"/>
<path d="M189.442 110.289H135.455V115.332H189.442V110.289Z" fill="#CACACA"/>
<path d="M127.095 119.866H62.4033V124.909H127.095V119.866Z" fill="#CACACA"/>
<path d="M189.442 119.866H135.455V124.909H189.442V119.866Z" fill="#CACACA"/>
<path d="M82.387 146.763H62.4033V143.197H82.1321C82.1321 143.809 82.1831 144.42 82.1831 144.98C82.1831 145.184 82.1831 145.337 82.2341 145.541C82.2341 145.693 82.2341 145.846 82.285 145.948C82.336 146.203 82.336 146.458 82.387 146.763Z" fill="#CACACA"/>
<path d="M110.527 146.763H83.5078C83.3549 145.693 83.3039 144.522 83.2529 143.197H107.366C107.366 143.35 107.417 143.452 107.417 143.605C107.468 143.86 107.57 144.114 107.672 144.318C107.774 144.573 107.876 144.776 108.029 144.98C108.182 145.184 108.334 145.388 108.487 145.592C109.048 146.101 109.762 146.559 110.527 146.763Z" fill="#CACACA"/>
<path d="M132.652 141.72C132.244 141.924 131.785 142.026 131.276 142.026H62.4033V141.72H132.652Z" fill="#CACACA"/>
<path d="M189.442 141.72V146.763H136.271C135.558 146.152 134.589 145.745 133.569 145.745H111.598C110.731 145.745 109.966 145.388 109.456 144.828C108.998 144.369 108.692 143.809 108.59 143.146H131.326C132.601 143.146 133.722 142.586 134.487 141.669H189.442V141.72Z" fill="#CACACA"/>
<path d="M163.494 151.705H62.4033V156.748H163.494V151.705Z" fill="#CACACA"/>
<path d="M189.442 161.74H62.4033V166.783H189.442V161.74Z" fill="#CACACA"/>
<path d="M172.365 171.776H62.4033V176.819H172.365V171.776Z" fill="#CACACA"/>
<path d="M1.33008 57.4624C1.33008 57.2586 1.38106 57.0549 1.43204 56.8511C1.38106 57.0549 1.38106 57.2586 1.33008 57.4624ZM1.43204 56.8511C1.48301 56.6473 1.53399 56.4436 1.63595 56.2907C1.58497 56.4436 1.48301 56.6473 1.43204 56.8511ZM30.1841 62.149C30.1841 62.0981 30.1841 62.0981 30.1841 62.0472C30.1841 61.9453 30.1841 61.8434 30.1331 61.7415C30.1331 61.6906 30.1331 61.6396 30.1331 61.6396C30.0821 61.4359 30.0311 61.1812 29.9801 60.9774H9.63962V77.5335C11.7297 77.7372 14.0238 77.3297 16.2159 76.2599C18.5099 75.1392 20.2942 73.4581 21.4157 71.5223C22.2314 70.096 23.5568 69.0262 25.0862 68.5168C28.043 67.5998 30.1331 65.2056 30.1331 62.4547C30.1841 62.3528 30.1841 62.2509 30.1841 62.149ZM128.828 86.6011C128.675 86.3973 128.471 86.1936 128.267 85.9898V91.4406C128.369 91.3387 128.471 91.2368 128.573 91.1349C129.185 90.5236 129.542 89.6576 129.542 88.6897C129.542 87.9256 129.287 87.2124 128.828 86.6011ZM127.095 100.304C126.942 100.203 126.84 100.101 126.687 99.9478C126.585 99.8969 126.534 99.795 126.432 99.7441C126.381 99.6931 126.33 99.6422 126.279 99.5913C126.177 99.4894 126.075 99.3875 125.922 99.2856C125.769 99.1328 125.616 99.0309 125.412 98.8781C125.361 98.8781 125.361 98.8271 125.31 98.8271C125.208 98.7762 125.157 98.7252 125.056 98.6234C124.903 98.4705 124.699 98.3687 124.546 98.2158C124.444 98.1139 124.342 98.063 124.189 97.9611C123.985 97.8083 123.73 97.6555 123.475 97.5026C123.271 97.4008 123.118 97.2479 122.914 97.146C122.66 96.9932 122.405 96.8404 122.15 96.6876C121.997 96.5857 121.844 96.4838 121.691 96.4329C121.64 96.3819 121.589 96.3819 121.538 96.331C121.436 96.28 121.334 96.2291 121.232 96.1782C121.181 96.1272 121.13 96.1272 121.079 96.0763C120.315 95.6687 119.55 95.3121 118.734 94.9555C118.632 94.9046 118.53 94.8537 118.377 94.8027C118.173 94.7008 117.919 94.599 117.715 94.548C117.409 94.3952 117.052 94.2933 116.746 94.1914C116.593 94.1405 116.44 94.0895 116.287 94.0386C115.981 93.9367 115.675 93.8348 115.37 93.7329C115.319 93.7329 115.319 93.7329 115.268 93.682C114.962 93.5801 114.656 93.4782 114.299 93.4273C114.044 93.3764 113.789 93.2745 113.534 93.2235C113.025 93.1216 112.566 92.9688 112.056 92.8669C111.801 92.816 111.597 92.7651 111.393 92.7141C111.291 92.7141 111.189 92.6632 111.036 92.6632C110.832 92.6122 110.68 92.6122 110.476 92.5613C110.323 92.5613 110.221 92.5103 110.068 92.5103L109.864 92.4594C109.813 92.4594 109.762 92.4594 109.762 92.4594C109.558 92.4594 109.405 92.4085 109.201 92.4085C109.15 92.4085 109.099 92.4085 108.997 92.4085C108.895 92.4085 108.742 92.3575 108.64 92.3575C108.589 92.3575 108.538 92.3575 108.487 92.3575C108.131 92.3066 107.825 92.3066 107.468 92.2556H107.417C107.162 92.2556 106.907 92.2047 106.652 92.2047C106.499 92.2047 106.346 92.2047 106.244 92.2047C106.04 92.2047 105.837 92.2047 105.633 92.2047C105.378 92.2047 105.072 92.2047 104.817 92.2047C104.511 92.2047 104.205 92.2047 103.899 92.2047C103.848 92.2047 103.797 92.2047 103.746 92.2047C103.695 92.2047 103.644 92.2047 103.593 92.2047C103.339 92.2047 103.084 92.2047 102.829 92.2556C102.778 92.2556 102.727 92.2556 102.727 92.2556C102.421 92.2556 102.115 92.3066 101.809 92.3066C101.605 92.3066 101.452 92.3575 101.248 92.3575C101.146 92.3575 101.096 92.3575 101.045 92.3575C100.892 92.3575 100.688 92.4085 100.535 92.4085H100.484C100.382 92.4085 100.28 92.4085 100.127 92.4594C100.025 92.4594 99.974 92.4594 99.872 92.5103C99.7191 92.5103 99.5152 92.5613 99.3622 92.5613C99.1073 92.6122 98.9034 92.6122 98.6485 92.6632C98.3936 92.7141 98.1897 92.7651 97.9348 92.816C97.7819 92.816 97.629 92.8669 97.527 92.9179C97.3231 92.9688 97.0682 93.0198 96.8643 93.0707C96.7113 93.1216 96.5074 93.1726 96.3545 93.1726C96.2525 93.1726 96.1506 93.2235 96.0486 93.2235C95.9467 93.2235 95.8447 93.2745 95.7427 93.3254C95.233 93.4782 94.7232 93.6311 94.2134 93.7839C94.0095 93.8348 93.8565 93.8858 93.6526 93.9877C93.4997 94.0386 93.3467 94.0895 93.1938 94.1405C92.9389 94.2424 92.684 94.2933 92.4801 94.3952C92.4291 94.3952 92.3781 94.4461 92.3781 94.4461C91.8684 94.6499 91.3586 94.8537 90.8488 95.0574C90.6958 95.1084 90.5429 95.1593 90.39 95.2612C90.1861 95.3631 89.9821 95.465 89.7272 95.5669C89.3704 95.7197 89.0645 95.9234 88.7077 96.0763C88.4018 96.2291 88.045 96.4329 87.7391 96.5857C87.5352 96.6876 87.3312 96.8404 87.1273 96.9423C87.0763 96.9932 86.9744 97.0442 86.9234 97.0951C86.8215 97.146 86.7195 97.2479 86.5666 97.2989C86.3626 97.4517 86.1587 97.5536 85.9548 97.7064C85.9038 97.7574 85.8529 97.8083 85.8019 97.8083C85.6489 97.9102 85.445 98.063 85.2921 98.1649C85.2921 98.1649 85.2921 98.1649 85.2411 98.1649C85.0372 98.3177 84.8333 98.4705 84.6294 98.6234C84.4764 98.7252 84.3235 98.8781 84.1706 98.98C84.0176 99.0818 83.8647 99.2347 83.7118 99.3365C83.5078 99.4894 83.3039 99.6422 83.151 99.846C82.8961 100.101 82.6412 100.304 82.3863 100.559C82.3863 100.559 82.3863 100.559 82.3353 100.61C82.2334 100.712 82.1314 100.814 82.0294 100.916L81.9785 100.967C81.8765 101.069 81.8255 101.12 81.7236 101.221L81.6726 101.272C81.4687 101.476 81.3158 101.629 81.1628 101.833C81.1118 101.884 81.0609 101.935 81.0099 101.986L80.9589 102.036C80.806 102.189 80.704 102.342 80.6021 102.444C80.6021 102.444 80.6021 102.444 80.6021 102.495C80.5001 102.597 80.3981 102.75 80.2962 102.852C80.1432 103.055 79.9903 103.259 79.8374 103.463C79.6844 103.718 79.4805 103.921 79.3276 104.176C79.1746 104.38 79.0727 104.584 78.9198 104.736C78.8688 104.838 78.8178 104.889 78.7668 104.94C78.6139 105.093 78.4609 105.297 78.359 105.45C78.308 105.5 78.308 105.5 78.257 105.551C78.1551 105.653 78.0531 105.755 77.9511 105.908C77.7982 106.061 77.6453 106.163 77.5433 106.316C77.4414 106.417 77.2884 106.519 77.1865 106.621C77.1355 106.672 77.0845 106.723 77.0335 106.774C76.9826 106.825 76.9316 106.825 76.8806 106.876C76.8296 106.927 76.7786 106.927 76.7277 106.978C76.6257 107.029 76.5237 107.131 76.4218 107.182C76.3198 107.233 76.2689 107.283 76.1669 107.334C76.1159 107.385 76.0649 107.385 76.014 107.436C75.861 107.538 75.7591 107.589 75.6061 107.691C75.4022 107.793 75.1983 107.946 74.9434 108.048C74.8414 108.099 74.7395 108.149 74.6375 108.2C74.5356 108.251 74.4336 108.302 74.3317 108.353C74.2807 108.353 74.2297 108.404 74.1787 108.404C74.0258 108.455 73.9238 108.506 73.7709 108.557C73.6689 108.608 73.567 108.608 73.465 108.659C73.3121 108.71 73.2101 108.761 73.0572 108.812C72.9043 108.863 72.7513 108.914 72.6494 108.914C72.5474 108.965 72.3945 108.965 72.2925 109.015C72.0886 109.066 71.8847 109.117 71.6808 109.117C71.4769 109.168 71.3239 109.168 71.12 109.168C71.069 109.168 71.069 109.168 71.018 109.168C70.9671 109.168 70.8651 109.168 70.8141 109.168H70.7632C70.6612 109.168 70.5592 109.168 70.4573 109.168C70.3553 109.168 70.2534 109.168 70.1514 109.168C70.0494 109.168 69.9475 109.168 69.8455 109.168C69.6926 109.168 69.5906 109.168 69.4377 109.168C69.3357 109.168 69.2848 109.168 69.1828 109.168C69.1318 109.168 69.0299 109.168 68.9789 109.168C65.1045 108.863 60.8223 109.27 56.4381 110.442C56.1832 110.493 55.9793 110.595 55.7244 110.646C55.5205 110.697 55.3166 110.748 55.1127 110.849C54.8578 110.9 54.6539 111.002 54.399 111.053C54.1441 111.155 53.8892 111.206 53.6343 111.308C53.4304 111.359 53.2774 111.461 53.0735 111.512C53.0225 111.563 52.9206 111.563 52.8696 111.614C52.6657 111.664 52.5128 111.766 52.3088 111.817C52.1559 111.868 51.952 111.97 51.7991 112.021C51.3402 112.225 50.8305 112.429 50.3717 112.632C50.1168 112.734 49.8109 112.887 49.556 112.989C49.3011 113.091 49.0972 113.244 48.8423 113.346C48.3835 113.6 47.9247 113.804 47.5168 114.059C47.3639 114.11 47.2619 114.212 47.109 114.262C47.109 114.262 47.058 114.262 47.058 114.313C46.9051 114.415 46.7012 114.517 46.5482 114.619C46.3953 114.721 46.2424 114.823 46.0894 114.925C45.8855 115.078 45.6306 115.179 45.4267 115.332C45.3757 115.383 45.3248 115.383 45.2738 115.434C45.1718 115.485 45.0699 115.587 44.9169 115.638C44.9169 115.638 44.8659 115.638 44.8659 115.689C44.713 115.791 44.611 115.893 44.4581 115.995C44.4071 116.045 44.3562 116.096 44.3052 116.096C44.2542 116.096 44.2542 116.147 44.2032 116.147C44.1013 116.198 43.9993 116.3 43.8973 116.351C43.7444 116.453 43.5405 116.606 43.3876 116.759C43.2856 116.861 43.1327 116.962 43.0307 117.064C42.7758 117.268 42.5209 117.523 42.266 117.727C42.1131 117.828 41.9602 117.981 41.8072 118.134L41.7562 118.185C41.6543 118.287 41.5523 118.389 41.3994 118.491C41.2974 118.593 41.1445 118.694 41.0425 118.847C40.9406 118.898 40.8896 119 40.8386 119.051C40.5327 119.357 40.2779 119.662 40.023 119.968C39.921 120.07 39.819 120.223 39.7171 120.325C39.3602 120.732 39.0544 121.14 38.7485 121.598C38.6975 121.7 38.6465 121.751 38.5956 121.853C38.4936 121.955 38.4426 122.108 38.3407 122.209C38.2897 122.26 38.2387 122.311 38.2387 122.362C38.1877 122.464 38.0858 122.566 38.0348 122.668C37.9838 122.77 37.9328 122.821 37.8819 122.923C37.8309 123.024 37.7289 123.177 37.6779 123.279C37.627 123.381 37.576 123.483 37.525 123.585C37.474 123.687 37.423 123.738 37.423 123.84C37.423 123.89 37.3721 123.941 37.3721 123.992C37.3211 124.145 37.2701 124.247 37.2191 124.4C37.1681 124.502 37.1172 124.553 37.1172 124.655C37.0662 124.807 37.0152 124.96 36.9642 125.113H127.146V100.508H127.604C127.401 100.559 127.248 100.457 127.095 100.304ZM128.828 86.6011C128.675 86.3973 128.471 86.1936 128.267 85.9898V91.4406C128.369 91.3387 128.471 91.2368 128.573 91.1349C129.185 90.5236 129.542 89.6576 129.542 88.6897C129.542 87.9256 129.287 87.2124 128.828 86.6011ZM96.9662 59.8057C96.3035 58.1756 95.6918 56.4945 95.029 54.8644C94.9271 54.6097 94.8251 54.355 94.7232 54.1002C94.6722 53.9984 94.6212 53.8455 94.5702 53.7437H68.1123L67.6534 54.9153L65.6143 59.8567L65.1555 60.9774H97.425C97.2721 60.5698 97.1192 60.1623 96.9662 59.8057ZM2.45161 133.162V139.02C2.45161 139.835 2.80846 140.599 3.36923 141.16C3.93 141.72 4.69468 142.077 5.51034 142.077H53.6853V150.38C53.4304 151.195 53.1755 151.908 52.9206 152.469C52.8696 152.52 52.8696 152.571 52.8186 152.622C52.7677 152.724 52.7167 152.774 52.7167 152.876C52.6147 153.08 52.5128 153.284 52.3598 153.488C52.3088 153.59 52.2579 153.64 52.2069 153.742C52.1049 153.895 52.003 154.048 51.952 154.15C51.85 154.303 51.7481 154.405 51.6971 154.506C51.5951 154.608 51.5442 154.71 51.4422 154.761C51.3912 154.812 51.3402 154.914 51.2893 154.965H53.6853V156.137H42.419C41.7562 156.137 41.0425 156.391 40.4818 156.799C39.921 157.206 39.5132 157.818 39.5132 158.378V159.448H53.6853V160.569H97.8329C98.1387 160.569 98.3936 160.314 98.3936 160.008V158.378C98.3936 157.767 98.1897 157.206 97.8329 156.748C97.7819 156.646 97.6799 156.544 97.629 156.442C97.527 156.34 97.476 156.289 97.3741 156.188C97.2721 156.086 97.2211 156.035 97.1192 155.933C96.3545 155.322 95.3349 154.965 94.4173 154.965H87.3312C87.1783 154.863 86.8215 154.659 86.4136 154.201C86.3117 154.099 86.2097 153.997 86.1077 153.844C85.9548 153.64 85.8019 153.437 85.6489 153.182C85.547 153.029 85.445 152.825 85.3431 152.673C85.1901 152.367 85.0372 152.061 84.8843 151.705C84.8843 151.654 84.8333 151.603 84.8333 151.552C84.4255 150.584 84.0176 149.361 83.7627 147.833C83.7118 147.527 83.6608 147.171 83.6098 146.814C83.6098 146.763 83.6098 146.763 83.6098 146.712H82.4373C82.3863 146.458 82.3863 146.152 82.3353 145.897C82.3353 145.744 82.2843 145.592 82.2843 145.49C82.2843 145.286 82.2334 145.133 82.2334 144.929C82.1824 144.369 82.1824 143.758 82.1824 143.146H62.4536V142.026H131.326C131.836 142.026 132.295 141.924 132.702 141.72C133.008 141.567 133.263 141.364 133.467 141.16C134.028 140.599 134.385 139.835 134.385 139.02V133.162H2.45161ZM107.468 143.554C107.519 143.809 107.621 144.063 107.723 144.267C107.621 144.063 107.57 143.809 107.468 143.554ZM108.08 144.929C108.233 145.133 108.385 145.337 108.538 145.541C108.385 145.337 108.233 145.184 108.08 144.929ZM149.627 153.997C149.576 153.844 149.525 153.691 149.474 153.59C149.423 153.437 149.372 153.284 149.27 153.182C148.965 152.673 148.557 152.163 148.047 151.756C147.996 151.756 147.996 151.705 147.945 151.654C146.925 150.839 145.6 150.38 144.376 150.38H137.698V149.922C137.698 148.648 137.137 147.477 136.22 146.712H110.476C110.832 146.814 111.138 146.865 111.495 146.865H133.569C134.436 146.865 135.2 147.222 135.71 147.782C136.271 148.343 136.628 149.107 136.628 149.922V150.38H130C128.777 150.38 127.452 150.839 126.432 151.654C126.381 151.654 126.381 151.705 126.33 151.756C125.259 152.622 124.648 153.742 124.648 154.914V158.021C124.648 158.786 125.056 159.448 125.667 159.906C126.279 160.365 126.993 160.67 127.757 160.67H146.772C147.486 160.67 148.251 160.365 148.863 159.906C148.914 159.855 149.016 159.804 149.067 159.703C149.118 159.652 149.219 159.55 149.27 159.499C149.372 159.346 149.525 159.193 149.576 159.04C149.576 158.989 149.627 158.938 149.627 158.938C149.678 158.887 149.678 158.786 149.729 158.735C149.729 158.684 149.78 158.633 149.78 158.582C149.831 158.429 149.831 158.225 149.831 158.021V154.914C149.78 154.608 149.729 154.303 149.627 153.997ZM135.098 90.8802C135.047 90.9821 134.996 91.033 134.945 91.1349C134.691 91.5934 134.487 92.0519 134.334 92.5103C133.926 93.5801 133.671 94.8027 133.569 96.1782C133.518 96.6366 133.518 97.146 133.518 97.6555C133.518 98.6743 133.62 99.6931 133.824 100.712C133.926 101.425 134.13 102.138 134.334 102.801C134.538 103.514 134.792 104.176 135.098 104.838C135.2 105.093 135.353 105.348 135.455 105.551V90.2689C135.353 90.5236 135.251 90.6764 135.098 90.8802ZM135.455 67.447C135.302 67.7017 135.2 67.9564 135.098 68.2621C134.945 68.7715 134.843 69.3318 134.843 69.9431C134.843 70.4526 134.945 70.911 135.098 71.3695C135.149 71.5733 135.251 71.777 135.353 71.9808C135.404 72.0827 135.404 72.1336 135.455 72.2355V67.447ZM53.4814 143.197C53.4814 143.707 53.4814 144.267 53.4304 144.726C53.4814 144.216 53.4814 143.707 53.4814 143.197ZM51.4422 152.724C51.6971 152.265 51.952 151.705 52.2069 151.042C51.952 151.756 51.6971 152.265 51.4422 152.724ZM38.3916 158.429C38.3916 158.174 38.4426 157.971 38.4936 157.716C38.4426 157.92 38.3916 158.174 38.3916 158.429ZM1.43204 140.039C1.48301 140.243 1.53399 140.447 1.63595 140.599C1.58497 140.447 1.48301 140.243 1.43204 140.039ZM1.33008 139.428C1.33008 139.631 1.38106 139.835 1.43204 140.039C1.38106 139.835 1.38106 139.631 1.33008 139.428ZM1.33008 57.8699C1.33008 57.7171 1.33008 57.5643 1.33008 57.4624C1.33008 57.6152 1.33008 57.7171 1.33008 57.8699V138.969C1.33008 139.122 1.33008 139.275 1.33008 139.377C1.33008 139.224 1.33008 139.071 1.33008 138.969V57.8699ZM128.828 86.6011C128.675 86.3973 128.471 86.1936 128.267 85.9898V91.4406C128.369 91.3387 128.471 91.2368 128.573 91.1349C129.185 90.5236 129.542 89.6576 129.542 88.6897C129.542 87.9256 129.287 87.2124 128.828 86.6011ZM128.828 86.6011C128.675 86.3973 128.471 86.1936 128.267 85.9898C127.91 85.6841 127.553 85.4804 127.095 85.3276V92.1028C127.503 91.95 127.91 91.7462 128.267 91.4406C128.369 91.3387 128.471 91.2368 128.573 91.1349C129.185 90.5236 129.542 89.6576 129.542 88.6897C129.542 87.9256 129.287 87.2124 128.828 86.6011Z" fill="#CACACA"/>
<path d="M30.1839 62.4544C30.1839 65.2052 28.0938 67.5485 25.137 68.5164C23.5567 69.0259 22.2822 70.0956 21.4665 71.522C20.345 73.4068 18.5607 75.0879 16.2667 76.2596C14.0746 77.3294 11.7806 77.7369 9.69043 77.5331V60.9771H29.98C30.031 61.1808 30.0819 61.4355 30.1329 61.6393C30.1329 61.6902 30.1329 61.7412 30.1329 61.7412C30.1329 61.8431 30.1329 61.9449 30.1839 62.0468C30.1839 62.0978 30.1839 62.0978 30.1839 62.1487C30.1839 62.2506 30.1839 62.3525 30.1839 62.4544Z" fill="url(#paint4_linear_132_1461)"/>
<path d="M195.865 135.76C195.61 135.505 195.304 135.403 194.998 135.403C194.641 135.403 194.336 135.556 194.132 135.76L193.418 136.473L195.457 138.511L196.171 137.798C196.426 137.543 196.528 137.237 196.528 136.932C196.528 136.575 196.375 136.269 196.171 136.066L195.865 135.76Z" fill="white"/>
<path d="M171.447 201.933C172.263 201.933 173.18 201.628 174.047 201.271C174.863 200.864 175.627 200.405 176.035 199.947L228.594 147.426C229.206 146.814 229.563 145.948 229.563 145.082C229.563 144.216 229.206 143.35 228.594 142.739L228.186 142.331C227.575 141.72 226.708 141.364 225.841 141.364C224.975 141.364 224.108 141.72 223.496 142.331L170.937 194.801C170.325 195.413 169.663 196.533 169.306 197.654C169.051 198.316 168.949 198.877 168.949 199.386C168.949 199.641 169 199.845 169.051 200.048L168.388 200.711C168.235 200.864 168.184 201.016 168.184 201.22C168.184 201.424 168.235 201.577 168.388 201.73L168.694 202.035H120.315C119.907 202.035 119.602 202.341 119.602 202.748V206.263C119.602 207.027 120.06 207.741 120.672 208.25C121.284 208.759 122.049 209.014 122.813 209.014H225.23C225.943 209.014 226.759 208.709 227.371 208.25C227.982 207.741 228.39 207.078 228.39 206.263V202.748C228.39 202.341 228.084 202.035 227.677 202.035H170.58L170.784 201.831C170.988 201.933 171.243 201.933 171.447 201.933ZM224.516 143.299C224.873 142.943 225.332 142.739 225.841 142.739C226.351 142.739 226.81 142.943 227.167 143.299L227.575 143.707C227.931 144.063 228.135 144.522 228.135 145.031C228.135 145.541 227.931 145.999 227.575 146.356L226.453 147.477L223.394 144.42L224.516 143.299ZM222.375 145.439L225.433 148.495L199.638 174.272L196.579 171.215L222.375 145.439ZM226.861 206.365C226.861 206.518 226.81 206.671 226.708 206.824C226.555 207.078 226.3 207.282 226.045 207.435C225.739 207.588 225.433 207.69 225.179 207.69H122.711C122.354 207.69 121.896 207.537 121.539 207.282C121.386 207.18 121.233 207.027 121.131 206.875C121.029 206.722 120.978 206.569 120.978 206.416V205.958H226.861V206.365ZM226.861 203.513V204.429H120.978V203.513H226.861ZM170.529 199.947C170.427 199.896 170.376 199.692 170.376 199.437C170.376 199.081 170.478 198.673 170.631 198.164C170.784 197.654 171.039 197.196 171.294 196.788C171.549 196.381 171.753 196.075 171.957 195.871L195.56 172.285L198.67 175.342L175.066 198.928C174.761 199.233 174.149 199.641 173.486 199.947C172.823 200.252 172.059 200.507 171.498 200.507C171.396 200.507 171.294 200.507 171.192 200.456C171.09 200.456 170.988 200.405 170.937 200.354L170.529 199.947Z" fill="black"/>
<path d="M198.618 175.342L175.015 198.928C174.709 199.233 174.098 199.641 173.435 199.947C172.772 200.252 172.007 200.507 171.447 200.507C171.345 200.507 171.243 200.507 171.141 200.456C171.039 200.456 170.937 200.405 170.886 200.354L170.478 199.947C170.376 199.896 170.325 199.692 170.325 199.437C170.325 199.081 170.427 198.673 170.58 198.164C170.733 197.654 170.988 197.196 171.243 196.788C171.498 196.381 171.702 196.075 171.906 195.871L195.509 172.285L198.618 175.342Z" fill="#7E7E7D"/>
<path d="M222.376 145.471L196.566 171.262L199.666 174.36L225.476 148.569L222.376 145.471Z" fill="#504F4E"/>
<path d="M226.861 203.512H120.979V204.429H226.861V203.512Z" fill="#504F4E"/>
<path d="M226.861 205.907V206.365C226.861 206.518 226.81 206.671 226.708 206.824C226.556 207.078 226.301 207.282 226.046 207.435C225.74 207.588 225.434 207.69 225.179 207.69H122.712C122.355 207.69 121.896 207.537 121.539 207.282C121.386 207.18 121.233 207.027 121.131 206.875C121.029 206.722 120.979 206.569 120.979 206.416V205.958H226.861V205.907Z" fill="#7E7E7D"/>
<path d="M228.186 145.082C228.186 145.592 227.982 146.05 227.626 146.407L226.504 147.528L223.445 144.471L224.567 143.35C224.924 142.994 225.383 142.79 225.892 142.79C226.402 142.79 226.861 142.994 227.218 143.35L227.626 143.758C227.982 144.064 228.186 144.573 228.186 145.082Z" fill="#7E7E7D"/>
<path d="M249.853 192.611C249.7 192.458 249.547 192.407 249.343 192.407H246.335C246.08 192.407 245.826 192.56 245.724 192.764C245.01 194.088 243.633 194.903 242.104 194.903C240.575 194.903 239.198 194.088 238.485 192.764C238.383 192.509 238.128 192.407 237.873 192.407H234.865C234.661 192.407 234.457 192.509 234.355 192.611C234.253 192.764 234.151 192.917 234.151 193.12V193.171L235.171 208.505C235.222 208.861 235.528 209.167 235.885 209.167H248.272C248.68 209.167 248.986 208.861 248.986 208.505L250.006 193.171V193.12C250.006 192.917 249.955 192.764 249.853 192.611ZM247.61 207.741H236.496L235.579 193.885H237.363C238.383 195.464 240.116 196.432 242.002 196.432C243.888 196.432 245.622 195.464 246.641 193.885H248.425L247.61 207.741Z" fill="black"/>
<path d="M248.527 193.833L247.609 207.69H236.496L235.578 193.833H237.362C238.382 195.413 240.115 196.381 242.001 196.381C243.888 196.381 245.621 195.413 246.641 193.833H248.527Z" fill="#504F4E"/>
<path d="M127.096 60.9267V100.305C126.994 100.203 126.841 100.101 126.739 99.9482C126.637 99.8972 126.586 99.7953 126.484 99.7444C126.433 99.6934 126.382 99.6425 126.331 99.5916C126.229 99.4897 126.127 99.3878 125.974 99.2859C125.872 99.184 125.77 99.0821 125.617 99.0312C125.566 98.9803 125.515 98.9293 125.464 98.9293C125.413 98.9293 125.413 98.8784 125.362 98.8784C125.26 98.8274 125.209 98.7765 125.108 98.6746C124.955 98.5218 124.751 98.4199 124.598 98.2671C124.496 98.1652 124.394 98.1142 124.241 98.0124C124.037 97.8595 123.782 97.7067 123.527 97.5539C123.323 97.452 123.17 97.2992 122.966 97.1973C122.712 97.0445 122.457 96.8916 122.202 96.7388C122.049 96.6369 121.896 96.5351 121.743 96.4841C121.692 96.4332 121.641 96.4332 121.59 96.3822C121.488 96.3313 121.386 96.2803 121.284 96.2294C121.233 96.1785 121.182 96.1785 121.131 96.1275C120.367 95.72 119.602 95.3634 118.786 95.0068C118.684 94.9559 118.582 94.9049 118.429 94.854C118.225 94.7521 117.97 94.6502 117.767 94.5993C117.461 94.4464 117.104 94.3446 116.798 94.2427C116.645 94.1917 116.492 94.1408 116.339 94.0898C116.033 93.988 115.727 93.8861 115.422 93.7842C115.371 93.7842 115.371 93.7842 115.32 93.7333C115.014 93.6314 114.708 93.5295 114.351 93.4785C114.096 93.4276 113.841 93.3257 113.586 93.2748C113.077 93.1729 112.618 93.0201 112.108 92.9182C111.853 92.8672 111.649 92.8163 111.445 92.7654C111.343 92.7654 111.241 92.7144 111.088 92.7144C110.884 92.6635 110.732 92.6635 110.528 92.6125C110.375 92.6125 110.273 92.5616 110.12 92.5616L109.916 92.5107C109.865 92.5107 109.814 92.5107 109.814 92.5107C109.61 92.5107 109.457 92.4597 109.253 92.4597C109.202 92.4597 109.151 92.4597 109.049 92.4597C108.947 92.4597 108.794 92.4088 108.692 92.4088C108.641 92.4088 108.59 92.4088 108.539 92.4088C108.183 92.3578 107.877 92.3578 107.52 92.3069H107.469C107.214 92.3069 106.959 92.2559 106.704 92.2559C106.551 92.2559 106.398 92.2559 106.296 92.2559C106.092 92.2559 105.889 92.2559 105.685 92.2559C105.43 92.2559 105.124 92.2559 104.869 92.2559C104.563 92.2559 104.257 92.2559 103.951 92.2559C103.9 92.2559 103.849 92.2559 103.798 92.2559C103.747 92.2559 103.696 92.2559 103.645 92.2559C103.391 92.2559 103.136 92.2559 102.881 92.3069C102.83 92.3069 102.779 92.3069 102.779 92.3069C102.473 92.3069 102.167 92.3578 101.861 92.3578C101.657 92.3578 101.504 92.4088 101.3 92.4088C101.198 92.4088 101.148 92.4088 101.097 92.4088C100.944 92.4088 100.74 92.4597 100.587 92.4597H100.536C100.434 92.4597 100.332 92.4597 100.179 92.5107C100.077 92.5107 100.026 92.5107 99.924 92.5616C99.7711 92.5616 99.5672 92.6125 99.4142 92.6125C99.1593 92.6635 98.9554 92.6635 98.7005 92.7144C98.4456 92.7654 98.2417 92.8163 97.9868 92.8672C97.8339 92.8672 97.6809 92.9182 97.579 92.9691C97.3751 93.0201 97.1202 93.071 96.9163 93.122C96.7633 93.1729 96.5594 93.2238 96.4065 93.2238C96.3045 93.2238 96.2026 93.2748 96.1006 93.2748C95.9986 93.2748 95.8967 93.3257 95.7947 93.3767C95.2849 93.5295 94.7752 93.6823 94.2654 93.8351C94.0615 93.8861 93.9085 93.937 93.7046 94.0389C93.5517 94.0899 93.3987 94.1408 93.2458 94.1917C92.9909 94.2936 92.736 94.3446 92.5321 94.4464C92.4811 94.4464 92.4301 94.4974 92.4301 94.4974C91.9203 94.7012 91.4106 94.9049 90.9008 95.1087C90.7478 95.1596 90.5949 95.2106 90.442 95.3125C90.238 95.4143 90.0341 95.5162 89.7792 95.6181C89.4224 95.7709 89.1165 95.9747 88.7597 96.1275C88.4538 96.2803 88.0969 96.4841 87.7911 96.6369C87.5872 96.7388 87.3832 96.8916 87.1793 96.9935C87.1283 97.0445 87.0264 97.0954 86.9754 97.1464C86.8735 97.1973 86.7715 97.2992 86.6186 97.3501C86.4146 97.503 86.2107 97.6048 86.0068 97.7577C85.9558 97.8086 85.9049 97.8595 85.8539 97.8595C85.7009 97.9614 85.497 98.1143 85.3441 98.2161C85.3441 98.2161 85.3441 98.2161 85.2931 98.2161C85.0892 98.369 84.8853 98.5218 84.6814 98.6746C84.5284 98.7765 84.3755 98.9293 84.2226 99.0312C84.0696 99.1331 83.9167 99.2859 83.7637 99.3878C83.5598 99.5406 83.3559 99.7444 83.203 99.8972C82.9481 100.152 82.6932 100.356 82.4383 100.61C82.4383 100.61 82.4383 100.61 82.3873 100.661C82.2854 100.763 82.1834 100.865 82.0815 100.967L82.0305 101.018C81.9285 101.12 81.8775 101.171 81.7756 101.273L81.7246 101.324C81.5207 101.527 81.3677 101.68 81.2148 101.884C81.1638 101.935 81.1129 101.986 81.0619 102.037L81.0109 102.088C80.858 102.241 80.756 102.393 80.654 102.495C80.654 102.495 80.654 102.495 80.654 102.546C80.5521 102.648 80.4501 102.801 80.3482 102.903C80.1952 103.107 80.0423 103.31 79.8894 103.514C79.7364 103.769 79.5325 103.973 79.3796 104.227C79.2266 104.431 79.1247 104.635 78.9717 104.788C78.9208 104.89 78.8698 104.94 78.8188 104.991C78.6659 105.144 78.5129 105.348 78.411 105.501C78.36 105.552 78.36 105.552 78.309 105.603C78.2071 105.705 78.1051 105.806 78.0032 105.959C77.8502 106.112 77.6973 106.214 77.5953 106.367C77.4934 106.469 77.3404 106.571 77.2385 106.672C77.1875 106.723 77.1365 106.774 77.0855 106.825C77.0346 106.876 76.9836 106.876 76.9326 106.927C76.8816 106.978 76.8306 106.978 76.7797 107.029C76.6777 107.08 76.5757 107.182 76.4738 107.233C76.3718 107.284 76.3208 107.335 76.2189 107.386C76.1679 107.437 76.1169 107.437 76.066 107.488C75.913 107.589 75.8111 107.64 75.6581 107.742C75.4542 107.844 75.2503 107.997 74.9954 108.099C74.8934 108.15 74.7915 108.201 74.6895 108.252C74.5876 108.303 74.4856 108.354 74.3837 108.404C74.3327 108.404 74.2817 108.455 74.2307 108.455C74.0778 108.506 73.9758 108.557 73.8229 108.608C73.7209 108.659 73.619 108.659 73.517 108.71C73.3641 108.761 73.2621 108.812 73.1092 108.863C72.9562 108.914 72.8033 108.965 72.7014 108.965C72.5994 109.016 72.4465 109.016 72.3445 109.067C72.1406 109.118 71.9367 109.169 71.7328 109.169C71.5288 109.22 71.3759 109.22 71.172 109.22C71.121 109.22 71.121 109.22 71.07 109.22C71.0191 109.22 70.9171 109.22 70.8661 109.22H70.8151C70.7132 109.22 70.6112 109.22 70.5093 109.22C70.4073 109.22 70.3053 109.22 70.2034 109.22C70.1014 109.22 69.9995 109.22 69.8975 109.22C69.7446 109.22 69.6426 109.22 69.4897 109.22C69.3877 109.22 69.3368 109.22 69.2348 109.22C69.1838 109.22 69.0819 109.22 69.0309 109.22C65.1565 108.914 60.8743 109.321 56.4901 110.493C56.2352 110.544 56.0313 110.646 55.7764 110.697C55.5725 110.748 55.3686 110.799 55.1647 110.901C54.9098 110.952 54.7059 111.053 54.451 111.104C54.1961 111.206 53.9412 111.257 53.6863 111.359C53.4824 111.41 53.3294 111.512 53.1255 111.563C53.0745 111.614 52.9726 111.614 52.9216 111.665C52.7177 111.716 52.5647 111.818 52.3608 111.869C52.2079 111.919 52.004 112.021 51.851 112.072C51.3922 112.276 50.8824 112.48 50.4236 112.684C50.1687 112.785 49.8629 112.938 49.608 113.04C49.3531 113.142 49.1492 113.295 48.8943 113.397C48.4355 113.651 47.9767 113.855 47.5688 114.11C47.4159 114.161 47.3139 114.263 47.161 114.314C47.161 114.314 47.11 114.314 47.11 114.365C46.9571 114.467 46.7532 114.568 46.6002 114.67C46.4473 114.772 46.2944 114.874 46.1414 114.976C45.9375 115.129 45.6826 115.231 45.4787 115.384C45.4277 115.434 45.3767 115.434 45.3258 115.485C45.2238 115.536 45.1218 115.638 44.9689 115.689C44.9689 115.689 44.9179 115.689 44.9179 115.74C44.765 115.842 44.663 115.944 44.5101 116.046C44.4591 116.097 44.4081 116.148 44.3572 116.148C44.3062 116.148 44.3062 116.199 44.2552 116.199C44.1532 116.25 44.0513 116.351 43.9493 116.402C43.7964 116.504 43.5925 116.657 43.4395 116.81C43.3376 116.912 43.1847 117.014 43.0827 117.116C42.8278 117.319 42.5729 117.574 42.318 117.778C42.1651 117.88 42.0121 118.032 41.8592 118.185L41.8082 118.236C41.7063 118.338 41.6043 118.44 41.4514 118.542C41.3494 118.644 41.1965 118.746 41.0945 118.898C40.9926 118.949 40.9416 119.051 40.8906 119.102C40.5847 119.408 40.3298 119.714 40.0749 120.019C39.973 120.121 39.871 120.274 39.7691 120.376C39.4122 120.783 39.1063 121.191 38.8005 121.649C38.7495 121.751 38.6985 121.802 38.6475 121.904C38.5456 122.006 38.4946 122.159 38.3926 122.261C38.3417 122.312 38.2907 122.363 38.2907 122.413C38.2397 122.515 38.1378 122.617 38.0868 122.719C38.0358 122.821 37.9848 122.872 37.9338 122.974C37.8829 123.076 37.7809 123.229 37.7299 123.33C37.6789 123.432 37.628 123.534 37.577 123.636C37.526 123.738 37.475 123.789 37.475 123.891C37.475 123.942 37.424 123.993 37.424 124.044C37.3731 124.196 37.3221 124.298 37.2711 124.451C37.2201 124.553 37.1692 124.604 37.1692 124.706C37.1182 124.859 37.0672 125.012 37.0162 125.164H9.64062V77.33C11.7308 77.5338 14.0248 77.1262 16.2169 76.0565C18.5109 74.9357 20.2952 73.2547 21.4167 71.3189C22.2324 69.8925 23.5578 68.8227 25.0872 68.3133C28.044 67.3964 30.1341 65.0021 30.1341 62.2512C30.1341 62.1494 30.1341 62.0475 30.1341 61.9456C30.1341 61.8946 30.1341 61.8946 30.1341 61.8437C30.1341 61.7418 30.1341 61.6399 30.0831 61.5381C30.0831 61.4871 30.0831 61.4362 30.0831 61.4362C30.0321 61.2324 29.9812 60.9777 29.9302 60.7739H127.096V60.9267Z" fill="white"/>
<path d="M127.095 100.305V125.317H36.9648C37.0158 125.164 37.0668 125.011 37.1178 124.859C37.1688 124.757 37.1688 124.706 37.2197 124.604C37.2707 124.451 37.3217 124.349 37.3727 124.196C37.3727 124.145 37.4237 124.094 37.4237 124.044C37.4746 123.942 37.5256 123.891 37.5256 123.789C37.5766 123.687 37.6276 123.585 37.6785 123.483C37.7295 123.381 37.8315 123.228 37.8825 123.127C37.9334 123.025 37.9844 122.974 38.0354 122.872C38.0864 122.77 38.1883 122.668 38.2393 122.566C38.2903 122.515 38.2903 122.464 38.3413 122.413C38.4432 122.312 38.4942 122.159 38.5962 122.057C38.6471 121.955 38.6981 121.904 38.7491 121.802C39.055 121.395 39.3608 120.936 39.7177 120.529C39.8197 120.427 39.9216 120.274 40.0236 120.172C40.2785 119.866 40.5843 119.561 40.8392 119.255C40.8902 119.153 40.9922 119.102 41.0431 119.051C41.1451 118.949 41.298 118.797 41.4 118.695C41.502 118.593 41.6039 118.491 41.7568 118.389L41.8078 118.338C41.9608 118.185 42.1137 118.083 42.2666 117.931C42.5215 117.676 42.7764 117.472 43.0313 117.268C43.1333 117.166 43.2862 117.065 43.3882 116.963C43.5411 116.81 43.745 116.708 43.898 116.555C43.9999 116.504 44.1019 116.402 44.2038 116.351C44.2038 116.351 44.2548 116.3 44.3058 116.3C44.3568 116.249 44.4077 116.199 44.4587 116.199C44.6117 116.097 44.7136 115.995 44.8666 115.893C44.8666 115.893 44.9175 115.893 44.9175 115.842C45.0195 115.74 45.1214 115.689 45.2744 115.638C45.3254 115.587 45.3763 115.587 45.4273 115.536C45.6312 115.383 45.8351 115.231 46.09 115.129C46.243 115.027 46.3959 114.925 46.5489 114.823C46.7018 114.721 46.9057 114.619 47.0586 114.517C47.0586 114.517 47.1096 114.517 47.1096 114.466C47.2626 114.365 47.3645 114.314 47.5174 114.263C47.9253 114.008 48.3841 113.753 48.8429 113.55C49.0978 113.448 49.3017 113.295 49.5566 113.193C49.8115 113.091 50.0664 112.938 50.3723 112.836C50.8311 112.633 51.2899 112.429 51.7997 112.225C51.9526 112.174 52.1565 112.072 52.3095 112.021C52.5134 111.97 52.6663 111.868 52.8702 111.818C52.9212 111.767 53.0232 111.767 53.0741 111.716C53.278 111.665 53.431 111.563 53.6349 111.512C53.8898 111.41 54.1447 111.308 54.3996 111.257C54.6035 111.155 54.8584 111.104 55.1133 111.053C55.3172 111.002 55.5211 110.952 55.725 110.85C55.9799 110.799 56.1838 110.697 56.4387 110.646C60.8229 109.474 65.1051 109.067 68.9795 109.372C69.0305 109.372 69.1324 109.372 69.1834 109.372C69.2854 109.372 69.3364 109.372 69.4383 109.372C69.5913 109.372 69.6932 109.372 69.8461 109.372C69.9481 109.372 70.0501 109.372 70.152 109.372C70.254 109.372 70.3559 109.372 70.4579 109.372C70.5598 109.372 70.6618 109.372 70.7638 109.372H70.8147C70.8657 109.372 70.9677 109.372 71.0187 109.372C71.0696 109.372 71.0696 109.372 71.1206 109.372C71.3245 109.372 71.4775 109.321 71.6814 109.321C71.8853 109.27 72.0892 109.27 72.2931 109.219C72.3951 109.219 72.548 109.169 72.65 109.118C72.8029 109.067 72.9559 109.067 73.0578 109.016C73.2108 108.965 73.3127 108.914 73.4656 108.863C73.5676 108.812 73.6696 108.812 73.7715 108.761C73.9244 108.71 74.0264 108.659 74.1793 108.608C74.2303 108.608 74.2813 108.557 74.3323 108.557C74.4342 108.506 74.5362 108.455 74.6381 108.404C74.7401 108.353 74.8421 108.303 74.944 108.252C75.1479 108.15 75.4028 108.048 75.6068 107.895C75.7597 107.793 75.9126 107.742 76.0146 107.64C76.0656 107.589 76.1165 107.589 76.1675 107.538C76.2695 107.487 76.3204 107.437 76.4224 107.386C76.5244 107.335 76.6263 107.233 76.7283 107.182C76.7793 107.131 76.8302 107.131 76.8812 107.08C76.9322 107.029 76.9832 107.029 77.0342 106.978C77.0851 106.927 77.1361 106.876 77.1871 106.825C77.34 106.723 77.442 106.621 77.5439 106.52C77.6969 106.418 77.8498 106.265 77.9518 106.112C78.0537 106.01 78.1557 105.908 78.2576 105.755C78.3086 105.705 78.3086 105.704 78.3596 105.654C78.5125 105.501 78.6655 105.348 78.7674 105.144C78.8184 105.093 78.8694 104.991 78.9204 104.94C79.0733 104.737 79.2262 104.584 79.3282 104.38C79.4811 104.125 79.6851 103.922 79.838 103.667C79.9909 103.463 80.1439 103.259 80.2968 103.056C80.3988 102.903 80.5007 102.801 80.6027 102.699C80.6027 102.699 80.6027 102.699 80.6027 102.648C80.7046 102.495 80.8576 102.342 80.9595 102.24L81.0105 102.19C81.0615 102.139 81.1125 102.088 81.1634 102.037C81.3164 101.833 81.5203 101.68 81.6732 101.476L81.7242 101.425C81.8262 101.324 81.8771 101.273 81.9791 101.171L82.0301 101.12C82.132 101.018 82.234 100.916 82.3359 100.814C82.3359 100.814 82.3359 100.763 82.3869 100.763C82.6418 100.508 82.8967 100.254 83.1516 100.05C83.3555 99.8971 83.5085 99.6934 83.7124 99.5405C83.8653 99.4387 84.0182 99.2858 84.1712 99.1839C84.3241 99.0821 84.4771 98.9292 84.63 98.8274C84.8339 98.6745 85.0378 98.5217 85.2417 98.3689C85.2417 98.3689 85.2417 98.3689 85.2927 98.3689C85.4457 98.2161 85.6496 98.1142 85.8025 98.0123C85.8535 97.9613 85.9045 97.9104 85.9554 97.9104C86.1594 97.7576 86.3633 97.6557 86.5672 97.5029C86.6691 97.4519 86.7711 97.35 86.924 97.2991C86.975 97.2482 87.077 97.1972 87.1279 97.1463C87.3319 96.9935 87.5358 96.8916 87.7397 96.7897C88.0456 96.5859 88.3514 96.4331 88.7083 96.2803C89.0142 96.1274 89.371 95.9237 89.7279 95.7709C89.9318 95.669 90.1357 95.5671 90.3906 95.4652C90.5435 95.4143 90.6965 95.3124 90.8494 95.2614C91.3592 95.0577 91.869 94.8539 92.3788 94.6501C92.4297 94.6501 92.4807 94.5992 92.4807 94.5992C92.7356 94.4973 92.9905 94.4464 93.1944 94.3445C93.3474 94.2935 93.5003 94.2426 93.6532 94.1917C93.8571 94.1407 94.0101 94.0388 94.214 93.9879C94.7238 93.8351 95.2336 93.6822 95.7434 93.5294C95.8453 93.4785 95.9473 93.4785 96.0492 93.4275C96.1512 93.3766 96.2532 93.3766 96.3551 93.3766C96.508 93.3256 96.712 93.2747 96.8649 93.2747C97.0688 93.2238 97.2727 93.1728 97.5276 93.1219C97.6806 93.0709 97.8335 93.0709 97.9355 93.02C98.1903 92.9691 98.3943 92.9181 98.6492 92.8672C98.904 92.8162 99.108 92.7653 99.3629 92.7653C99.5158 92.7653 99.6687 92.7143 99.8726 92.7143C99.9746 92.7143 100.026 92.7143 100.128 92.6634C100.229 92.6634 100.331 92.6125 100.484 92.6125H100.535C100.688 92.6125 100.892 92.5615 101.045 92.5615C101.096 92.5615 101.198 92.5615 101.249 92.5615C101.453 92.5615 101.606 92.5106 101.81 92.5106C102.116 92.4596 102.422 92.4596 102.727 92.4596C102.778 92.4596 102.829 92.4596 102.829 92.4596C103.084 92.4596 103.339 92.4087 103.594 92.4087C103.645 92.4087 103.696 92.4087 103.747 92.4087C103.798 92.4087 103.849 92.4087 103.9 92.4087C104.206 92.4087 104.512 92.4087 104.818 92.4087C105.072 92.4087 105.378 92.4087 105.633 92.4087C105.837 92.4087 106.041 92.4087 106.245 92.4087C106.398 92.4087 106.551 92.4087 106.653 92.4087C106.908 92.4087 107.163 92.4596 107.417 92.4596H107.468C107.825 92.4596 108.131 92.5106 108.488 92.5615C108.539 92.5615 108.59 92.5615 108.641 92.5615C108.743 92.5615 108.896 92.5615 108.998 92.6125C109.049 92.6125 109.1 92.6125 109.202 92.6125C109.406 92.6125 109.559 92.6634 109.763 92.6634C109.814 92.6634 109.864 92.6634 109.864 92.6634L110.068 92.7143C110.221 92.7143 110.323 92.7653 110.476 92.7653C110.68 92.8162 110.833 92.8162 111.037 92.8672C111.139 92.8672 111.241 92.9181 111.394 92.9181C111.649 92.9691 111.853 93.02 112.057 93.0709C112.566 93.1728 113.025 93.2747 113.535 93.4275C113.79 93.4785 114.045 93.5294 114.3 93.6313C114.606 93.7332 114.911 93.7841 115.268 93.886C115.319 93.886 115.319 93.886 115.37 93.9369C115.676 94.0388 115.982 94.1407 116.288 94.2426C116.441 94.2935 116.594 94.3445 116.747 94.3954C117.103 94.4973 117.409 94.6501 117.715 94.752C117.97 94.8539 118.174 94.9048 118.378 95.0067C118.48 95.0577 118.633 95.1086 118.735 95.1596C119.55 95.5161 120.315 95.8727 121.08 96.2803C121.131 96.3312 121.182 96.3312 121.233 96.3822C121.335 96.4331 121.437 96.484 121.539 96.535C121.59 96.5859 121.641 96.5859 121.692 96.6369C121.844 96.7387 121.997 96.7897 122.15 96.8916C122.405 97.0444 122.66 97.1972 122.915 97.3501C123.119 97.4519 123.272 97.6048 123.476 97.7066C123.731 97.8595 123.935 98.0123 124.19 98.1651C124.291 98.267 124.393 98.3179 124.546 98.4198C124.699 98.5217 124.903 98.6745 125.056 98.8274C125.158 98.8783 125.209 98.9292 125.311 99.0311C125.362 99.0311 125.362 99.0821 125.413 99.0821C125.566 99.184 125.719 99.3368 125.923 99.4896C126.025 99.5915 126.178 99.6934 126.28 99.7952C126.331 99.8462 126.382 99.8971 126.433 99.9481C126.535 99.999 126.586 100.101 126.687 100.152C126.84 100.05 126.993 100.203 127.095 100.305Z" fill="url(#paint5_linear_132_1461)"/>
<path d="M53.6859 142.026V150.33C53.7369 150.177 53.7879 150.024 53.8389 149.82C53.8899 149.667 53.8899 149.565 53.9408 149.413C54.0428 149.107 54.0938 148.75 54.1448 148.394C54.1448 148.241 54.1957 148.088 54.2467 147.935C54.2977 147.782 54.2977 147.579 54.3487 147.375C54.3996 147.171 54.3996 147.018 54.4506 146.815C54.4506 146.611 54.5016 146.407 54.5016 146.254C54.5016 146.203 54.5016 146.152 54.5016 146.101C54.5016 145.999 54.5016 145.898 54.5526 145.745C54.6036 145.235 54.6545 144.726 54.6545 144.217C54.6545 144.064 54.6545 143.86 54.6545 143.656C54.6545 143.452 54.6545 143.3 54.6545 143.096H62.4543V141.975H53.6859V142.026ZM97.8336 156.748C97.7826 156.646 97.6806 156.544 97.6296 156.443C97.5277 156.341 97.4767 156.29 97.3747 156.188C97.2728 156.086 97.2218 156.035 97.1199 155.933C96.3552 155.322 95.3356 154.965 94.418 154.965H87.3319C87.179 154.863 86.8221 154.66 86.4143 154.201C86.3124 154.099 86.2104 153.997 86.1084 153.845C85.9555 153.641 85.8026 153.437 85.6496 153.182C85.5477 153.029 85.4457 152.826 85.3438 152.673C85.1908 152.367 85.0379 152.062 84.8849 151.705C84.8849 151.654 84.834 151.603 84.834 151.552C84.4261 150.584 84.0183 149.362 83.7634 147.833C83.7124 147.528 83.6615 147.171 83.6105 146.815C83.6105 146.764 83.6105 146.764 83.6105 146.713H82.438C82.4889 147.222 82.5909 147.681 82.6419 148.139C82.6419 148.292 82.6929 148.445 82.7438 148.598C82.8458 149.158 82.9987 149.718 83.1007 150.177C83.1517 150.33 83.2027 150.482 83.2536 150.635C83.3046 150.839 83.4066 151.094 83.4575 151.297C83.5085 151.45 83.5595 151.603 83.6105 151.756C83.6615 151.858 83.7124 151.96 83.7124 152.062C83.7634 152.163 83.8144 152.265 83.8144 152.316C83.8654 152.469 83.9673 152.622 84.0183 152.775C84.0693 152.928 84.1712 153.08 84.2222 153.182C84.2732 153.284 84.3752 153.437 84.4261 153.539V153.59C84.5281 153.692 84.5791 153.845 84.6301 153.946C84.6301 153.946 84.6301 153.997 84.681 153.997C84.732 154.048 84.783 154.15 84.834 154.201C84.834 154.252 84.8849 154.252 84.8849 154.303C84.9359 154.405 84.9869 154.456 85.0379 154.558C85.1908 154.761 85.3438 154.914 85.4457 155.067H53.584V156.239H94.316C94.367 156.239 94.469 156.239 94.5199 156.239C94.5709 156.239 94.5709 156.239 94.6219 156.239C94.6729 156.239 94.7239 156.239 94.8258 156.29C94.8768 156.29 94.9787 156.341 95.0297 156.341C95.2846 156.392 95.4885 156.494 95.7434 156.595C95.7944 156.646 95.8964 156.646 95.9473 156.697H95.9983C96.0493 156.748 96.1513 156.799 96.2022 156.85C96.2532 156.85 96.2532 156.901 96.3042 156.901C96.865 157.309 97.2728 157.92 97.2728 158.48V159.55H53.6859V160.671H97.8336C98.1394 160.671 98.3943 160.416 98.3943 160.11V158.48C98.3943 157.818 98.1904 157.258 97.8336 156.748ZM149.628 153.997C149.577 153.845 149.526 153.692 149.475 153.59C149.424 153.437 149.373 153.284 149.271 153.182C148.965 152.673 148.557 152.163 148.048 151.756C147.997 151.756 147.997 151.705 147.946 151.654C146.926 150.839 145.601 150.38 144.377 150.38H137.699V149.922C137.699 148.648 137.138 147.477 136.221 146.713H110.476C110.833 146.815 111.139 146.865 111.496 146.865H133.57C134.436 146.865 135.201 147.222 135.711 147.782C136.272 148.343 136.628 149.107 136.628 149.922V150.38H130.001C128.778 150.38 127.452 150.839 126.433 151.654C126.382 151.654 126.382 151.705 126.331 151.756C125.26 152.622 124.648 153.743 124.648 154.914V158.022C124.648 158.786 125.056 159.448 125.668 159.907C126.28 160.365 126.993 160.671 127.758 160.671H146.773C147.487 160.671 148.252 160.365 148.863 159.907C148.914 159.856 149.016 159.805 149.067 159.703C149.118 159.652 149.22 159.55 149.271 159.499C149.373 159.346 149.526 159.193 149.577 159.041C149.577 158.99 149.628 158.939 149.628 158.939C149.679 158.888 149.679 158.786 149.73 158.735C149.73 158.684 149.781 158.633 149.781 158.582C149.832 158.429 149.883 158.226 149.883 158.022V154.914C149.781 154.609 149.73 154.303 149.628 153.997ZM125.77 154.914C125.77 153.997 126.331 153.182 127.146 152.571C127.248 152.52 127.35 152.418 127.452 152.367C127.554 152.316 127.656 152.265 127.758 152.214C127.809 152.163 127.86 152.163 127.911 152.113C128.013 152.062 128.064 152.011 128.166 152.011C128.217 151.96 128.319 151.96 128.37 151.909C128.421 151.909 128.421 151.858 128.472 151.858H128.523C128.574 151.858 128.625 151.807 128.676 151.807H128.727C128.778 151.807 128.829 151.756 128.88 151.756C128.931 151.756 128.982 151.705 129.084 151.705C129.135 151.705 129.135 151.705 129.185 151.705C129.287 151.705 129.338 151.654 129.44 151.654H129.491C129.542 151.654 129.593 151.654 129.644 151.654C129.746 151.654 129.797 151.654 129.899 151.654H144.326C144.428 151.654 144.479 151.654 144.581 151.654C144.632 151.654 144.683 151.654 144.734 151.654C144.836 151.654 144.887 151.654 144.989 151.705C145.04 151.705 145.091 151.705 145.091 151.705C145.142 151.705 145.193 151.705 145.244 151.756C145.295 151.756 145.346 151.807 145.397 151.807C145.397 151.807 145.397 151.807 145.448 151.807H145.499C145.601 151.858 145.703 151.858 145.856 151.909H145.907C145.958 151.909 146.008 151.96 146.059 151.96C146.161 152.011 146.212 152.062 146.314 152.062C146.365 152.062 146.365 152.113 146.416 152.113C146.518 152.163 146.62 152.214 146.671 152.265C146.671 152.265 146.722 152.265 146.722 152.316C146.824 152.367 146.926 152.469 147.028 152.52C147.844 153.131 148.404 153.997 148.404 154.863V156.595H125.515V154.914H125.77ZM148.608 157.971C148.608 158.175 148.557 158.327 148.455 158.531C148.303 158.786 147.997 159.041 147.691 159.193C147.385 159.346 147.028 159.448 146.722 159.448H127.707C127.299 159.448 126.789 159.295 126.433 158.99C126.229 158.837 126.076 158.684 125.974 158.48C125.872 158.327 125.821 158.124 125.821 157.92V157.665H148.71V157.971H148.608Z" fill="black"/>
<path d="M148.609 157.767V158.022C148.609 158.225 148.558 158.378 148.456 158.582C148.303 158.837 147.997 159.091 147.691 159.244C147.385 159.397 147.028 159.499 146.723 159.499H127.708C127.3 159.499 126.79 159.346 126.433 159.041C126.229 158.888 126.076 158.735 125.974 158.531C125.872 158.378 125.821 158.175 125.821 157.971V157.716H148.609V157.767Z" fill="#504F4E"/>
<path d="M97.4258 60.9264H65.1562L65.6151 59.8057H96.967C97.1199 60.1623 97.2729 60.5698 97.4258 60.9264Z" fill="black"/>
<path d="M127.555 100.712C127.402 100.559 127.249 100.407 127.096 100.305C127.249 100.458 127.402 100.559 127.555 100.712Z" fill="black"/>
<path d="M128.268 85.9899V91.4407C127.911 91.7463 127.555 91.9501 127.096 92.1029V85.3276C127.555 85.4805 127.911 85.7352 128.268 85.9899Z" fill="black"/>
<path d="M127.555 100.712H127.096V100.305C127.249 100.458 127.402 100.559 127.555 100.712Z" fill="black"/>
<path d="M51.4431 154.812C51.3922 154.863 51.3412 154.965 51.2902 155.016H53.6862V156.188H42.4199C41.7572 156.188 41.0435 156.442 40.4827 156.85C39.9219 157.258 39.5141 157.869 39.5141 158.429V159.499H53.6862V160.62H38.9533C38.8004 160.62 38.6475 160.569 38.5455 160.467C38.4436 160.365 38.3926 160.212 38.3926 160.059V158.429C38.3926 158.175 38.4436 157.971 38.4945 157.716C38.4945 157.614 38.5455 157.563 38.5455 157.512C38.6984 157.054 39.0553 156.595 39.4122 156.239C39.5141 156.137 39.5651 156.086 39.667 155.984C40.4317 155.373 41.4513 155.016 42.3689 155.016H49.455C49.5059 155.016 49.5059 154.965 49.5569 154.965C49.6589 154.863 49.8118 154.761 50.0157 154.609C50.0667 154.558 50.1177 154.507 50.1687 154.456C50.2706 154.354 50.3726 154.252 50.5255 154.099C50.8314 153.743 51.1373 153.335 51.4431 152.775C51.698 152.316 51.9529 151.756 52.2078 151.094C52.4627 150.431 52.6666 149.718 52.8705 148.852V148.801C52.9215 148.597 52.9725 148.445 52.9725 148.241C53.0235 148.037 53.0745 147.782 53.0745 147.579C53.0745 147.477 53.1254 147.324 53.1254 147.222C53.1764 146.967 53.1764 146.764 53.2274 146.509C53.2274 146.407 53.2784 146.254 53.2784 146.152C53.3294 145.694 53.3803 145.235 53.3803 144.726C53.4313 144.216 53.4313 143.707 53.4313 143.198H52.8196V142.077H53.5842V150.38C53.3294 151.195 53.0745 151.909 52.8196 152.469C52.7686 152.52 52.7686 152.571 52.7176 152.622C52.6666 152.724 52.6156 152.775 52.6156 152.877C52.5137 153.08 52.4117 153.284 52.2588 153.488C52.2078 153.59 52.1568 153.641 52.1059 153.743C52.0039 153.895 51.9019 154.048 51.851 154.15C51.749 154.303 51.6471 154.405 51.5961 154.507C51.5961 154.609 51.4941 154.71 51.4431 154.812Z" fill="black"/>
<path d="M136.272 146.764H110.527C109.763 146.56 109.049 146.152 108.488 145.592C108.335 145.388 108.182 145.235 108.029 144.981C107.876 144.777 107.775 144.573 107.673 144.318C107.571 144.064 107.52 143.86 107.418 143.605C107.418 143.503 107.367 143.35 107.367 143.198H83.2537C83.2537 144.522 83.3557 145.694 83.5086 146.764H82.3361C82.2851 146.509 82.2851 146.203 82.2342 145.948C82.2342 145.796 82.1832 145.643 82.1832 145.541C82.1832 145.337 82.1322 145.184 82.1322 144.981C82.0812 144.42 82.0812 143.809 82.0812 143.198H62.3524V142.077H131.225C131.735 142.077 132.193 141.975 132.601 141.771C132.907 141.618 133.162 141.415 133.366 141.211C133.927 140.651 134.283 139.886 134.283 139.071V133.213H2.45239V139.071C2.45239 139.886 2.80924 140.651 3.37001 141.211C3.93077 141.771 4.69546 142.128 5.51112 142.128H52.9214V143.249H5.51112C4.13469 143.249 2.9112 142.586 2.14652 141.567C2.04456 141.466 1.99358 141.364 1.9426 141.211C1.89162 141.16 1.89162 141.109 1.84064 141.058C1.78967 140.956 1.73869 140.803 1.68771 140.701C1.58575 140.498 1.53477 140.345 1.48379 140.141C1.43281 139.937 1.38184 139.734 1.38184 139.53C1.38184 139.377 1.38184 139.224 1.38184 139.122V57.8701C1.38184 57.7173 1.38184 57.5644 1.38184 57.4626C1.38184 57.2588 1.43281 57.055 1.48379 56.8513C1.53477 56.6475 1.58575 56.4437 1.68771 56.2909C1.73869 56.189 1.78967 56.0362 1.84064 55.9343C1.89162 55.8834 1.89162 55.8324 1.9426 55.7815C1.99358 55.6796 2.09554 55.5268 2.14652 55.4249C2.9112 54.4061 4.13469 53.7438 5.51112 53.7438H68.164L67.7052 54.9155L65.6661 59.8568L65.2073 60.9775H9.6404V125.317H127.095V100.712H127.554C127.401 100.559 127.248 100.406 127.095 100.305V92.103C127.503 91.9501 127.911 91.7464 128.268 91.4407C128.37 91.3388 128.472 91.237 128.574 91.1351C129.186 90.5238 129.542 89.6578 129.542 88.6899C129.542 87.8748 129.288 87.1616 128.829 86.5503C128.676 86.3465 128.472 86.1428 128.268 85.939C127.911 85.6334 127.554 85.4296 127.095 85.2768V60.8757H97.4258C97.2729 60.5191 97.12 60.1115 96.967 59.7549C96.3043 58.1248 95.6926 56.4437 95.0298 54.8136C94.9279 54.5589 94.8259 54.3042 94.724 54.0495C94.673 53.9476 94.622 53.7948 94.571 53.6929H131.276C132.958 53.6929 134.385 54.6608 135.048 56.0871C135.099 56.189 135.15 56.3418 135.201 56.4437C135.201 56.4947 135.252 56.5456 135.252 56.6475C135.303 56.8003 135.303 56.9022 135.354 57.055C135.354 57.106 135.405 57.2079 135.405 57.2588C135.405 57.4116 135.456 57.5135 135.456 57.6663C135.456 57.7173 135.456 57.8192 135.456 57.8701V67.4471C135.303 67.7019 135.201 67.9566 135.099 68.2622C134.946 68.7716 134.844 69.332 134.844 69.9433C134.844 70.4527 134.946 70.9112 135.099 71.3697C135.15 71.5734 135.252 71.7772 135.354 71.981C135.405 72.0829 135.405 72.1338 135.456 72.2357V90.32C135.354 90.5238 135.201 90.6766 135.099 90.8804C135.048 90.9823 134.997 91.0332 134.946 91.1351C134.691 91.5936 134.487 92.052 134.334 92.5105C133.927 93.5803 133.672 94.8029 133.57 96.1783C133.519 96.6368 133.519 97.1462 133.519 97.6556C133.519 98.6745 133.621 99.6933 133.825 100.712C133.927 101.425 134.131 102.139 134.334 102.801C134.538 103.514 134.793 104.176 135.099 104.838C135.201 105.093 135.354 105.348 135.456 105.552V138.918C135.456 138.969 135.456 139.071 135.456 139.122C135.456 139.275 135.456 139.428 135.405 139.53C135.405 139.581 135.405 139.683 135.354 139.734C135.303 139.886 135.303 139.988 135.252 140.141C135.252 140.192 135.201 140.294 135.201 140.345C135.15 140.447 135.099 140.6 135.048 140.701C134.895 141.007 134.691 141.313 134.436 141.618C133.672 142.535 132.55 143.096 131.276 143.096H108.59C108.692 143.758 108.998 144.318 109.457 144.777C110.018 145.337 110.782 145.694 111.598 145.694H133.57C134.589 145.745 135.558 146.101 136.272 146.764Z" fill="black"/>
<path d="M95.0299 54.8645H67.6543L68.1131 53.6929H94.5711C94.6221 53.7948 94.673 53.9476 94.724 54.0495C94.826 54.3042 94.9279 54.5589 95.0299 54.8645Z" fill="black"/>
<path d="M135.456 90.3198V105.602C135.354 105.348 135.201 105.093 135.099 104.889C134.793 104.227 134.538 103.514 134.334 102.852V92.5613C134.487 92.0518 134.742 91.6443 134.946 91.1858C134.997 91.0839 135.048 90.9821 135.099 90.9311C135.252 90.6764 135.354 90.5236 135.456 90.3198Z" fill="black"/>
<path d="M135.456 67.4473V72.2358C135.405 72.1339 135.354 72.083 135.354 71.9811C135.252 71.7773 135.201 71.5736 135.099 71.3698C134.946 70.9113 134.844 70.4019 134.844 69.9434C134.844 69.3321 134.946 68.7718 135.099 68.2623C135.201 68.0076 135.303 67.702 135.456 67.4473Z" fill="black"/>
<path d="M96.9672 59.8061H65.6152L67.6544 54.8647H95.03C95.6927 56.4949 96.3044 58.176 96.9672 59.8061Z" fill="black"/>
<path d="M129.542 88.7409C129.542 89.6579 129.185 90.5239 128.573 91.1861C128.471 91.288 128.37 91.3899 128.268 91.4918V86.041C128.471 86.1938 128.675 86.3976 128.828 86.6523C129.287 87.2127 129.542 87.9259 129.542 88.7409Z" fill="black"/>
<path d="M134.334 92.5103V102.8C134.13 102.087 133.926 101.425 133.824 100.712C133.621 99.693 133.519 98.6742 133.519 97.6554C133.519 97.146 133.519 96.6365 133.57 96.1781C133.671 94.8026 133.926 93.631 134.334 92.5103Z" fill="black"/>
<path d="M216.97 125.317C218.603 125.317 219.927 123.994 219.927 122.362C219.927 120.731 218.603 119.408 216.97 119.408C215.337 119.408 214.014 120.731 214.014 122.362C214.014 123.994 215.337 125.317 216.97 125.317Z" fill="url(#paint6_linear_132_1461)"/>
<path d="M102.982 19.4599C105.544 19.4599 107.621 17.3844 107.621 14.8242C107.621 12.264 105.544 10.1885 102.982 10.1885C100.42 10.1885 98.3428 12.264 98.3428 14.8242C98.3428 17.3844 100.42 19.4599 102.982 19.4599Z" fill="url(#paint7_linear_132_1461)"/>
<path d="M40.7879 20.7334C42.8432 20.7334 44.5093 19.0685 44.5093 17.0146C44.5093 14.9608 42.8432 13.2959 40.7879 13.2959C38.7326 13.2959 37.0664 14.9608 37.0664 17.0146C37.0664 19.0685 38.7326 20.7334 40.7879 20.7334Z" fill="url(#paint8_linear_132_1461)"/>
<path d="M35.9451 167.242C37.578 167.242 38.9018 165.919 38.9018 164.287C38.9018 162.655 37.578 161.333 35.9451 161.333C34.3121 161.333 32.9883 162.655 32.9883 164.287C32.9883 165.919 34.3121 167.242 35.9451 167.242Z" fill="url(#paint9_linear_132_1461)"/>
<path d="M129.542 88.7406C129.542 89.6575 129.185 90.5235 128.574 91.1858C128.472 91.2877 128.37 91.3895 128.268 91.4914C127.911 91.7971 127.554 92.0008 127.095 92.1537C126.84 92.2555 126.586 92.3065 126.331 92.3065C126.229 92.3065 126.076 92.3065 125.974 92.3065C124.954 92.3065 123.986 91.848 123.374 91.1348C122.762 90.5235 122.405 89.6575 122.405 88.6896C122.405 87.8746 122.66 87.1614 123.119 86.5501C123.782 85.6841 124.801 85.0728 125.974 85.0728C126.127 85.0728 126.229 85.0728 126.331 85.0728C126.586 85.0728 126.84 85.1746 127.095 85.2256C127.503 85.3784 127.911 85.5822 128.268 85.8878C128.472 86.0407 128.676 86.2444 128.829 86.4991C129.287 87.2123 129.542 87.9255 129.542 88.7406Z" fill="url(#paint10_linear_132_1461)"/>
<path d="M41.145 77.7373H26.4121V80.641H41.145V77.7373Z" fill="black"/>
<path d="M55.0622 84.1558H26.4121V87.0594H55.0622V84.1558Z" fill="#5C5C5B"/>
<path d="M55.0622 88.7407H26.4121V91.6444H55.0622V88.7407Z" fill="#5C5C5B"/>
<path d="M55.0622 93.2744H26.4121V96.1781H55.0622V93.2744Z" fill="#5C5C5B"/>
<path d="M55.0622 97.8594H26.4121V100.763H55.0622V97.8594Z" fill="#5C5C5B"/>
<path d="M100.025 67.4471C99.4643 66.0208 98.9035 64.6453 98.3427 63.219C98.2408 62.9643 98.1388 62.7095 98.0369 62.4548C97.8329 61.9454 97.629 61.436 97.4251 60.9775H78.8179L79.3786 62.4548L81.2139 67.4981L82.8962 72.0319H101.809C101.198 70.5036 100.586 68.9754 100.025 67.4471ZM100.025 67.4471C99.4643 66.0208 98.9035 64.6453 98.3427 63.219C98.2408 62.9643 98.1388 62.7095 98.0369 62.4548C97.8329 61.9454 97.629 61.436 97.4251 60.9775H78.8179L79.3786 62.4548L81.2139 67.4981L82.8962 72.0319H101.809C101.198 70.5036 100.586 68.9754 100.025 67.4471ZM100.025 67.4471C99.4643 66.0208 98.9035 64.6453 98.3427 63.219C98.2408 62.9643 98.1388 62.7095 98.0369 62.4548C97.8329 61.9454 97.629 61.436 97.4251 60.9775H78.8179L79.3786 62.4548L81.2139 67.4981L82.8962 72.0319H101.809C101.198 70.5036 100.586 68.9754 100.025 67.4471ZM100.025 67.4471C99.4643 66.0208 98.9035 64.6453 98.3427 63.219C98.2408 62.9643 98.1388 62.7095 98.0369 62.4548C97.8329 61.9454 97.629 61.436 97.4251 60.9775H78.8179L79.3786 62.4548L81.2139 67.4981L82.8962 72.0319H101.809C101.198 70.5036 100.586 68.9754 100.025 67.4471ZM100.025 67.4471C99.4643 66.0208 98.9035 64.6453 98.3427 63.219C98.2408 62.9643 98.1388 62.7095 98.0369 62.4548C97.8329 61.9454 97.629 61.436 97.4251 60.9775H78.8179L79.3786 62.4548L81.2139 67.4981L82.8962 72.0319H101.809C101.198 70.5036 100.586 68.9754 100.025 67.4471ZM100.025 67.4471C99.4643 66.0208 98.9035 64.6453 98.3427 63.219C98.2408 62.9643 98.1388 62.7095 98.0369 62.4548C97.8329 61.9454 97.629 61.436 97.4251 60.9775H78.8179L79.3786 62.4548L81.2139 67.4981L82.8962 72.0319H101.809C101.198 70.5036 100.586 68.9754 100.025 67.4471ZM100.025 67.4471C99.4643 66.0208 98.9035 64.6453 98.3427 63.219H97.5271L97.2212 62.4548L96.7624 61.2322C96.7114 61.1304 96.6604 61.0285 96.6604 60.9266H78.8688L79.4296 62.4039L81.2648 67.4471L82.9471 71.981H101.86C101.198 70.5036 100.586 68.9754 100.025 67.4471ZM100.025 67.4471C99.4643 66.0208 98.9035 64.6453 98.3427 63.219H97.5271L97.2212 62.4548L96.7624 61.2322C96.7114 61.1304 96.6604 61.0285 96.6604 60.9266H78.8688L79.4296 62.4039L81.2648 67.4471L82.9471 71.981H101.86C101.198 70.5036 100.586 68.9754 100.025 67.4471ZM100.025 67.4471C99.4643 66.0208 98.9035 64.6453 98.3427 63.219H97.5271L97.2212 62.4548L96.7624 61.2322C96.7114 61.1304 96.6604 61.0285 96.6604 60.9266H78.8688L79.4296 62.4039L81.2648 67.4471L82.9471 71.981H101.86C101.198 70.5036 100.586 68.9754 100.025 67.4471ZM100.025 67.4471C99.4643 66.0208 98.9035 64.6453 98.3427 63.219H97.5271L97.2212 62.4548L96.7624 61.2322C96.7114 61.1304 96.6604 61.0285 96.6604 60.9266H78.8688L79.4296 62.4039L81.2648 67.4471L82.9471 71.981H101.86C101.198 70.5036 100.586 68.9754 100.025 67.4471ZM100.025 67.4471C99.4643 66.0208 98.9035 64.6453 98.3427 63.219H97.5271L97.2212 62.4548L96.7624 61.2322C96.7114 61.1304 96.6604 61.0285 96.6604 60.9266H78.8688L79.4296 62.4039L81.2648 67.4471L82.9471 71.981H101.86C101.198 70.5036 100.586 68.9754 100.025 67.4471ZM100.025 67.4471C99.4643 66.0208 98.9035 64.6453 98.3427 63.219H97.5271L97.2212 62.4548L96.7624 61.2322C96.7114 61.1304 96.6604 61.0285 96.6604 60.9266H78.8688L79.4296 62.4039L81.2648 67.4471L82.9471 71.981H101.86C101.198 70.5036 100.586 68.9754 100.025 67.4471ZM100.025 67.4471C99.4643 66.0208 98.9035 64.6453 98.3427 63.219H97.5271L97.2212 62.4548L96.7624 61.2322C96.7114 61.1304 96.6604 61.0285 96.6604 60.9266H78.8688L79.4296 62.4039L81.2648 67.4471L82.9471 71.981H101.86C101.198 70.5036 100.586 68.9754 100.025 67.4471ZM118.377 105.755C116.287 104.838 114.911 103.361 113.534 100.712C112.872 99.4895 112.209 97.9613 111.444 96.1783C111.189 95.567 110.934 94.9557 110.68 94.2935C110.476 93.7331 110.221 93.1727 110.017 92.6633C109.813 92.1539 109.609 91.6954 109.405 91.186C108.793 89.6578 108.182 88.1804 107.57 86.6522C106.907 84.9711 106.244 83.29 105.582 81.6089C104.97 80.0807 104.358 78.6034 103.746 77.0751C103.084 75.3941 102.421 73.713 101.758 72.0319C101.147 70.5036 100.535 69.0263 99.974 67.4981C99.4133 66.0717 98.8525 64.6963 98.2917 63.2699C98.1898 63.0152 98.0878 62.7605 97.9859 62.5058C97.782 61.9964 97.578 61.4869 97.3741 61.0285C97.2212 60.6719 97.0683 60.2643 96.9153 59.9077C96.2526 58.2776 95.6409 56.5965 94.9781 54.9664C94.8762 54.7117 94.7742 54.457 94.6722 54.2023C94.6213 54.1004 94.5703 53.9476 94.5193 53.8457C93.6017 51.5533 92.7351 49.3119 91.8684 47.0195C91.2057 45.3384 90.543 43.6573 89.8802 41.9762C88.9626 39.6329 88.096 37.2896 87.1784 34.9463C86.6686 33.6218 86.1588 32.2464 85.649 30.9219L76.9826 32.3482L73.0573 41.7725L70.9671 46.8157L68.4692 52.8778L68.1633 53.6419L67.7045 54.8136L65.6653 59.7549L65.2065 60.8756L64.9007 61.6398V61.6907L64.5948 62.4039L62.5047 67.4471L55.1637 85.1239L54.552 86.6522L54.399 87.0597L53.7873 88.537L53.7363 88.6899L53.0226 90.4219L52.5128 91.5935L51.8501 93.2237L50.9325 95.5161C50.8305 95.7198 50.7795 95.9236 50.6776 96.1274C50.4227 96.6877 50.2188 97.2481 49.9639 97.7575C49.4541 98.8782 49.0463 99.8461 48.5875 100.661C45.8346 105.959 43.5406 106.367 36.0977 107.182V113.6H69.3868V107.284C59.7008 106.825 57.8146 105.195 59.344 100.254C60.5675 95.8727 62.2498 91.5426 63.1164 88.9446H88.7077C88.9626 89.6578 89.2685 90.4219 89.5744 91.1351C90.0842 92.4595 90.5939 93.835 91.1037 95.1595C91.2057 95.5161 91.3586 95.8217 91.4606 96.1783C92.0723 97.8084 92.6331 99.3876 93.0919 100.712C93.1429 100.865 93.1939 100.967 93.2448 101.069C94.0605 103.565 94.2134 104.889 93.0919 105.704C92.1233 106.418 90.2881 106.825 87.2294 107.233V113.6H125.565V107.284C122.405 106.927 120.111 106.519 118.377 105.755ZM72.6494 62.4548C72.8533 61.9454 73.0573 61.436 73.2612 60.9775C73.4141 60.6209 73.567 60.2134 73.72 59.8568C74.3827 58.1757 75.0454 56.5456 75.6572 54.9155C75.8101 54.5079 75.963 54.1513 76.116 53.7438C76.116 53.6929 76.167 53.6419 76.167 53.6419L76.2179 53.7438L76.6258 54.9155L78.461 59.8568L78.8688 60.9775L79.4296 62.4548L81.2648 67.4981L82.9471 72.0319L84.7824 77.0751L86.3117 81.3033H65.6144C66.0732 79.9279 66.583 78.5015 67.0927 77.0751C67.7045 75.3941 68.3162 73.713 68.979 72.0319C69.5397 70.5036 70.1515 69.0263 70.7122 67.4981C71.375 65.7661 72.0377 64.085 72.6494 62.4548ZM100.025 67.4471C99.4643 66.0208 98.9035 64.6453 98.3427 63.219H97.5271L97.2212 62.4548L96.7624 61.2322C96.7114 61.1304 96.6604 61.0285 96.6604 60.9266H78.8688L79.4296 62.4039L81.2648 67.4471L82.9471 71.981H101.86C101.198 70.5036 100.586 68.9754 100.025 67.4471ZM100.025 67.4471C99.4643 66.0208 98.9035 64.6453 98.3427 63.219H97.5271L97.2212 62.4548L96.7624 61.2322C96.7114 61.1304 96.6604 61.0285 96.6604 60.9266H78.8688L79.4296 62.4039L81.2648 67.4471L82.9471 71.981H101.86C101.198 70.5036 100.586 68.9754 100.025 67.4471ZM100.025 67.4471C99.4643 66.0208 98.9035 64.6453 98.3427 63.219H97.5271L97.2212 62.4548L96.7624 61.2322C96.7114 61.1304 96.6604 61.0285 96.6604 60.9266H78.8688L79.4296 62.4039L81.2648 67.4471L82.9471 71.981H101.86C101.198 70.5036 100.586 68.9754 100.025 67.4471ZM100.025 67.4471C99.4643 66.0208 98.9035 64.6453 98.3427 63.219H97.5271L97.2212 62.4548L96.7624 61.2322C96.7114 61.1304 96.6604 61.0285 96.6604 60.9266H78.8688L79.4296 62.4039L81.2648 67.4471L82.9471 71.981H101.86C101.198 70.5036 100.586 68.9754 100.025 67.4471ZM100.025 67.4471C99.4643 66.0208 98.9035 64.6453 98.3427 63.219H97.5271L97.2212 62.4548L96.7624 61.2322C96.7114 61.1304 96.6604 61.0285 96.6604 60.9266H78.8688L79.4296 62.4039L81.2648 67.4471L82.9471 71.981H101.86C101.198 70.5036 100.586 68.9754 100.025 67.4471ZM100.025 67.4471C99.4643 66.0208 98.9035 64.6453 98.3427 63.219H97.5271L97.2212 62.4548L96.7624 61.2322C96.7114 61.1304 96.6604 61.0285 96.6604 60.9266H78.8688L79.4296 62.4039L81.2648 67.4471L82.9471 71.981H101.86C101.198 70.5036 100.586 68.9754 100.025 67.4471ZM100.025 67.4471C99.4643 66.0208 98.9035 64.6453 98.3427 63.219H97.5271L97.2212 62.4548L96.7624 61.2322C96.7114 61.1304 96.6604 61.0285 96.6604 60.9266H78.8688L79.4296 62.4039L81.2648 67.4471L82.9471 71.981H101.86C101.198 70.5036 100.586 68.9754 100.025 67.4471ZM100.025 67.4471C99.4643 66.0208 98.9035 64.6453 98.3427 63.219H97.5271L97.2212 62.4548L96.7624 61.2322C96.7114 61.1304 96.6604 61.0285 96.6604 60.9266H78.8688L79.4296 62.4039L81.2648 67.4471L82.9471 71.981H101.86C101.198 70.5036 100.586 68.9754 100.025 67.4471ZM100.025 67.4471C99.4643 66.0208 98.9035 64.6453 98.3427 63.219C98.2408 62.9643 98.1388 62.7095 98.0369 62.4548C97.8329 61.9454 97.629 61.436 97.4251 60.9775H78.8179L79.3786 62.4548L81.2139 67.4981L82.8962 72.0319H101.809C101.198 70.5036 100.586 68.9754 100.025 67.4471ZM100.025 67.4471C99.4643 66.0208 98.9035 64.6453 98.3427 63.219C98.2408 62.9643 98.1388 62.7095 98.0369 62.4548C97.8329 61.9454 97.629 61.436 97.4251 60.9775H78.8179L79.3786 62.4548L81.2139 67.4981L82.8962 72.0319H101.809C101.198 70.5036 100.586 68.9754 100.025 67.4471ZM100.025 67.4471C99.4643 66.0208 98.9035 64.6453 98.3427 63.219C98.2408 62.9643 98.1388 62.7095 98.0369 62.4548C97.8329 61.9454 97.629 61.436 97.4251 60.9775H78.8179L79.3786 62.4548L81.2139 67.4981L82.8962 72.0319H101.809C101.198 70.5036 100.586 68.9754 100.025 67.4471ZM100.025 67.4471C99.4643 66.0208 98.9035 64.6453 98.3427 63.219C98.2408 62.9643 98.1388 62.7095 98.0369 62.4548C97.8329 61.9454 97.629 61.436 97.4251 60.9775H78.8179L79.3786 62.4548L81.2139 67.4981L82.8962 72.0319H101.809C101.198 70.5036 100.586 68.9754 100.025 67.4471ZM100.025 67.4471C99.4643 66.0208 98.9035 64.6453 98.3427 63.219C98.2408 62.9643 98.1388 62.7095 98.0369 62.4548C97.8329 61.9454 97.629 61.436 97.4251 60.9775H78.8179L79.3786 62.4548L81.2139 67.4981L82.8962 72.0319H101.809C101.198 70.5036 100.586 68.9754 100.025 67.4471ZM100.025 67.4471C99.4643 66.0208 98.9035 64.6453 98.3427 63.219C98.2408 62.9643 98.1388 62.7095 98.0369 62.4548C97.8329 61.9454 97.629 61.436 97.4251 60.9775H78.8179L79.3786 62.4548L81.2139 67.4981L82.8962 72.0319H101.809C101.198 70.5036 100.586 68.9754 100.025 67.4471Z" fill="#7395A5"/>
<path d="M139.738 86.6013C137.903 87.6711 136.475 88.8427 135.507 90.32C135.405 90.5238 135.252 90.6766 135.15 90.8804C135.099 90.9823 135.048 91.0332 134.997 91.1351H152.381C153.4 89.1993 155.337 87.722 157.835 86.6013H139.738ZM139.738 86.6013C137.903 87.6711 136.475 88.8427 135.507 90.32C135.405 90.5238 135.252 90.6766 135.15 90.8804C135.099 90.9823 135.048 91.0332 134.997 91.1351H152.381C153.4 89.1993 155.337 87.722 157.835 86.6013H139.738ZM139.738 86.6013C137.903 87.6711 136.475 88.8427 135.507 90.32C135.405 90.5238 135.252 90.6766 135.15 90.8804C135.099 90.9823 135.048 91.0332 134.997 91.1351H152.381C153.4 89.1993 155.337 87.722 157.835 86.6013H139.738ZM139.738 86.6013C137.903 87.6711 136.475 88.8427 135.507 90.32C135.405 90.5238 135.252 90.6766 135.15 90.8804C135.099 90.9823 135.048 91.0332 134.997 91.1351H152.381C153.4 89.1993 155.337 87.722 157.835 86.6013H139.738ZM139.738 86.6013C137.903 87.6711 136.475 88.8427 135.507 90.32C135.405 90.5238 135.252 90.6766 135.15 90.8804C135.099 90.9823 135.048 91.0332 134.997 91.1351H152.381C153.4 89.1993 155.337 87.722 157.835 86.6013H139.738ZM139.738 86.6013C137.903 87.6711 136.475 88.8427 135.507 90.32C135.405 90.5238 135.252 90.6766 135.15 90.8804C135.099 90.9823 135.048 91.0332 134.997 91.1351H152.381C153.4 89.1993 155.337 87.722 157.835 86.6013H139.738ZM139.738 86.6013C137.903 87.6711 136.475 88.8427 135.507 90.32C135.405 90.5238 135.252 90.6766 135.15 90.8804C135.099 90.9823 135.048 91.0332 134.997 91.1351H152.381C153.4 89.1993 155.337 87.722 157.835 86.6013H139.738ZM139.738 86.6013C137.903 87.6711 136.475 88.8427 135.507 90.32C135.405 90.5238 135.252 90.6766 135.15 90.8804C135.099 90.9823 135.048 91.0332 134.997 91.1351H152.381C153.4 89.1993 155.337 87.722 157.835 86.6013H139.738ZM139.738 86.6013C137.903 87.6711 136.475 88.8427 135.507 90.32C135.405 90.5238 135.252 90.6766 135.15 90.8804C135.099 90.9823 135.048 91.0332 134.997 91.1351H152.381C153.4 89.1993 155.337 87.722 157.835 86.6013H139.738ZM139.738 86.6013C137.903 87.6711 136.475 88.8427 135.507 90.32C135.405 90.5238 135.252 90.6766 135.15 90.8804C135.099 90.9823 135.048 91.0332 134.997 91.1351H152.381C153.4 89.1993 155.337 87.722 157.835 86.6013H139.738ZM191.481 101.833C189.901 102.444 188.27 103.055 186.893 103.055C185.211 103.055 183.223 101.578 182.917 96.2293C182.866 95.8218 182.866 95.3633 182.866 94.8539V75.5469C182.866 74.3753 182.815 73.2036 182.713 72.0319C182.56 70.4527 182.305 68.9245 181.846 67.4981C181.336 65.7152 180.521 64.0341 179.45 62.4549C178.431 60.9776 177.105 59.6531 175.423 58.4814C171.396 55.5778 167.062 54.457 161.659 54.457C154.675 55.9853 146.365 59.6531 141.471 62.4549C140.706 62.9134 139.993 63.3209 139.432 63.7284C137.597 65.0529 136.169 66.0718 135.456 67.4472C135.303 67.7019 135.201 67.9566 135.099 68.2623C134.946 68.7717 134.844 69.332 134.844 69.9433C134.844 70.4528 134.946 70.9112 135.099 71.3697C135.15 71.5735 135.252 71.7772 135.354 71.981C135.405 72.0829 135.405 72.1338 135.456 72.2357C136.883 74.9866 140.604 76.9733 143.051 76.9733C145.957 76.9733 148.251 76.1073 149.22 72.7451C149.271 72.4904 149.373 72.2866 149.424 72.0319C149.832 70.5037 150.29 68.9245 150.851 67.4981C151.361 66.1736 151.922 65.002 152.737 64.085C153.349 63.4228 154.216 62.8115 155.235 62.4549C156 62.1492 156.867 61.9964 157.733 61.9964C159.008 61.9964 160.078 62.1492 161.047 62.4549C163.494 63.219 164.972 65.002 165.686 67.4981C166.043 68.7207 166.196 70.0962 166.196 71.6244V75.6998C165.737 76.1073 165.074 76.5658 164.208 77.0242C161.557 78.4506 157.223 79.9789 152.686 81.5581C149.832 82.526 146.926 83.5448 144.275 84.5127C142.542 85.1749 141.012 85.8372 139.738 86.6013C137.903 87.6711 136.475 88.8427 135.507 90.32C135.405 90.5238 135.252 90.6766 135.15 90.8804C135.099 90.9823 135.048 91.0332 134.997 91.1351C134.742 91.5936 134.538 92.0521 134.385 92.5105C133.977 93.5803 133.722 94.8029 133.62 96.1783C133.569 96.6368 133.569 97.1462 133.569 97.6557C133.569 98.6745 133.671 99.6933 133.875 100.712C133.977 101.425 134.181 102.139 134.385 102.801C134.589 103.514 134.844 104.176 135.15 104.838C135.252 105.093 135.405 105.348 135.507 105.552C135.507 105.603 135.558 105.654 135.608 105.704C136.475 107.386 137.597 108.914 139.024 110.238C142.032 113.142 146.263 115.027 151.514 115.027C153.094 115.027 157.223 112.785 161.455 110.238C163.341 109.118 165.227 107.946 166.96 106.876C167.317 107.844 167.827 109.067 168.541 110.238C169.051 111.053 169.713 111.767 170.478 112.378C172.313 113.906 174.76 115.027 178.635 115.027L187.76 110.238L193.316 107.335L191.481 101.833ZM158.09 86.4994C160.792 85.2259 163.545 83.8504 166.196 82.4241V101.069C163.494 103.361 160.741 103.972 159.008 103.972C157.427 103.972 154.827 103.106 153.145 100.712C152.33 99.5914 151.718 98.0632 151.565 96.1783C151.514 95.7708 151.514 95.4142 151.514 94.9557C151.514 93.4784 151.82 92.2049 152.431 91.1351C153.451 89.1993 155.388 87.722 157.886 86.6013C157.886 86.5504 157.988 86.5504 158.09 86.4994ZM139.738 86.6013C137.903 87.6711 136.475 88.8427 135.507 90.32C135.405 90.5238 135.252 90.6766 135.15 90.8804C135.099 90.9823 135.048 91.0332 134.997 91.1351H152.381C153.4 89.1993 155.337 87.722 157.835 86.6013H139.738ZM139.738 86.6013C137.903 87.6711 136.475 88.8427 135.507 90.32C135.405 90.5238 135.252 90.6766 135.15 90.8804C135.099 90.9823 135.048 91.0332 134.997 91.1351H152.381C153.4 89.1993 155.337 87.722 157.835 86.6013H139.738ZM139.738 86.6013C137.903 87.6711 136.475 88.8427 135.507 90.32C135.405 90.5238 135.252 90.6766 135.15 90.8804C135.099 90.9823 135.048 91.0332 134.997 91.1351H152.381C153.4 89.1993 155.337 87.722 157.835 86.6013H139.738ZM139.738 86.6013C137.903 87.6711 136.475 88.8427 135.507 90.32C135.405 90.5238 135.252 90.6766 135.15 90.8804C135.099 90.9823 135.048 91.0332 134.997 91.1351H152.381C153.4 89.1993 155.337 87.722 157.835 86.6013H139.738ZM139.738 86.6013C137.903 87.6711 136.475 88.8427 135.507 90.32C135.405 90.5238 135.252 90.6766 135.15 90.8804C135.099 90.9823 135.048 91.0332 134.997 91.1351H152.381C153.4 89.1993 155.337 87.722 157.835 86.6013H139.738ZM139.738 86.6013C137.903 87.6711 136.475 88.8427 135.507 90.32C135.405 90.5238 135.252 90.6766 135.15 90.8804C135.099 90.9823 135.048 91.0332 134.997 91.1351H152.381C153.4 89.1993 155.337 87.722 157.835 86.6013H139.738ZM139.738 86.6013C137.903 87.6711 136.475 88.8427 135.507 90.32C135.405 90.5238 135.252 90.6766 135.15 90.8804C135.099 90.9823 135.048 91.0332 134.997 91.1351H152.381C153.4 89.1993 155.337 87.722 157.835 86.6013H139.738ZM139.738 86.6013C137.903 87.6711 136.475 88.8427 135.507 90.32C135.405 90.5238 135.252 90.6766 135.15 90.8804C135.099 90.9823 135.048 91.0332 134.997 91.1351H152.381C153.4 89.1993 155.337 87.722 157.835 86.6013H139.738ZM139.738 86.6013C137.903 87.6711 136.475 88.8427 135.507 90.32C135.405 90.5238 135.252 90.6766 135.15 90.8804C135.099 90.9823 135.048 91.0332 134.997 91.1351H152.381C153.4 89.1993 155.337 87.722 157.835 86.6013H139.738Z" fill="#7395A5"/>
<path d="M111.852 238C113.908 238 115.574 236.335 115.574 234.281C115.574 232.227 113.908 230.562 111.852 230.562C109.797 230.562 108.131 232.227 108.131 234.281C108.131 236.335 109.797 238 111.852 238Z" fill="url(#paint11_linear_132_1461)"/>
<path d="M91.053 208.046C89.8295 207.842 88.657 208.199 87.8413 208.912C86.9747 209.676 85.8022 209.931 84.7316 209.574C84.1199 209.371 83.4571 209.32 82.7944 209.371C80.5004 209.574 78.6651 211.408 78.4102 213.701C78.1044 216.655 80.3984 219.151 83.2532 219.151C84.9355 219.151 86.3629 218.336 87.2805 217.063C87.9433 216.146 88.9628 215.535 90.1353 215.586C90.2373 215.586 90.2883 215.586 90.3902 215.586C92.7353 215.586 94.6215 213.446 94.1117 211.001C93.7548 209.523 92.5314 208.352 91.053 208.046Z" fill="url(#paint12_linear_132_1461)"/>
<path d="M69.0296 140.752C70.7471 140.752 72.1393 139.361 72.1393 137.645C72.1393 135.928 70.7471 134.537 69.0296 134.537C67.3122 134.537 65.9199 135.928 65.9199 137.645C65.9199 139.361 67.3122 140.752 69.0296 140.752Z" fill="black"/>
<path d="M87.2293 34.7934C86.7196 33.4689 86.2098 32.0935 85.7 30.769L76.9826 32.3482L73.0572 41.7725H62.4027V46.8666H70.9671L68.4692 52.9287L68.1633 53.6928H54.501V15.5884H93.0409C94.6722 22.4146 92.3782 29.6993 87.2293 34.7934Z" fill="white"/>
<defs>
<linearGradient id="paint0_linear_132_1461" x1="21.8384" y1="200.499" x2="115.658" y2="200.499" gradientUnits="userSpaceOnUse">
<stop stop-color="#B51C29"/>
<stop offset="1" stop-color="#6C0F3A"/>
</linearGradient>
<linearGradient id="paint1_linear_132_1461" x1="181.308" y1="159.89" x2="231.319" y2="159.89" gradientUnits="userSpaceOnUse">
<stop stop-color="#B51C29"/>
<stop offset="1" stop-color="#6C0F3A"/>
</linearGradient>
<linearGradient id="paint2_linear_132_1461" x1="29.5091" y1="49.1065" x2="87.2259" y2="49.1065" gradientUnits="userSpaceOnUse">
<stop stop-color="#B51C29"/>
<stop offset="1" stop-color="#6C0F3A"/>
</linearGradient>
<linearGradient id="paint3_linear_132_1461" x1="26.0268" y1="27.2651" x2="92.9986" y2="27.2651" gradientUnits="userSpaceOnUse">
<stop stop-color="#B51C29"/>
<stop offset="1" stop-color="#6C0F3A"/>
</linearGradient>
<linearGradient id="paint4_linear_132_1461" x1="9.66463" y1="69.2299" x2="30.181" y2="69.2299" gradientUnits="userSpaceOnUse">
<stop stop-color="#B51C29"/>
<stop offset="1" stop-color="#6C0F3A"/>
</linearGradient>
<linearGradient id="paint5_linear_132_1461" x1="36.9437" y1="108.812" x2="127.111" y2="108.812" gradientUnits="userSpaceOnUse">
<stop stop-color="#B51C29"/>
<stop offset="1" stop-color="#6C0F3A"/>
</linearGradient>
<linearGradient id="paint6_linear_132_1461" x1="214.007" y1="122.343" x2="219.967" y2="122.343" gradientUnits="userSpaceOnUse">
<stop stop-color="#B51C29"/>
<stop offset="1" stop-color="#6C0F3A"/>
</linearGradient>
<linearGradient id="paint7_linear_132_1461" x1="98.347" y1="14.8017" x2="107.579" y2="14.8017" gradientUnits="userSpaceOnUse">
<stop stop-color="#B51C29"/>
<stop offset="1" stop-color="#6C0F3A"/>
</linearGradient>
<linearGradient id="paint8_linear_132_1461" x1="37.0265" y1="17.0186" x2="44.5097" y2="17.0186" gradientUnits="userSpaceOnUse">
<stop stop-color="#B51C29"/>
<stop offset="1" stop-color="#6C0F3A"/>
</linearGradient>
<linearGradient id="paint9_linear_132_1461" x1="32.9633" y1="164.263" x2="38.9234" y2="164.263" gradientUnits="userSpaceOnUse">
<stop stop-color="#B51C29"/>
<stop offset="1" stop-color="#6C0F3A"/>
</linearGradient>
<linearGradient id="paint10_linear_132_1461" x1="122.376" y1="88.7274" x2="129.522" y2="88.7274" gradientUnits="userSpaceOnUse">
<stop stop-color="#B51C29"/>
<stop offset="1" stop-color="#6C0F3A"/>
</linearGradient>
<linearGradient id="paint11_linear_132_1461" x1="108.119" y1="234.286" x2="115.602" y2="234.286" gradientUnits="userSpaceOnUse">
<stop stop-color="#B51C29"/>
<stop offset="1" stop-color="#6C0F3A"/>
</linearGradient>
<linearGradient id="paint12_linear_132_1461" x1="78.3621" y1="213.569" x2="94.1371" y2="213.569" gradientUnits="userSpaceOnUse">
<stop stop-color="#B51C29"/>
<stop offset="1" stop-color="#6C0F3A"/>
</linearGradient>
</defs>
</svg>
