<svg width="253" height="205" viewBox="0 0 253 205" fill="none" xmlns="http://www.w3.org/2000/svg">
<path d="M224.657 82.2646L183.914 122.922" stroke="#504F4E" stroke-width="4" stroke-miterlimit="10" stroke-linecap="round"/>
<path d="M179.947 126.937C176.641 133.341 171.453 137.712 165.298 138.88C165.095 138.931 164.891 138.931 164.688 138.982C143.884 143.099 129.489 158.701 132.49 173.795C135.491 188.889 154.769 197.834 175.573 193.718C190.527 190.77 202.175 181.876 206.397 171.457C207.516 168.764 209.55 166.883 211.992 166.426C212.043 166.426 212.094 166.426 212.144 166.375C228.319 163.173 239.001 148.232 235.949 132.985C232.897 117.738 217.333 107.981 201.158 111.182C191.646 113.114 183.965 119.161 179.947 126.937Z" fill="url(#paint0_linear_132_1567)"/>
<path d="M134.982 15.6878C129.896 14.6206 125.114 16.3485 121.656 19.7028C118.044 23.2095 113.212 24.4292 108.634 22.8029C106.142 21.9389 103.395 21.5832 100.598 21.8881C91.1877 22.9046 83.4563 31.4427 82.3881 42.0137C81.0656 55.7865 90.6282 67.3739 102.581 67.3739C109.499 67.3739 115.552 63.5114 119.214 57.6161C121.91 53.2454 126.284 50.501 131.015 50.8059C131.32 50.8059 131.676 50.8567 131.981 50.8567C141.747 50.8567 149.479 40.8956 147.495 29.5623C146.274 22.5996 141.188 17.0092 134.982 15.6878Z" fill="#7395A5"/>
<path d="M10.415 98.0195L89.4079 19.0928L198.767 128.36L128.268 198.851C123.589 203.526 116.061 203.526 111.381 198.851L10.415 98.0195Z" fill="white"/>
<path d="M111.279 198.901C110.466 197.987 115.298 200.223 118.299 196.716C121.3 193.209 123.487 189.855 123.487 189.855C123.487 189.855 130.049 194.581 127.811 199.359C125.572 204.136 115.145 203.374 111.279 198.901Z" fill="#7E7E7D"/>
<path d="M128.268 198.851C129.642 194.378 123.538 189.804 123.538 189.804C123.538 189.804 116.62 202.408 111.076 198.596" stroke="black" stroke-width="2.2709" stroke-miterlimit="10"/>
<path d="M10.415 98.0195L89.4079 19.0928L198.767 128.36L128.268 198.851C123.589 203.526 116.061 203.526 111.381 198.851L10.415 98.0195Z" stroke="black" stroke-width="2.2709" stroke-miterlimit="10"/>
<path d="M148.818 141.93L122.521 168.154" stroke="#504F4E" stroke-width="4" stroke-miterlimit="10" stroke-linecap="round"/>
<path d="M152.175 2.88037L125.878 29.1554" stroke="#504F4E" stroke-width="4" stroke-miterlimit="10" stroke-linecap="round"/>
<path d="M84.779 139.389C84.7281 139.389 84.7281 139.389 84.779 139.389C82.4901 139.389 80.7607 137.407 81.0659 135.171C81.2185 134.053 81.3202 132.884 81.3202 131.766C81.3202 116.722 67.2307 104.576 49.7841 104.576C32.3376 104.576 18.248 116.773 18.248 131.766C18.248 138.677 21.1982 144.928 26.1321 149.757C28.8279 152.399 28.4718 156.77 25.5217 159.108C23.0293 161.039 21.6051 163.479 21.6051 166.121C21.6051 172.576 30.4047 177.81 41.2897 177.81C47.1392 177.81 52.4291 176.286 56.0405 173.846C58.7363 172.017 62.1442 171.61 65.1453 172.881C70.6386 175.218 77.4036 176.54 84.779 176.54C102.938 176.54 117.688 168.205 117.688 157.939C117.638 147.724 102.938 139.389 84.779 139.389Z" fill="url(#paint1_linear_132_1567)"/>
<path d="M96.4269 50.6025C92.256 48.1122 89.5093 44.3514 88.8989 40.0823C88.8989 39.9299 88.848 39.8282 88.848 39.6758C86.7117 25.1915 76.7422 14.7221 66.5693 16.1959C56.3964 17.7206 49.8857 30.6294 52.022 45.1137C53.5479 55.5323 59.143 63.8671 65.9589 67.1705C67.7392 68.0345 68.9091 69.5084 69.1634 71.1855C69.1634 71.2363 69.1634 71.2363 69.1634 71.2871C70.8419 82.5696 80.5062 90.4471 90.73 88.9224C100.954 87.3977 107.922 77.03 106.244 65.7983C105.328 59.1406 101.513 53.601 96.4269 50.6025Z" fill="url(#paint2_linear_132_1567)"/>
<path d="M225.013 172.575C226.755 172.575 228.167 171.165 228.167 169.424C228.167 167.684 226.755 166.273 225.013 166.273C223.271 166.273 221.859 167.684 221.859 169.424C221.859 171.165 223.271 172.575 225.013 172.575Z" fill="url(#paint3_linear_132_1567)"/>
<path d="M114.128 17.1613C115.87 17.1613 117.282 15.7506 117.282 14.0103C117.282 12.2701 115.87 10.8594 114.128 10.8594C112.387 10.8594 110.975 12.2701 110.975 14.0103C110.975 15.7506 112.387 17.1613 114.128 17.1613Z" fill="#7395A5"/>
<path d="M212.805 177.353C214.996 177.353 216.773 175.578 216.773 173.389C216.773 171.199 214.996 169.425 212.805 169.425C210.614 169.425 208.838 171.199 208.838 173.389C208.838 175.578 210.614 177.353 212.805 177.353Z" fill="url(#paint4_linear_132_1567)"/>
<path d="M107.108 40.2349C109.299 40.2349 111.076 38.4601 111.076 36.2708C111.076 34.0814 109.299 32.3066 107.108 32.3066C104.917 32.3066 103.141 34.0814 103.141 36.2708C103.141 38.4601 104.917 40.2349 107.108 40.2349Z" fill="url(#paint5_linear_132_1567)"/>
<path d="M62.9579 193.108C66.8626 193.108 70.0281 189.945 70.0281 186.043C70.0281 182.142 66.8626 178.979 62.9579 178.979C59.0531 178.979 55.8877 182.142 55.8877 186.043C55.8877 189.945 59.0531 193.108 62.9579 193.108Z" fill="url(#paint6_linear_132_1567)"/>
<path d="M244.24 153.771C243.477 154.127 235.745 155.194 232.338 155.042C231.269 155.245 231.625 153.365 231.575 152.501C230.608 137.661 228.268 131.816 213.925 131.816C208.431 131.816 204.565 132.528 201.971 134.459C198.004 137.356 196.122 143.861 195.715 151.738C195.715 152.145 190.73 151.687 188.95 151.637C187.17 151.586 166.264 151.027 161.737 151.027C157.21 151.027 96.8849 151.23 94.5452 151.23C94.596 144.776 92.9175 134.611 82.6428 134.611C82.6428 134.611 76.59 134.51 74.6571 134.56C72.7751 134.611 64.4842 135.119 62.9582 151.078C59.2451 151.078 42.0528 149.604 41.239 149.553C40.4252 149.502 39.7639 149.502 39.7639 148.74C39.7639 147.977 39.6113 147.164 40.2217 146.859C40.8321 146.504 40.8321 146.504 40.8321 146.504C40.8321 146.504 38.0854 137.508 40.2217 130.8C40.3743 130.8 41.1881 130.698 41.1881 130.698C41.1881 130.698 40.5778 106.964 41.239 92.5813C41.3916 89.1762 42.7141 72.1 42.9684 71.4393C42.7649 70.2704 42.6124 70.6262 42.7141 69.3556C42.7649 68.1359 43.6296 67.4244 44.8504 67.2211C46.0711 67.0178 50.4964 66.8145 50.4964 66.8145C52.7853 66.8145 162.297 66.7129 169.927 67.1195C177.607 67.526 191.9 80.0791 195.817 83.5858C199.733 87.0925 222.419 109.302 222.826 109.607C223.233 109.861 223.385 111.081 224.657 111.589C225.369 111.894 226.997 112.402 227.607 112.656C228.218 112.91 234.22 114.486 235.44 114.943C243.731 118.297 244.749 125.667 244.749 125.667C245.562 126.124 246.478 127.801 246.631 128.614C246.783 129.427 248.156 130.545 248.614 131.562C249.021 132.578 249.632 135.882 249.733 139.388C249.784 140.202 251.005 140.71 251.005 142.539C251.005 144.369 251.005 145.182 251.005 145.741C251.005 146.351 249.988 150.061 248.462 151.281C246.936 152.501 245.817 153.06 244.24 153.771Z" fill="#7395A5" stroke="black" stroke-width="2"/>
<path d="M81.7782 125.413V121.398C86.0509 120.788 86.6104 120.381 85.644 117.484C84.9318 115.35 83.762 112.351 82.7447 109.709H66.3154C65.7559 111.335 64.6877 114.13 63.9247 116.925C62.9583 120.076 64.1791 121.093 70.3337 121.398V125.413H49.0723V121.398C55.0743 120.737 55.8373 120.483 58.5331 113.927L75.2676 73.6248L80.8118 72.6084C86.1017 86.3812 91.3917 99.7474 96.7833 113.114C99.4791 119.873 100.344 120.737 106.295 121.398V125.413H81.7782ZM74.7081 87.1435C72.5209 92.8356 69.9776 99.0359 67.9939 104.779H81.1679L74.7081 87.1435Z" fill="white" stroke="#7395A5" stroke-width="1.6185"/>
<path d="M140.019 126.378C137.526 126.378 136.001 125.667 134.831 124.701C133.61 123.736 132.949 122.262 132.542 121.194C128.981 123.38 124.149 126.378 122.674 126.378C115.451 126.378 111.28 120.686 111.28 115.299C111.28 110.827 113.315 108.743 118.096 106.913C123.386 104.982 130.355 102.949 132.084 101.272V98.6803C132.084 94.9194 130.558 92.5308 126.692 92.5308C125.421 92.5308 124.2 93.0898 123.488 93.8522C122.318 95.1227 121.809 97.4097 121.25 99.3409C120.639 101.475 119.164 102.035 117.333 102.035C115.4 102.035 112.094 100.052 112.094 97.5622C112.094 95.6818 113.264 94.8178 114.993 93.5472C117.689 91.7176 123.996 88.7699 129.134 87.6519C132.593 87.6519 135.339 88.3634 137.933 90.193C141.748 92.8865 142.715 96.749 142.715 101.069V113.368C142.715 117.535 144.139 118.603 145.258 118.603C146.123 118.603 147.191 118.247 148.157 117.84L149.276 121.398L140.019 126.378ZM132.135 105.541C130.456 106.456 128.676 107.32 126.947 108.133C124.352 109.302 122.725 110.878 122.725 113.571C122.725 117.993 125.98 119.314 127.506 119.314C128.625 119.314 130.355 118.907 132.084 117.484C132.135 114.333 132.135 109.709 132.135 105.541Z" fill="white" stroke="#7395A5" stroke-width="1.6185"/>
<path d="M231.524 152.501C231.015 144.674 230.15 139.338 227.302 136.085C229.336 134.815 233.558 132.121 234.016 131.816C234.626 131.359 234.931 131.206 235.44 130.444C235.898 129.783 236.712 126.124 236.864 125.26C236.915 125.209 236.915 125.158 236.966 125.108C237.017 125.108 243.629 126.531 246.376 128.157C246.427 128.309 246.478 128.513 246.529 128.614C246.681 129.428 248.055 130.546 248.512 131.562C248.919 132.579 249.53 135.882 249.631 139.389C249.682 140.202 250.903 140.71 250.903 142.54C250.903 144.369 250.903 145.182 250.903 145.741C250.903 146.351 249.886 150.061 248.36 151.281C246.885 152.501 245.715 153.06 244.138 153.771C243.375 154.127 235.644 155.194 232.236 155.042C231.269 155.245 231.625 153.416 231.524 152.501Z" fill="#7E7E7D"/>
<path d="M40.2217 130.8C40.3743 130.8 41.1881 130.698 41.1881 130.698L65.8575 131.054L70.0793 135.882C67.18 137.61 63.8738 141.574 62.9582 151.078C59.2451 151.078 42.0528 149.604 41.239 149.553C40.4252 149.502 39.7639 149.502 39.7639 148.74C39.7639 147.978 39.6113 147.164 40.2217 146.859C40.8321 146.504 40.8321 146.504 40.8321 146.504C40.8321 146.504 38.0854 137.508 40.2217 130.8Z" fill="#7E7E7D"/>
<path d="M156.295 114.537C156.549 113.724 157.109 113.724 157.363 113.724C157.668 113.724 157.923 113.673 158.584 113.673C159.245 113.673 159.55 113.673 159.805 113.724C160.11 113.724 160.618 113.724 160.873 114.537C161.127 115.35 161.381 116.722 161.381 118.094C161.381 119.467 160.924 121.245 160.72 121.652C160.517 122.059 160.212 122.211 159.703 122.262C159.194 122.262 158.533 122.313 158.533 122.313C158.533 122.313 157.872 122.313 157.363 122.262C156.854 122.262 156.549 122.109 156.346 121.652C156.142 121.245 155.685 119.467 155.685 118.094C155.786 116.722 156.041 115.35 156.295 114.537Z" fill="#646363" stroke="black" stroke-width="0.814" stroke-linecap="round" stroke-linejoin="round"/>
<path d="M158.228 121.245C158.228 121.449 158.38 121.652 158.634 121.652C158.889 121.652 159.041 121.5 159.041 121.245C159.041 121.042 158.889 120.839 158.634 120.839C158.38 120.839 158.228 120.991 158.228 121.245Z" fill="#E3E3E3" stroke="black" stroke-width="0.814" stroke-linecap="round" stroke-linejoin="round"/>
<path d="M158.635 120.483C159.296 120.483 159.245 120.178 159.296 119.873C159.296 119.568 159.144 115.045 159.144 114.588C159.144 114.13 158.787 114.08 158.635 114.029C158.482 114.029 158.177 114.08 158.126 114.588C158.126 115.045 157.974 119.568 157.974 119.873C158.024 120.178 157.974 120.483 158.635 120.483Z" stroke="black" stroke-width="0.814" stroke-linecap="round" stroke-linejoin="round"/>
<path d="M158.635 121.855C159.754 121.855 159.601 120.788 159.601 120.483C159.906 120.381 160.364 120.534 160.618 119.721C161.025 118.043 160.822 116.57 160.669 115.553C160.517 114.537 159.55 114.587 159.55 114.587C159.55 114.587 159.347 114.587 159.296 114.486C159.245 114.181 159.245 113.876 158.991 113.876C158.736 113.876 158.635 113.876 158.635 113.876C158.635 113.876 158.533 113.876 158.279 113.876C158.024 113.876 158.024 114.13 157.973 114.486C157.923 114.638 157.719 114.587 157.719 114.587C157.719 114.587 156.803 114.537 156.6 115.553C156.447 116.57 156.193 118.043 156.651 119.721C156.854 120.584 157.312 120.381 157.668 120.483C157.668 120.788 157.465 121.855 158.635 121.855Z" stroke="black" stroke-width="0.814" stroke-linecap="round" stroke-linejoin="round"/>
<path d="M171.097 114.537C171.351 113.724 171.911 113.724 172.165 113.724C172.47 113.724 172.724 113.673 173.386 113.673C174.047 113.673 174.352 113.673 174.606 113.724C174.912 113.724 175.42 113.724 175.675 114.537C175.929 115.35 176.183 116.722 176.183 118.094C176.183 119.467 175.725 121.245 175.522 121.652C175.318 122.058 175.013 122.211 174.505 122.262C173.996 122.262 173.335 122.313 173.335 122.313C173.335 122.313 172.674 122.313 172.165 122.262C171.656 122.262 171.351 122.109 171.148 121.652C170.944 121.245 170.486 119.467 170.486 118.094C170.588 116.722 170.842 115.35 171.097 114.537Z" fill="#646363" stroke="black" stroke-width="0.814" stroke-linecap="round" stroke-linejoin="round"/>
<path d="M173.029 121.245C173.029 121.449 173.182 121.652 173.436 121.652C173.64 121.652 173.843 121.5 173.843 121.245C173.843 121.042 173.691 120.839 173.436 120.839C173.233 120.839 173.029 120.991 173.029 121.245Z" fill="#E3E3E3" stroke="black" stroke-width="0.814" stroke-linecap="round" stroke-linejoin="round"/>
<path d="M173.437 120.483C174.098 120.483 174.047 120.178 174.098 119.873C174.098 119.568 173.945 115.045 173.945 114.588C173.945 114.13 173.589 114.08 173.437 114.029C173.284 114.029 172.979 114.08 172.928 114.588C172.928 115.045 172.775 119.568 172.775 119.873C172.826 120.178 172.775 120.483 173.437 120.483Z" stroke="black" stroke-width="0.814" stroke-linecap="round" stroke-linejoin="round"/>
<path d="M173.436 121.855C174.555 121.855 174.403 120.788 174.403 120.483C174.708 120.381 175.166 120.534 175.42 119.721C175.827 118.043 175.624 116.57 175.471 115.553C175.318 114.537 174.352 114.587 174.352 114.587C174.352 114.587 174.148 114.587 174.098 114.486C174.047 114.181 174.047 113.876 173.792 113.876C173.538 113.876 173.436 113.876 173.436 113.876C173.436 113.876 173.335 113.876 173.08 113.876C172.826 113.876 172.826 114.13 172.775 114.486C172.724 114.638 172.521 114.587 172.521 114.587C172.521 114.587 171.605 114.537 171.402 115.553C171.249 116.57 170.995 118.043 171.453 119.721C171.656 120.584 172.114 120.381 172.47 120.483C172.47 120.788 172.266 121.855 173.436 121.855Z" stroke="black" stroke-width="0.814" stroke-linecap="round" stroke-linejoin="round"/>
<path d="M165.298 86.1778C165.806 86.1778 166.213 86.686 166.213 87.2959V112.3C166.213 112.91 165.806 113.418 165.298 113.418H164.229L164.484 86.127L165.298 86.1778Z" stroke="#C6C6C6" stroke-width="0.814" stroke-linecap="round" stroke-linejoin="round"/>
<path d="M235.694 153.873C235.542 133.29 228.065 131.105 224.809 129.682C222.876 128.818 206.345 126.429 199.733 130.647C197.342 132.172 195.257 135.323 194.036 139.948" stroke="#C6C6C6" stroke-width="0.814" stroke-linecap="round" stroke-linejoin="round"/>
<path d="M97.5459 139.592C97.5459 139.592 96.0199 128.665 79.2854 128.513C64.3821 128.36 61.788 136.543 61.1268 138.22L45.7656 137.508" stroke="#C6C6C6" stroke-width="0.814" stroke-linecap="round" stroke-linejoin="round"/>
<path d="M190.425 149.858C190.425 145.03 191.391 141.015 191.951 137.661C192.51 134.306 194.799 123.227 209.804 123.939C210.923 123.888 222.47 124.447 227.607 126.785C231.015 128.309 239.713 134.408 239.204 150.62" stroke="#C6C6C6" stroke-width="0.814" stroke-linecap="round" stroke-linejoin="round"/>
<path d="M174.148 85.4663C172.419 85.568 169.875 86.0254 170.079 89.278C170.333 92.5306 171.656 101.424 172.317 105.49C173.945 115.655 185.745 116.468 192.459 116.874C192.459 116.874 214.738 118.45 216.315 118.501C217.892 118.602 218.349 116.824 215.654 112.453C212.958 108.082 195.308 90.2944 192.612 88.5665C189.916 86.8385 186.05 85.7712 182.948 85.6188C180.404 85.5171 174.148 85.4663 174.148 85.4663Z" stroke="#C6C6C6" stroke-width="0.814" stroke-linecap="round" stroke-linejoin="round"/>
<path d="M164.23 113.469L49.9876 113.012C48.8686 113.012 48.6143 112.199 48.6143 111.335C48.6143 110.522 48.8686 87.4993 48.8686 86.4321C48.8686 85.3648 49.5298 85.314 49.9876 85.314C50.4454 85.314 164.433 86.1779 164.433 86.1779" stroke="#C6C6C6" stroke-width="0.814" stroke-linecap="round" stroke-linejoin="round"/>
<path d="M171.147 86.991C170.69 87.4992 170.486 88.2616 170.537 89.278C170.791 92.4798 172.215 101.475 173.487 105.389C176.692 114.994 187.068 114.384 193.375 114.791C193.579 114.791 211.076 115.451 212.653 115.502C215.857 115.553 214.382 112.605 213.416 111.132C208.736 105.135 194.799 90.5994 192.307 89.0239C189.866 87.4484 186.203 86.3303 182.897 86.1779C180.354 86.0254 174.148 86.0254 174.097 86.0254C172.673 86.0254 171.707 86.3303 171.147 86.991Z" fill="#7E7E7D"/>
<path d="M207.108 114.13C207.515 113.977 207.769 113.672 207.719 113.317C207.668 113.012 207.363 111.233 207.363 111.233L206.905 111.08L206.701 105.947C206.701 105.947 206.854 105.897 207.21 105.846C207.363 105.795 207.719 105.49 207.82 105.287C207.871 105.083 207.871 104.779 207.769 104.626C207.769 104.575 207.769 104.575 207.719 104.524C210.058 107.116 212.093 109.454 213.415 111.131C214.331 112.554 215.857 115.502 212.652 115.502C212.093 115.451 209.601 115.4 206.6 115.248C206.803 114.943 207.007 114.587 207.108 114.13Z" fill="#646363" stroke="black" stroke-width="0.814" stroke-linecap="round" stroke-linejoin="round"/>
<path d="M192.561 91.5648C193.731 92.4796 199.072 96.8503 202.988 100.713C202.988 101.17 202.785 109.861 202.785 109.861C202.785 112.758 201.361 114.079 199.224 113.977C196.02 113.876 193.935 113.774 193.935 113.774C193.935 113.774 190.476 93.801 190.272 92.4288C190.018 90.3451 191.188 90.5484 192.561 91.5648Z" fill="white"/>
<path d="M191.188 111.03C190.984 109.657 187.932 90.3451 187.729 89.3286C187.525 88.3122 187.118 87.4482 185.999 87.2449C184.88 87.0416 182.846 87.0416 182.846 87.0416C180.455 86.94 174.758 86.8892 174.097 86.8892C172.978 86.94 172.164 87.1941 171.808 87.6007C171.554 87.9056 171.452 88.3122 171.452 88.8712C171.452 88.9729 171.452 89.0745 171.452 89.1762C171.656 92.2255 173.08 101.221 174.351 105.033C176.742 112.3 183.507 113.063 189.509 113.571C192.256 113.825 191.391 112.504 191.391 112.148C191.391 111.843 191.188 111.03 191.188 111.03Z" fill="white"/>
<path d="M188.34 87.1436L193.375 114.74" stroke="black" stroke-width="0.814" stroke-linecap="round" stroke-linejoin="round"/>
<path d="M200.039 150.976C200.039 158.701 206.346 165.003 214.078 165.003C221.809 165.003 228.116 158.701 228.116 150.976C228.116 143.251 221.809 136.949 214.078 136.949C206.295 137 200.039 143.251 200.039 150.976Z" fill="black"/>
<path d="M205.481 150.976C205.481 155.703 209.347 159.565 214.078 159.565C218.808 159.565 222.674 155.703 222.674 150.976C222.674 146.25 218.808 142.387 214.078 142.387C209.296 142.438 205.481 146.25 205.481 150.976Z" fill="#E3E3E3"/>
<path d="M214.129 147.419C213.722 147.419 213.417 147.724 213.417 148.13C213.417 148.537 213.722 148.842 214.129 148.842C214.536 148.842 214.841 148.537 214.841 148.13C214.841 147.774 214.536 147.419 214.129 147.419Z" stroke="black" stroke-width="0.814" stroke-linecap="round" stroke-linejoin="round"/>
<path d="M210.67 149.807C210.517 150.163 210.721 150.57 211.128 150.722C211.484 150.875 211.891 150.671 212.043 150.265C212.196 149.909 211.992 149.502 211.585 149.35C211.229 149.248 210.822 149.452 210.67 149.807Z" stroke="black" stroke-width="0.814" stroke-linecap="round" stroke-linejoin="round"/>
<path d="M211.891 153.873C212.196 154.127 212.654 154.025 212.908 153.72C213.162 153.416 213.112 152.958 212.756 152.704C212.45 152.45 211.993 152.501 211.738 152.856C211.535 153.161 211.586 153.619 211.891 153.873Z" stroke="black" stroke-width="0.814" stroke-linecap="round" stroke-linejoin="round"/>
<path d="M216.112 153.924C216.418 153.721 216.519 153.263 216.316 152.958C216.112 152.653 215.655 152.552 215.349 152.755C215.044 152.958 214.942 153.416 215.146 153.721C215.349 154.076 215.756 154.178 216.112 153.924Z" stroke="black" stroke-width="0.814" stroke-linecap="round" stroke-linejoin="round"/>
<path d="M217.486 149.96C217.384 149.604 216.977 149.35 216.621 149.502C216.265 149.604 216.011 150.011 216.163 150.366C216.265 150.722 216.672 150.976 217.028 150.824C217.384 150.722 217.588 150.366 217.486 149.96Z" stroke="black" stroke-width="0.814" stroke-linecap="round" stroke-linejoin="round"/>
<path d="M207.16 150.976C207.16 154.788 210.263 157.837 214.027 157.837C217.842 157.837 220.894 154.737 220.894 150.976C220.894 147.165 217.791 144.115 214.027 144.115C210.263 144.115 207.16 147.215 207.16 150.976Z" stroke="black" stroke-width="0.814" stroke-linecap="round" stroke-linejoin="round"/>
<path d="M205.889 150.976C205.889 155.499 209.551 159.158 214.078 159.158C218.605 159.158 222.267 155.499 222.267 150.976C222.267 146.453 218.605 142.794 214.078 142.794C209.551 142.845 205.889 146.504 205.889 150.976Z" stroke="black" stroke-width="0.814" stroke-linecap="round" stroke-linejoin="round"/>
<path d="M214.79 145.132C214.79 145.386 214.434 145.538 214.027 145.538C213.62 145.538 213.264 145.335 213.264 145.132C213.264 144.878 213.62 144.725 214.027 144.725C214.484 144.725 214.79 144.878 214.79 145.132Z" fill="#646363" stroke="black" stroke-width="0.814" stroke-linecap="round" stroke-linejoin="round"/>
<path d="M211.179 145.792C211.332 145.996 211.179 146.351 210.823 146.555C210.467 146.809 210.111 146.86 209.958 146.656C209.806 146.453 209.958 146.097 210.314 145.894C210.67 145.691 211.077 145.64 211.179 145.792Z" fill="#646363" stroke="black" stroke-width="0.814" stroke-linecap="round" stroke-linejoin="round"/>
<path d="M208.686 148.486C208.889 148.537 208.991 148.943 208.838 149.299C208.737 149.706 208.431 149.96 208.228 149.858C208.025 149.807 207.923 149.401 208.075 149.045C208.177 148.638 208.482 148.384 208.686 148.486Z" fill="#646363" stroke="black" stroke-width="0.814" stroke-linecap="round" stroke-linejoin="round"/>
<path d="M208.228 152.094C208.431 152.043 208.737 152.297 208.838 152.653C208.94 153.06 208.889 153.415 208.686 153.466C208.482 153.517 208.177 153.263 208.075 152.907C207.923 152.552 208.025 152.196 208.228 152.094Z" fill="#646363" stroke="black" stroke-width="0.814" stroke-linecap="round" stroke-linejoin="round"/>
<path d="M210.009 155.296C210.162 155.093 210.518 155.144 210.874 155.398C211.23 155.652 211.382 156.008 211.23 156.16C211.077 156.363 210.721 156.313 210.365 156.058C210.009 155.855 209.857 155.499 210.009 155.296Z" fill="#646363" stroke="black" stroke-width="0.814" stroke-linecap="round" stroke-linejoin="round"/>
<path d="M213.314 156.871C213.314 156.617 213.671 156.465 214.077 156.465C214.484 156.465 214.84 156.668 214.84 156.871C214.84 157.126 214.484 157.278 214.077 157.278C213.62 157.278 213.314 157.126 213.314 156.871Z" fill="#646363" stroke="black" stroke-width="0.814" stroke-linecap="round" stroke-linejoin="round"/>
<path d="M216.926 156.211C216.774 156.008 216.926 155.652 217.282 155.449C217.638 155.194 217.994 155.144 218.147 155.347C218.299 155.55 218.147 155.906 217.791 156.109C217.435 156.312 217.028 156.363 216.926 156.211Z" fill="#646363" stroke="black" stroke-width="0.814" stroke-linecap="round" stroke-linejoin="round"/>
<path d="M219.418 153.517C219.215 153.466 219.113 153.06 219.266 152.704C219.418 152.297 219.673 152.043 219.876 152.145C220.08 152.196 220.181 152.602 220.029 152.958C219.927 153.314 219.622 153.619 219.418 153.517Z" fill="#646363" stroke="black" stroke-width="0.814" stroke-linecap="round" stroke-linejoin="round"/>
<path d="M219.876 149.909C219.673 149.96 219.367 149.706 219.266 149.35C219.164 148.943 219.215 148.588 219.418 148.537C219.622 148.486 219.927 148.74 220.029 149.096C220.181 149.452 220.08 149.807 219.876 149.909Z" fill="#646363" stroke="black" stroke-width="0.814" stroke-linecap="round" stroke-linejoin="round"/>
<path d="M218.096 146.656C217.943 146.859 217.587 146.809 217.231 146.555C216.875 146.3 216.723 145.945 216.875 145.792C217.028 145.589 217.384 145.64 217.74 145.894C218.096 146.148 218.249 146.504 218.096 146.656Z" fill="#646363" stroke="black" stroke-width="0.814" stroke-linecap="round" stroke-linejoin="round"/>
<path d="M218.605 150.976C218.605 153.466 216.57 155.55 214.078 155.55C211.585 155.55 209.5 153.517 209.5 150.976C209.5 148.486 211.535 146.402 214.078 146.402C216.57 146.453 218.605 148.486 218.605 150.976Z" stroke="black" stroke-width="0.814" stroke-linecap="round" stroke-linejoin="round"/>
<path d="M215.299 150.976C215.299 151.637 214.739 152.196 214.078 152.196C213.417 152.196 212.857 151.637 212.857 150.976C212.857 150.315 213.417 149.756 214.078 149.756C214.739 149.756 215.299 150.315 215.299 150.976Z" stroke="black" stroke-width="0.814" stroke-linecap="round" stroke-linejoin="round"/>
<path d="M65.1963 150.976C65.1963 158.701 71.5035 165.003 79.2349 165.003C86.9664 165.003 93.2736 158.701 93.2736 150.976C93.2736 143.251 86.9664 136.949 79.2349 136.949C71.5035 137 65.1963 143.251 65.1963 150.976Z" fill="black"/>
<path d="M70.6387 150.976C70.6387 155.703 74.5044 159.565 79.2348 159.565C83.9652 159.565 87.8309 155.703 87.8309 150.976C87.8309 146.25 83.9652 142.387 79.2348 142.387C74.5044 142.438 70.6387 146.25 70.6387 150.976Z" fill="#E3E3E3"/>
<path d="M79.3371 147.419C78.9302 147.419 78.625 147.724 78.625 148.13C78.625 148.537 78.9302 148.842 79.3371 148.842C79.744 148.842 80.0492 148.537 80.0492 148.13C79.9983 147.774 79.6932 147.419 79.3371 147.419Z" stroke="black" stroke-width="0.814" stroke-linecap="round" stroke-linejoin="round"/>
<path d="M75.8778 149.807C75.7252 150.163 75.9287 150.57 76.3356 150.722C76.6917 150.875 77.0986 150.671 77.2512 150.265C77.4038 149.909 77.2003 149.502 76.7934 149.35C76.3865 149.248 75.9795 149.452 75.8778 149.807Z" stroke="black" stroke-width="0.814" stroke-linecap="round" stroke-linejoin="round"/>
<path d="M77.0481 153.873C77.3533 154.127 77.8111 154.025 78.0654 153.72C78.3197 153.416 78.2689 152.958 77.9128 152.704C77.6076 152.45 77.1498 152.501 76.8955 152.856C76.6921 153.161 76.7429 153.619 77.0481 153.873Z" stroke="black" stroke-width="0.814" stroke-linecap="round" stroke-linejoin="round"/>
<path d="M81.2695 153.924C81.5747 153.721 81.6765 153.263 81.473 152.958C81.2695 152.653 80.8118 152.552 80.5066 152.755C80.2014 152.958 80.0997 153.416 80.3031 153.721C80.5066 154.076 80.9644 154.178 81.2695 153.924Z" stroke="black" stroke-width="0.814" stroke-linecap="round" stroke-linejoin="round"/>
<path d="M82.6938 149.96C82.5921 149.604 82.1852 149.35 81.8291 149.502C81.4731 149.604 81.2188 150.011 81.3713 150.366C81.4731 150.722 81.88 150.976 82.236 150.824C82.5921 150.722 82.7956 150.366 82.6938 149.96Z" stroke="black" stroke-width="0.814" stroke-linecap="round" stroke-linejoin="round"/>
<path d="M72.3682 150.976C72.3682 154.788 75.4709 157.837 79.2349 157.837C83.0497 157.837 86.1016 154.737 86.1016 150.976C86.1016 147.165 82.9989 144.115 79.2349 144.115C75.42 144.115 72.3682 147.215 72.3682 150.976Z" stroke="black" stroke-width="0.814" stroke-linecap="round" stroke-linejoin="round"/>
<path d="M71.0459 150.976C71.0459 155.499 74.7082 159.158 79.2351 159.158C83.7621 159.158 87.4243 155.499 87.4243 150.976C87.4243 146.453 83.7621 142.794 79.2351 142.794C74.7082 142.845 71.0459 146.504 71.0459 150.976Z" stroke="black" stroke-width="0.814" stroke-linecap="round" stroke-linejoin="round"/>
<path d="M79.9976 145.132C79.9976 145.386 79.6416 145.538 79.2346 145.538C78.8277 145.538 78.4717 145.335 78.4717 145.132C78.4717 144.878 78.8277 144.725 79.2346 144.725C79.6416 144.725 79.9976 144.878 79.9976 145.132Z" fill="#646363" stroke="black" stroke-width="0.814" stroke-linecap="round" stroke-linejoin="round"/>
<path d="M76.3871 145.792C76.5397 145.996 76.3871 146.351 76.031 146.555C75.675 146.809 75.3189 146.86 75.1663 146.656C75.0137 146.453 75.1663 146.097 75.5224 145.894C75.8784 145.691 76.2345 145.64 76.3871 145.792Z" fill="#646363" stroke="black" stroke-width="0.814" stroke-linecap="round" stroke-linejoin="round"/>
<path d="M73.8938 148.486C74.0973 148.537 74.199 148.943 74.0464 149.299C73.9447 149.706 73.6395 149.96 73.436 149.858C73.2326 149.807 73.1308 149.401 73.2834 149.045C73.3852 148.638 73.6395 148.384 73.8938 148.486Z" fill="#646363" stroke="black" stroke-width="0.814" stroke-linecap="round" stroke-linejoin="round"/>
<path d="M73.4367 152.094C73.6401 152.043 73.9453 152.297 74.0471 152.653C74.1488 153.06 74.0979 153.415 73.8945 153.466C73.691 153.517 73.3858 153.263 73.2841 152.907C73.1315 152.552 73.1823 152.196 73.4367 152.094Z" fill="#646363" stroke="black" stroke-width="0.814" stroke-linecap="round" stroke-linejoin="round"/>
<path d="M75.1662 155.296C75.3187 155.093 75.6748 155.144 76.0308 155.398C76.3869 155.652 76.5395 156.008 76.3869 156.16C76.2343 156.363 75.8783 156.313 75.5222 156.058C75.217 155.855 75.0644 155.499 75.1662 155.296Z" fill="#646363" stroke="black" stroke-width="0.814" stroke-linecap="round" stroke-linejoin="round"/>
<path d="M78.4717 156.871C78.4717 156.617 78.8277 156.465 79.2346 156.465C79.6416 156.465 79.9976 156.668 79.9976 156.871C79.9976 157.126 79.6416 157.278 79.2346 157.278C78.8277 157.278 78.4717 157.126 78.4717 156.871Z" fill="#646363" stroke="black" stroke-width="0.814" stroke-linecap="round" stroke-linejoin="round"/>
<path d="M82.0833 156.211C81.9307 156.008 82.0833 155.652 82.4394 155.449C82.7954 155.194 83.1515 155.144 83.3041 155.347C83.4567 155.55 83.3041 155.906 82.948 156.109C82.592 156.312 82.2359 156.363 82.0833 156.211Z" fill="#646363" stroke="black" stroke-width="0.814" stroke-linecap="round" stroke-linejoin="round"/>
<path d="M84.6265 153.517C84.423 153.466 84.3213 153.06 84.4739 152.704C84.5756 152.297 84.8808 152.043 85.0842 152.145C85.2877 152.196 85.3894 152.602 85.2368 152.958C85.0842 153.314 84.8299 153.619 84.6265 153.517Z" fill="#646363" stroke="black" stroke-width="0.814" stroke-linecap="round" stroke-linejoin="round"/>
<path d="M85.0841 149.909C84.8806 149.96 84.5754 149.706 84.4737 149.35C84.372 148.943 84.4228 148.588 84.6263 148.537C84.8298 148.486 85.135 148.74 85.2367 149.096C85.3384 149.452 85.2876 149.807 85.0841 149.909Z" fill="#646363" stroke="black" stroke-width="0.814" stroke-linecap="round" stroke-linejoin="round"/>
<path d="M83.3041 146.656C83.1515 146.859 82.7954 146.809 82.4394 146.555C82.0833 146.3 81.9307 145.945 82.0833 145.792C82.2359 145.589 82.592 145.64 82.948 145.894C83.2532 146.148 83.4567 146.504 83.3041 146.656Z" fill="#646363" stroke="black" stroke-width="0.814" stroke-linecap="round" stroke-linejoin="round"/>
<path d="M83.8128 150.976C83.8128 153.466 81.7782 155.55 79.2858 155.55C76.7935 155.55 74.708 153.517 74.708 150.976C74.708 148.486 76.7426 146.402 79.2858 146.402C81.7273 146.453 83.8128 148.486 83.8128 150.976Z" stroke="black" stroke-width="0.814" stroke-linecap="round" stroke-linejoin="round"/>
<path d="M80.4562 150.976C80.4562 151.637 79.8966 152.196 79.2354 152.196C78.5742 152.196 78.0146 151.637 78.0146 150.976C78.0146 150.315 78.5742 149.756 79.2354 149.756C79.8966 149.756 80.4562 150.315 80.4562 150.976Z" stroke="black" stroke-width="0.814" stroke-linecap="round" stroke-linejoin="round"/>
<path d="M207.058 96.5968C201.666 91.5654 195.512 85.8733 195.206 85.5175C195.054 85.3651 195.003 85.2634 195.003 85.2126C195.003 85.111 195.054 85.0601 195.156 84.9585C195.206 84.9077 195.868 84.6536 196.631 84.3486C199.886 87.3471 208.329 95.5803 214.637 101.73C218.146 105.135 220.537 107.473 221.809 108.692C220.435 108.489 219.316 108.133 219.265 108.083C219.113 107.778 214.535 103.509 207.058 96.5968Z" fill="#E3E3E3" stroke="black" stroke-width="0.814" stroke-linecap="round" stroke-linejoin="round"/>
<path d="M194.545 84.755C194.952 84.3484 196.326 83.9927 196.326 83.9927C196.427 84.0943 196.58 84.196 196.682 84.3484C195.919 84.6534 195.258 84.9075 195.207 84.9583C195.105 85.0599 195.054 85.1108 195.054 85.2124C195.054 85.2632 195.105 85.3649 195.258 85.5173C195.563 85.8223 201.717 91.5652 207.109 96.5966C214.586 103.559 219.113 107.777 219.418 108.082C219.469 108.133 220.588 108.489 221.962 108.692C222.521 109.2 222.826 109.556 222.979 109.658L223.03 109.709L221.86 109.607C221.605 109.556 219.367 109.353 218.808 108.743C218.248 108.133 195.156 86.7371 194.647 86.178C194.037 85.619 194.139 85.1616 194.545 84.755Z" fill="#7E7E7D"/>
<path d="M45.7656 130.749L45.8674 150.163" stroke="black" stroke-width="0.814" stroke-linecap="round" stroke-linejoin="round"/>
<path d="M94.6975 139.287C94.1889 139.287 94.0872 139.592 94.4432 140.812C95.2062 143.2 96.1218 145.03 96.4269 145.691C96.6813 146.301 97.0373 146.86 99.5297 146.86C102.022 146.86 182.032 147.165 183.812 147.165C185.593 147.165 186.457 146.86 186.966 145.742C187.526 144.217 188.339 141.625 188.492 140.71C188.695 139.592 188.492 139.389 187.373 139.389C183.049 139.44 165.349 139.389 94.6975 139.287Z" fill="#7E7E7D"/>
<path d="M94.4941 139.795L188.39 140.405" stroke="#C6C6C6" stroke-width="0.814" stroke-linecap="round" stroke-linejoin="round"/>
<path d="M53.1923 66.7637L52.6328 131.257" stroke="black" stroke-width="0.814" stroke-linecap="round" stroke-linejoin="round"/>
<path d="M164.535 67.0178L163.924 148.841L108.787 148.689L108.94 66.7637" stroke="black" stroke-width="0.814" stroke-linecap="round" stroke-linejoin="round"/>
<path d="M108.685 112.605L49.5293 112.3V109.302L108.685 109.607V112.605Z" fill="#646363" stroke="black" stroke-width="0.814" stroke-linecap="round" stroke-linejoin="round"/>
<path d="M51.208 112.3L105.989 112.605V109.607L51.208 109.302V112.3Z" fill="#E3E3E3" stroke="black" stroke-width="0.814" stroke-linecap="round" stroke-linejoin="round"/>
<path d="M105.989 111.69L51.208 111.385V110.521L105.989 110.776V111.69Z" fill="#7E7E7D"/>
<path d="M214.586 113.876L220.791 109.404" stroke="black" stroke-width="0.814" stroke-linecap="round" stroke-linejoin="round"/>
<path d="M167.332 83.4336C167.332 83.4336 167.841 112.707 168.044 116.925C168.248 121.144 169.621 126.836 169.926 128.716C170.231 130.597 172.419 144.115 173.029 146.402C173.639 148.689 174.351 149.045 178.217 149.045C182.032 149.045 192.357 149.045 193.375 149.045C194.392 149.045 194.545 148.842 194.545 147.927C194.545 146.25 195.969 138.525 199.631 134.002C202.174 130.901 206.193 130.241 209.651 130.393C209.651 129.478 209.753 106.049 209.753 106.049C209.753 106.049 209.753 104.626 208.939 103.61C207.719 102.085 206.345 100.916 206.345 100.916C204.972 99.6459 196.172 90.8028 194.901 89.6339C193.629 88.465 187.881 84.2468 181.676 83.891C180.557 83.7894 167.332 83.4336 167.332 83.4336Z" stroke="black" stroke-width="0.814" stroke-linecap="round" stroke-linejoin="round"/>
<path d="M45.1044 111.792C45.9182 113.368 46.4268 113.469 46.4268 117.332C46.4268 120.686 46.4777 128.716 46.5286 130.749L41.1878 130.698C41.1878 130.698 40.8826 119.212 40.9335 107.371C42.0016 108.336 44.4431 110.572 45.1044 111.792Z" fill="#C90C0F" stroke="black" stroke-width="0.814" stroke-linecap="round" stroke-linejoin="round"/>
<path d="M43.5277 122.109C43.4768 121.042 43.2225 115.248 43.2225 115.248L41.5439 115.35C41.5439 113.469 41.5439 111.538 41.5439 109.556C41.5439 109.302 41.5439 108.997 41.5439 108.743C43.1716 110.217 44.2906 111.487 44.6467 112.148L45.0536 112.859C45.6131 113.825 45.9183 114.384 45.9183 117.433C45.9183 117.433 46.02 129.173 46.02 130.291C45.2062 130.291 42.6121 130.24 41.7983 130.24C41.7983 129.376 41.7474 127.598 41.6965 125.209C43.4259 124.243 43.5785 123.125 43.5277 122.109Z" stroke="black" stroke-width="0.814" stroke-linecap="round" stroke-linejoin="round"/>
<path d="M44.0872 112.351L44.4941 113.062C45.0536 113.977 45.3079 114.435 45.3079 117.332C45.3079 117.332 45.3588 127.039 45.4096 129.58C44.6467 129.58 43.0699 129.529 42.3578 129.529C42.3578 128.716 42.3069 125.971 42.256 125.412C43.8328 124.548 44.138 123.43 44.138 122.363C44.138 122.261 44.138 122.16 44.138 122.058L43.8328 114.587C43.8328 114.587 42.6629 114.638 42.1543 114.689C42.1543 113.825 42.1543 110.826 42.1543 110.064C43.1207 111.08 43.8328 111.894 44.0872 112.351Z" stroke="black" stroke-width="0.814" stroke-linecap="round" stroke-linejoin="round"/>
<path d="M43.2225 115.248C43.2225 115.248 43.4768 121.093 43.5277 122.109C43.5785 123.125 43.4259 124.244 41.6457 125.057C41.5948 122.414 41.5439 119.009 41.5439 115.299L43.2225 115.248Z" fill="#E3E3E3" stroke="black" stroke-width="0.814" stroke-linecap="round" stroke-linejoin="round"/>
<path d="M93.2733 150.976C93.2733 143.251 86.9661 136.949 79.2347 136.949C71.5033 136.949 65.1961 143.251 65.1961 150.976V151.027H62.958C64.4331 135.069 72.724 134.611 74.6569 134.51C76.5389 134.459 82.6426 134.561 82.6426 134.561C92.9173 134.561 94.6467 144.725 94.545 151.179H93.2733C93.2733 151.129 93.2733 151.078 93.2733 150.976Z" fill="#504F4E"/>
<path d="M228.065 150.976C228.065 143.251 221.758 136.949 214.026 136.949C206.295 136.949 199.988 143.251 199.988 150.976C199.988 151.383 199.988 151.738 200.038 152.145L195.664 151.738C196.02 143.861 197.902 137.356 201.92 134.459C204.515 132.578 208.329 131.816 213.874 131.816C228.217 131.816 230.557 137.61 231.524 152.501C231.575 153.263 231.32 154.737 231.931 154.991L227.607 154.584C227.912 153.466 228.065 152.247 228.065 150.976Z" fill="#504F4E"/>
<path d="M236.915 125.26C236.915 125.209 236.915 125.159 236.915 125.159L236.966 125.108C237.017 125.159 236.966 125.209 236.915 125.26Z" fill="#8C8C8C" stroke="black" stroke-width="0.814" stroke-linecap="round" stroke-linejoin="round"/>
<path d="M225.063 117.383C225.623 117.992 229.133 121.042 230.913 122.719C232.693 124.345 234.066 124.498 236.966 125.158V125.209L237.017 125.158C237.017 125.158 236.05 124.955 234.372 123.634C232.693 122.312 231.574 120.737 231.065 119.873C230.709 119.263 230.455 118.653 230.353 118.196C230.302 117.637 231.015 117.84 231.015 117.84L233.507 118.196C235.491 118.653 237.017 119.263 238.746 120.076C240.17 120.737 241.238 122.922 241.696 123.989C241.696 123.989 241.849 124.396 242.052 125.006C242.815 125.209 243.375 125.412 243.375 125.412C243.171 125.26 243.019 125.108 243.019 124.853C242.357 122.312 241.391 121.601 239.356 119.72C238.237 118.704 234.982 117.738 231.93 117.078C229.489 116.519 227.149 116.163 226.233 116.061C224.25 115.807 224.504 116.773 225.063 117.383Z" fill="#7E7E7D"/>
<path d="M238.849 124.142C239.968 124.295 243.376 125.362 243.426 125.362C243.935 125.667 244.749 125.667 244.749 125.667C245.41 126.073 246.173 127.293 246.478 128.157C243.732 126.531 237.119 125.108 237.068 125.108C237.526 124.142 237.831 123.99 238.849 124.142Z" fill="#7E7E7D"/>
<path d="M230.507 118.602C230.456 118.45 230.405 118.297 230.354 118.145C230.303 117.586 231.015 117.789 231.015 117.789L233.508 118.145C235.491 118.602 237.017 119.212 238.747 120.025C240.171 120.686 241.239 122.871 241.697 123.938C241.697 123.938 241.85 124.345 242.053 124.955C240.985 124.65 239.51 124.193 238.798 124.142C237.73 123.989 237.475 124.142 236.967 125.107C236.967 125.107 236 124.904 234.322 123.583C232.643 122.261 231.524 120.686 231.015 119.822C230.812 119.364 230.659 118.958 230.507 118.602Z" fill="#D9D9D9" stroke="black" stroke-width="0.814" stroke-linecap="round" stroke-linejoin="round"/>
<path d="M233.863 118.755C234.881 118.958 236.864 119.517 237.678 120.839C238.085 121.499 238.238 122.312 238.39 123.278C236.712 122.821 236.05 122.312 235.644 121.906C235.186 121.499 234.423 119.975 233.863 118.755Z" fill="#E3E3E3" stroke="black" stroke-width="0.814" stroke-linecap="round" stroke-linejoin="round"/>
<path d="M247.901 138.321C247.901 138.321 247.444 135.78 247.088 135.018C246.732 134.256 246.376 133.595 244.544 133.442C242.713 133.29 240.73 132.934 239.865 132.782C239 132.68 238.441 132.68 239.153 134.611C239.865 136.543 240.526 140.405 243.629 141.066C246.782 141.777 250.648 141.879 250.648 141.879" stroke="black" stroke-width="0.814" stroke-linecap="round" stroke-linejoin="round"/>
<path d="M250.699 141.167C250.547 140.812 249.021 139.999 248.309 139.795C247.597 139.592 242.815 138.88 242.815 138.88C242.459 138.779 242.256 138.474 242.154 138.118C242.052 137.762 241.646 136.39 241.646 136.39" stroke="black" stroke-width="0.814" stroke-linecap="round" stroke-linejoin="round"/>
<path d="M249.479 147.927C249.479 147.927 249.275 146.859 247.19 146.809C245.105 146.758 245.257 146.758 244.596 146.758C243.935 146.758 243.019 146.605 242.561 147.825C242.053 149.35 242.002 149.248 241.697 150.62C241.544 151.281 241.493 151.789 243.629 151.789C244.24 151.789 245.918 151.789 246.63 151.789C247.343 151.789 248.258 151.332 248.462 150.976" stroke="black" stroke-width="0.814" stroke-linecap="round" stroke-linejoin="round"/>
<path d="M225.42 111.843L226.285 116.061" stroke="black" stroke-width="0.814" stroke-linecap="round" stroke-linejoin="round"/>
<path d="M206.854 103.966C206.854 103.966 206.803 103.356 206.803 102.847C206.803 102.339 206.549 100.916 203.293 100.662C202.022 100.611 201.462 101.12 201.208 102.746C200.903 104.372 200.852 104.88 200.852 104.88L201.004 105.846L200.445 111.894L200.14 112.961C200.14 112.961 200.089 114.435 200.191 114.943C200.292 115.451 200.038 116.824 202.581 116.671C205.124 116.468 206.752 115.96 207.159 114.181C207.566 114.028 207.82 113.723 207.769 113.368C207.719 113.063 207.413 111.284 207.413 111.284L206.956 111.131L206.752 105.998C206.752 105.998 206.905 105.948 207.261 105.897C207.413 105.846 207.769 105.541 207.871 105.338C207.922 105.134 207.922 104.83 207.82 104.677C207.668 104.372 207.566 103.966 206.854 103.966Z" fill="#646363" stroke="black" stroke-width="0.814" stroke-linecap="round" stroke-linejoin="round"/>
<path d="M206.854 103.966C206.854 103.966 205.379 103.559 205.379 105.541C205.379 107.523 205.226 112.25 205.277 112.656C205.328 113.063 205.074 114.384 206.243 114.282C206.599 114.232 207.057 114.181 207.057 114.181" stroke="black" stroke-width="0.814" stroke-linecap="round" stroke-linejoin="round"/>
<path d="M207.82 104.88C207.82 104.88 207.006 104.88 206.803 104.931C206.549 104.982 206.142 104.931 206.142 106.202C206.142 107.472 206.091 112.199 206.091 112.402C206.091 112.605 206.243 113.063 206.803 113.063C207.413 113.063 207.668 112.961 207.668 112.961" stroke="black" stroke-width="0.814" stroke-linecap="round" stroke-linejoin="round"/>
<path d="M206.65 105.948H206.091" stroke="black" stroke-width="0.814" stroke-linecap="round" stroke-linejoin="round"/>
<path d="M207.362 111.233C207.362 111.233 206.549 111.691 206.091 111.335" stroke="black" stroke-width="0.814" stroke-linecap="round" stroke-linejoin="round"/>
<path d="M200.801 104.779C200.801 104.779 203.242 104.83 204.056 104.982C204.87 105.135 205.379 105.287 205.379 107.218" stroke="black" stroke-width="0.814" stroke-linecap="round" stroke-linejoin="round"/>
<path d="M205.328 110.217C205.328 110.217 205.582 112.504 203.853 112.707C202.174 112.961 200.547 112.961 200.089 112.86" stroke="black" stroke-width="0.814" stroke-linecap="round" stroke-linejoin="round"/>
<path d="M201.361 105.795C201.361 105.795 202.531 105.846 203.599 105.897C204.668 105.948 204.668 106.558 204.668 106.812C204.668 106.863 204.668 106.914 204.668 107.015L201.311 106.913C201.311 106.253 201.361 105.795 201.361 105.795Z" fill="#E3E3E3" stroke="black" stroke-width="0.814" stroke-linecap="round" stroke-linejoin="round"/>
<path d="M204.565 110.979C204.413 111.945 203.752 111.894 203.497 111.894C203.192 111.894 201.361 111.894 200.954 111.894C200.954 111.792 200.954 111.386 201.005 110.877L204.565 110.979Z" fill="#E3E3E3" stroke="black" stroke-width="0.814" stroke-linecap="round" stroke-linejoin="round"/>
<path d="M204.667 107.015C204.667 107.676 204.616 109.455 204.616 110.624C204.616 110.776 204.616 110.878 204.616 110.979L202.734 110.928L202.785 106.964L204.667 107.015Z" fill="#E3E3E3" stroke="black" stroke-width="0.814" stroke-linecap="round" stroke-linejoin="round"/>
<path d="M201.259 106.863L202.734 106.914L202.683 110.878L201.005 110.827C201.056 109.76 201.208 108.032 201.259 106.863Z" fill="#E3E3E3" stroke="black" stroke-width="0.814" stroke-linecap="round" stroke-linejoin="round"/>
<path d="M242.612 147.825C242.612 147.825 243.884 149.858 242.816 151.738" stroke="black" stroke-width="0.814" stroke-linecap="round" stroke-linejoin="round"/>
<path d="M240.171 135.984C240.171 135.984 244.037 136.238 244.85 136.238C245.715 136.238 246.326 136.543 246.834 137.508C247.343 138.474 248.004 139.694 248.258 139.795" stroke="black" stroke-width="0.814" stroke-linecap="round" stroke-linejoin="round"/>
<path d="M250.191 140.71C250.191 140.71 243.477 140.049 242.409 139.541C241.341 138.982 240.171 136.238 239.764 134.713C239.56 134.103 239.916 133.798 241.544 133.951C243.172 134.103 246.173 134.611 246.173 134.611" stroke="black" stroke-width="0.814" stroke-linecap="round" stroke-linejoin="round"/>
<path d="M241.188 136.441L241.137 136.695C241.137 136.746 241.086 136.746 241.036 136.746L240.425 136.644C240.374 136.492 240.323 136.339 240.222 136.187L241.086 136.339C241.137 136.339 241.188 136.39 241.188 136.441Z" fill="#404040" stroke="black" stroke-width="0.814" stroke-linecap="round" stroke-linejoin="round"/>
<path d="M241.595 137.356L241.544 137.61C241.544 137.661 241.494 137.661 241.443 137.661L240.832 137.559C240.731 137.407 240.68 137.254 240.629 137.102L241.544 137.254C241.595 137.254 241.595 137.305 241.595 137.356Z" fill="#404040" stroke="black" stroke-width="0.814" stroke-linecap="round" stroke-linejoin="round"/>
<path d="M242.103 138.22L242.053 138.474C242.053 138.525 242.002 138.525 241.951 138.525L241.29 138.423C241.188 138.271 241.086 138.118 240.984 137.966L241.951 138.118C242.103 138.169 242.103 138.169 242.103 138.22Z" fill="#404040" stroke="black" stroke-width="0.814" stroke-linecap="round" stroke-linejoin="round"/>
<path d="M232.795 117.942C233.05 117.992 233.304 118.043 233.558 118.094C234.118 119.263 235.135 121.397 235.644 121.855C236.254 122.465 237.475 123.329 241.748 123.888C241.9 124.294 242.104 124.904 242.104 124.904C242.104 124.904 239.713 124.243 236.966 123.583C234.22 122.973 232.541 119.822 232.033 118.907C231.524 118.043 231.931 117.789 232.795 117.942Z" stroke="black" stroke-width="0.814" stroke-linecap="round" stroke-linejoin="round"/>
<path d="M194.596 86.1271C190.679 82.2138 175.827 69.5082 167.383 69.5082C162.551 69.5082 52.6328 68.441 48.7671 68.3901C46.0712 68.3901 45.3083 69.6607 45.1557 71.4903L43.1211 109.353" stroke="#C6C6C6" stroke-width="0.814" stroke-linecap="round" stroke-linejoin="round"/>
<path d="M167.333 83.4337L41.9004 82.6714" stroke="black" stroke-width="0.814" stroke-linecap="round" stroke-linejoin="round"/>
<path d="M121.605 79.0121C121.605 79.0121 125.878 79.622 139.052 77.8432C152.226 76.1153 160.771 69.0002 172.419 75.2005C184.067 81.4008 194.291 85.4157 206.244 80.0286L231.575 48.9254C231.575 48.9254 215.553 54.6683 207.567 51.4665C199.581 48.2647 193.019 40.3873 181.27 41.4546C169.52 42.5218 162.552 49.7894 156.193 45.0121L121.605 79.0121Z" fill="url(#paint7_linear_132_1567)"/>
<path d="M194.901 82.8744C187.628 82.8744 180.608 79.9267 172.267 75.4544C169.164 73.7773 166.061 73.0149 162.755 73.0149C158.737 73.0149 154.82 74.1838 150.649 75.4036C147.089 76.4708 143.376 77.5889 139.103 78.148C131.321 79.1644 126.59 79.4185 124.047 79.4185C122.318 79.4185 121.605 79.3169 121.605 79.3169C121.504 79.3169 121.402 79.2152 121.351 79.1136C121.3 79.0119 121.351 78.8595 121.402 78.8086L155.99 44.8595C156.092 44.7578 156.244 44.7578 156.397 44.8086C157.77 45.8251 159.296 46.3333 161.026 46.3333C163.416 46.3333 166.061 45.3677 169.113 44.3004C172.572 43.0299 176.539 41.6069 181.27 41.2003C182.033 41.1495 182.745 41.0986 183.457 41.0986C190.476 41.0986 195.512 44.2496 200.446 47.2481C202.887 48.7728 205.227 50.1958 207.719 51.2122C209.296 51.8221 211.28 52.1779 213.721 52.1779C221.656 52.1779 231.422 48.722 231.524 48.6711C231.626 48.6203 231.778 48.6711 231.88 48.7728C231.982 48.8744 231.931 49.0269 231.88 49.1285L206.549 80.2317C206.499 80.2825 206.499 80.2825 206.448 80.3333C202.531 82.0104 198.767 82.8744 194.901 82.8744ZM162.704 72.4051C166.112 72.4051 169.317 73.2182 172.521 74.9462C180.761 79.3169 187.73 82.2645 194.901 82.2645C198.665 82.2645 202.328 81.4514 206.041 79.7743L230.659 49.5351C227.963 50.3991 220.232 52.7369 213.671 52.7369C211.178 52.7369 209.093 52.3811 207.465 51.7713C204.922 50.7548 202.582 49.3318 200.141 47.7563C195.308 44.7578 190.324 41.6577 183.457 41.6577C182.745 41.6577 182.033 41.7085 181.321 41.7593C176.641 42.1659 172.775 43.5889 169.317 44.8595C166.214 45.9776 163.518 46.9432 161.026 46.9432C159.245 46.9432 157.669 46.435 156.244 45.4185L122.267 78.7578C122.674 78.7578 123.233 78.8086 123.996 78.8086C126.539 78.8086 131.219 78.6054 138.95 77.5381C143.172 76.9791 146.834 75.9118 150.395 74.8445C154.668 73.574 158.635 72.4051 162.704 72.4051Z" fill="url(#paint8_linear_132_1567)"/>
<path opacity="0.5" d="M146.427 62.6978C151.463 57.2598 156.855 52.1268 161.789 46.638C159.805 46.7905 157.974 46.3839 156.193 45.0625L121.605 79.0117C121.605 79.0117 124.352 79.4183 132.134 78.6559C137.068 73.4721 141.544 67.9325 146.427 62.6978Z" fill="#CBCAC9"/>
<path opacity="0.5" d="M197.852 81.9594C195.156 81.8069 192.104 81.5528 189.459 80.8921C187.729 80.4347 187.119 79.3675 188.34 77.1821C189.103 75.8099 207.109 54.0581 210.568 53.6515C217.078 52.8383 224.149 52.4826 230.1 49.4332C226.031 50.7546 214.077 54.1089 207.516 51.5169C203.955 50.0939 200.649 47.7053 197.038 45.6216C197.038 45.6724 197.089 45.6724 197.139 45.7232C198.208 47.0446 198.818 48.7726 198.157 50.4497C197.445 52.1268 196.224 53.4482 195.156 54.922C193.935 56.5483 192.612 58.1238 191.392 59.7501C189.357 62.3421 187.475 64.9848 185.542 67.6276C183.915 69.8129 182.185 72.2015 179.795 73.6754C177.251 75.3017 174.962 75.1492 172.216 74.0311C169.571 72.9639 166.722 72.354 163.925 72.7606C166.621 72.9131 169.418 73.6246 172.419 75.2001C182.083 80.3331 190.781 83.9923 200.293 82.0102C199.479 82.0102 198.665 82.0102 197.852 81.9594Z" fill="#CBCAC9"/>
<path d="M158.736 41.0985C159.346 35.1014 154.921 29.7651 148.919 29.1553C145.613 28.8503 142.459 30.0192 140.221 32.2046L140.17 32.2554C140.119 32.3062 140.069 32.3571 140.018 32.4079L112.551 60.5633L127.81 76.1657L155.43 47.8578C157.21 46.1298 158.431 43.792 158.736 41.0985Z" fill="url(#paint9_linear_132_1567)"/>
<path d="M127.811 76.4708C127.709 76.4708 127.658 76.42 127.607 76.3691L112.348 60.7667C112.246 60.6651 112.246 60.4618 112.348 60.3602L139.967 32.0522L140.018 32.0014C142.409 29.7144 145.613 28.5455 148.919 28.8505C151.92 29.1554 154.616 30.5784 156.498 32.8654C158.38 35.2032 159.296 38.1001 158.991 41.0986C158.736 43.7413 157.566 46.1808 155.634 48.0104C155.634 48.0104 155.634 48.0104 155.634 48.0612L128.014 76.3691C128.014 76.42 127.912 76.4708 127.811 76.4708ZM113.009 60.5635L127.862 75.7593L155.227 47.7055C155.227 47.7055 155.227 47.6546 155.278 47.6546C157.109 45.9267 158.228 43.5889 158.482 41.0478C158.736 38.2017 157.923 35.4573 156.142 33.272C154.362 31.0866 151.819 29.7144 148.97 29.4603C145.868 29.1554 142.765 30.2226 140.527 32.408C140.527 32.408 140.527 32.408 140.476 32.408L140.323 32.5605L113.009 60.5635Z" fill="url(#paint10_linear_132_1567)"/>
<path opacity="0.5" d="M158.736 41.0985C159.346 35.1015 154.921 29.7652 148.919 29.1553C148.207 29.1045 147.495 29.1045 146.783 29.1553C148.665 29.3078 150.496 29.8668 152.022 31.0357C154.158 32.7129 155.531 34.9998 154.667 37.7442C153.649 40.9969 150.852 43.538 148.512 45.8758C145.562 48.8235 142.459 51.6187 139.509 54.5155C137.678 56.2943 135.643 59.0387 132.948 59.4961C131.472 59.7502 130.353 59.242 129.031 58.6321C127.505 57.9206 125.928 57.3108 124.25 57.0058C120.638 56.396 117.332 57.0566 114.433 58.6321L112.551 60.5634L127.81 76.1658L155.43 47.8578C157.21 46.1299 158.431 43.7921 158.736 41.0985Z" fill="#CBCAC9"/>
<path d="M131.32 69.2033C130.71 75.2003 125.369 79.571 119.367 79.012C113.365 78.4021 108.991 73.0658 109.55 67.0688C110.161 61.0717 115.501 56.701 121.503 57.2601C127.505 57.8699 131.88 63.2063 131.32 69.2033Z" fill="white"/>
<path d="M120.435 79.3677C120.079 79.3677 119.672 79.3677 119.316 79.3169C116.315 79.0119 113.62 77.5889 111.738 75.2511C109.856 72.9133 108.94 70.0164 109.245 67.0179C109.805 61.2242 114.586 56.9043 120.385 56.9043C120.741 56.9043 121.148 56.9043 121.504 56.9551C124.505 57.2601 127.2 58.6831 129.082 60.9701C130.964 63.3079 131.88 66.2047 131.575 69.2032C131.015 74.997 126.234 79.3677 120.435 79.3677ZM120.435 57.5142C114.942 57.5142 110.415 61.6308 109.906 67.0687C109.652 69.8639 110.466 72.6592 112.246 74.8445C114.027 77.0299 116.57 78.4021 119.418 78.6562C119.774 78.707 120.13 78.707 120.486 78.707C125.98 78.707 130.507 74.5904 131.015 69.1524C131.27 66.3572 130.456 63.562 128.676 61.3766C126.895 59.1913 124.352 57.8191 121.504 57.565C121.097 57.565 120.792 57.5142 120.435 57.5142Z" fill="#5C2F10"/>
<path d="M125.877 69.2033C125.572 72.4051 122.673 74.7937 119.469 74.4888C116.264 74.1838 113.873 71.287 114.179 68.0852C114.484 64.8834 117.383 62.4947 120.588 62.7997C123.843 63.1046 126.183 65.9507 125.877 69.2033Z" fill="#7E7E7D"/>
<path d="M124.708 69.0506C124.454 71.6425 122.165 73.5229 119.571 73.2688C116.977 73.0147 115.095 70.7277 115.349 68.1358C115.604 65.5438 117.892 63.6634 120.487 63.9175C123.081 64.1716 124.963 66.5095 124.708 69.0506Z" fill="#504F4E"/>
<path d="M120.029 73.6247C119.876 73.6247 119.724 73.6247 119.52 73.6247C116.773 73.3706 114.739 70.8803 115.044 68.1359C115.298 65.3916 117.74 63.3587 120.537 63.6636C121.86 63.8161 123.081 64.4259 123.894 65.4424C124.759 66.4588 125.115 67.7802 125.013 69.1016C124.759 71.6935 122.623 73.6247 120.029 73.6247ZM120.029 64.2226C117.74 64.2226 115.858 65.9506 115.654 68.1868C115.4 70.5754 117.18 72.7608 119.622 73.0149C122.063 73.269 124.2 71.4902 124.454 69.0507C124.556 67.8818 124.2 66.7637 123.488 65.8489C122.725 64.9341 121.707 64.3751 120.537 64.2735C120.283 64.2226 120.181 64.2226 120.029 64.2226Z" fill="black"/>
<path d="M120.435 77.5888C120.13 77.5888 119.825 77.5888 119.52 77.538C114.382 77.0297 110.618 72.4557 111.127 67.3227C111.585 62.4946 115.603 58.8862 120.435 58.8862C120.741 58.8862 121.046 58.8862 121.351 58.9371C123.843 59.1912 126.081 60.3601 127.658 62.2913C129.235 64.2226 129.998 66.662 129.744 69.1523C129.286 73.9804 125.267 77.5888 120.435 77.5888ZM120.435 59.4961C115.908 59.4961 112.195 62.9012 111.737 67.3735C111.28 72.1508 114.789 76.4707 119.571 76.9281C119.876 76.9789 120.13 76.9789 120.435 76.9789C124.962 76.9789 128.675 73.5738 129.133 69.1015C129.337 66.7637 128.675 64.5275 127.2 62.6979C125.725 60.8683 123.64 59.7502 121.3 59.5469C120.995 59.4961 120.69 59.4961 120.435 59.4961Z" fill="#504F4E"/>
<path d="M120.435 76.3688C120.181 76.3688 119.926 76.3688 119.621 76.318C115.145 75.8606 111.89 71.8965 112.348 67.4749C112.805 63.0534 116.671 59.75 121.198 60.2074C123.334 60.4107 125.318 61.4779 126.691 63.1042C128.065 64.7814 128.726 66.8651 128.523 69.0504C128.116 73.2178 124.606 76.3688 120.435 76.3688ZM120.435 60.7156C116.569 60.7156 113.365 63.6125 112.958 67.4749C112.551 71.5915 115.603 75.2507 119.723 75.6573C123.894 76.0639 127.505 73.0146 127.912 68.898C128.116 66.9159 127.505 64.9338 126.234 63.4092C124.962 61.8845 123.182 60.9189 121.147 60.7156C120.893 60.7664 120.639 60.7156 120.435 60.7156Z" fill="#504F4E"/>
<path d="M175.623 169.933C175.369 169.729 175.013 169.577 174.707 169.577C174.351 169.577 173.944 169.729 173.69 169.983L165.959 177.708C165.399 178.267 165.399 179.182 165.959 179.741C166.264 180.046 166.62 180.148 166.976 180.148C167.332 180.148 167.739 179.995 167.993 179.741L175.725 172.016C176.335 171.457 176.284 170.441 175.623 169.933Z" fill="#1E1E1C"/>
<path d="M175.623 169.933C175.369 169.729 175.013 169.577 174.707 169.577C174.351 169.577 173.944 169.729 173.69 169.983L165.959 177.708C165.399 178.267 165.399 179.182 165.959 179.741C166.264 180.046 166.62 180.148 166.976 180.148C167.332 180.148 167.739 179.995 167.993 179.741L175.725 172.016C176.335 171.457 176.284 170.441 175.623 169.933Z" fill="#1E1E1C"/>
<path d="M186.915 158.701C186.355 158.142 182.846 155.194 178.522 159.463C174.25 163.732 149.428 188.534 149.428 188.534L149.886 190.261L151.005 194.683L155.379 195.903L157.057 196.36C157.057 196.36 183.914 169.577 187.169 166.324C190.425 163.072 187.475 159.26 186.915 158.701ZM179.184 169.119L158.329 189.957L158.024 190.261L155.989 189.804L155.481 187.619L155.735 187.365L176.589 166.528C177.302 165.816 178.471 165.816 179.184 166.528C179.54 166.883 179.743 167.341 179.743 167.798C179.743 168.306 179.54 168.764 179.184 169.119ZM183.151 164.444C182.185 164.444 181.422 163.682 181.422 162.716C181.422 161.75 182.185 160.988 183.151 160.988C184.117 160.988 184.88 161.75 184.88 162.716C184.88 163.682 184.117 164.444 183.151 164.444Z" fill="#7395A5" stroke="black" stroke-width="1.501" stroke-miterlimit="10"/>
<path d="M149.53 201.493C149.53 201.544 149.581 201.595 149.632 201.646L146.275 205L143.833 196.309L147.19 192.955L149.53 201.493Z" fill="#7E7E7D"/>
<path d="M154.565 196.716L149.886 201.392L147.444 192.701L149.072 191.075L150.038 194.886C150.14 195.242 150.394 195.547 150.751 195.649L154.565 196.716Z" fill="#1E1E1C"/>
<path d="M154.565 196.716L149.886 201.392L147.444 192.701L149.072 191.075L150.038 194.886C150.14 195.242 150.394 195.547 150.751 195.649L154.565 196.716Z" fill="#1E1E1C"/>
<path d="M154.565 196.716L149.886 201.392L147.444 192.701L149.072 191.075L150.038 194.886C150.14 195.242 150.394 195.547 150.751 195.649L154.565 196.716Z" fill="#7E7E7D"/>
<path d="M175.725 172.016L167.993 179.741C167.688 180.046 167.332 180.148 166.976 180.148C166.62 180.148 166.213 179.995 165.959 179.741C165.399 179.182 165.399 178.267 165.959 177.708L173.69 169.983C173.944 169.729 174.351 169.577 174.707 169.577C175.013 169.577 175.369 169.679 175.623 169.933C176.284 170.441 176.335 171.457 175.725 172.016Z" fill="#1E1E1C"/>
<path d="M179.183 166.528C178.471 165.816 177.301 165.816 176.589 166.528L155.735 187.365L155.48 187.619L155.989 189.804L158.024 190.261L158.329 189.957L179.183 169.119C179.539 168.764 179.743 168.306 179.743 167.849C179.743 167.341 179.539 166.883 179.183 166.528ZM175.725 172.016L167.993 179.741C167.688 180.046 167.332 180.148 166.976 180.148C166.62 180.148 166.213 179.995 165.959 179.741C165.399 179.182 165.399 178.267 165.959 177.708L173.69 169.983C173.944 169.729 174.351 169.577 174.707 169.577C175.012 169.577 175.369 169.678 175.623 169.933C176.284 170.441 176.335 171.457 175.725 172.016Z" fill="#1E1E1C"/>
<path d="M175.725 172.016L167.993 179.741C167.688 180.046 167.332 180.148 166.976 180.148C166.62 180.148 166.213 179.995 165.959 179.741C165.399 179.182 165.399 178.267 165.959 177.708L173.69 169.983C173.944 169.729 174.351 169.577 174.707 169.577C175.013 169.577 175.369 169.679 175.623 169.933C176.284 170.441 176.335 171.457 175.725 172.016Z" fill="#7E7E7D"/>
<path d="M37.2713 86.9912L2.27637 121.957" stroke="#504F4E" stroke-width="4" stroke-miterlimit="10" stroke-linecap="round"/>
<defs>
<linearGradient id="paint0_linear_132_1567" x1="138.55" y1="141.137" x2="231.034" y2="163.858" gradientUnits="userSpaceOnUse">
<stop stop-color="#B51C29"/>
<stop offset="1" stop-color="#6C0F3A"/>
</linearGradient>
<linearGradient id="paint1_linear_132_1567" x1="18.2825" y1="141.188" x2="117.649" y2="141.188" gradientUnits="userSpaceOnUse">
<stop stop-color="#B51C29"/>
<stop offset="1" stop-color="#6C0F3A"/>
</linearGradient>
<linearGradient id="paint2_linear_132_1567" x1="53.6951" y1="56.2509" x2="103.792" y2="48.8304" gradientUnits="userSpaceOnUse">
<stop stop-color="#B51C29"/>
<stop offset="1" stop-color="#6C0F3A"/>
</linearGradient>
<linearGradient id="paint3_linear_132_1567" x1="221.878" y1="169.427" x2="228.191" y2="169.427" gradientUnits="userSpaceOnUse">
<stop stop-color="#B51C29"/>
<stop offset="1" stop-color="#6C0F3A"/>
</linearGradient>
<linearGradient id="paint4_linear_132_1567" x1="208.861" y1="173.387" x2="216.787" y2="173.387" gradientUnits="userSpaceOnUse">
<stop stop-color="#B51C29"/>
<stop offset="1" stop-color="#6C0F3A"/>
</linearGradient>
<linearGradient id="paint5_linear_132_1567" x1="103.126" y1="36.2589" x2="111.051" y2="36.2589" gradientUnits="userSpaceOnUse">
<stop stop-color="#B51C29"/>
<stop offset="1" stop-color="#6C0F3A"/>
</linearGradient>
<linearGradient id="paint6_linear_132_1567" x1="55.8647" y1="186.058" x2="70.0516" y2="186.058" gradientUnits="userSpaceOnUse">
<stop stop-color="#B51C29"/>
<stop offset="1" stop-color="#6C0F3A"/>
</linearGradient>
<linearGradient id="paint7_linear_132_1567" x1="121.604" y1="61.9834" x2="231.533" y2="61.9834" gradientUnits="userSpaceOnUse">
<stop stop-color="#B51C29"/>
<stop offset="1" stop-color="#6C0F3A"/>
</linearGradient>
<linearGradient id="paint8_linear_132_1567" x1="121.302" y1="61.9835" x2="231.834" y2="61.9835" gradientUnits="userSpaceOnUse">
<stop stop-color="#B51C29"/>
<stop offset="1" stop-color="#6C0F3A"/>
</linearGradient>
<linearGradient id="paint9_linear_132_1567" x1="112.577" y1="52.647" x2="158.764" y2="52.647" gradientUnits="userSpaceOnUse">
<stop stop-color="#B51C29"/>
<stop offset="1" stop-color="#6C0F3A"/>
</linearGradient>
<linearGradient id="paint10_linear_132_1567" x1="112.275" y1="52.6464" x2="159.067" y2="52.6464" gradientUnits="userSpaceOnUse">
<stop stop-color="#B51C29"/>
<stop offset="1" stop-color="#6C0F3A"/>
</linearGradient>
</defs>
</svg>
