<svg width="173" height="61" viewBox="0 0 173 61" fill="none" xmlns="http://www.w3.org/2000/svg">
<g id="Bergerat Rent">
<g id="g4">
<path id="path2" opacity="0.983" fill-rule="evenodd" clip-rule="evenodd" d="M24.8108 0.399902C25.0319 0.51369 25.244 0.650234 25.4471 0.809536C32.2948 7.12091 39.1425 13.4324 45.9901 19.7437C43.4602 22.5201 40.9301 25.2966 38.4001 28.073C38.3048 28.1655 38.1987 28.1807 38.082 28.1185C36.567 26.7227 35.0521 25.3269 33.5371 23.9311C34.6885 22.6567 35.8398 21.3823 36.9912 20.1079C33.1265 16.5257 29.2482 12.9604 25.3562 9.41185C17.1157 18.3471 8.88943 27.2984 0.677308 36.2656C0.616679 33.1403 0.616679 30.0149 0.677308 26.8896C8.77608 18.0969 16.8206 9.26702 24.8108 0.399902Z" fill="#1777BC"/>
</g>
<g id="g8">
<path id="path6" opacity="0.98" fill-rule="evenodd" clip-rule="evenodd" d="M59.3496 1.40125C63.0787 1.36056 66.8055 1.40607 70.5301 1.53779C73.2307 1.81534 74.8214 3.28702 75.3023 5.95274C75.6386 7.66765 75.4259 9.30618 74.666 10.8683C73.9215 12.0688 72.8462 12.7819 71.4391 13.0075C73.6088 13.2995 74.9878 14.4981 75.575 16.6032C75.8349 18.0548 75.8658 19.5113 75.6659 20.9727C75.0541 23.4892 73.4634 24.9609 70.8937 25.3876C70.3819 25.4755 69.8666 25.5363 69.3484 25.5697C66.0156 25.6152 62.6827 25.6304 59.3496 25.6152C59.3496 17.5438 59.3496 9.47259 59.3496 1.40125ZM64.5308 5.2245C65.7735 5.2093 67.0157 5.2245 68.2576 5.27001C69.6938 5.74892 70.421 6.75025 70.4392 8.274C70.4701 9.78773 69.7729 10.7587 68.3485 11.187C67.0763 11.2325 65.8038 11.2477 64.5308 11.2325C64.5308 9.22981 64.5308 7.22715 64.5308 5.2245ZM64.5308 15.0557C65.7735 15.0405 67.0157 15.0557 68.2576 15.1012C69.2957 15.2029 70.0084 15.734 70.3938 16.6943C70.9046 18.1227 70.7837 19.4881 70.0302 20.7906C69.5629 21.3355 68.9723 21.6541 68.2576 21.7464C67.0157 21.7919 65.7735 21.8071 64.5308 21.7919C64.5308 19.5465 64.5308 17.3012 64.5308 15.0557Z" fill="#1777BC"/>
</g>
<g id="g12">
<path id="path10" opacity="0.979" fill-rule="evenodd" clip-rule="evenodd" d="M170.066 3.85925C170.247 5.43425 170.307 7.04238 170.248 8.68383C171.066 8.68383 171.884 8.68383 172.702 8.68383C172.702 9.65485 172.702 10.6258 172.702 11.5968C171.884 11.5968 171.066 11.5968 170.248 11.5968C170.233 14.9954 170.248 18.3938 170.293 21.7921C170.36 22.1923 170.587 22.4503 170.975 22.5659C171.518 22.7258 172.063 22.7409 172.611 22.6114C172.611 23.6127 172.611 24.614 172.611 25.6154C171.153 25.8584 169.699 25.8432 168.248 25.5699C166.68 25.0918 165.756 24.0449 165.476 22.4293C165.43 18.8186 165.415 15.2078 165.43 11.5968C164.794 11.5968 164.158 11.5968 163.521 11.5968C163.521 10.6258 163.521 9.65485 163.521 8.68383C164.158 8.68383 164.794 8.68383 165.43 8.68383C165.4 7.77153 165.43 6.86123 165.521 5.95294C167.045 5.25055 168.559 4.55272 170.066 3.85925Z" fill="#1777BC"/>
</g>
<g id="g16">
<path id="path14" opacity="0.98" fill-rule="evenodd" clip-rule="evenodd" d="M83.9855 8.31953C85.4944 8.2255 86.9787 8.36204 88.4395 8.72917C90.542 9.58467 91.7391 11.1474 92.03 13.4172C92.219 14.8978 92.2945 16.3846 92.2572 17.8777C89.2276 17.8777 86.197 17.8777 83.1674 17.8777C83.191 18.9484 83.2974 20.0103 83.4855 21.0637C84.0273 22.8989 85.0881 23.2933 86.667 22.2471C87.1233 21.4946 87.3205 20.6754 87.2578 19.7893C88.894 19.7893 90.5301 19.7893 92.1663 19.7893C92.1518 22.6895 90.7883 24.6163 88.0759 25.5697C86.2961 26.0685 84.5081 26.0989 82.7129 25.6607C80.804 25.145 79.5469 23.9464 78.9406 22.065C78.6879 21.141 78.5361 20.2004 78.4861 19.2431C78.4252 17.7259 78.4252 16.2088 78.4861 14.6916C78.5079 10.9555 80.3404 8.83148 83.9855 8.31953ZM84.8035 11.3235C86.1316 11.1305 86.9651 11.6767 87.3032 12.9621C87.4187 13.6855 87.4641 14.4137 87.4396 15.1468C86.0152 15.1468 84.5917 15.1468 83.1674 15.1468C83.1883 14.3152 83.2946 13.4959 83.4855 12.689C83.7019 12.0024 84.1409 11.5473 84.8035 11.3235Z" fill="#1777BC"/>
</g>
<g id="g20">
<path id="path18" opacity="0.98" fill-rule="evenodd" clip-rule="evenodd" d="M102.801 8.31946C103.164 8.31946 103.528 8.31946 103.892 8.31946C103.892 9.74562 103.892 11.1717 103.892 12.5979C102.615 12.4192 101.465 12.7075 100.437 13.4626C100.158 13.7628 99.962 14.1118 99.8465 14.5095C99.712 18.207 99.6666 21.9089 99.7102 25.6151C98.104 25.6151 96.4988 25.6151 94.8926 25.6151C94.8926 19.9713 94.8926 14.3274 94.8926 8.68358C96.4079 8.68358 97.9222 8.68358 99.4375 8.68358C99.422 9.35183 99.4375 10.0193 99.4829 10.6862C100.153 9.28128 101.259 8.49241 102.801 8.31946Z" fill="#1777BC"/>
</g>
<g id="g24">
<path id="path22" opacity="0.98" fill-rule="evenodd" clip-rule="evenodd" d="M109.527 8.31968C111.232 8.05442 112.671 8.53989 113.845 9.77616C113.989 9.9737 114.11 10.1862 114.208 10.4134C114.254 9.83761 114.269 9.26111 114.254 8.6838C115.799 8.6838 117.344 8.6838 118.89 8.6838C118.905 14.6311 118.89 20.5785 118.844 26.5256C118.872 29.3497 117.524 31.1247 114.799 31.8509C112.946 32.1693 111.098 32.139 109.254 31.7599C106.917 31.0407 105.736 29.4477 105.709 26.9808C107.285 26.9808 108.861 26.9808 110.436 26.9808C110.414 28.9177 111.323 29.6309 113.163 29.12C113.714 28.5901 114.001 27.9377 114.027 27.1629C114.087 25.9492 114.087 24.7354 114.027 23.5217C112.861 25.0949 111.301 25.6866 109.345 25.2967C107.476 24.9419 106.309 23.8343 105.846 21.9742C105.708 21.4667 105.617 20.9508 105.573 20.4266C105.512 18.1812 105.512 15.9359 105.573 13.6904C105.606 11.859 106.287 10.3267 107.618 9.09344C108.21 8.69928 108.846 8.4413 109.527 8.31968ZM111.618 11.3237C112.769 11.1645 113.482 11.65 113.754 12.7801C114.045 14.6808 114.136 16.5924 114.027 18.515C114.007 19.4392 113.886 20.3495 113.663 21.2459C113.209 22.2992 112.437 22.6178 111.345 22.2017C110.59 21.5522 110.211 20.7179 110.209 19.6984C110.118 17.5087 110.179 15.324 110.391 13.1443C110.488 12.6998 110.64 12.2749 110.845 11.8698C111.056 11.6063 111.314 11.4243 111.618 11.3237Z" fill="#1777BC"/>
</g>
<g id="g28">
<path id="path26" opacity="0.979" fill-rule="evenodd" clip-rule="evenodd" d="M127.162 8.31953C128.671 8.2255 130.155 8.36204 131.616 8.72917C133.719 9.58467 134.916 11.1474 135.207 13.4172C135.396 14.8978 135.471 16.3846 135.434 17.8777C132.404 17.8777 129.374 17.8777 126.344 17.8777C126.368 18.9484 126.474 20.0103 126.662 21.0637C126.932 22.4041 127.735 22.9654 129.071 22.7478C129.746 22.4748 130.155 21.9742 130.298 21.2458C130.406 20.7663 130.452 20.2808 130.435 19.7893C132.071 19.7893 133.707 19.7893 135.343 19.7893C135.329 22.6895 133.965 24.6163 131.253 25.5697C129.473 26.0685 127.685 26.0989 125.89 25.6607C123.981 25.145 122.724 23.9464 122.117 22.065C121.865 21.141 121.713 20.2004 121.663 19.2431C121.602 17.7259 121.602 16.2088 121.663 14.6916C121.685 10.9555 123.517 8.83148 127.162 8.31953ZM127.98 11.3235C129.308 11.1305 130.142 11.6767 130.48 12.9621C130.595 13.6855 130.641 14.4137 130.616 15.1468C129.192 15.1468 127.769 15.1468 126.344 15.1468C126.365 14.3152 126.471 13.4959 126.662 12.689C126.879 12.0024 127.318 11.5473 127.98 11.3235Z" fill="#1777BC"/>
</g>
<g id="g32">
<path id="path30" opacity="0.98" fill-rule="evenodd" clip-rule="evenodd" d="M145.978 8.31958C146.342 8.31958 146.706 8.31958 147.069 8.31958C147.069 9.74574 147.069 11.1718 147.069 12.598C145.793 12.4193 144.642 12.7076 143.615 13.4628C143.379 13.7902 143.182 14.1391 143.024 14.5096C142.89 18.2071 142.844 21.9091 142.888 25.6152C141.282 25.6152 139.676 25.6152 138.07 25.6152C138.07 19.9714 138.07 14.3275 138.07 8.6837C139.586 8.6837 141.1 8.6837 142.615 8.6837C142.6 9.35195 142.615 10.0195 142.661 10.6864C143.331 9.2814 144.437 8.49254 145.978 8.31958Z" fill="#1777BC"/>
</g>
<g id="g36">
<path id="path34" opacity="0.981" fill-rule="evenodd" clip-rule="evenodd" d="M153.704 8.31948C155.461 8.20077 157.188 8.36763 158.885 8.82014C160.622 9.43741 161.577 10.6663 161.749 12.5068C161.779 15.8446 161.809 19.1823 161.839 22.5201C161.896 23.5538 161.972 24.5854 162.067 25.6151C160.582 25.6151 159.097 25.6151 157.613 25.6151C157.562 24.8848 157.485 24.1566 157.385 23.4304C156.112 25.4849 154.279 26.289 151.886 25.8427C149.925 25.3045 148.819 24.0149 148.568 21.9739C148.356 20.5193 148.477 19.0931 148.932 17.6955C149.781 16.0583 151.13 15.1329 152.977 14.9191C154.366 14.7526 155.759 14.6767 157.158 14.6916C157.209 13.7383 157.133 12.7977 156.931 11.8696C156.707 11.4464 156.359 11.1885 155.886 11.0959C155.196 10.9467 154.575 11.0832 154.022 11.5055C153.687 12.1267 153.52 12.7943 153.522 13.5082C151.978 13.5991 150.433 13.6295 148.886 13.5992C148.731 11.4661 149.58 9.90349 151.432 8.91117C152.175 8.61605 152.933 8.41888 153.704 8.31948ZM156.795 17.4225C156.915 17.4225 157.037 17.4225 157.158 17.4225C157.174 18.3333 157.158 19.2436 157.113 20.1534C157.084 21.1545 156.705 21.989 155.977 22.6567C155.225 23.1048 154.498 23.0745 153.795 22.5656C153.318 21.9037 153.106 21.1602 153.159 20.3354C153.14 19.6625 153.276 19.0253 153.568 18.4238C153.803 18.1268 154.091 17.8993 154.431 17.7411C155.222 17.5716 156.01 17.4653 156.795 17.4225Z" fill="#1777BC"/>
</g>
<g id="g40">
<path id="path38" opacity="0.983" fill-rule="evenodd" clip-rule="evenodd" d="M26.719 19.1521C26.9401 19.2659 27.1522 19.4024 27.3553 19.5617C32.3878 24.1467 37.3872 28.7588 42.3535 33.3983C34.7647 41.7871 27.1747 50.1771 19.5835 58.568C19.5228 55.4123 19.5228 52.2566 19.5835 49.1009C24.2041 43.988 28.8248 38.8753 33.4455 33.7624C31.37 31.866 29.2944 29.9694 27.2189 28.073C24.7367 30.9078 22.2067 33.6994 19.6289 36.4478C19.5228 33.3229 19.5078 30.1975 19.5835 27.0717C21.9808 24.4436 24.3593 21.8037 26.719 19.1521Z" fill="#1777BC"/>
</g>
<g id="g44">
<path id="path42" opacity="0.982" fill-rule="evenodd" clip-rule="evenodd" d="M59.4434 37.6312C65.0502 37.591 70.6557 37.6365 76.2596 37.7677C79.5583 38.0673 81.4817 39.8424 82.0316 43.093C82.3007 44.9722 82.028 46.7625 81.2135 48.4637C79.9837 50.1801 78.302 51.1056 76.1687 51.2401C75.1988 51.2704 74.2298 51.3008 73.2599 51.3312C76.8013 54.301 80.3164 57.305 83.8041 60.3431C81.4408 60.4038 79.0774 60.4038 76.714 60.3431C73.199 57.3391 69.6849 54.3351 66.1698 51.3312C63.9279 51.2856 61.6857 51.2704 59.4434 51.2856C59.4434 49.7685 59.4434 48.2513 59.4434 46.7342C64.4731 46.7494 69.5031 46.7342 74.5325 46.6886C75.5996 46.6972 76.4932 46.3179 77.214 45.5508C77.8221 43.992 77.3222 42.9754 75.7142 42.5013C75.356 42.4109 74.9924 42.3502 74.6234 42.3192C69.5631 42.2737 64.5035 42.2585 59.4434 42.2737C59.4434 40.7262 59.4434 39.1787 59.4434 37.6312Z" fill="#1777BC"/>
</g>
<g id="g48">
<path id="path46" opacity="0.979" fill-rule="evenodd" clip-rule="evenodd" d="M89.6201 37.6311C97.1647 37.6311 104.709 37.6311 112.254 37.6311C112.254 39.1786 112.254 40.7261 112.254 42.2736C104.709 42.2736 97.1647 42.2736 89.6201 42.2736C89.6201 40.7261 89.6201 39.1786 89.6201 37.6311Z" fill="#1777BC"/>
</g>
<g id="g52">
<path id="path50" opacity="0.983" fill-rule="evenodd" clip-rule="evenodd" d="M119.797 37.6312C121.374 37.6009 122.949 37.6312 124.524 37.7223C128.946 42.9243 133.384 48.113 137.84 53.2884C137.886 48.0694 137.901 42.8503 137.886 37.6312C139.401 37.6312 140.915 37.6312 142.431 37.6312C142.431 45.217 142.431 52.8029 142.431 60.3887C140.853 60.419 139.278 60.3887 137.704 60.2977C133.313 55.1259 128.904 49.9675 124.478 44.8226C124.433 50.0112 124.417 55.1999 124.433 60.3887C122.887 60.3887 121.342 60.3887 119.797 60.3887C119.797 52.8029 119.797 45.217 119.797 37.6312Z" fill="#1777BC"/>
</g>
<g id="g56">
<path id="path54" opacity="0.979" fill-rule="evenodd" clip-rule="evenodd" d="M149.979 37.6311C157.523 37.6311 165.068 37.6311 172.612 37.6311C172.612 39.1786 172.612 40.7261 172.612 42.2736C169.613 42.2736 166.613 42.2736 163.613 42.2736C163.613 48.3119 163.613 54.3503 163.613 60.3886C162.068 60.3886 160.523 60.3886 158.977 60.3886C158.977 54.3503 158.977 48.3119 158.977 42.2736C155.978 42.2736 152.978 42.2736 149.979 42.2736C149.979 40.7261 149.979 39.1786 149.979 37.6311Z" fill="#1777BC"/>
</g>
<g id="g60">
<path id="path58" opacity="0.994" fill-rule="evenodd" clip-rule="evenodd" d="M89.6201 46.7341C97.1647 46.7341 104.709 46.7341 112.254 46.7341C112.254 48.2513 112.254 49.7684 112.254 51.2856C104.709 51.2856 97.1647 51.2856 89.6201 51.2856C89.6201 49.7684 89.6201 48.2513 89.6201 46.7341Z" fill="#1777BC"/>
</g>
<g id="g64">
<path id="path62" opacity="0.979" fill-rule="evenodd" clip-rule="evenodd" d="M89.6201 55.7462C97.1647 55.7462 104.709 55.7462 112.254 55.7462C112.254 57.2937 112.254 58.8412 112.254 60.3887C104.709 60.3887 97.1647 60.3887 89.6201 60.3887C89.6201 58.8412 89.6201 57.2937 89.6201 55.7462Z" fill="#1777BC"/>
</g>
</g>
</svg>
